<svg width="890" height="164" viewBox="0 0 1440 264" fill="none" xmlns="http://www.w3.org/2000/svg">
<rect width="1640" height="264" fill="#00629B"/>
<path d="M91.75 92.625H75.3125L72.1875 102H62.2188L79.1562 56.5H87.8438L104.875 102H94.9062L91.75 92.625ZM77.8438 85.0312H89.2188L83.5 68L77.8438 85.0312ZM109.125 102V56.5H125.062C130.583 56.5 134.771 57.5625 137.625 59.6875C140.479 61.7917 141.906 64.8854 141.906 68.9688C141.906 71.1979 141.333 73.1667 140.188 74.875C139.042 76.5625 137.448 77.8021 135.406 78.5938C137.74 79.1771 139.573 80.3542 140.906 82.125C142.26 83.8958 142.938 86.0625 142.938 88.625C142.938 93 141.542 96.3125 138.75 98.5625C135.958 100.812 131.979 101.958 126.812 102H109.125ZM118.5 82.1875V94.4688H126.531C128.74 94.4688 130.458 93.9479 131.688 92.9062C132.938 91.8438 133.562 90.3854 133.562 88.5312C133.562 84.3646 131.406 82.25 127.094 82.1875H118.5ZM118.5 75.5625H125.438C130.167 75.4792 132.531 73.5938 132.531 69.9062C132.531 67.8438 131.927 66.3646 130.719 65.4688C129.531 64.5521 127.646 64.0938 125.062 64.0938H118.5V75.5625ZM187.375 80.2812C187.375 84.7604 186.583 88.6875 185 92.0625C183.417 95.4375 181.146 98.0417 178.188 99.875C175.25 101.708 171.875 102.625 168.062 102.625C164.292 102.625 160.927 101.719 157.969 99.9062C155.01 98.0938 152.719 95.5104 151.094 92.1562C149.469 88.7812 148.646 84.9062 148.625 80.5312V78.2812C148.625 73.8021 149.427 69.8646 151.031 66.4688C152.656 63.0521 154.938 60.4375 157.875 58.625C160.833 56.7917 164.208 55.875 168 55.875C171.792 55.875 175.156 56.7917 178.094 58.625C181.052 60.4375 183.333 63.0521 184.938 66.4688C186.562 69.8646 187.375 73.7917 187.375 78.25V80.2812ZM177.875 78.2188C177.875 73.4479 177.021 69.8229 175.312 67.3438C173.604 64.8646 171.167 63.625 168 63.625C164.854 63.625 162.427 64.8542 160.719 67.3125C159.01 69.75 158.146 73.3333 158.125 78.0625V80.2812C158.125 84.9271 158.979 88.5312 160.688 91.0938C162.396 93.6562 164.854 94.9375 168.062 94.9375C171.208 94.9375 173.625 93.7083 175.312 91.25C177 88.7708 177.854 85.1667 177.875 80.4375V78.2188ZM228.625 56.5V86.4688C228.625 91.4479 227.062 95.3854 223.938 98.2812C220.833 101.177 216.583 102.625 211.188 102.625C205.875 102.625 201.656 101.219 198.531 98.4062C195.406 95.5938 193.812 91.7292 193.75 86.8125V56.5H203.125V86.5312C203.125 89.5104 203.833 91.6875 205.25 93.0625C206.688 94.4167 208.667 95.0938 211.188 95.0938C216.458 95.0938 219.135 92.3229 219.219 86.7812V56.5H228.625ZM270.562 64.0938H256.625V102H247.25V64.0938H233.5V56.5H270.562V64.0938ZM64.8281 160.773H70.2188V162H63.3203V150.625H64.8281V160.773ZM75.2109 162.156C74.0651 162.156 73.1328 161.781 72.4141 161.031C71.6953 160.276 71.3359 159.268 71.3359 158.008V157.742C71.3359 156.904 71.4948 156.156 71.8125 155.5C72.1354 154.839 72.5833 154.323 73.1562 153.953C73.7344 153.578 74.3594 153.391 75.0312 153.391C76.1302 153.391 76.9844 153.753 77.5938 154.477C78.2031 155.201 78.5078 156.237 78.5078 157.586V158.188H72.7812C72.8021 159.021 73.0443 159.695 73.5078 160.211C73.9766 160.721 74.5703 160.977 75.2891 160.977C75.7995 160.977 76.2318 160.872 76.5859 160.664C76.9401 160.456 77.25 160.18 77.5156 159.836L78.3984 160.523C77.6901 161.612 76.6276 162.156 75.2109 162.156ZM75.0312 154.578C74.4479 154.578 73.9583 154.792 73.5625 155.219C73.1667 155.641 72.9219 156.234 72.8281 157H77.0625V156.891C77.0208 156.156 76.8229 155.589 76.4688 155.188C76.1146 154.781 75.6354 154.578 75.0312 154.578ZM85.4062 162C85.3229 161.833 85.2552 161.536 85.2031 161.109C84.5312 161.807 83.7292 162.156 82.7969 162.156C81.9635 162.156 81.2786 161.922 80.7422 161.453C80.2109 160.979 79.9453 160.38 79.9453 159.656C79.9453 158.776 80.2786 158.094 80.9453 157.609C81.6172 157.12 82.5599 156.875 83.7734 156.875H85.1797V156.211C85.1797 155.706 85.0286 155.305 84.7266 155.008C84.4245 154.706 83.9792 154.555 83.3906 154.555C82.875 154.555 82.4427 154.685 82.0938 154.945C81.7448 155.206 81.5703 155.521 81.5703 155.891H80.1172C80.1172 155.469 80.2656 155.062 80.5625 154.672C80.8646 154.276 81.2708 153.964 81.7812 153.734C82.2969 153.505 82.862 153.391 83.4766 153.391C84.4505 153.391 85.2135 153.635 85.7656 154.125C86.3177 154.609 86.6042 155.279 86.625 156.133V160.023C86.625 160.799 86.724 161.417 86.9219 161.875V162H85.4062ZM83.0078 160.898C83.4609 160.898 83.8906 160.781 84.2969 160.547C84.7031 160.312 84.9974 160.008 85.1797 159.633V157.898H84.0469C82.276 157.898 81.3906 158.417 81.3906 159.453C81.3906 159.906 81.5417 160.26 81.8438 160.516C82.1458 160.771 82.5339 160.898 83.0078 160.898ZM92.9766 154.844C92.7578 154.807 92.5208 154.789 92.2656 154.789C91.3177 154.789 90.6745 155.193 90.3359 156V162H88.8906V153.547H90.2969L90.3203 154.523C90.7943 153.768 91.4661 153.391 92.3359 153.391C92.6172 153.391 92.8307 153.427 92.9766 153.5V154.844ZM95.6797 153.547L95.7266 154.609C96.3724 153.797 97.2161 153.391 98.2578 153.391C100.044 153.391 100.945 154.398 100.961 156.414V162H99.5156V156.406C99.5104 155.797 99.3698 155.346 99.0938 155.055C98.8229 154.763 98.3984 154.617 97.8203 154.617C97.3516 154.617 96.9401 154.742 96.5859 154.992C96.2318 155.242 95.9557 155.57 95.7578 155.977V162H94.3125V153.547H95.6797ZM112.328 162C112.245 161.833 112.177 161.536 112.125 161.109C111.453 161.807 110.651 162.156 109.719 162.156C108.885 162.156 108.201 161.922 107.664 161.453C107.133 160.979 106.867 160.38 106.867 159.656C106.867 158.776 107.201 158.094 107.867 157.609C108.539 157.12 109.482 156.875 110.695 156.875H112.102V156.211C112.102 155.706 111.951 155.305 111.648 155.008C111.346 154.706 110.901 154.555 110.312 154.555C109.797 154.555 109.365 154.685 109.016 154.945C108.667 155.206 108.492 155.521 108.492 155.891H107.039C107.039 155.469 107.188 155.062 107.484 154.672C107.786 154.276 108.193 153.964 108.703 153.734C109.219 153.505 109.784 153.391 110.398 153.391C111.372 153.391 112.135 153.635 112.688 154.125C113.24 154.609 113.526 155.279 113.547 156.133V160.023C113.547 160.799 113.646 161.417 113.844 161.875V162H112.328ZM109.93 160.898C110.383 160.898 110.812 160.781 111.219 160.547C111.625 160.312 111.919 160.008 112.102 159.633V157.898H110.969C109.198 157.898 108.312 158.417 108.312 159.453C108.312 159.906 108.464 160.26 108.766 160.516C109.068 160.771 109.456 160.898 109.93 160.898ZM122.969 157.867C122.969 159.159 122.672 160.198 122.078 160.984C121.484 161.766 120.688 162.156 119.688 162.156C118.62 162.156 117.794 161.779 117.211 161.023L117.141 162H115.812V150H117.258V154.477C117.841 153.753 118.646 153.391 119.672 153.391C120.698 153.391 121.503 153.779 122.086 154.555C122.674 155.331 122.969 156.393 122.969 157.742V157.867ZM121.523 157.703C121.523 156.719 121.333 155.958 120.953 155.422C120.573 154.885 120.026 154.617 119.312 154.617C118.359 154.617 117.674 155.06 117.258 155.945V159.602C117.701 160.487 118.391 160.93 119.328 160.93C120.021 160.93 120.56 160.661 120.945 160.125C121.331 159.589 121.523 158.781 121.523 157.703ZM124.414 157.695C124.414 156.867 124.576 156.122 124.898 155.461C125.227 154.799 125.68 154.289 126.258 153.93C126.841 153.57 127.505 153.391 128.25 153.391C129.401 153.391 130.331 153.789 131.039 154.586C131.753 155.383 132.109 156.443 132.109 157.766V157.867C132.109 158.69 131.951 159.43 131.633 160.086C131.32 160.737 130.87 161.245 130.281 161.609C129.698 161.974 129.026 162.156 128.266 162.156C127.12 162.156 126.19 161.758 125.477 160.961C124.768 160.164 124.414 159.109 124.414 157.797V157.695ZM125.867 157.867C125.867 158.805 126.083 159.557 126.516 160.125C126.953 160.693 127.536 160.977 128.266 160.977C129 160.977 129.583 160.69 130.016 160.117C130.448 159.539 130.664 158.732 130.664 157.695C130.664 156.768 130.443 156.018 130 155.445C129.562 154.867 128.979 154.578 128.25 154.578C127.536 154.578 126.961 154.862 126.523 155.43C126.086 155.997 125.867 156.81 125.867 157.867ZM139.141 161.164C138.578 161.826 137.753 162.156 136.664 162.156C135.763 162.156 135.076 161.896 134.602 161.375C134.133 160.849 133.896 160.073 133.891 159.047V153.547H135.336V159.008C135.336 160.289 135.857 160.93 136.898 160.93C138.003 160.93 138.737 160.518 139.102 159.695V153.547H140.547V162H139.172L139.141 161.164ZM144.711 151.5V153.547H146.289V154.664H144.711V159.906C144.711 160.245 144.781 160.5 144.922 160.672C145.062 160.839 145.302 160.922 145.641 160.922C145.807 160.922 146.036 160.891 146.328 160.828V162C145.948 162.104 145.578 162.156 145.219 162.156C144.573 162.156 144.086 161.961 143.758 161.57C143.43 161.18 143.266 160.625 143.266 159.906V154.664H141.727V153.547H143.266V151.5H144.711ZM160.547 158.391C160.406 159.594 159.961 160.523 159.211 161.18C158.466 161.831 157.474 162.156 156.234 162.156C154.891 162.156 153.812 161.674 153 160.711C152.193 159.747 151.789 158.458 151.789 156.844V155.75C151.789 154.693 151.977 153.763 152.352 152.961C152.732 152.159 153.268 151.544 153.961 151.117C154.654 150.685 155.456 150.469 156.367 150.469C157.576 150.469 158.544 150.807 159.273 151.484C160.003 152.156 160.427 153.089 160.547 154.281H159.039C158.909 153.375 158.625 152.719 158.188 152.312C157.755 151.906 157.148 151.703 156.367 151.703C155.409 151.703 154.656 152.057 154.109 152.766C153.568 153.474 153.297 154.482 153.297 155.789V156.891C153.297 158.125 153.555 159.107 154.07 159.836C154.586 160.565 155.307 160.93 156.234 160.93C157.068 160.93 157.706 160.742 158.148 160.367C158.596 159.987 158.893 159.328 159.039 158.391H160.547ZM168.883 159.031H164.117L163.047 162H161.5L165.844 150.625H167.156L171.508 162H169.969L168.883 159.031ZM164.57 157.797H168.438L166.5 152.477L164.57 157.797ZM174.539 157.547V162H173.039V150.625H177.234C178.479 150.625 179.453 150.943 180.156 151.578C180.865 152.214 181.219 153.055 181.219 154.102C181.219 155.206 180.872 156.057 180.18 156.656C179.492 157.25 178.505 157.547 177.219 157.547H174.539ZM174.539 156.32H177.234C178.036 156.32 178.651 156.133 179.078 155.758C179.505 155.378 179.719 154.831 179.719 154.117C179.719 153.44 179.505 152.898 179.078 152.492C178.651 152.086 178.065 151.875 177.32 151.859H174.539V156.32ZM186.484 156.93C185.198 156.56 184.26 156.107 183.672 155.57C183.089 155.029 182.797 154.362 182.797 153.57C182.797 152.674 183.154 151.935 183.867 151.352C184.586 150.763 185.518 150.469 186.664 150.469C187.445 150.469 188.141 150.62 188.75 150.922C189.365 151.224 189.839 151.641 190.172 152.172C190.51 152.703 190.68 153.284 190.68 153.914H189.172C189.172 153.227 188.953 152.688 188.516 152.297C188.078 151.901 187.461 151.703 186.664 151.703C185.924 151.703 185.346 151.867 184.93 152.195C184.518 152.518 184.312 152.969 184.312 153.547C184.312 154.01 184.508 154.404 184.898 154.727C185.294 155.044 185.964 155.336 186.906 155.602C187.854 155.867 188.594 156.161 189.125 156.484C189.661 156.802 190.057 157.174 190.312 157.602C190.573 158.029 190.703 158.531 190.703 159.109C190.703 160.031 190.344 160.771 189.625 161.328C188.906 161.88 187.945 162.156 186.742 162.156C185.961 162.156 185.232 162.008 184.555 161.711C183.878 161.409 183.354 160.997 182.984 160.477C182.62 159.956 182.438 159.365 182.438 158.703H183.945C183.945 159.391 184.198 159.935 184.703 160.336C185.214 160.732 185.893 160.93 186.742 160.93C187.534 160.93 188.141 160.768 188.562 160.445C188.984 160.122 189.195 159.682 189.195 159.125C189.195 158.568 189 158.138 188.609 157.836C188.219 157.529 187.51 157.227 186.484 156.93ZM192.508 153.828L191.688 153.266C192.172 152.589 192.422 151.875 192.438 151.125V150H193.867V151.016C193.862 151.536 193.732 152.057 193.477 152.578C193.227 153.094 192.904 153.51 192.508 153.828ZM200.938 153.547L200.977 154.484C201.596 153.755 202.432 153.391 203.484 153.391C204.667 153.391 205.471 153.844 205.898 154.75C206.18 154.344 206.544 154.016 206.992 153.766C207.445 153.516 207.979 153.391 208.594 153.391C210.448 153.391 211.391 154.372 211.422 156.336V162H209.977V156.422C209.977 155.818 209.839 155.367 209.562 155.07C209.286 154.768 208.823 154.617 208.172 154.617C207.635 154.617 207.19 154.779 206.836 155.102C206.482 155.419 206.276 155.849 206.219 156.391V162H204.766V156.461C204.766 155.232 204.164 154.617 202.961 154.617C202.013 154.617 201.365 155.021 201.016 155.828V162H199.57V153.547H200.938ZM215.18 162H213.734V153.547H215.18V162ZM213.617 151.305C213.617 151.07 213.688 150.872 213.828 150.711C213.974 150.549 214.188 150.469 214.469 150.469C214.75 150.469 214.964 150.549 215.109 150.711C215.255 150.872 215.328 151.07 215.328 151.305C215.328 151.539 215.255 151.734 215.109 151.891C214.964 152.047 214.75 152.125 214.469 152.125C214.188 152.125 213.974 152.047 213.828 151.891C213.688 151.734 213.617 151.539 213.617 151.305ZM222.422 159.758C222.422 159.367 222.273 159.065 221.977 158.852C221.685 158.633 221.172 158.445 220.438 158.289C219.708 158.133 219.128 157.945 218.695 157.727C218.268 157.508 217.951 157.247 217.742 156.945C217.539 156.643 217.438 156.284 217.438 155.867C217.438 155.174 217.729 154.589 218.312 154.109C218.901 153.63 219.651 153.391 220.562 153.391C221.521 153.391 222.297 153.638 222.891 154.133C223.49 154.628 223.789 155.26 223.789 156.031H222.336C222.336 155.635 222.167 155.294 221.828 155.008C221.495 154.721 221.073 154.578 220.562 154.578C220.036 154.578 219.625 154.693 219.328 154.922C219.031 155.151 218.883 155.451 218.883 155.82C218.883 156.169 219.021 156.432 219.297 156.609C219.573 156.786 220.07 156.956 220.789 157.117C221.513 157.279 222.099 157.471 222.547 157.695C222.995 157.919 223.326 158.19 223.539 158.508C223.758 158.82 223.867 159.203 223.867 159.656C223.867 160.411 223.565 161.018 222.961 161.477C222.357 161.93 221.573 162.156 220.609 162.156C219.932 162.156 219.333 162.036 218.812 161.797C218.292 161.557 217.883 161.224 217.586 160.797C217.294 160.365 217.148 159.898 217.148 159.398H218.594C218.62 159.883 218.812 160.268 219.172 160.555C219.536 160.836 220.016 160.977 220.609 160.977C221.156 160.977 221.594 160.867 221.922 160.648C222.255 160.424 222.422 160.128 222.422 159.758ZM230.672 159.758C230.672 159.367 230.523 159.065 230.227 158.852C229.935 158.633 229.422 158.445 228.688 158.289C227.958 158.133 227.378 157.945 226.945 157.727C226.518 157.508 226.201 157.247 225.992 156.945C225.789 156.643 225.688 156.284 225.688 155.867C225.688 155.174 225.979 154.589 226.562 154.109C227.151 153.63 227.901 153.391 228.812 153.391C229.771 153.391 230.547 153.638 231.141 154.133C231.74 154.628 232.039 155.26 232.039 156.031H230.586C230.586 155.635 230.417 155.294 230.078 155.008C229.745 154.721 229.323 154.578 228.812 154.578C228.286 154.578 227.875 154.693 227.578 154.922C227.281 155.151 227.133 155.451 227.133 155.82C227.133 156.169 227.271 156.432 227.547 156.609C227.823 156.786 228.32 156.956 229.039 157.117C229.763 157.279 230.349 157.471 230.797 157.695C231.245 157.919 231.576 158.19 231.789 158.508C232.008 158.82 232.117 159.203 232.117 159.656C232.117 160.411 231.815 161.018 231.211 161.477C230.607 161.93 229.823 162.156 228.859 162.156C228.182 162.156 227.583 162.036 227.062 161.797C226.542 161.557 226.133 161.224 225.836 160.797C225.544 160.365 225.398 159.898 225.398 159.398H226.844C226.87 159.883 227.062 160.268 227.422 160.555C227.786 160.836 228.266 160.977 228.859 160.977C229.406 160.977 229.844 160.867 230.172 160.648C230.505 160.424 230.672 160.128 230.672 159.758ZM235.57 162H234.125V153.547H235.57V162ZM234.008 151.305C234.008 151.07 234.078 150.872 234.219 150.711C234.365 150.549 234.578 150.469 234.859 150.469C235.141 150.469 235.354 150.549 235.5 150.711C235.646 150.872 235.719 151.07 235.719 151.305C235.719 151.539 235.646 151.734 235.5 151.891C235.354 152.047 235.141 152.125 234.859 152.125C234.578 152.125 234.365 152.047 234.219 151.891C234.078 151.734 234.008 151.539 234.008 151.305ZM237.508 157.695C237.508 156.867 237.669 156.122 237.992 155.461C238.32 154.799 238.773 154.289 239.352 153.93C239.935 153.57 240.599 153.391 241.344 153.391C242.495 153.391 243.424 153.789 244.133 154.586C244.846 155.383 245.203 156.443 245.203 157.766V157.867C245.203 158.69 245.044 159.43 244.727 160.086C244.414 160.737 243.964 161.245 243.375 161.609C242.792 161.974 242.12 162.156 241.359 162.156C240.214 162.156 239.284 161.758 238.57 160.961C237.862 160.164 237.508 159.109 237.508 157.797V157.695ZM238.961 157.867C238.961 158.805 239.177 159.557 239.609 160.125C240.047 160.693 240.63 160.977 241.359 160.977C242.094 160.977 242.677 160.69 243.109 160.117C243.542 159.539 243.758 158.732 243.758 157.695C243.758 156.768 243.536 156.018 243.094 155.445C242.656 154.867 242.073 154.578 241.344 154.578C240.63 154.578 240.055 154.862 239.617 155.43C239.18 155.997 238.961 156.81 238.961 157.867ZM248.383 153.547L248.43 154.609C249.076 153.797 249.919 153.391 250.961 153.391C252.747 153.391 253.648 154.398 253.664 156.414V162H252.219V156.406C252.214 155.797 252.073 155.346 251.797 155.055C251.526 154.763 251.102 154.617 250.523 154.617C250.055 154.617 249.643 154.742 249.289 154.992C248.935 155.242 248.659 155.57 248.461 155.977V162H247.016V153.547H248.383ZM255.797 164.266L254.977 163.703C255.466 163.021 255.721 162.318 255.742 161.594V160.289H257.156V161.422C257.156 161.948 257.026 162.474 256.766 163C256.51 163.526 256.188 163.948 255.797 164.266ZM264.398 154.57C265.039 153.784 265.872 153.391 266.898 153.391C268.685 153.391 269.586 154.398 269.602 156.414V162H268.156V156.406C268.151 155.797 268.01 155.346 267.734 155.055C267.464 154.763 267.039 154.617 266.461 154.617C265.992 154.617 265.581 154.742 265.227 154.992C264.872 155.242 264.596 155.57 264.398 155.977V162H262.953V150H264.398V154.57ZM271.383 157.695C271.383 156.867 271.544 156.122 271.867 155.461C272.195 154.799 272.648 154.289 273.227 153.93C273.81 153.57 274.474 153.391 275.219 153.391C276.37 153.391 277.299 153.789 278.008 154.586C278.721 155.383 279.078 156.443 279.078 157.766V157.867C279.078 158.69 278.919 159.43 278.602 160.086C278.289 160.737 277.839 161.245 277.25 161.609C276.667 161.974 275.995 162.156 275.234 162.156C274.089 162.156 273.159 161.758 272.445 160.961C271.737 160.164 271.383 159.109 271.383 157.797V157.695ZM272.836 157.867C272.836 158.805 273.052 159.557 273.484 160.125C273.922 160.693 274.505 160.977 275.234 160.977C275.969 160.977 276.552 160.69 276.984 160.117C277.417 159.539 277.633 158.732 277.633 157.695C277.633 156.768 277.411 156.018 276.969 155.445C276.531 154.867 275.948 154.578 275.219 154.578C274.505 154.578 273.93 154.862 273.492 155.43C273.055 155.997 272.836 156.81 272.836 157.867ZM286.109 161.164C285.547 161.826 284.721 162.156 283.633 162.156C282.732 162.156 282.044 161.896 281.57 161.375C281.102 160.849 280.865 160.073 280.859 159.047V153.547H282.305V159.008C282.305 160.289 282.826 160.93 283.867 160.93C284.971 160.93 285.706 160.518 286.07 159.695V153.547H287.516V162H286.141L286.109 161.164ZM293.805 154.844C293.586 154.807 293.349 154.789 293.094 154.789C292.146 154.789 291.503 155.193 291.164 156V162H289.719V153.547H291.125L291.148 154.523C291.622 153.768 292.294 153.391 293.164 153.391C293.445 153.391 293.659 153.427 293.805 153.5V154.844ZM300.062 159.758C300.062 159.367 299.914 159.065 299.617 158.852C299.326 158.633 298.812 158.445 298.078 158.289C297.349 158.133 296.768 157.945 296.336 157.727C295.909 157.508 295.591 157.247 295.383 156.945C295.18 156.643 295.078 156.284 295.078 155.867C295.078 155.174 295.37 154.589 295.953 154.109C296.542 153.63 297.292 153.391 298.203 153.391C299.161 153.391 299.938 153.638 300.531 154.133C301.13 154.628 301.43 155.26 301.43 156.031H299.977C299.977 155.635 299.807 155.294 299.469 155.008C299.135 154.721 298.714 154.578 298.203 154.578C297.677 154.578 297.266 154.693 296.969 154.922C296.672 155.151 296.523 155.451 296.523 155.82C296.523 156.169 296.661 156.432 296.938 156.609C297.214 156.786 297.711 156.956 298.43 157.117C299.154 157.279 299.74 157.471 300.188 157.695C300.635 157.919 300.966 158.19 301.18 158.508C301.398 158.82 301.508 159.203 301.508 159.656C301.508 160.411 301.206 161.018 300.602 161.477C299.997 161.93 299.214 162.156 298.25 162.156C297.573 162.156 296.974 162.036 296.453 161.797C295.932 161.557 295.523 161.224 295.227 160.797C294.935 160.365 294.789 159.898 294.789 159.398H296.234C296.26 159.883 296.453 160.268 296.812 160.555C297.177 160.836 297.656 160.977 298.25 160.977C298.797 160.977 299.234 160.867 299.562 160.648C299.896 160.424 300.062 160.128 300.062 159.758ZM312.578 162C312.495 161.833 312.427 161.536 312.375 161.109C311.703 161.807 310.901 162.156 309.969 162.156C309.135 162.156 308.451 161.922 307.914 161.453C307.383 160.979 307.117 160.38 307.117 159.656C307.117 158.776 307.451 158.094 308.117 157.609C308.789 157.12 309.732 156.875 310.945 156.875H312.352V156.211C312.352 155.706 312.201 155.305 311.898 155.008C311.596 154.706 311.151 154.555 310.562 154.555C310.047 154.555 309.615 154.685 309.266 154.945C308.917 155.206 308.742 155.521 308.742 155.891H307.289C307.289 155.469 307.438 155.062 307.734 154.672C308.036 154.276 308.443 153.964 308.953 153.734C309.469 153.505 310.034 153.391 310.648 153.391C311.622 153.391 312.385 153.635 312.938 154.125C313.49 154.609 313.776 155.279 313.797 156.133V160.023C313.797 160.799 313.896 161.417 314.094 161.875V162H312.578ZM310.18 160.898C310.633 160.898 311.062 160.781 311.469 160.547C311.875 160.312 312.169 160.008 312.352 159.633V157.898H311.219C309.448 157.898 308.562 158.417 308.562 159.453C308.562 159.906 308.714 160.26 309.016 160.516C309.318 160.771 309.706 160.898 310.18 160.898ZM317.43 153.547L317.477 154.609C318.122 153.797 318.966 153.391 320.008 153.391C321.794 153.391 322.695 154.398 322.711 156.414V162H321.266V156.406C321.26 155.797 321.12 155.346 320.844 155.055C320.573 154.763 320.148 154.617 319.57 154.617C319.102 154.617 318.69 154.742 318.336 154.992C317.982 155.242 317.706 155.57 317.508 155.977V162H316.062V153.547H317.43ZM324.539 157.703C324.539 156.406 324.846 155.365 325.461 154.578C326.076 153.786 326.88 153.391 327.875 153.391C328.865 153.391 329.648 153.729 330.227 154.406V150H331.672V162H330.344L330.273 161.094C329.695 161.802 328.891 162.156 327.859 162.156C326.88 162.156 326.081 161.755 325.461 160.953C324.846 160.151 324.539 159.104 324.539 157.812V157.703ZM325.984 157.867C325.984 158.826 326.182 159.576 326.578 160.117C326.974 160.659 327.521 160.93 328.219 160.93C329.135 160.93 329.805 160.518 330.227 159.695V155.812C329.794 155.016 329.13 154.617 328.234 154.617C327.526 154.617 326.974 154.891 326.578 155.438C326.182 155.984 325.984 156.794 325.984 157.867ZM339.461 162H338.016V150H339.461V162ZM341.398 157.695C341.398 156.867 341.56 156.122 341.883 155.461C342.211 154.799 342.664 154.289 343.242 153.93C343.826 153.57 344.49 153.391 345.234 153.391C346.385 153.391 347.315 153.789 348.023 154.586C348.737 155.383 349.094 156.443 349.094 157.766V157.867C349.094 158.69 348.935 159.43 348.617 160.086C348.305 160.737 347.854 161.245 347.266 161.609C346.682 161.974 346.01 162.156 345.25 162.156C344.104 162.156 343.174 161.758 342.461 160.961C341.753 160.164 341.398 159.109 341.398 157.797V157.695ZM342.852 157.867C342.852 158.805 343.068 159.557 343.5 160.125C343.938 160.693 344.521 160.977 345.25 160.977C345.984 160.977 346.568 160.69 347 160.117C347.432 159.539 347.648 158.732 347.648 157.695C347.648 156.768 347.427 156.018 346.984 155.445C346.547 154.867 345.964 154.578 345.234 154.578C344.521 154.578 343.945 154.862 343.508 155.43C343.07 155.997 342.852 156.81 342.852 157.867ZM354.297 160.977C354.812 160.977 355.263 160.82 355.648 160.508C356.034 160.195 356.247 159.805 356.289 159.336H357.656C357.63 159.82 357.464 160.281 357.156 160.719C356.849 161.156 356.438 161.505 355.922 161.766C355.411 162.026 354.87 162.156 354.297 162.156C353.146 162.156 352.229 161.773 351.547 161.008C350.87 160.237 350.531 159.185 350.531 157.852V157.609C350.531 156.786 350.682 156.055 350.984 155.414C351.286 154.773 351.719 154.276 352.281 153.922C352.849 153.568 353.518 153.391 354.289 153.391C355.237 153.391 356.023 153.674 356.648 154.242C357.279 154.81 357.615 155.547 357.656 156.453H356.289C356.247 155.906 356.039 155.458 355.664 155.109C355.294 154.755 354.836 154.578 354.289 154.578C353.555 154.578 352.984 154.844 352.578 155.375C352.177 155.901 351.977 156.664 351.977 157.664V157.938C351.977 158.911 352.177 159.661 352.578 160.188C352.979 160.714 353.552 160.977 354.297 160.977ZM364.5 162C364.417 161.833 364.349 161.536 364.297 161.109C363.625 161.807 362.823 162.156 361.891 162.156C361.057 162.156 360.372 161.922 359.836 161.453C359.305 160.979 359.039 160.38 359.039 159.656C359.039 158.776 359.372 158.094 360.039 157.609C360.711 157.12 361.654 156.875 362.867 156.875H364.273V156.211C364.273 155.706 364.122 155.305 363.82 155.008C363.518 154.706 363.073 154.555 362.484 154.555C361.969 154.555 361.536 154.685 361.188 154.945C360.839 155.206 360.664 155.521 360.664 155.891H359.211C359.211 155.469 359.359 155.062 359.656 154.672C359.958 154.276 360.365 153.964 360.875 153.734C361.391 153.505 361.956 153.391 362.57 153.391C363.544 153.391 364.307 153.635 364.859 154.125C365.411 154.609 365.698 155.279 365.719 156.133V160.023C365.719 160.799 365.818 161.417 366.016 161.875V162H364.5ZM362.102 160.898C362.555 160.898 362.984 160.781 363.391 160.547C363.797 160.312 364.091 160.008 364.273 159.633V157.898H363.141C361.37 157.898 360.484 158.417 360.484 159.453C360.484 159.906 360.635 160.26 360.938 160.516C361.24 160.771 361.628 160.898 362.102 160.898ZM369.945 151.5V153.547H371.523V154.664H369.945V159.906C369.945 160.245 370.016 160.5 370.156 160.672C370.297 160.839 370.536 160.922 370.875 160.922C371.042 160.922 371.271 160.891 371.562 160.828V162C371.182 162.104 370.812 162.156 370.453 162.156C369.807 162.156 369.32 161.961 368.992 161.57C368.664 161.18 368.5 160.625 368.5 159.906V154.664H366.961V153.547H368.5V151.5H369.945ZM374.789 162H373.344V153.547H374.789V162ZM373.227 151.305C373.227 151.07 373.297 150.872 373.438 150.711C373.583 150.549 373.797 150.469 374.078 150.469C374.359 150.469 374.573 150.549 374.719 150.711C374.865 150.872 374.938 151.07 374.938 151.305C374.938 151.539 374.865 151.734 374.719 151.891C374.573 152.047 374.359 152.125 374.078 152.125C373.797 152.125 373.583 152.047 373.438 151.891C373.297 151.734 373.227 151.539 373.227 151.305ZM376.727 157.695C376.727 156.867 376.888 156.122 377.211 155.461C377.539 154.799 377.992 154.289 378.57 153.93C379.154 153.57 379.818 153.391 380.562 153.391C381.714 153.391 382.643 153.789 383.352 154.586C384.065 155.383 384.422 156.443 384.422 157.766V157.867C384.422 158.69 384.263 159.43 383.945 160.086C383.633 160.737 383.182 161.245 382.594 161.609C382.01 161.974 381.339 162.156 380.578 162.156C379.432 162.156 378.503 161.758 377.789 160.961C377.081 160.164 376.727 159.109 376.727 157.797V157.695ZM378.18 157.867C378.18 158.805 378.396 159.557 378.828 160.125C379.266 160.693 379.849 160.977 380.578 160.977C381.312 160.977 381.896 160.69 382.328 160.117C382.76 159.539 382.977 158.732 382.977 157.695C382.977 156.768 382.755 156.018 382.312 155.445C381.875 154.867 381.292 154.578 380.562 154.578C379.849 154.578 379.273 154.862 378.836 155.43C378.398 155.997 378.18 156.81 378.18 157.867ZM387.602 153.547L387.648 154.609C388.294 153.797 389.138 153.391 390.18 153.391C391.966 153.391 392.867 154.398 392.883 156.414V162H391.438V156.406C391.432 155.797 391.292 155.346 391.016 155.055C390.745 154.763 390.32 154.617 389.742 154.617C389.273 154.617 388.862 154.742 388.508 154.992C388.154 155.242 387.878 155.57 387.68 155.977V162H386.234V153.547H387.602ZM399.984 159.758C399.984 159.367 399.836 159.065 399.539 158.852C399.247 158.633 398.734 158.445 398 158.289C397.271 158.133 396.69 157.945 396.258 157.727C395.831 157.508 395.513 157.247 395.305 156.945C395.102 156.643 395 156.284 395 155.867C395 155.174 395.292 154.589 395.875 154.109C396.464 153.63 397.214 153.391 398.125 153.391C399.083 153.391 399.859 153.638 400.453 154.133C401.052 154.628 401.352 155.26 401.352 156.031H399.898C399.898 155.635 399.729 155.294 399.391 155.008C399.057 154.721 398.635 154.578 398.125 154.578C397.599 154.578 397.188 154.693 396.891 154.922C396.594 155.151 396.445 155.451 396.445 155.82C396.445 156.169 396.583 156.432 396.859 156.609C397.135 156.786 397.633 156.956 398.352 157.117C399.076 157.279 399.661 157.471 400.109 157.695C400.557 157.919 400.888 158.19 401.102 158.508C401.32 158.82 401.43 159.203 401.43 159.656C401.43 160.411 401.128 161.018 400.523 161.477C399.919 161.93 399.135 162.156 398.172 162.156C397.495 162.156 396.896 162.036 396.375 161.797C395.854 161.557 395.445 161.224 395.148 160.797C394.857 160.365 394.711 159.898 394.711 159.398H396.156C396.182 159.883 396.375 160.268 396.734 160.555C397.099 160.836 397.578 160.977 398.172 160.977C398.719 160.977 399.156 160.867 399.484 160.648C399.818 160.424 399.984 160.128 399.984 159.758ZM403.266 164.266L402.445 163.703C402.935 163.021 403.19 162.318 403.211 161.594V160.289H404.625V161.422C404.625 161.948 404.495 162.474 404.234 163C403.979 163.526 403.656 163.948 403.266 164.266ZM415.641 162C415.557 161.833 415.49 161.536 415.438 161.109C414.766 161.807 413.964 162.156 413.031 162.156C412.198 162.156 411.513 161.922 410.977 161.453C410.445 160.979 410.18 160.38 410.18 159.656C410.18 158.776 410.513 158.094 411.18 157.609C411.852 157.12 412.794 156.875 414.008 156.875H415.414V156.211C415.414 155.706 415.263 155.305 414.961 155.008C414.659 154.706 414.214 154.555 413.625 154.555C413.109 154.555 412.677 154.685 412.328 154.945C411.979 155.206 411.805 155.521 411.805 155.891H410.352C410.352 155.469 410.5 155.062 410.797 154.672C411.099 154.276 411.505 153.964 412.016 153.734C412.531 153.505 413.096 153.391 413.711 153.391C414.685 153.391 415.448 153.635 416 154.125C416.552 154.609 416.839 155.279 416.859 156.133V160.023C416.859 160.799 416.958 161.417 417.156 161.875V162H415.641ZM413.242 160.898C413.695 160.898 414.125 160.781 414.531 160.547C414.938 160.312 415.232 160.008 415.414 159.633V157.898H414.281C412.51 157.898 411.625 158.417 411.625 159.453C411.625 159.906 411.776 160.26 412.078 160.516C412.38 160.771 412.768 160.898 413.242 160.898ZM420.492 153.547L420.539 154.609C421.185 153.797 422.029 153.391 423.07 153.391C424.857 153.391 425.758 154.398 425.773 156.414V162H424.328V156.406C424.323 155.797 424.182 155.346 423.906 155.055C423.635 154.763 423.211 154.617 422.633 154.617C422.164 154.617 421.753 154.742 421.398 154.992C421.044 155.242 420.768 155.57 420.57 155.977V162H419.125V153.547H420.492ZM427.602 157.703C427.602 156.406 427.909 155.365 428.523 154.578C429.138 153.786 429.943 153.391 430.938 153.391C431.927 153.391 432.711 153.729 433.289 154.406V150H434.734V162H433.406L433.336 161.094C432.758 161.802 431.953 162.156 430.922 162.156C429.943 162.156 429.143 161.755 428.523 160.953C427.909 160.151 427.602 159.104 427.602 157.812V157.703ZM429.047 157.867C429.047 158.826 429.245 159.576 429.641 160.117C430.036 160.659 430.583 160.93 431.281 160.93C432.198 160.93 432.867 160.518 433.289 159.695V155.812C432.857 155.016 432.193 154.617 431.297 154.617C430.589 154.617 430.036 154.891 429.641 155.438C429.245 155.984 429.047 156.794 429.047 157.867ZM442.914 151.5V153.547H444.492V154.664H442.914V159.906C442.914 160.245 442.984 160.5 443.125 160.672C443.266 160.839 443.505 160.922 443.844 160.922C444.01 160.922 444.24 160.891 444.531 160.828V162C444.151 162.104 443.781 162.156 443.422 162.156C442.776 162.156 442.289 161.961 441.961 161.57C441.633 161.18 441.469 160.625 441.469 159.906V154.664H439.93V153.547H441.469V151.5H442.914ZM447.633 154.57C448.273 153.784 449.107 153.391 450.133 153.391C451.919 153.391 452.82 154.398 452.836 156.414V162H451.391V156.406C451.385 155.797 451.245 155.346 450.969 155.055C450.698 154.763 450.273 154.617 449.695 154.617C449.227 154.617 448.815 154.742 448.461 154.992C448.107 155.242 447.831 155.57 447.633 155.977V162H446.188V150H447.633V154.57ZM458.508 162.156C457.362 162.156 456.43 161.781 455.711 161.031C454.992 160.276 454.633 159.268 454.633 158.008V157.742C454.633 156.904 454.792 156.156 455.109 155.5C455.432 154.839 455.88 154.323 456.453 153.953C457.031 153.578 457.656 153.391 458.328 153.391C459.427 153.391 460.281 153.753 460.891 154.477C461.5 155.201 461.805 156.237 461.805 157.586V158.188H456.078C456.099 159.021 456.341 159.695 456.805 160.211C457.273 160.721 457.867 160.977 458.586 160.977C459.096 160.977 459.529 160.872 459.883 160.664C460.237 160.456 460.547 160.18 460.812 159.836L461.695 160.523C460.987 161.612 459.924 162.156 458.508 162.156ZM458.328 154.578C457.745 154.578 457.255 154.792 456.859 155.219C456.464 155.641 456.219 156.234 456.125 157H460.359V156.891C460.318 156.156 460.12 155.589 459.766 155.188C459.411 154.781 458.932 154.578 458.328 154.578ZM472.375 159.758C472.375 159.367 472.227 159.065 471.93 158.852C471.638 158.633 471.125 158.445 470.391 158.289C469.661 158.133 469.081 157.945 468.648 157.727C468.221 157.508 467.904 157.247 467.695 156.945C467.492 156.643 467.391 156.284 467.391 155.867C467.391 155.174 467.682 154.589 468.266 154.109C468.854 153.63 469.604 153.391 470.516 153.391C471.474 153.391 472.25 153.638 472.844 154.133C473.443 154.628 473.742 155.26 473.742 156.031H472.289C472.289 155.635 472.12 155.294 471.781 155.008C471.448 154.721 471.026 154.578 470.516 154.578C469.99 154.578 469.578 154.693 469.281 154.922C468.984 155.151 468.836 155.451 468.836 155.82C468.836 156.169 468.974 156.432 469.25 156.609C469.526 156.786 470.023 156.956 470.742 157.117C471.466 157.279 472.052 157.471 472.5 157.695C472.948 157.919 473.279 158.19 473.492 158.508C473.711 158.82 473.82 159.203 473.82 159.656C473.82 160.411 473.518 161.018 472.914 161.477C472.31 161.93 471.526 162.156 470.562 162.156C469.885 162.156 469.286 162.036 468.766 161.797C468.245 161.557 467.836 161.224 467.539 160.797C467.247 160.365 467.102 159.898 467.102 159.398H468.547C468.573 159.883 468.766 160.268 469.125 160.555C469.49 160.836 469.969 160.977 470.562 160.977C471.109 160.977 471.547 160.867 471.875 160.648C472.208 160.424 472.375 160.128 472.375 159.758ZM477.664 151.5V153.547H479.242V154.664H477.664V159.906C477.664 160.245 477.734 160.5 477.875 160.672C478.016 160.839 478.255 160.922 478.594 160.922C478.76 160.922 478.99 160.891 479.281 160.828V162C478.901 162.104 478.531 162.156 478.172 162.156C477.526 162.156 477.039 161.961 476.711 161.57C476.383 161.18 476.219 160.625 476.219 159.906V154.664H474.68V153.547H476.219V151.5H477.664ZM486.156 162C486.073 161.833 486.005 161.536 485.953 161.109C485.281 161.807 484.479 162.156 483.547 162.156C482.714 162.156 482.029 161.922 481.492 161.453C480.961 160.979 480.695 160.38 480.695 159.656C480.695 158.776 481.029 158.094 481.695 157.609C482.367 157.12 483.31 156.875 484.523 156.875H485.93V156.211C485.93 155.706 485.779 155.305 485.477 155.008C485.174 154.706 484.729 154.555 484.141 154.555C483.625 154.555 483.193 154.685 482.844 154.945C482.495 155.206 482.32 155.521 482.32 155.891H480.867C480.867 155.469 481.016 155.062 481.312 154.672C481.615 154.276 482.021 153.964 482.531 153.734C483.047 153.505 483.612 153.391 484.227 153.391C485.201 153.391 485.964 153.635 486.516 154.125C487.068 154.609 487.354 155.279 487.375 156.133V160.023C487.375 160.799 487.474 161.417 487.672 161.875V162H486.156ZM483.758 160.898C484.211 160.898 484.641 160.781 485.047 160.547C485.453 160.312 485.747 160.008 485.93 159.633V157.898H484.797C483.026 157.898 482.141 158.417 482.141 159.453C482.141 159.906 482.292 160.26 482.594 160.516C482.896 160.771 483.284 160.898 483.758 160.898ZM490.352 162V154.664H489.016V153.547H490.352V152.68C490.352 151.773 490.594 151.073 491.078 150.578C491.562 150.083 492.247 149.836 493.133 149.836C493.466 149.836 493.797 149.88 494.125 149.969L494.047 151.141C493.802 151.094 493.542 151.07 493.266 151.07C492.797 151.07 492.435 151.208 492.18 151.484C491.924 151.755 491.797 152.146 491.797 152.656V153.547H493.602V154.664H491.797V162H490.352ZM495.914 162V154.664H494.578V153.547H495.914V152.68C495.914 151.773 496.156 151.073 496.641 150.578C497.125 150.083 497.81 149.836 498.695 149.836C499.029 149.836 499.359 149.88 499.688 149.969L499.609 151.141C499.365 151.094 499.104 151.07 498.828 151.07C498.359 151.07 497.997 151.208 497.742 151.484C497.487 151.755 497.359 152.146 497.359 152.656V153.547H499.164V154.664H497.359V162H495.914ZM512.219 160.008L513.844 153.547H515.289L512.828 162H511.656L509.602 155.594L507.602 162H506.43L503.977 153.547H505.414L507.078 159.875L509.047 153.547H510.211L512.219 160.008ZM518.211 154.57C518.852 153.784 519.685 153.391 520.711 153.391C522.497 153.391 523.398 154.398 523.414 156.414V162H521.969V156.406C521.964 155.797 521.823 155.346 521.547 155.055C521.276 154.763 520.852 154.617 520.273 154.617C519.805 154.617 519.393 154.742 519.039 154.992C518.685 155.242 518.409 155.57 518.211 155.977V162H516.766V150H518.211V154.57ZM525.195 157.695C525.195 156.867 525.357 156.122 525.68 155.461C526.008 154.799 526.461 154.289 527.039 153.93C527.622 153.57 528.286 153.391 529.031 153.391C530.182 153.391 531.112 153.789 531.82 154.586C532.534 155.383 532.891 156.443 532.891 157.766V157.867C532.891 158.69 532.732 159.43 532.414 160.086C532.102 160.737 531.651 161.245 531.062 161.609C530.479 161.974 529.807 162.156 529.047 162.156C527.901 162.156 526.971 161.758 526.258 160.961C525.549 160.164 525.195 159.109 525.195 157.797V157.695ZM526.648 157.867C526.648 158.805 526.865 159.557 527.297 160.125C527.734 160.693 528.318 160.977 529.047 160.977C529.781 160.977 530.365 160.69 530.797 160.117C531.229 159.539 531.445 158.732 531.445 157.695C531.445 156.768 531.224 156.018 530.781 155.445C530.344 154.867 529.76 154.578 529.031 154.578C528.318 154.578 527.742 154.862 527.305 155.43C526.867 155.997 526.648 156.81 526.648 157.867ZM543.891 162C543.807 161.833 543.74 161.536 543.688 161.109C543.016 161.807 542.214 162.156 541.281 162.156C540.448 162.156 539.763 161.922 539.227 161.453C538.695 160.979 538.43 160.38 538.43 159.656C538.43 158.776 538.763 158.094 539.43 157.609C540.102 157.12 541.044 156.875 542.258 156.875H543.664V156.211C543.664 155.706 543.513 155.305 543.211 155.008C542.909 154.706 542.464 154.555 541.875 154.555C541.359 154.555 540.927 154.685 540.578 154.945C540.229 155.206 540.055 155.521 540.055 155.891H538.602C538.602 155.469 538.75 155.062 539.047 154.672C539.349 154.276 539.755 153.964 540.266 153.734C540.781 153.505 541.346 153.391 541.961 153.391C542.935 153.391 543.698 153.635 544.25 154.125C544.802 154.609 545.089 155.279 545.109 156.133V160.023C545.109 160.799 545.208 161.417 545.406 161.875V162H543.891ZM541.492 160.898C541.945 160.898 542.375 160.781 542.781 160.547C543.188 160.312 543.482 160.008 543.664 159.633V157.898H542.531C540.76 157.898 539.875 158.417 539.875 159.453C539.875 159.906 540.026 160.26 540.328 160.516C540.63 160.771 541.018 160.898 541.492 160.898ZM551.461 154.844C551.242 154.807 551.005 154.789 550.75 154.789C549.802 154.789 549.159 155.193 548.82 156V162H547.375V153.547H548.781L548.805 154.523C549.279 153.768 549.951 153.391 550.82 153.391C551.102 153.391 551.315 153.427 551.461 153.5V154.844ZM556.148 162.156C555.003 162.156 554.07 161.781 553.352 161.031C552.633 160.276 552.273 159.268 552.273 158.008V157.742C552.273 156.904 552.432 156.156 552.75 155.5C553.073 154.839 553.521 154.323 554.094 153.953C554.672 153.578 555.297 153.391 555.969 153.391C557.068 153.391 557.922 153.753 558.531 154.477C559.141 155.201 559.445 156.237 559.445 157.586V158.188H553.719C553.74 159.021 553.982 159.695 554.445 160.211C554.914 160.721 555.508 160.977 556.227 160.977C556.737 160.977 557.169 160.872 557.523 160.664C557.878 160.456 558.188 160.18 558.453 159.836L559.336 160.523C558.628 161.612 557.565 162.156 556.148 162.156ZM555.969 154.578C555.385 154.578 554.896 154.792 554.5 155.219C554.104 155.641 553.859 156.234 553.766 157H558V156.891C557.958 156.156 557.76 155.589 557.406 155.188C557.052 154.781 556.573 154.578 555.969 154.578ZM566.539 154.57C567.18 153.784 568.013 153.391 569.039 153.391C570.826 153.391 571.727 154.398 571.742 156.414V162H570.297V156.406C570.292 155.797 570.151 155.346 569.875 155.055C569.604 154.763 569.18 154.617 568.602 154.617C568.133 154.617 567.721 154.742 567.367 154.992C567.013 155.242 566.737 155.57 566.539 155.977V162H565.094V150H566.539V154.57ZM577.414 162.156C576.268 162.156 575.336 161.781 574.617 161.031C573.898 160.276 573.539 159.268 573.539 158.008V157.742C573.539 156.904 573.698 156.156 574.016 155.5C574.339 154.839 574.786 154.323 575.359 153.953C575.938 153.578 576.562 153.391 577.234 153.391C578.333 153.391 579.188 153.753 579.797 154.477C580.406 155.201 580.711 156.237 580.711 157.586V158.188H574.984C575.005 159.021 575.247 159.695 575.711 160.211C576.18 160.721 576.773 160.977 577.492 160.977C578.003 160.977 578.435 160.872 578.789 160.664C579.143 160.456 579.453 160.18 579.719 159.836L580.602 160.523C579.893 161.612 578.831 162.156 577.414 162.156ZM577.234 154.578C576.651 154.578 576.161 154.792 575.766 155.219C575.37 155.641 575.125 156.234 575.031 157H579.266V156.891C579.224 156.156 579.026 155.589 578.672 155.188C578.318 154.781 577.839 154.578 577.234 154.578ZM586.477 154.844C586.258 154.807 586.021 154.789 585.766 154.789C584.818 154.789 584.174 155.193 583.836 156V162H582.391V153.547H583.797L583.82 154.523C584.294 153.768 584.966 153.391 585.836 153.391C586.117 153.391 586.331 153.427 586.477 153.5V154.844ZM591.164 162.156C590.018 162.156 589.086 161.781 588.367 161.031C587.648 160.276 587.289 159.268 587.289 158.008V157.742C587.289 156.904 587.448 156.156 587.766 155.5C588.089 154.839 588.536 154.323 589.109 153.953C589.688 153.578 590.312 153.391 590.984 153.391C592.083 153.391 592.938 153.753 593.547 154.477C594.156 155.201 594.461 156.237 594.461 157.586V158.188H588.734C588.755 159.021 588.997 159.695 589.461 160.211C589.93 160.721 590.523 160.977 591.242 160.977C591.753 160.977 592.185 160.872 592.539 160.664C592.893 160.456 593.203 160.18 593.469 159.836L594.352 160.523C593.643 161.612 592.581 162.156 591.164 162.156ZM590.984 154.578C590.401 154.578 589.911 154.792 589.516 155.219C589.12 155.641 588.875 156.234 588.781 157H593.016V156.891C592.974 156.156 592.776 155.589 592.422 155.188C592.068 154.781 591.589 154.578 590.984 154.578ZM65.0547 181.5V183.547H66.6328V184.664H65.0547V189.906C65.0547 190.245 65.125 190.5 65.2656 190.672C65.4062 190.839 65.6458 190.922 65.9844 190.922C66.151 190.922 66.3802 190.891 66.6719 190.828V192C66.2917 192.104 65.9219 192.156 65.5625 192.156C64.9167 192.156 64.4297 191.961 64.1016 191.57C63.7734 191.18 63.6094 190.625 63.6094 189.906V184.664H62.0703V183.547H63.6094V181.5H65.0547ZM67.7891 187.695C67.7891 186.867 67.9505 186.122 68.2734 185.461C68.6016 184.799 69.0547 184.289 69.6328 183.93C70.2161 183.57 70.8802 183.391 71.625 183.391C72.776 183.391 73.7057 183.789 74.4141 184.586C75.1276 185.383 75.4844 186.443 75.4844 187.766V187.867C75.4844 188.69 75.3255 189.43 75.0078 190.086C74.6953 190.737 74.2448 191.245 73.6562 191.609C73.0729 191.974 72.401 192.156 71.6406 192.156C70.4948 192.156 69.5651 191.758 68.8516 190.961C68.1432 190.164 67.7891 189.109 67.7891 187.797V187.695ZM69.2422 187.867C69.2422 188.805 69.4583 189.557 69.8906 190.125C70.3281 190.693 70.9115 190.977 71.6406 190.977C72.375 190.977 72.9583 190.69 73.3906 190.117C73.8229 189.539 74.0391 188.732 74.0391 187.695C74.0391 186.768 73.8177 186.018 73.375 185.445C72.9375 184.867 72.3542 184.578 71.625 184.578C70.9115 184.578 70.3359 184.862 69.8984 185.43C69.4609 185.997 69.2422 186.81 69.2422 187.867ZM86.1875 189.758C86.1875 189.367 86.0391 189.065 85.7422 188.852C85.4505 188.633 84.9375 188.445 84.2031 188.289C83.474 188.133 82.8932 187.945 82.4609 187.727C82.0339 187.508 81.7161 187.247 81.5078 186.945C81.3047 186.643 81.2031 186.284 81.2031 185.867C81.2031 185.174 81.4948 184.589 82.0781 184.109C82.6667 183.63 83.4167 183.391 84.3281 183.391C85.2865 183.391 86.0625 183.638 86.6562 184.133C87.2552 184.628 87.5547 185.26 87.5547 186.031H86.1016C86.1016 185.635 85.9323 185.294 85.5938 185.008C85.2604 184.721 84.8385 184.578 84.3281 184.578C83.8021 184.578 83.3906 184.693 83.0938 184.922C82.7969 185.151 82.6484 185.451 82.6484 185.82C82.6484 186.169 82.7865 186.432 83.0625 186.609C83.3385 186.786 83.8359 186.956 84.5547 187.117C85.2786 187.279 85.8646 187.471 86.3125 187.695C86.7604 187.919 87.0911 188.19 87.3047 188.508C87.5234 188.82 87.6328 189.203 87.6328 189.656C87.6328 190.411 87.3307 191.018 86.7266 191.477C86.1224 191.93 85.3385 192.156 84.375 192.156C83.6979 192.156 83.099 192.036 82.5781 191.797C82.0573 191.557 81.6484 191.224 81.3516 190.797C81.0599 190.365 80.9141 189.898 80.9141 189.398H82.3594C82.3854 189.883 82.5781 190.268 82.9375 190.555C83.3021 190.836 83.7812 190.977 84.375 190.977C84.9219 190.977 85.3594 190.867 85.6875 190.648C86.0208 190.424 86.1875 190.128 86.1875 189.758ZM94.7344 191.164C94.1719 191.826 93.3464 192.156 92.2578 192.156C91.3568 192.156 90.6693 191.896 90.1953 191.375C89.7266 190.849 89.4896 190.073 89.4844 189.047V183.547H90.9297V189.008C90.9297 190.289 91.4505 190.93 92.4922 190.93C93.5964 190.93 94.3307 190.518 94.6953 189.695V183.547H96.1406V192H94.7656L94.7344 191.164ZM105.484 187.867C105.484 189.154 105.19 190.19 104.602 190.977C104.013 191.763 103.216 192.156 102.211 192.156C101.185 192.156 100.378 191.831 99.7891 191.18V195.25H98.3438V183.547H99.6641L99.7344 184.484C100.323 183.755 101.141 183.391 102.188 183.391C103.203 183.391 104.005 183.773 104.594 184.539C105.188 185.305 105.484 186.37 105.484 187.734V187.867ZM104.039 187.703C104.039 186.75 103.836 185.997 103.43 185.445C103.023 184.893 102.466 184.617 101.758 184.617C100.883 184.617 100.227 185.005 99.7891 185.781V189.82C100.221 190.591 100.883 190.977 101.773 190.977C102.466 190.977 103.016 190.703 103.422 190.156C103.833 189.604 104.039 188.786 104.039 187.703ZM114.469 187.867C114.469 189.154 114.174 190.19 113.586 190.977C112.997 191.763 112.201 192.156 111.195 192.156C110.169 192.156 109.362 191.831 108.773 191.18V195.25H107.328V183.547H108.648L108.719 184.484C109.307 183.755 110.125 183.391 111.172 183.391C112.188 183.391 112.99 183.773 113.578 184.539C114.172 185.305 114.469 186.37 114.469 187.734V187.867ZM113.023 187.703C113.023 186.75 112.82 185.997 112.414 185.445C112.008 184.893 111.451 184.617 110.742 184.617C109.867 184.617 109.211 185.005 108.773 185.781V189.82C109.206 190.591 109.867 190.977 110.758 190.977C111.451 190.977 112 190.703 112.406 190.156C112.818 189.604 113.023 188.786 113.023 187.703ZM115.93 187.695C115.93 186.867 116.091 186.122 116.414 185.461C116.742 184.799 117.195 184.289 117.773 183.93C118.357 183.57 119.021 183.391 119.766 183.391C120.917 183.391 121.846 183.789 122.555 184.586C123.268 185.383 123.625 186.443 123.625 187.766V187.867C123.625 188.69 123.466 189.43 123.148 190.086C122.836 190.737 122.385 191.245 121.797 191.609C121.214 191.974 120.542 192.156 119.781 192.156C118.635 192.156 117.706 191.758 116.992 190.961C116.284 190.164 115.93 189.109 115.93 187.797V187.695ZM117.383 187.867C117.383 188.805 117.599 189.557 118.031 190.125C118.469 190.693 119.052 190.977 119.781 190.977C120.516 190.977 121.099 190.69 121.531 190.117C121.964 189.539 122.18 188.732 122.18 187.695C122.18 186.768 121.958 186.018 121.516 185.445C121.078 184.867 120.495 184.578 119.766 184.578C119.052 184.578 118.477 184.862 118.039 185.43C117.602 185.997 117.383 186.81 117.383 187.867ZM129.523 184.844C129.305 184.807 129.068 184.789 128.812 184.789C127.865 184.789 127.221 185.193 126.883 186V192H125.438V183.547H126.844L126.867 184.523C127.341 183.768 128.013 183.391 128.883 183.391C129.164 183.391 129.378 183.427 129.523 183.5V184.844ZM133.211 181.5V183.547H134.789V184.664H133.211V189.906C133.211 190.245 133.281 190.5 133.422 190.672C133.562 190.839 133.802 190.922 134.141 190.922C134.307 190.922 134.536 190.891 134.828 190.828V192C134.448 192.104 134.078 192.156 133.719 192.156C133.073 192.156 132.586 191.961 132.258 191.57C131.93 191.18 131.766 190.625 131.766 189.906V184.664H130.227V183.547H131.766V181.5H133.211ZM143.219 189.883L145.188 183.547H146.734L143.336 193.305C142.81 194.711 141.974 195.414 140.828 195.414L140.555 195.391L140.016 195.289V194.117L140.406 194.148C140.896 194.148 141.276 194.049 141.547 193.852C141.823 193.654 142.049 193.292 142.227 192.766L142.547 191.906L139.531 183.547H141.109L143.219 189.883ZM147.523 187.695C147.523 186.867 147.685 186.122 148.008 185.461C148.336 184.799 148.789 184.289 149.367 183.93C149.951 183.57 150.615 183.391 151.359 183.391C152.51 183.391 153.44 183.789 154.148 184.586C154.862 185.383 155.219 186.443 155.219 187.766V187.867C155.219 188.69 155.06 189.43 154.742 190.086C154.43 190.737 153.979 191.245 153.391 191.609C152.807 191.974 152.135 192.156 151.375 192.156C150.229 192.156 149.299 191.758 148.586 190.961C147.878 190.164 147.523 189.109 147.523 187.797V187.695ZM148.977 187.867C148.977 188.805 149.193 189.557 149.625 190.125C150.062 190.693 150.646 190.977 151.375 190.977C152.109 190.977 152.693 190.69 153.125 190.117C153.557 189.539 153.773 188.732 153.773 187.695C153.773 186.768 153.552 186.018 153.109 185.445C152.672 184.867 152.089 184.578 151.359 184.578C150.646 184.578 150.07 184.862 149.633 185.43C149.195 185.997 148.977 186.81 148.977 187.867ZM162.25 191.164C161.688 191.826 160.862 192.156 159.773 192.156C158.872 192.156 158.185 191.896 157.711 191.375C157.242 190.849 157.005 190.073 157 189.047V183.547H158.445V189.008C158.445 190.289 158.966 190.93 160.008 190.93C161.112 190.93 161.846 190.518 162.211 189.695V183.547H163.656V192H162.281L162.25 191.164ZM165.891 191.242C165.891 190.992 165.964 190.784 166.109 190.617C166.26 190.451 166.484 190.367 166.781 190.367C167.078 190.367 167.302 190.451 167.453 190.617C167.609 190.784 167.688 190.992 167.688 191.242C167.688 191.482 167.609 191.682 167.453 191.844C167.302 192.005 167.078 192.086 166.781 192.086C166.484 192.086 166.26 192.005 166.109 191.844C165.964 191.682 165.891 191.482 165.891 191.242Z" fill="white"/>
<path d="M1432 17H1422V7H1425V11.77L1431.98 5L1434 7.03L1427.15 14H1432V17Z" fill="black"/>
<path d="M731.402 68.5469H724.254L722.648 73H720.328L726.844 55.9375H728.812L735.34 73H733.031L731.402 68.5469ZM724.934 66.6953H730.734L727.828 58.7148L724.934 66.6953ZM748.031 66.8008C748.031 68.7383 747.586 70.2969 746.695 71.4766C745.805 72.6484 744.609 73.2344 743.109 73.2344C741.508 73.2344 740.27 72.668 739.395 71.5352L739.289 73H737.297V55H739.465V61.7148C740.34 60.6289 741.547 60.0859 743.086 60.0859C744.625 60.0859 745.832 60.668 746.707 61.832C747.59 62.9961 748.031 64.5898 748.031 66.6133V66.8008ZM745.863 66.5547C745.863 65.0781 745.578 63.9375 745.008 63.1328C744.438 62.3281 743.617 61.9258 742.547 61.9258C741.117 61.9258 740.09 62.5898 739.465 63.918V69.4023C740.129 70.7305 741.164 71.3945 742.57 71.3945C743.609 71.3945 744.418 70.9922 744.996 70.1875C745.574 69.3828 745.863 68.1719 745.863 66.5547ZM750.199 66.543C750.199 65.3008 750.441 64.1836 750.926 63.1914C751.418 62.1992 752.098 61.4336 752.965 60.8945C753.84 60.3555 754.836 60.0859 755.953 60.0859C757.68 60.0859 759.074 60.6836 760.137 61.8789C761.207 63.0742 761.742 64.6641 761.742 66.6484V66.8008C761.742 68.0352 761.504 69.1445 761.027 70.1289C760.559 71.1055 759.883 71.8672 759 72.4141C758.125 72.9609 757.117 73.2344 755.977 73.2344C754.258 73.2344 752.863 72.6367 751.793 71.4414C750.73 70.2461 750.199 68.6641 750.199 66.6953V66.543ZM752.379 66.8008C752.379 68.207 752.703 69.3359 753.352 70.1875C754.008 71.0391 754.883 71.4648 755.977 71.4648C757.078 71.4648 757.953 71.0352 758.602 70.1758C759.25 69.3086 759.574 68.0977 759.574 66.543C759.574 65.1523 759.242 64.0273 758.578 63.168C757.922 62.3008 757.047 61.8672 755.953 61.8672C754.883 61.8672 754.02 62.293 753.363 63.1445C752.707 63.9961 752.379 65.2148 752.379 66.8008ZM772.289 71.7461C771.445 72.7383 770.207 73.2344 768.574 73.2344C767.223 73.2344 766.191 72.8438 765.48 72.0625C764.777 71.2734 764.422 70.1094 764.414 68.5703V60.3203H766.582V68.5117C766.582 70.4336 767.363 71.3945 768.926 71.3945C770.582 71.3945 771.684 70.7773 772.23 69.543V60.3203H774.398V73H772.336L772.289 71.7461ZM780.645 57.25V60.3203H783.012V61.9961H780.645V69.8594C780.645 70.3672 780.75 70.75 780.961 71.0078C781.172 71.2578 781.531 71.3828 782.039 71.3828C782.289 71.3828 782.633 71.3359 783.07 71.2422V73C782.5 73.1562 781.945 73.2344 781.406 73.2344C780.438 73.2344 779.707 72.9414 779.215 72.3555C778.723 71.7695 778.477 70.9375 778.477 69.8594V61.9961H776.168V60.3203H778.477V57.25H780.645ZM804.398 67.5859C804.188 69.3906 803.52 70.7852 802.395 71.7695C801.277 72.7461 799.789 73.2344 797.93 73.2344C795.914 73.2344 794.297 72.5117 793.078 71.0664C791.867 69.6211 791.262 67.6875 791.262 65.2656V63.625C791.262 62.0391 791.543 60.6445 792.105 59.4414C792.676 58.2383 793.48 57.3164 794.52 56.6758C795.559 56.0273 796.762 55.7031 798.129 55.7031C799.941 55.7031 801.395 56.2109 802.488 57.2266C803.582 58.2344 804.219 59.6328 804.398 61.4219H802.137C801.941 60.0625 801.516 59.0781 800.859 58.4688C800.211 57.8594 799.301 57.5547 798.129 57.5547C796.691 57.5547 795.562 58.0859 794.742 59.1484C793.93 60.2109 793.523 61.7227 793.523 63.6836V65.3359C793.523 67.1875 793.91 68.6602 794.684 69.7539C795.457 70.8477 796.539 71.3945 797.93 71.3945C799.18 71.3945 800.137 71.1133 800.801 70.5508C801.473 69.9805 801.918 68.9922 802.137 67.5859H804.398ZM816.902 68.5469H809.754L808.148 73H805.828L812.344 55.9375H814.312L820.84 73H818.531L816.902 68.5469ZM810.434 66.6953H816.234L813.328 58.7148L810.434 66.6953ZM825.387 66.3203V73H823.137V55.9375H829.43C831.297 55.9375 832.758 56.4141 833.812 57.3672C834.875 58.3203 835.406 59.582 835.406 61.1523C835.406 62.8086 834.887 64.0859 833.848 64.9844C832.816 65.875 831.336 66.3203 829.406 66.3203H825.387ZM825.387 64.4805H829.43C830.633 64.4805 831.555 64.1992 832.195 63.6367C832.836 63.0664 833.156 62.2461 833.156 61.1758C833.156 60.1602 832.836 59.3477 832.195 58.7383C831.555 58.1289 830.676 57.8125 829.559 57.7891H825.387V64.4805ZM843.305 65.3945C841.375 64.8398 839.969 64.1602 839.086 63.3555C838.211 62.543 837.773 61.543 837.773 60.3555C837.773 59.0117 838.309 57.9023 839.379 57.0273C840.457 56.1445 841.855 55.7031 843.574 55.7031C844.746 55.7031 845.789 55.9297 846.703 56.3828C847.625 56.8359 848.336 57.4609 848.836 58.2578C849.344 59.0547 849.598 59.9258 849.598 60.8711H847.336C847.336 59.8398 847.008 59.0312 846.352 58.4453C845.695 57.8516 844.77 57.5547 843.574 57.5547C842.465 57.5547 841.598 57.8008 840.973 58.293C840.355 58.7773 840.047 59.4531 840.047 60.3203C840.047 61.0156 840.34 61.6055 840.926 62.0898C841.52 62.5664 842.523 63.0039 843.938 63.4023C845.359 63.8008 846.469 64.2422 847.266 64.7266C848.07 65.2031 848.664 65.7617 849.047 66.4023C849.438 67.043 849.633 67.7969 849.633 68.6641C849.633 70.0469 849.094 71.1562 848.016 71.9922C846.938 72.8203 845.496 73.2344 843.691 73.2344C842.52 73.2344 841.426 73.0117 840.41 72.5664C839.395 72.1133 838.609 71.4961 838.055 70.7148C837.508 69.9336 837.234 69.0469 837.234 68.0547H839.496C839.496 69.0859 839.875 69.9023 840.633 70.5039C841.398 71.0977 842.418 71.3945 843.691 71.3945C844.879 71.3945 845.789 71.1523 846.422 70.668C847.055 70.1836 847.371 69.5234 847.371 68.6875C847.371 67.8516 847.078 67.207 846.492 66.7539C845.906 66.293 844.844 65.8398 843.305 65.3945Z" fill="white"/>
<path d="M735.105 132.02C735.105 133.691 734.824 135.152 734.262 136.402C733.699 137.645 732.902 138.594 731.871 139.25C730.84 139.906 729.637 140.234 728.262 140.234C726.918 140.234 725.727 139.906 724.688 139.25C723.648 138.586 722.84 137.645 722.262 136.426C721.691 135.199 721.398 133.781 721.383 132.172V130.941C721.383 129.301 721.668 127.852 722.238 126.594C722.809 125.336 723.613 124.375 724.652 123.711C725.699 123.039 726.895 122.703 728.238 122.703C729.605 122.703 730.809 123.035 731.848 123.699C732.895 124.355 733.699 125.312 734.262 126.57C734.824 127.82 735.105 129.277 735.105 130.941V132.02ZM732.867 130.918C732.867 128.895 732.461 127.344 731.648 126.266C730.836 125.18 729.699 124.637 728.238 124.637C726.816 124.637 725.695 125.18 724.875 126.266C724.062 127.344 723.645 128.844 723.621 130.766V132.02C723.621 133.98 724.031 135.523 724.852 136.648C725.68 137.766 726.816 138.324 728.262 138.324C729.715 138.324 730.84 137.797 731.637 136.742C732.434 135.68 732.844 134.16 732.867 132.184V130.918ZM745.969 138.746C745.125 139.738 743.887 140.234 742.254 140.234C740.902 140.234 739.871 139.844 739.16 139.062C738.457 138.273 738.102 137.109 738.094 135.57V127.32H740.262V135.512C740.262 137.434 741.043 138.395 742.605 138.395C744.262 138.395 745.363 137.777 745.91 136.543V127.32H748.078V140H746.016L745.969 138.746ZM757.512 129.266C757.184 129.211 756.828 129.184 756.445 129.184C755.023 129.184 754.059 129.789 753.551 131V140H751.383V127.32H753.492L753.527 128.785C754.238 127.652 755.246 127.086 756.551 127.086C756.973 127.086 757.293 127.141 757.512 127.25V129.266ZM768.715 122.938L774.293 136.859L779.871 122.938H782.789V140H780.539V133.355L780.75 126.184L775.148 140H773.426L767.836 126.219L768.059 133.355V140H765.809V122.938H768.715ZM788.777 140H786.609V127.32H788.777V140ZM786.434 123.957C786.434 123.605 786.539 123.309 786.75 123.066C786.969 122.824 787.289 122.703 787.711 122.703C788.133 122.703 788.453 122.824 788.672 123.066C788.891 123.309 789 123.605 789 123.957C789 124.309 788.891 124.602 788.672 124.836C788.453 125.07 788.133 125.188 787.711 125.188C787.289 125.188 786.969 125.07 786.75 124.836C786.539 124.602 786.434 124.309 786.434 123.957ZM799.641 136.637C799.641 136.051 799.418 135.598 798.973 135.277C798.535 134.949 797.766 134.668 796.664 134.434C795.57 134.199 794.699 133.918 794.051 133.59C793.41 133.262 792.934 132.871 792.621 132.418C792.316 131.965 792.164 131.426 792.164 130.801C792.164 129.762 792.602 128.883 793.477 128.164C794.359 127.445 795.484 127.086 796.852 127.086C798.289 127.086 799.453 127.457 800.344 128.199C801.242 128.941 801.691 129.891 801.691 131.047H799.512C799.512 130.453 799.258 129.941 798.75 129.512C798.25 129.082 797.617 128.867 796.852 128.867C796.062 128.867 795.445 129.039 795 129.383C794.555 129.727 794.332 130.176 794.332 130.73C794.332 131.254 794.539 131.648 794.953 131.914C795.367 132.18 796.113 132.434 797.191 132.676C798.277 132.918 799.156 133.207 799.828 133.543C800.5 133.879 800.996 134.285 801.316 134.762C801.645 135.23 801.809 135.805 801.809 136.484C801.809 137.617 801.355 138.527 800.449 139.215C799.543 139.895 798.367 140.234 796.922 140.234C795.906 140.234 795.008 140.055 794.227 139.695C793.445 139.336 792.832 138.836 792.387 138.195C791.949 137.547 791.73 136.848 791.73 136.098H793.898C793.938 136.824 794.227 137.402 794.766 137.832C795.312 138.254 796.031 138.465 796.922 138.465C797.742 138.465 798.398 138.301 798.891 137.973C799.391 137.637 799.641 137.191 799.641 136.637ZM812.016 136.637C812.016 136.051 811.793 135.598 811.348 135.277C810.91 134.949 810.141 134.668 809.039 134.434C807.945 134.199 807.074 133.918 806.426 133.59C805.785 133.262 805.309 132.871 804.996 132.418C804.691 131.965 804.539 131.426 804.539 130.801C804.539 129.762 804.977 128.883 805.852 128.164C806.734 127.445 807.859 127.086 809.227 127.086C810.664 127.086 811.828 127.457 812.719 128.199C813.617 128.941 814.066 129.891 814.066 131.047H811.887C811.887 130.453 811.633 129.941 811.125 129.512C810.625 129.082 809.992 128.867 809.227 128.867C808.438 128.867 807.82 129.039 807.375 129.383C806.93 129.727 806.707 130.176 806.707 130.73C806.707 131.254 806.914 131.648 807.328 131.914C807.742 132.18 808.488 132.434 809.566 132.676C810.652 132.918 811.531 133.207 812.203 133.543C812.875 133.879 813.371 134.285 813.691 134.762C814.02 135.23 814.184 135.805 814.184 136.484C814.184 137.617 813.73 138.527 812.824 139.215C811.918 139.895 810.742 140.234 809.297 140.234C808.281 140.234 807.383 140.055 806.602 139.695C805.82 139.336 805.207 138.836 804.762 138.195C804.324 137.547 804.105 136.848 804.105 136.098H806.273C806.312 136.824 806.602 137.402 807.141 137.832C807.688 138.254 808.406 138.465 809.297 138.465C810.117 138.465 810.773 138.301 811.266 137.973C811.766 137.637 812.016 137.191 812.016 136.637ZM819.363 140H817.195V127.32H819.363V140ZM817.02 123.957C817.02 123.605 817.125 123.309 817.336 123.066C817.555 122.824 817.875 122.703 818.297 122.703C818.719 122.703 819.039 122.824 819.258 123.066C819.477 123.309 819.586 123.605 819.586 123.957C819.586 124.309 819.477 124.602 819.258 124.836C819.039 125.07 818.719 125.188 818.297 125.188C817.875 125.188 817.555 125.07 817.336 124.836C817.125 124.602 817.02 124.309 817.02 123.957ZM822.27 133.543C822.27 132.301 822.512 131.184 822.996 130.191C823.488 129.199 824.168 128.434 825.035 127.895C825.91 127.355 826.906 127.086 828.023 127.086C829.75 127.086 831.145 127.684 832.207 128.879C833.277 130.074 833.812 131.664 833.812 133.648V133.801C833.812 135.035 833.574 136.145 833.098 137.129C832.629 138.105 831.953 138.867 831.07 139.414C830.195 139.961 829.188 140.234 828.047 140.234C826.328 140.234 824.934 139.637 823.863 138.441C822.801 137.246 822.27 135.664 822.27 133.695V133.543ZM824.449 133.801C824.449 135.207 824.773 136.336 825.422 137.188C826.078 138.039 826.953 138.465 828.047 138.465C829.148 138.465 830.023 138.035 830.672 137.176C831.32 136.309 831.645 135.098 831.645 133.543C831.645 132.152 831.312 131.027 830.648 130.168C829.992 129.301 829.117 128.867 828.023 128.867C826.953 128.867 826.09 129.293 825.434 130.145C824.777 130.996 824.449 132.215 824.449 133.801ZM838.582 127.32L838.652 128.914C839.621 127.695 840.887 127.086 842.449 127.086C845.129 127.086 846.48 128.598 846.504 131.621V140H844.336V131.609C844.328 130.695 844.117 130.02 843.703 129.582C843.297 129.145 842.66 128.926 841.793 128.926C841.09 128.926 840.473 129.113 839.941 129.488C839.41 129.863 838.996 130.355 838.699 130.965V140H836.531V127.32H838.582Z" fill="white"/>
<path d="M1147.09 73H1144.83V65.1133H1136.23V73H1133.98V55.9375H1136.23V63.2734H1144.83V55.9375H1147.09V73ZM1150.18 66.543C1150.18 65.3008 1150.42 64.1836 1150.9 63.1914C1151.39 62.1992 1152.07 61.4336 1152.94 60.8945C1153.82 60.3555 1154.81 60.0859 1155.93 60.0859C1157.66 60.0859 1159.05 60.6836 1160.11 61.8789C1161.18 63.0742 1161.72 64.6641 1161.72 66.6484V66.8008C1161.72 68.0352 1161.48 69.1445 1161 70.1289C1160.54 71.1055 1159.86 71.8672 1158.98 72.4141C1158.1 72.9609 1157.09 73.2344 1155.95 73.2344C1154.23 73.2344 1152.84 72.6367 1151.77 71.4414C1150.71 70.2461 1150.18 68.6641 1150.18 66.6953V66.543ZM1152.36 66.8008C1152.36 68.207 1152.68 69.3359 1153.33 70.1875C1153.98 71.0391 1154.86 71.4648 1155.95 71.4648C1157.05 71.4648 1157.93 71.0352 1158.58 70.1758C1159.23 69.3086 1159.55 68.0977 1159.55 66.543C1159.55 65.1523 1159.22 64.0273 1158.55 63.168C1157.9 62.3008 1157.02 61.8672 1155.93 61.8672C1154.86 61.8672 1154 62.293 1153.34 63.1445C1152.68 63.9961 1152.36 65.2148 1152.36 66.8008ZM1172.27 71.7461C1171.42 72.7383 1170.18 73.2344 1168.55 73.2344C1167.2 73.2344 1166.17 72.8438 1165.46 72.0625C1164.75 71.2734 1164.4 70.1094 1164.39 68.5703V60.3203H1166.56V68.5117C1166.56 70.4336 1167.34 71.3945 1168.9 71.3945C1170.56 71.3945 1171.66 70.7773 1172.21 69.543V60.3203H1174.38V73H1172.31L1172.27 71.7461ZM1183.81 62.2656C1183.48 62.2109 1183.12 62.1836 1182.74 62.1836C1181.32 62.1836 1180.36 62.7891 1179.85 64V73H1177.68V60.3203H1179.79L1179.82 61.7852C1180.54 60.6523 1181.54 60.0859 1182.85 60.0859C1183.27 60.0859 1183.59 60.1406 1183.81 60.25V62.2656ZM1193.2 69.6367C1193.2 69.0508 1192.97 68.5977 1192.53 68.2773C1192.09 67.9492 1191.32 67.668 1190.22 67.4336C1189.12 67.1992 1188.25 66.918 1187.61 66.5898C1186.96 66.2617 1186.49 65.8711 1186.18 65.418C1185.87 64.9648 1185.72 64.4258 1185.72 63.8008C1185.72 62.7617 1186.16 61.8828 1187.03 61.1641C1187.91 60.4453 1189.04 60.0859 1190.41 60.0859C1191.84 60.0859 1193.01 60.457 1193.9 61.1992C1194.8 61.9414 1195.25 62.8906 1195.25 64.0469H1193.07C1193.07 63.4531 1192.81 62.9414 1192.3 62.5117C1191.8 62.082 1191.17 61.8672 1190.41 61.8672C1189.62 61.8672 1189 62.0391 1188.55 62.3828C1188.11 62.7266 1187.89 63.1758 1187.89 63.7305C1187.89 64.2539 1188.09 64.6484 1188.51 64.9141C1188.92 65.1797 1189.67 65.4336 1190.75 65.6758C1191.83 65.918 1192.71 66.207 1193.38 66.543C1194.05 66.8789 1194.55 67.2852 1194.87 67.7617C1195.2 68.2305 1195.36 68.8047 1195.36 69.4844C1195.36 70.6172 1194.91 71.5273 1194 72.2148C1193.1 72.8945 1191.92 73.2344 1190.48 73.2344C1189.46 73.2344 1188.56 73.0547 1187.78 72.6953C1187 72.3359 1186.39 71.8359 1185.94 71.1953C1185.5 70.5469 1185.29 69.8477 1185.29 69.0977H1187.45C1187.49 69.8242 1187.78 70.4023 1188.32 70.832C1188.87 71.2539 1189.59 71.4648 1190.48 71.4648C1191.3 71.4648 1191.95 71.3008 1192.45 70.9727C1192.95 70.6367 1193.2 70.1914 1193.2 69.6367ZM1203.68 68.418C1203.68 67.5977 1203.91 66.8438 1204.36 66.1562C1204.82 65.4688 1205.7 64.668 1206.99 63.7539C1206.23 62.832 1205.72 62.0898 1205.46 61.5273C1205.21 60.9648 1205.08 60.4062 1205.08 59.8516C1205.08 58.5547 1205.46 57.5391 1206.23 56.8047C1206.99 56.0703 1208.03 55.7031 1209.34 55.7031C1210.52 55.7031 1211.48 56.0469 1212.25 56.7344C1213.02 57.4141 1213.4 58.2734 1213.4 59.3125C1213.4 60 1213.22 60.6367 1212.87 61.2227C1212.53 61.8008 1211.92 62.4102 1211.05 63.0508L1209.8 63.9766L1213.6 68.5117C1214.13 67.4961 1214.39 66.3672 1214.39 65.125H1216.35C1216.35 67.1172 1215.87 68.7695 1214.91 70.082L1217.35 73H1214.75L1213.61 71.6523C1213.03 72.168 1212.35 72.5625 1211.57 72.8359C1210.8 73.1016 1210.01 73.2344 1209.2 73.2344C1207.54 73.2344 1206.2 72.793 1205.2 71.9102C1204.19 71.0273 1203.68 69.8633 1203.68 68.418ZM1209.2 71.4648C1210.35 71.4648 1211.4 71.0273 1212.36 70.1523L1208.2 65.1719L1207.81 65.4531C1206.5 66.4141 1205.85 67.4023 1205.85 68.418C1205.85 69.3398 1206.15 70.0781 1206.74 70.6328C1207.34 71.1875 1208.16 71.4648 1209.2 71.4648ZM1207.25 59.7812C1207.25 60.5312 1207.71 61.4688 1208.63 62.5938L1210.01 61.6211C1210.54 61.2461 1210.91 60.8906 1211.1 60.5547C1211.3 60.2109 1211.39 59.7969 1211.39 59.3125C1211.39 58.7891 1211.2 58.3555 1210.81 58.0117C1210.42 57.6602 1209.93 57.4844 1209.33 57.4844C1208.69 57.4844 1208.18 57.7031 1207.81 58.1406C1207.43 58.5703 1207.25 59.1172 1207.25 59.7812ZM1227.62 71.1602H1235.71V73H1225.36V55.9375H1227.62V71.1602ZM1237.36 66.543C1237.36 65.3008 1237.61 64.1836 1238.09 63.1914C1238.58 62.1992 1239.26 61.4336 1240.13 60.8945C1241 60.3555 1242 60.0859 1243.12 60.0859C1244.84 60.0859 1246.24 60.6836 1247.3 61.8789C1248.37 63.0742 1248.91 64.6641 1248.91 66.6484V66.8008C1248.91 68.0352 1248.67 69.1445 1248.19 70.1289C1247.72 71.1055 1247.05 71.8672 1246.16 72.4141C1245.29 72.9609 1244.28 73.2344 1243.14 73.2344C1241.42 73.2344 1240.03 72.6367 1238.96 71.4414C1237.89 70.2461 1237.36 68.6641 1237.36 66.6953V66.543ZM1239.54 66.8008C1239.54 68.207 1239.87 69.3359 1240.52 70.1875C1241.17 71.0391 1242.05 71.4648 1243.14 71.4648C1244.24 71.4648 1245.12 71.0352 1245.77 70.1758C1246.41 69.3086 1246.74 68.0977 1246.74 66.543C1246.74 65.1523 1246.41 64.0273 1245.74 63.168C1245.09 62.3008 1244.21 61.8672 1243.12 61.8672C1242.05 61.8672 1241.18 62.293 1240.53 63.1445C1239.87 63.9961 1239.54 65.2148 1239.54 66.8008ZM1256.71 71.4648C1257.48 71.4648 1258.16 71.2305 1258.74 70.7617C1259.32 70.293 1259.64 69.707 1259.7 69.0039H1261.75C1261.71 69.7305 1261.46 70.4219 1261 71.0781C1260.54 71.7344 1259.92 72.2578 1259.15 72.6484C1258.38 73.0391 1257.57 73.2344 1256.71 73.2344C1254.98 73.2344 1253.61 72.6602 1252.59 71.5117C1251.57 70.3555 1251.06 68.7773 1251.06 66.7773V66.4141C1251.06 65.1797 1251.29 64.082 1251.74 63.1211C1252.2 62.1602 1252.84 61.4141 1253.69 60.8828C1254.54 60.3516 1255.54 60.0859 1256.7 60.0859C1258.12 60.0859 1259.3 60.5117 1260.24 61.3633C1261.18 62.2148 1261.69 63.3203 1261.75 64.6797H1259.7C1259.64 63.8594 1259.32 63.1875 1258.76 62.6641C1258.21 62.1328 1257.52 61.8672 1256.7 61.8672C1255.6 61.8672 1254.74 62.2656 1254.13 63.0625C1253.53 63.8516 1253.23 64.9961 1253.23 66.4961V66.9062C1253.23 68.3672 1253.53 69.4922 1254.13 70.2812C1254.73 71.0703 1255.59 71.4648 1256.71 71.4648ZM1272.02 73C1271.89 72.75 1271.79 72.3047 1271.71 71.6641C1270.7 72.7109 1269.5 73.2344 1268.1 73.2344C1266.85 73.2344 1265.82 72.8828 1265.02 72.1797C1264.22 71.4688 1263.82 70.5703 1263.82 69.4844C1263.82 68.1641 1264.32 67.1406 1265.32 66.4141C1266.33 65.6797 1267.75 65.3125 1269.57 65.3125H1271.68V64.3164C1271.68 63.5586 1271.45 62.957 1271 62.5117C1270.54 62.0586 1269.88 61.832 1268.99 61.832C1268.22 61.832 1267.57 62.0273 1267.05 62.418C1266.52 62.8086 1266.26 63.2812 1266.26 63.8359H1264.08C1264.08 63.2031 1264.3 62.5938 1264.75 62.0078C1265.2 61.4141 1265.81 60.9453 1266.58 60.6016C1267.35 60.2578 1268.2 60.0859 1269.12 60.0859C1270.58 60.0859 1271.73 60.4531 1272.55 61.1875C1273.38 61.9141 1273.81 62.918 1273.84 64.1992V70.0352C1273.84 71.1992 1273.99 72.125 1274.29 72.8125V73H1272.02ZM1268.42 71.3477C1269.1 71.3477 1269.74 71.1719 1270.35 70.8203C1270.96 70.4688 1271.4 70.0117 1271.68 69.4492V66.8477H1269.98C1267.32 66.8477 1265.99 67.625 1265.99 69.1797C1265.99 69.8594 1266.22 70.3906 1266.67 70.7734C1267.12 71.1562 1267.71 71.3477 1268.42 71.3477ZM1280.18 57.25V60.3203H1282.55V61.9961H1280.18V69.8594C1280.18 70.3672 1280.29 70.75 1280.5 71.0078C1280.71 71.2578 1281.07 71.3828 1281.58 71.3828C1281.83 71.3828 1282.17 71.3359 1282.61 71.2422V73C1282.04 73.1562 1281.48 73.2344 1280.95 73.2344C1279.98 73.2344 1279.25 72.9414 1278.75 72.3555C1278.26 71.7695 1278.02 70.9375 1278.02 69.8594V61.9961H1275.71V60.3203H1278.02V57.25H1280.18ZM1287.45 73H1285.28V60.3203H1287.45V73ZM1285.11 56.957C1285.11 56.6055 1285.21 56.3086 1285.42 56.0664C1285.64 55.8242 1285.96 55.7031 1286.38 55.7031C1286.8 55.7031 1287.12 55.8242 1287.34 56.0664C1287.56 56.3086 1287.67 56.6055 1287.67 56.957C1287.67 57.3086 1287.56 57.6016 1287.34 57.8359C1287.12 58.0703 1286.8 58.1875 1286.38 58.1875C1285.96 58.1875 1285.64 58.0703 1285.42 57.8359C1285.21 57.6016 1285.11 57.3086 1285.11 56.957ZM1290.36 66.543C1290.36 65.3008 1290.6 64.1836 1291.08 63.1914C1291.57 62.1992 1292.25 61.4336 1293.12 60.8945C1294 60.3555 1294.99 60.0859 1296.11 60.0859C1297.84 60.0859 1299.23 60.6836 1300.29 61.8789C1301.36 63.0742 1301.9 64.6641 1301.9 66.6484V66.8008C1301.9 68.0352 1301.66 69.1445 1301.18 70.1289C1300.71 71.1055 1300.04 71.8672 1299.16 72.4141C1298.28 72.9609 1297.27 73.2344 1296.13 73.2344C1294.41 73.2344 1293.02 72.6367 1291.95 71.4414C1290.89 70.2461 1290.36 68.6641 1290.36 66.6953V66.543ZM1292.54 66.8008C1292.54 68.207 1292.86 69.3359 1293.51 70.1875C1294.16 71.0391 1295.04 71.4648 1296.13 71.4648C1297.23 71.4648 1298.11 71.0352 1298.76 70.1758C1299.41 69.3086 1299.73 68.0977 1299.73 66.543C1299.73 65.1523 1299.4 64.0273 1298.73 63.168C1298.08 62.3008 1297.2 61.8672 1296.11 61.8672C1295.04 61.8672 1294.18 62.293 1293.52 63.1445C1292.86 63.9961 1292.54 65.2148 1292.54 66.8008ZM1306.67 60.3203L1306.74 61.9141C1307.71 60.6953 1308.97 60.0859 1310.54 60.0859C1313.21 60.0859 1314.57 61.5977 1314.59 64.6211V73H1312.42V64.6094C1312.41 63.6953 1312.2 63.0195 1311.79 62.582C1311.38 62.1445 1310.75 61.9258 1309.88 61.9258C1309.18 61.9258 1308.56 62.1133 1308.03 62.4883C1307.5 62.8633 1307.08 63.3555 1306.79 63.9648V73H1304.62V60.3203H1306.67ZM1325.24 69.6367C1325.24 69.0508 1325.02 68.5977 1324.57 68.2773C1324.14 67.9492 1323.37 67.668 1322.27 67.4336C1321.17 67.1992 1320.3 66.918 1319.65 66.5898C1319.01 66.2617 1318.54 65.8711 1318.22 65.418C1317.92 64.9648 1317.77 64.4258 1317.77 63.8008C1317.77 62.7617 1318.2 61.8828 1319.08 61.1641C1319.96 60.4453 1321.09 60.0859 1322.45 60.0859C1323.89 60.0859 1325.05 60.457 1325.95 61.1992C1326.84 61.9414 1327.29 62.8906 1327.29 64.0469H1325.11C1325.11 63.4531 1324.86 62.9414 1324.35 62.5117C1323.85 62.082 1323.22 61.8672 1322.45 61.8672C1321.66 61.8672 1321.05 62.0391 1320.6 62.3828C1320.16 62.7266 1319.93 63.1758 1319.93 63.7305C1319.93 64.2539 1320.14 64.6484 1320.55 64.9141C1320.97 65.1797 1321.71 65.4336 1322.79 65.6758C1323.88 65.918 1324.76 66.207 1325.43 66.543C1326.1 66.8789 1326.6 67.2852 1326.92 67.7617C1327.25 68.2305 1327.41 68.8047 1327.41 69.4844C1327.41 70.6172 1326.96 71.5273 1326.05 72.2148C1325.14 72.8945 1323.97 73.2344 1322.52 73.2344C1321.51 73.2344 1320.61 73.0547 1319.83 72.6953C1319.05 72.3359 1318.43 71.8359 1317.99 71.1953C1317.55 70.5469 1317.33 69.8477 1317.33 69.0977H1319.5C1319.54 69.8242 1319.83 70.4023 1320.37 70.832C1320.91 71.2539 1321.63 71.4648 1322.52 71.4648C1323.34 71.4648 1324 71.3008 1324.49 70.9727C1324.99 70.6367 1325.24 70.1914 1325.24 69.6367Z" fill="white"/>
<path d="M1146.53 134.586C1146.32 136.391 1145.65 137.785 1144.53 138.77C1143.41 139.746 1141.92 140.234 1140.06 140.234C1138.05 140.234 1136.43 139.512 1135.21 138.066C1134 136.621 1133.39 134.688 1133.39 132.266V130.625C1133.39 129.039 1133.68 127.645 1134.24 126.441C1134.81 125.238 1135.61 124.316 1136.65 123.676C1137.69 123.027 1138.89 122.703 1140.26 122.703C1142.07 122.703 1143.53 123.211 1144.62 124.227C1145.71 125.234 1146.35 126.633 1146.53 128.422H1144.27C1144.07 127.062 1143.65 126.078 1142.99 125.469C1142.34 124.859 1141.43 124.555 1140.26 124.555C1138.82 124.555 1137.7 125.086 1136.88 126.148C1136.06 127.211 1135.66 128.723 1135.66 130.684V132.336C1135.66 134.188 1136.04 135.66 1136.82 136.754C1137.59 137.848 1138.67 138.395 1140.06 138.395C1141.31 138.395 1142.27 138.113 1142.93 137.551C1143.61 136.98 1144.05 135.992 1144.27 134.586H1146.53ZM1148.7 133.543C1148.7 132.301 1148.94 131.184 1149.43 130.191C1149.92 129.199 1150.6 128.434 1151.46 127.895C1152.34 127.355 1153.34 127.086 1154.45 127.086C1156.18 127.086 1157.57 127.684 1158.64 128.879C1159.71 130.074 1160.24 131.664 1160.24 133.648V133.801C1160.24 135.035 1160 136.145 1159.53 137.129C1159.06 138.105 1158.38 138.867 1157.5 139.414C1156.62 139.961 1155.62 140.234 1154.48 140.234C1152.76 140.234 1151.36 139.637 1150.29 138.441C1149.23 137.246 1148.7 135.664 1148.7 133.695V133.543ZM1150.88 133.801C1150.88 135.207 1151.2 136.336 1151.85 137.188C1152.51 138.039 1153.38 138.465 1154.48 138.465C1155.58 138.465 1156.45 138.035 1157.1 137.176C1157.75 136.309 1158.07 135.098 1158.07 133.543C1158.07 132.152 1157.74 131.027 1157.08 130.168C1156.42 129.301 1155.55 128.867 1154.45 128.867C1153.38 128.867 1152.52 129.293 1151.86 130.145C1151.21 130.996 1150.88 132.215 1150.88 133.801ZM1165.01 127.32L1165.08 128.914C1166.05 127.695 1167.32 127.086 1168.88 127.086C1171.56 127.086 1172.91 128.598 1172.93 131.621V140H1170.77V131.609C1170.76 130.695 1170.55 130.02 1170.13 129.582C1169.73 129.145 1169.09 128.926 1168.22 128.926C1167.52 128.926 1166.9 129.113 1166.37 129.488C1165.84 129.863 1165.43 130.355 1165.13 130.965V140H1162.96V127.32H1165.01ZM1179.14 124.25V127.32H1181.51V128.996H1179.14V136.859C1179.14 137.367 1179.25 137.75 1179.46 138.008C1179.67 138.258 1180.03 138.383 1180.54 138.383C1180.79 138.383 1181.13 138.336 1181.57 138.242V140C1181 140.156 1180.45 140.234 1179.91 140.234C1178.94 140.234 1178.21 139.941 1177.71 139.355C1177.22 138.77 1176.98 137.938 1176.98 136.859V128.996H1174.67V127.32H1176.98V124.25H1179.14ZM1191.88 140C1191.76 139.75 1191.66 139.305 1191.58 138.664C1190.57 139.711 1189.37 140.234 1187.97 140.234C1186.72 140.234 1185.69 139.883 1184.89 139.18C1184.09 138.469 1183.69 137.57 1183.69 136.484C1183.69 135.164 1184.19 134.141 1185.19 133.414C1186.2 132.68 1187.61 132.312 1189.43 132.312H1191.54V131.316C1191.54 130.559 1191.32 129.957 1190.86 129.512C1190.41 129.059 1189.74 128.832 1188.86 128.832C1188.09 128.832 1187.44 129.027 1186.91 129.418C1186.39 129.809 1186.13 130.281 1186.13 130.836H1183.95C1183.95 130.203 1184.17 129.594 1184.62 129.008C1185.07 128.414 1185.68 127.945 1186.45 127.602C1187.22 127.258 1188.07 127.086 1188.99 127.086C1190.45 127.086 1191.59 127.453 1192.42 128.188C1193.25 128.914 1193.68 129.918 1193.71 131.199V137.035C1193.71 138.199 1193.86 139.125 1194.16 139.812V140H1191.88ZM1188.29 138.348C1188.96 138.348 1189.61 138.172 1190.22 137.82C1190.83 137.469 1191.27 137.012 1191.54 136.449V133.848H1189.84C1187.19 133.848 1185.86 134.625 1185.86 136.18C1185.86 136.859 1186.09 137.391 1186.54 137.773C1186.99 138.156 1187.57 138.348 1188.29 138.348ZM1202.2 138.465C1202.97 138.465 1203.64 138.23 1204.22 137.762C1204.8 137.293 1205.12 136.707 1205.18 136.004H1207.23C1207.2 136.73 1206.95 137.422 1206.48 138.078C1206.02 138.734 1205.41 139.258 1204.63 139.648C1203.87 140.039 1203.05 140.234 1202.2 140.234C1200.47 140.234 1199.09 139.66 1198.07 138.512C1197.05 137.355 1196.55 135.777 1196.55 133.777V133.414C1196.55 132.18 1196.77 131.082 1197.23 130.121C1197.68 129.16 1198.33 128.414 1199.17 127.883C1200.02 127.352 1201.03 127.086 1202.18 127.086C1203.61 127.086 1204.79 127.512 1205.72 128.363C1206.67 129.215 1207.17 130.32 1207.23 131.68H1205.18C1205.12 130.859 1204.81 130.188 1204.25 129.664C1203.69 129.133 1203 128.867 1202.18 128.867C1201.08 128.867 1200.23 129.266 1199.62 130.062C1199.02 130.852 1198.71 131.996 1198.71 133.496V133.906C1198.71 135.367 1199.02 136.492 1199.62 137.281C1200.22 138.07 1201.08 138.465 1202.2 138.465ZM1212.61 124.25V127.32H1214.98V128.996H1212.61V136.859C1212.61 137.367 1212.72 137.75 1212.93 138.008C1213.14 138.258 1213.5 138.383 1214.01 138.383C1214.26 138.383 1214.6 138.336 1215.04 138.242V140C1214.47 140.156 1213.91 140.234 1213.38 140.234C1212.41 140.234 1211.68 139.941 1211.18 139.355C1210.69 138.77 1210.45 137.938 1210.45 136.859V128.996H1208.14V127.32H1210.45V124.25H1212.61ZM1235.83 122.938V134.539C1235.82 136.148 1235.31 137.465 1234.3 138.488C1233.3 139.512 1231.95 140.086 1230.23 140.211L1229.63 140.234C1227.76 140.234 1226.27 139.73 1225.16 138.723C1224.05 137.715 1223.49 136.328 1223.48 134.562V122.938H1225.7V134.492C1225.7 135.727 1226.04 136.688 1226.72 137.375C1227.4 138.055 1228.37 138.395 1229.63 138.395C1230.9 138.395 1231.88 138.055 1232.55 137.375C1233.23 136.695 1233.57 135.738 1233.57 134.504V122.938H1235.83ZM1246.42 136.637C1246.42 136.051 1246.2 135.598 1245.75 135.277C1245.32 134.949 1244.55 134.668 1243.45 134.434C1242.35 134.199 1241.48 133.918 1240.83 133.59C1240.19 133.262 1239.71 132.871 1239.4 132.418C1239.1 131.965 1238.95 131.426 1238.95 130.801C1238.95 129.762 1239.38 128.883 1240.26 128.164C1241.14 127.445 1242.27 127.086 1243.63 127.086C1245.07 127.086 1246.23 127.457 1247.12 128.199C1248.02 128.941 1248.47 129.891 1248.47 131.047H1246.29C1246.29 130.453 1246.04 129.941 1245.53 129.512C1245.03 129.082 1244.4 128.867 1243.63 128.867C1242.84 128.867 1242.23 129.039 1241.78 129.383C1241.34 129.727 1241.11 130.176 1241.11 130.73C1241.11 131.254 1241.32 131.648 1241.73 131.914C1242.15 132.18 1242.89 132.434 1243.97 132.676C1245.06 132.918 1245.94 133.207 1246.61 133.543C1247.28 133.879 1247.78 134.285 1248.1 134.762C1248.43 135.23 1248.59 135.805 1248.59 136.484C1248.59 137.617 1248.14 138.527 1247.23 139.215C1246.32 139.895 1245.15 140.234 1243.7 140.234C1242.69 140.234 1241.79 140.055 1241.01 139.695C1240.23 139.336 1239.61 138.836 1239.17 138.195C1238.73 137.547 1238.51 136.848 1238.51 136.098H1240.68C1240.72 136.824 1241.01 137.402 1241.55 137.832C1242.09 138.254 1242.81 138.465 1243.7 138.465C1244.52 138.465 1245.18 138.301 1245.67 137.973C1246.17 137.637 1246.42 137.191 1246.42 136.637Z" fill="white"/>
<path d="M734.531 204.586C734.32 206.391 733.652 207.785 732.527 208.77C731.41 209.746 729.922 210.234 728.062 210.234C726.047 210.234 724.43 209.512 723.211 208.066C722 206.621 721.395 204.688 721.395 202.266V200.625C721.395 199.039 721.676 197.645 722.238 196.441C722.809 195.238 723.613 194.316 724.652 193.676C725.691 193.027 726.895 192.703 728.262 192.703C730.074 192.703 731.527 193.211 732.621 194.227C733.715 195.234 734.352 196.633 734.531 198.422H732.27C732.074 197.062 731.648 196.078 730.992 195.469C730.344 194.859 729.434 194.555 728.262 194.555C726.824 194.555 725.695 195.086 724.875 196.148C724.062 197.211 723.656 198.723 723.656 200.684V202.336C723.656 204.188 724.043 205.66 724.816 206.754C725.59 207.848 726.672 208.395 728.062 208.395C729.312 208.395 730.27 208.113 730.934 207.551C731.605 206.98 732.051 205.992 732.27 204.586H734.531ZM747.035 205.547H739.887L738.281 210H735.961L742.477 192.938H744.445L750.973 210H748.664L747.035 205.547ZM740.566 203.695H746.367L743.461 195.715L740.566 203.695ZM755.52 203.32V210H753.27V192.938H759.562C761.43 192.938 762.891 193.414 763.945 194.367C765.008 195.32 765.539 196.582 765.539 198.152C765.539 199.809 765.02 201.086 763.98 201.984C762.949 202.875 761.469 203.32 759.539 203.32H755.52ZM755.52 201.48H759.562C760.766 201.48 761.688 201.199 762.328 200.637C762.969 200.066 763.289 199.246 763.289 198.176C763.289 197.16 762.969 196.348 762.328 195.738C761.688 195.129 760.809 194.812 759.691 194.789H755.52V201.48ZM773.438 202.395C771.508 201.84 770.102 201.16 769.219 200.355C768.344 199.543 767.906 198.543 767.906 197.355C767.906 196.012 768.441 194.902 769.512 194.027C770.59 193.145 771.988 192.703 773.707 192.703C774.879 192.703 775.922 192.93 776.836 193.383C777.758 193.836 778.469 194.461 778.969 195.258C779.477 196.055 779.73 196.926 779.73 197.871H777.469C777.469 196.84 777.141 196.031 776.484 195.445C775.828 194.852 774.902 194.555 773.707 194.555C772.598 194.555 771.73 194.801 771.105 195.293C770.488 195.777 770.18 196.453 770.18 197.32C770.18 198.016 770.473 198.605 771.059 199.09C771.652 199.566 772.656 200.004 774.07 200.402C775.492 200.801 776.602 201.242 777.398 201.727C778.203 202.203 778.797 202.762 779.18 203.402C779.57 204.043 779.766 204.797 779.766 205.664C779.766 207.047 779.227 208.156 778.148 208.992C777.07 209.82 775.629 210.234 773.824 210.234C772.652 210.234 771.559 210.012 770.543 209.566C769.527 209.113 768.742 208.496 768.188 207.715C767.641 206.934 767.367 206.047 767.367 205.055H769.629C769.629 206.086 770.008 206.902 770.766 207.504C771.531 208.098 772.551 208.395 773.824 208.395C775.012 208.395 775.922 208.152 776.555 207.668C777.188 207.184 777.504 206.523 777.504 205.688C777.504 204.852 777.211 204.207 776.625 203.754C776.039 203.293 774.977 202.84 773.438 202.395ZM793.641 202.395C791.711 201.84 790.305 201.16 789.422 200.355C788.547 199.543 788.109 198.543 788.109 197.355C788.109 196.012 788.645 194.902 789.715 194.027C790.793 193.145 792.191 192.703 793.91 192.703C795.082 192.703 796.125 192.93 797.039 193.383C797.961 193.836 798.672 194.461 799.172 195.258C799.68 196.055 799.934 196.926 799.934 197.871H797.672C797.672 196.84 797.344 196.031 796.688 195.445C796.031 194.852 795.105 194.555 793.91 194.555C792.801 194.555 791.934 194.801 791.309 195.293C790.691 195.777 790.383 196.453 790.383 197.32C790.383 198.016 790.676 198.605 791.262 199.09C791.855 199.566 792.859 200.004 794.273 200.402C795.695 200.801 796.805 201.242 797.602 201.727C798.406 202.203 799 202.762 799.383 203.402C799.773 204.043 799.969 204.797 799.969 205.664C799.969 207.047 799.43 208.156 798.352 208.992C797.273 209.82 795.832 210.234 794.027 210.234C792.855 210.234 791.762 210.012 790.746 209.566C789.73 209.113 788.945 208.496 788.391 207.715C787.844 206.934 787.57 206.047 787.57 205.055H789.832C789.832 206.086 790.211 206.902 790.969 207.504C791.734 208.098 792.754 208.395 794.027 208.395C795.215 208.395 796.125 208.152 796.758 207.668C797.391 207.184 797.707 206.523 797.707 205.688C797.707 204.852 797.414 204.207 796.828 203.754C796.242 203.293 795.18 202.84 793.641 202.395ZM805.465 194.25V197.32H807.832V198.996H805.465V206.859C805.465 207.367 805.57 207.75 805.781 208.008C805.992 208.258 806.352 208.383 806.859 208.383C807.109 208.383 807.453 208.336 807.891 208.242V210C807.32 210.156 806.766 210.234 806.227 210.234C805.258 210.234 804.527 209.941 804.035 209.355C803.543 208.77 803.297 207.938 803.297 206.859V198.996H800.988V197.32H803.297V194.25H805.465ZM818.203 210C818.078 209.75 817.977 209.305 817.898 208.664C816.891 209.711 815.688 210.234 814.289 210.234C813.039 210.234 812.012 209.883 811.207 209.18C810.41 208.469 810.012 207.57 810.012 206.484C810.012 205.164 810.512 204.141 811.512 203.414C812.52 202.68 813.934 202.312 815.754 202.312H817.863V201.316C817.863 200.559 817.637 199.957 817.184 199.512C816.73 199.059 816.062 198.832 815.18 198.832C814.406 198.832 813.758 199.027 813.234 199.418C812.711 199.809 812.449 200.281 812.449 200.836H810.27C810.27 200.203 810.492 199.594 810.938 199.008C811.391 198.414 812 197.945 812.766 197.602C813.539 197.258 814.387 197.086 815.309 197.086C816.77 197.086 817.914 197.453 818.742 198.188C819.57 198.914 820 199.918 820.031 201.199V207.035C820.031 208.199 820.18 209.125 820.477 209.812V210H818.203ZM814.605 208.348C815.285 208.348 815.93 208.172 816.539 207.82C817.148 207.469 817.59 207.012 817.863 206.449V203.848H816.164C813.508 203.848 812.18 204.625 812.18 206.18C812.18 206.859 812.406 207.391 812.859 207.773C813.312 208.156 813.895 208.348 814.605 208.348ZM824.496 210V198.996H822.492V197.32H824.496V196.02C824.496 194.66 824.859 193.609 825.586 192.867C826.312 192.125 827.34 191.754 828.668 191.754C829.168 191.754 829.664 191.82 830.156 191.953L830.039 193.711C829.672 193.641 829.281 193.605 828.867 193.605C828.164 193.605 827.621 193.812 827.238 194.227C826.855 194.633 826.664 195.219 826.664 195.984V197.32H829.371V198.996H826.664V210H824.496ZM832.84 210V198.996H830.836V197.32H832.84V196.02C832.84 194.66 833.203 193.609 833.93 192.867C834.656 192.125 835.684 191.754 837.012 191.754C837.512 191.754 838.008 191.82 838.5 191.953L838.383 193.711C838.016 193.641 837.625 193.605 837.211 193.605C836.508 193.605 835.965 193.812 835.582 194.227C835.199 194.633 835.008 195.219 835.008 195.984V197.32H837.715V198.996H835.008V210H832.84Z" fill="white"/>
</svg>
