<svg width="257" height="307" viewBox="0 0 257 307" fill="none" xmlns="http://www.w3.org/2000/svg">
<g filter="url(#filter0_d)">
<path d="M18.2969 15.0703H13.1602L12.1836 18H9.06836L14.3613 3.78125H17.0762L22.3984 18H19.2832L18.2969 15.0703ZM13.9512 12.6973H17.5059L15.7188 7.375L13.9512 12.6973ZM26.6562 12.9902V18H23.7266V3.78125H29.2734C30.3411 3.78125 31.2786 3.97656 32.0859 4.36719C32.8997 4.75781 33.5247 5.31445 33.9609 6.03711C34.3971 6.75326 34.6152 7.57031 34.6152 8.48828C34.6152 9.88151 34.1367 10.9818 33.1797 11.7891C32.2292 12.5898 30.9108 12.9902 29.2246 12.9902H26.6562ZM26.6562 10.6172H29.2734C30.0482 10.6172 30.6374 10.4349 31.041 10.0703C31.4512 9.70573 31.6562 9.1849 31.6562 8.50781C31.6562 7.8112 31.4512 7.24805 31.041 6.81836C30.6309 6.38867 30.0645 6.16732 29.3418 6.1543H26.6562V10.6172ZM39.5664 12.9902V18H36.6367V3.78125H42.1836C43.2513 3.78125 44.1888 3.97656 44.9961 4.36719C45.8099 4.75781 46.4349 5.31445 46.8711 6.03711C47.3073 6.75326 47.5254 7.57031 47.5254 8.48828C47.5254 9.88151 47.0469 10.9818 46.0898 11.7891C45.1393 12.5898 43.821 12.9902 42.1348 12.9902H39.5664ZM39.5664 10.6172H42.1836C42.9583 10.6172 43.5475 10.4349 43.9512 10.0703C44.3613 9.70573 44.5664 9.1849 44.5664 8.50781C44.5664 7.8112 44.3613 7.24805 43.9512 6.81836C43.541 6.38867 42.9746 6.16732 42.252 6.1543H39.5664V10.6172ZM61.2266 11.2129C61.2266 12.6126 60.9792 13.8398 60.4844 14.8945C59.9896 15.9492 59.2799 16.763 58.3555 17.3359C57.4375 17.9089 56.3828 18.1953 55.1914 18.1953C54.013 18.1953 52.9616 17.9121 52.0371 17.3457C51.1126 16.7793 50.3965 15.972 49.8887 14.9238C49.3809 13.8691 49.1237 12.6582 49.1172 11.291V10.5879C49.1172 9.18815 49.3678 7.95768 49.8691 6.89648C50.377 5.82878 51.0898 5.01172 52.0078 4.44531C52.9323 3.8724 53.987 3.58594 55.1719 3.58594C56.3568 3.58594 57.4082 3.8724 58.3262 4.44531C59.2507 5.01172 59.9635 5.82878 60.4648 6.89648C60.9727 7.95768 61.2266 9.1849 61.2266 10.5781V11.2129ZM58.2578 10.5684C58.2578 9.07747 57.9909 7.94466 57.457 7.16992C56.9232 6.39518 56.1615 6.00781 55.1719 6.00781C54.1888 6.00781 53.4303 6.39193 52.8965 7.16016C52.3626 7.92188 52.0924 9.04167 52.0859 10.5195V11.2129C52.0859 12.6647 52.3529 13.791 52.8867 14.5918C53.4206 15.3926 54.1888 15.793 55.1914 15.793C56.1745 15.793 56.9297 15.4089 57.457 14.6406C57.9844 13.8659 58.2513 12.7396 58.2578 11.2617V10.5684ZM66.4707 18H63.541V3.78125H66.4707V18ZM80.7578 18H77.8281L72.125 8.64453V18H69.1953V3.78125H72.125L77.8379 13.1562V3.78125H80.7578V18ZM93.7266 6.1543H89.3711V18H86.4414V6.1543H82.1445V3.78125H93.7266V6.1543ZM99.2344 3.78125L102.887 14.0938L106.52 3.78125H110.367V18H107.428V14.1133L107.721 7.4043L103.883 18H101.871L98.043 7.41406L98.3359 14.1133V18H95.4062V3.78125H99.2344ZM121.48 11.8379H115.855V15.6465H122.457V18H112.926V3.78125H122.438V6.1543H115.855V9.54297H121.48V11.8379ZM135.738 18H132.809L127.105 8.64453V18H124.176V3.78125H127.105L132.818 13.1562V3.78125H135.738V18ZM148.707 6.1543H144.352V18H141.422V6.1543H137.125V3.78125H148.707V6.1543ZM157.604 14.2695C157.604 13.7161 157.408 13.293 157.018 13C156.627 12.7005 155.924 12.388 154.908 12.0625C153.893 11.7305 153.089 11.4049 152.496 11.0859C150.882 10.2135 150.074 9.03841 150.074 7.56055C150.074 6.79232 150.289 6.10872 150.719 5.50977C151.155 4.9043 151.777 4.43229 152.584 4.09375C153.398 3.75521 154.309 3.58594 155.318 3.58594C156.334 3.58594 157.239 3.77148 158.033 4.14258C158.827 4.50716 159.443 5.02474 159.879 5.69531C160.322 6.36589 160.543 7.1276 160.543 7.98047H157.613C157.613 7.32943 157.408 6.82487 156.998 6.4668C156.588 6.10221 156.012 5.91992 155.27 5.91992C154.553 5.91992 153.997 6.07292 153.6 6.37891C153.202 6.67839 153.004 7.07552 153.004 7.57031C153.004 8.03255 153.235 8.41992 153.697 8.73242C154.166 9.04492 154.853 9.33789 155.758 9.61133C157.424 10.1126 158.639 10.7344 159.4 11.4766C160.162 12.2188 160.543 13.1432 160.543 14.25C160.543 15.4805 160.077 16.4473 159.146 17.1504C158.215 17.847 156.962 18.1953 155.387 18.1953C154.293 18.1953 153.297 17.9967 152.398 17.5996C151.5 17.196 150.813 16.6458 150.338 15.9492C149.869 15.2526 149.635 14.4453 149.635 13.5273H152.574C152.574 15.0964 153.512 15.8809 155.387 15.8809C156.083 15.8809 156.627 15.7409 157.018 15.4609C157.408 15.1745 157.604 14.7773 157.604 14.2695ZM18.6875 67.3906C18.5469 68.5938 18.1016 69.5234 17.3516 70.1797C16.6068 70.8307 15.6146 71.1562 14.375 71.1562C13.0312 71.1562 11.9531 70.6745 11.1406 69.7109C10.3333 68.7474 9.92969 67.4583 9.92969 65.8438V64.75C9.92969 63.6927 10.1172 62.763 10.4922 61.9609C10.8724 61.1589 11.4089 60.5443 12.1016 60.1172C12.7943 59.6849 13.5964 59.4688 14.5078 59.4688C15.7161 59.4688 16.6849 59.8073 17.4141 60.4844C18.1432 61.1562 18.5677 62.0885 18.6875 63.2812H17.1797C17.0495 62.375 16.7656 61.7188 16.3281 61.3125C15.8958 60.9062 15.2891 60.7031 14.5078 60.7031C13.5495 60.7031 12.7969 61.0573 12.25 61.7656C11.7083 62.474 11.4375 63.4818 11.4375 64.7891V65.8906C11.4375 67.125 11.6953 68.1068 12.2109 68.8359C12.7266 69.5651 13.4479 69.9297 14.375 69.9297C15.2083 69.9297 15.8464 69.7422 16.2891 69.3672C16.737 68.987 17.0339 68.3281 17.1797 67.3906H18.6875ZM25.7344 71C25.651 70.8333 25.5833 70.5365 25.5312 70.1094C24.8594 70.8073 24.0573 71.1562 23.125 71.1562C22.2917 71.1562 21.6068 70.9219 21.0703 70.4531C20.5391 69.9792 20.2734 69.3802 20.2734 68.6562C20.2734 67.776 20.6068 67.0938 21.2734 66.6094C21.9453 66.1198 22.888 65.875 24.1016 65.875H25.5078V65.2109C25.5078 64.7057 25.3568 64.3047 25.0547 64.0078C24.7526 63.7057 24.3073 63.5547 23.7188 63.5547C23.2031 63.5547 22.7708 63.6849 22.4219 63.9453C22.0729 64.2057 21.8984 64.5208 21.8984 64.8906H20.4453C20.4453 64.4688 20.5938 64.0625 20.8906 63.6719C21.1927 63.276 21.599 62.9635 22.1094 62.7344C22.625 62.5052 23.1901 62.3906 23.8047 62.3906C24.7786 62.3906 25.5417 62.6354 26.0938 63.125C26.6458 63.6094 26.9323 64.2786 26.9531 65.1328V69.0234C26.9531 69.7995 27.0521 70.4167 27.25 70.875V71H25.7344ZM23.3359 69.8984C23.7891 69.8984 24.2188 69.7812 24.625 69.5469C25.0312 69.3125 25.3255 69.0078 25.5078 68.6328V66.8984H24.375C22.6042 66.8984 21.7188 67.4167 21.7188 68.4531C21.7188 68.9062 21.8698 69.2604 22.1719 69.5156C22.474 69.7708 22.862 69.8984 23.3359 69.8984ZM30.7891 71H29.3438V59H30.7891V71ZM34.6797 71H33.2344V59H34.6797V71ZM47.7188 62.5938C47.7188 63.1615 47.5677 63.6667 47.2656 64.1094C46.9688 64.5521 46.5651 64.8984 46.0547 65.1484C46.6484 65.4036 47.1172 65.776 47.4609 66.2656C47.8099 66.7552 47.9844 67.3099 47.9844 67.9297C47.9844 68.9141 47.651 69.6979 46.9844 70.2812C46.3229 70.8646 45.4505 71.1562 44.3672 71.1562C43.2734 71.1562 42.3958 70.8646 41.7344 70.2812C41.0781 69.6927 40.75 68.9089 40.75 67.9297C40.75 67.3151 40.9167 66.7604 41.25 66.2656C41.5885 65.7708 42.0547 65.3958 42.6484 65.1406C42.1432 64.8906 41.7448 64.5443 41.4531 64.1016C41.1615 63.6589 41.0156 63.1562 41.0156 62.5938C41.0156 61.6354 41.3229 60.875 41.9375 60.3125C42.5521 59.75 43.362 59.4688 44.3672 59.4688C45.3672 59.4688 46.1745 59.75 46.7891 60.3125C47.4089 60.875 47.7188 61.6354 47.7188 62.5938ZM46.5391 67.8984C46.5391 67.263 46.3359 66.7448 45.9297 66.3438C45.5286 65.9427 45.0026 65.7422 44.3516 65.7422C43.7005 65.7422 43.1771 65.9401 42.7812 66.3359C42.3906 66.7318 42.1953 67.2526 42.1953 67.8984C42.1953 68.5443 42.3854 69.0521 42.7656 69.4219C43.151 69.7917 43.6849 69.9766 44.3672 69.9766C45.0443 69.9766 45.5755 69.7917 45.9609 69.4219C46.3464 69.0469 46.5391 68.5391 46.5391 67.8984ZM44.3672 60.6562C43.7995 60.6562 43.3385 60.8333 42.9844 61.1875C42.6354 61.5365 42.4609 62.013 42.4609 62.6172C42.4609 63.1953 42.6328 63.6641 42.9766 64.0234C43.3255 64.3776 43.7891 64.5547 44.3672 64.5547C44.9453 64.5547 45.4062 64.3776 45.75 64.0234C46.099 63.6641 46.2734 63.1953 46.2734 62.6172C46.2734 62.0391 46.0938 61.5677 45.7344 61.2031C45.375 60.8385 44.9193 60.6562 44.3672 60.6562ZM50.4688 65.2969L51.0469 59.625H56.875V60.9609H52.2734L51.9297 64.0625C52.487 63.7344 53.1198 63.5703 53.8281 63.5703C54.8646 63.5703 55.6875 63.9141 56.2969 64.6016C56.9062 65.2839 57.2109 66.2083 57.2109 67.375C57.2109 68.5469 56.8932 69.4714 56.2578 70.1484C55.6276 70.8203 54.7448 71.1562 53.6094 71.1562C52.6042 71.1562 51.7839 70.8776 51.1484 70.3203C50.513 69.763 50.151 68.9922 50.0625 68.0078H51.4297C51.5182 68.6589 51.75 69.151 52.125 69.4844C52.5 69.8125 52.9948 69.9766 53.6094 69.9766C54.2812 69.9766 54.8073 69.7474 55.1875 69.2891C55.5729 68.8307 55.7656 68.1979 55.7656 67.3906C55.7656 66.6302 55.5573 66.0208 55.1406 65.5625C54.7292 65.099 54.1797 64.8672 53.4922 64.8672C52.862 64.8672 52.3672 65.0052 52.0078 65.2812L51.625 65.5938L50.4688 65.2969ZM65.6875 62.5938C65.6875 63.1615 65.5365 63.6667 65.2344 64.1094C64.9375 64.5521 64.5339 64.8984 64.0234 65.1484C64.6172 65.4036 65.0859 65.776 65.4297 66.2656C65.7786 66.7552 65.9531 67.3099 65.9531 67.9297C65.9531 68.9141 65.6198 69.6979 64.9531 70.2812C64.2917 70.8646 63.4193 71.1562 62.3359 71.1562C61.2422 71.1562 60.3646 70.8646 59.7031 70.2812C59.0469 69.6927 58.7188 68.9089 58.7188 67.9297C58.7188 67.3151 58.8854 66.7604 59.2188 66.2656C59.5573 65.7708 60.0234 65.3958 60.6172 65.1406C60.112 64.8906 59.7135 64.5443 59.4219 64.1016C59.1302 63.6589 58.9844 63.1562 58.9844 62.5938C58.9844 61.6354 59.2917 60.875 59.9062 60.3125C60.5208 59.75 61.3307 59.4688 62.3359 59.4688C63.3359 59.4688 64.1432 59.75 64.7578 60.3125C65.3776 60.875 65.6875 61.6354 65.6875 62.5938ZM64.5078 67.8984C64.5078 67.263 64.3047 66.7448 63.8984 66.3438C63.4974 65.9427 62.9714 65.7422 62.3203 65.7422C61.6693 65.7422 61.1458 65.9401 60.75 66.3359C60.3594 66.7318 60.1641 67.2526 60.1641 67.8984C60.1641 68.5443 60.3542 69.0521 60.7344 69.4219C61.1198 69.7917 61.6536 69.9766 62.3359 69.9766C63.013 69.9766 63.5443 69.7917 63.9297 69.4219C64.3151 69.0469 64.5078 68.5391 64.5078 67.8984ZM62.3359 60.6562C61.7682 60.6562 61.3073 60.8333 60.9531 61.1875C60.6042 61.5365 60.4297 62.013 60.4297 62.6172C60.4297 63.1953 60.6016 63.6641 60.9453 64.0234C61.2943 64.3776 61.7578 64.5547 62.3359 64.5547C62.9141 64.5547 63.375 64.3776 63.7188 64.0234C64.0677 63.6641 64.2422 63.1953 64.2422 62.6172C64.2422 62.0391 64.0625 61.5677 63.7031 61.2031C63.3438 60.8385 62.888 60.6562 62.3359 60.6562ZM70.9297 66.7578H67.1172V65.5781H70.9297V66.7578ZM72.8594 65.2969L73.4375 59.625H79.2656V60.9609H74.6641L74.3203 64.0625C74.8776 63.7344 75.5104 63.5703 76.2188 63.5703C77.2552 63.5703 78.0781 63.9141 78.6875 64.6016C79.2969 65.2839 79.6016 66.2083 79.6016 67.375C79.6016 68.5469 79.2839 69.4714 78.6484 70.1484C78.0182 70.8203 77.1354 71.1562 76 71.1562C74.9948 71.1562 74.1745 70.8776 73.5391 70.3203C72.9036 69.763 72.5417 68.9922 72.4531 68.0078H73.8203C73.9089 68.6589 74.1406 69.151 74.5156 69.4844C74.8906 69.8125 75.3854 69.9766 76 69.9766C76.6719 69.9766 77.1979 69.7474 77.5781 69.2891C77.9635 68.8307 78.1562 68.1979 78.1562 67.3906C78.1562 66.6302 77.9479 66.0208 77.5312 65.5625C77.1198 65.099 76.5703 64.8672 75.8828 64.8672C75.2526 64.8672 74.7578 65.0052 74.3984 65.2812L74.0156 65.5938L72.8594 65.2969ZM83.2812 64.6094H84.3672C85.0495 64.599 85.5859 64.4193 85.9766 64.0703C86.3672 63.7214 86.5625 63.25 86.5625 62.6562C86.5625 61.3229 85.8984 60.6562 84.5703 60.6562C83.9453 60.6562 83.4453 60.8359 83.0703 61.1953C82.7005 61.5495 82.5156 62.0208 82.5156 62.6094H81.0703C81.0703 61.7083 81.3984 60.9609 82.0547 60.3672C82.7161 59.7682 83.5547 59.4688 84.5703 59.4688C85.6432 59.4688 86.4844 59.7526 87.0938 60.3203C87.7031 60.888 88.0078 61.6771 88.0078 62.6875C88.0078 63.1823 87.8464 63.6615 87.5234 64.125C87.2057 64.5885 86.7708 64.9349 86.2188 65.1641C86.8438 65.362 87.3255 65.6901 87.6641 66.1484C88.0078 66.6068 88.1797 67.1667 88.1797 67.8281C88.1797 68.849 87.8464 69.6589 87.1797 70.2578C86.513 70.8568 85.6458 71.1562 84.5781 71.1562C83.5104 71.1562 82.6406 70.8672 81.9688 70.2891C81.3021 69.7109 80.9688 68.9479 80.9688 68H82.4219C82.4219 68.599 82.6172 69.0781 83.0078 69.4375C83.3984 69.7969 83.9219 69.9766 84.5781 69.9766C85.276 69.9766 85.8099 69.7943 86.1797 69.4297C86.5495 69.0651 86.7344 68.5417 86.7344 67.8594C86.7344 67.1979 86.5312 66.6901 86.125 66.3359C85.7188 65.9818 85.1328 65.7995 84.3672 65.7891H83.2812V64.6094ZM96.2656 67.1797H97.8438V68.3594H96.2656V71H94.8125V68.3594H89.6328V67.5078L94.7266 59.625H96.2656V67.1797ZM91.2734 67.1797H94.8125V61.6016L94.6406 61.9141L91.2734 67.1797ZM102.305 66.7578H98.4922V65.5781H102.305V66.7578ZM105.672 64.6094H106.758C107.44 64.599 107.977 64.4193 108.367 64.0703C108.758 63.7214 108.953 63.25 108.953 62.6562C108.953 61.3229 108.289 60.6562 106.961 60.6562C106.336 60.6562 105.836 60.8359 105.461 61.1953C105.091 61.5495 104.906 62.0208 104.906 62.6094H103.461C103.461 61.7083 103.789 60.9609 104.445 60.3672C105.107 59.7682 105.945 59.4688 106.961 59.4688C108.034 59.4688 108.875 59.7526 109.484 60.3203C110.094 60.888 110.398 61.6771 110.398 62.6875C110.398 63.1823 110.237 63.6615 109.914 64.125C109.596 64.5885 109.161 64.9349 108.609 65.1641C109.234 65.362 109.716 65.6901 110.055 66.1484C110.398 66.6068 110.57 67.1667 110.57 67.8281C110.57 68.849 110.237 69.6589 109.57 70.2578C108.904 70.8568 108.036 71.1562 106.969 71.1562C105.901 71.1562 105.031 70.8672 104.359 70.2891C103.693 69.7109 103.359 68.9479 103.359 68H104.812C104.812 68.599 105.008 69.0781 105.398 69.4375C105.789 69.7969 106.312 69.9766 106.969 69.9766C107.667 69.9766 108.201 69.7943 108.57 69.4297C108.94 69.0651 109.125 68.5417 109.125 67.8594C109.125 67.1979 108.922 66.6901 108.516 66.3359C108.109 65.9818 107.523 65.7995 106.758 65.7891H105.672V64.6094ZM119.898 60.4375L115.188 71H113.672L118.367 60.8125H112.211V59.625H119.898V60.4375ZM122.203 65.2969L122.781 59.625H128.609V60.9609H124.008L123.664 64.0625C124.221 63.7344 124.854 63.5703 125.562 63.5703C126.599 63.5703 127.422 63.9141 128.031 64.6016C128.641 65.2839 128.945 66.2083 128.945 67.375C128.945 68.5469 128.628 69.4714 127.992 70.1484C127.362 70.8203 126.479 71.1562 125.344 71.1562C124.339 71.1562 123.518 70.8776 122.883 70.3203C122.247 69.763 121.885 68.9922 121.797 68.0078H123.164C123.253 68.6589 123.484 69.151 123.859 69.4844C124.234 69.8125 124.729 69.9766 125.344 69.9766C126.016 69.9766 126.542 69.7474 126.922 69.2891C127.307 68.8307 127.5 68.1979 127.5 67.3906C127.5 66.6302 127.292 66.0208 126.875 65.5625C126.464 65.099 125.914 64.8672 125.227 64.8672C124.596 64.8672 124.102 65.0052 123.742 65.2812L123.359 65.5938L122.203 65.2969ZM131.188 65.2969L131.766 59.625H137.594V60.9609H132.992L132.648 64.0625C133.206 63.7344 133.839 63.5703 134.547 63.5703C135.583 63.5703 136.406 63.9141 137.016 64.6016C137.625 65.2839 137.93 66.2083 137.93 67.375C137.93 68.5469 137.612 69.4714 136.977 70.1484C136.346 70.8203 135.464 71.1562 134.328 71.1562C133.323 71.1562 132.503 70.8776 131.867 70.3203C131.232 69.763 130.87 68.9922 130.781 68.0078H132.148C132.237 68.6589 132.469 69.151 132.844 69.4844C133.219 69.8125 133.714 69.9766 134.328 69.9766C135 69.9766 135.526 69.7474 135.906 69.2891C136.292 68.8307 136.484 68.1979 136.484 67.3906C136.484 66.6302 136.276 66.0208 135.859 65.5625C135.448 65.099 134.898 64.8672 134.211 64.8672C133.581 64.8672 133.086 65.0052 132.727 65.2812L132.344 65.5938L131.188 65.2969ZM145.586 60.5V62.5469H147.164V63.6641H145.586V68.9062C145.586 69.2448 145.656 69.5 145.797 69.6719C145.938 69.8385 146.177 69.9219 146.516 69.9219C146.682 69.9219 146.911 69.8906 147.203 69.8281V71C146.823 71.1042 146.453 71.1562 146.094 71.1562C145.448 71.1562 144.961 70.9609 144.633 70.5703C144.305 70.1797 144.141 69.625 144.141 68.9062V63.6641H142.602V62.5469H144.141V60.5H145.586ZM148.32 66.6953C148.32 65.8672 148.482 65.1224 148.805 64.4609C149.133 63.7995 149.586 63.2891 150.164 62.9297C150.747 62.5703 151.411 62.3906 152.156 62.3906C153.307 62.3906 154.237 62.7891 154.945 63.5859C155.659 64.3828 156.016 65.4427 156.016 66.7656V66.8672C156.016 67.6901 155.857 68.4297 155.539 69.0859C155.227 69.737 154.776 70.2448 154.188 70.6094C153.604 70.974 152.932 71.1562 152.172 71.1562C151.026 71.1562 150.096 70.7578 149.383 69.9609C148.674 69.1641 148.32 68.1094 148.32 66.7969V66.6953ZM149.773 66.8672C149.773 67.8047 149.99 68.5573 150.422 69.125C150.859 69.6927 151.443 69.9766 152.172 69.9766C152.906 69.9766 153.49 69.6901 153.922 69.1172C154.354 68.5391 154.57 67.7318 154.57 66.6953C154.57 65.7682 154.349 65.0182 153.906 64.4453C153.469 63.8672 152.885 63.5781 152.156 63.5781C151.443 63.5781 150.867 63.862 150.43 64.4297C149.992 64.9974 149.773 65.8099 149.773 66.8672ZM166.719 68.7578C166.719 68.3672 166.57 68.0651 166.273 67.8516C165.982 67.6328 165.469 67.4453 164.734 67.2891C164.005 67.1328 163.424 66.9453 162.992 66.7266C162.565 66.5078 162.247 66.2474 162.039 65.9453C161.836 65.6432 161.734 65.2839 161.734 64.8672C161.734 64.1745 162.026 63.5885 162.609 63.1094C163.198 62.6302 163.948 62.3906 164.859 62.3906C165.818 62.3906 166.594 62.638 167.188 63.1328C167.786 63.6276 168.086 64.2604 168.086 65.0312H166.633C166.633 64.6354 166.464 64.2943 166.125 64.0078C165.792 63.7214 165.37 63.5781 164.859 63.5781C164.333 63.5781 163.922 63.6927 163.625 63.9219C163.328 64.151 163.18 64.4505 163.18 64.8203C163.18 65.1693 163.318 65.4323 163.594 65.6094C163.87 65.7865 164.367 65.9557 165.086 66.1172C165.81 66.2786 166.396 66.4714 166.844 66.6953C167.292 66.9193 167.622 67.1901 167.836 67.5078C168.055 67.8203 168.164 68.2031 168.164 68.6562C168.164 69.4115 167.862 70.0182 167.258 70.4766C166.654 70.9297 165.87 71.1562 164.906 71.1562C164.229 71.1562 163.63 71.0365 163.109 70.7969C162.589 70.5573 162.18 70.224 161.883 69.7969C161.591 69.3646 161.445 68.8984 161.445 68.3984H162.891C162.917 68.8828 163.109 69.2682 163.469 69.5547C163.833 69.8359 164.312 69.9766 164.906 69.9766C165.453 69.9766 165.891 69.8672 166.219 69.6484C166.552 69.4245 166.719 69.1276 166.719 68.7578ZM173.438 69.9766C173.953 69.9766 174.404 69.8203 174.789 69.5078C175.174 69.1953 175.388 68.8047 175.43 68.3359H176.797C176.771 68.8203 176.604 69.2812 176.297 69.7188C175.99 70.1562 175.578 70.5052 175.062 70.7656C174.552 71.026 174.01 71.1562 173.438 71.1562C172.286 71.1562 171.37 70.7734 170.688 70.0078C170.01 69.237 169.672 68.1849 169.672 66.8516V66.6094C169.672 65.7865 169.823 65.0547 170.125 64.4141C170.427 63.7734 170.859 63.276 171.422 62.9219C171.99 62.5677 172.659 62.3906 173.43 62.3906C174.378 62.3906 175.164 62.6745 175.789 63.2422C176.419 63.8099 176.755 64.5469 176.797 65.4531H175.43C175.388 64.9062 175.18 64.4583 174.805 64.1094C174.435 63.7552 173.977 63.5781 173.43 63.5781C172.695 63.5781 172.125 63.8438 171.719 64.375C171.318 64.901 171.117 65.6641 171.117 66.6641V66.9375C171.117 67.9115 171.318 68.6615 171.719 69.1875C172.12 69.7135 172.693 69.9766 173.438 69.9766ZM179.867 63.5703C180.508 62.7839 181.341 62.3906 182.367 62.3906C184.154 62.3906 185.055 63.3984 185.07 65.4141V71H183.625V65.4062C183.62 64.7969 183.479 64.3464 183.203 64.0547C182.932 63.763 182.508 63.6172 181.93 63.6172C181.461 63.6172 181.049 63.7422 180.695 63.9922C180.341 64.2422 180.065 64.5703 179.867 64.9766V71H178.422V59H179.867V63.5703ZM190.742 71.1562C189.596 71.1562 188.664 70.7812 187.945 70.0312C187.227 69.276 186.867 68.2682 186.867 67.0078V66.7422C186.867 65.9036 187.026 65.1562 187.344 64.5C187.667 63.8385 188.115 63.3229 188.688 62.9531C189.266 62.5781 189.891 62.3906 190.562 62.3906C191.661 62.3906 192.516 62.7526 193.125 63.4766C193.734 64.2005 194.039 65.237 194.039 66.5859V67.1875H188.312C188.333 68.0208 188.576 68.6953 189.039 69.2109C189.508 69.7214 190.102 69.9766 190.82 69.9766C191.331 69.9766 191.763 69.8724 192.117 69.6641C192.471 69.4557 192.781 69.1797 193.047 68.8359L193.93 69.5234C193.221 70.612 192.159 71.1562 190.742 71.1562ZM190.562 63.5781C189.979 63.5781 189.49 63.7917 189.094 64.2188C188.698 64.6406 188.453 65.2344 188.359 66H192.594V65.8906C192.552 65.1562 192.354 64.5885 192 64.1875C191.646 63.7812 191.167 63.5781 190.562 63.5781ZM195.367 66.7031C195.367 65.4062 195.674 64.3646 196.289 63.5781C196.904 62.7865 197.708 62.3906 198.703 62.3906C199.693 62.3906 200.477 62.7292 201.055 63.4062V59H202.5V71H201.172L201.102 70.0938C200.523 70.8021 199.719 71.1562 198.688 71.1562C197.708 71.1562 196.909 70.7552 196.289 69.9531C195.674 69.151 195.367 68.1042 195.367 66.8125V66.7031ZM196.812 66.8672C196.812 67.8255 197.01 68.5755 197.406 69.1172C197.802 69.6589 198.349 69.9297 199.047 69.9297C199.964 69.9297 200.633 69.5182 201.055 68.6953V64.8125C200.622 64.0156 199.958 63.6172 199.062 63.6172C198.354 63.6172 197.802 63.8906 197.406 64.4375C197.01 64.9844 196.812 65.7943 196.812 66.8672ZM209.969 70.1641C209.406 70.8255 208.581 71.1562 207.492 71.1562C206.591 71.1562 205.904 70.8958 205.43 70.375C204.961 69.849 204.724 69.0729 204.719 68.0469V62.5469H206.164V68.0078C206.164 69.2891 206.685 69.9297 207.727 69.9297C208.831 69.9297 209.565 69.5182 209.93 68.6953V62.5469H211.375V71H210L209.969 70.1641ZM215.148 71H213.703V59H215.148V71ZM220.977 71.1562C219.831 71.1562 218.898 70.7812 218.18 70.0312C217.461 69.276 217.102 68.2682 217.102 67.0078V66.7422C217.102 65.9036 217.26 65.1562 217.578 64.5C217.901 63.8385 218.349 63.3229 218.922 62.9531C219.5 62.5781 220.125 62.3906 220.797 62.3906C221.896 62.3906 222.75 62.7526 223.359 63.4766C223.969 64.2005 224.273 65.237 224.273 66.5859V67.1875H218.547C218.568 68.0208 218.81 68.6953 219.273 69.2109C219.742 69.7214 220.336 69.9766 221.055 69.9766C221.565 69.9766 221.997 69.8724 222.352 69.6641C222.706 69.4557 223.016 69.1797 223.281 68.8359L224.164 69.5234C223.456 70.612 222.393 71.1562 220.977 71.1562ZM220.797 63.5781C220.214 63.5781 219.724 63.7917 219.328 64.2188C218.932 64.6406 218.688 65.2344 218.594 66H222.828V65.8906C222.786 65.1562 222.589 64.5885 222.234 64.1875C221.88 63.7812 221.401 63.5781 220.797 63.5781ZM235.141 71C235.057 70.8333 234.99 70.5365 234.938 70.1094C234.266 70.8073 233.464 71.1562 232.531 71.1562C231.698 71.1562 231.013 70.9219 230.477 70.4531C229.945 69.9792 229.68 69.3802 229.68 68.6562C229.68 67.776 230.013 67.0938 230.68 66.6094C231.352 66.1198 232.294 65.875 233.508 65.875H234.914V65.2109C234.914 64.7057 234.763 64.3047 234.461 64.0078C234.159 63.7057 233.714 63.5547 233.125 63.5547C232.609 63.5547 232.177 63.6849 231.828 63.9453C231.479 64.2057 231.305 64.5208 231.305 64.8906H229.852C229.852 64.4688 230 64.0625 230.297 63.6719C230.599 63.276 231.005 62.9635 231.516 62.7344C232.031 62.5052 232.596 62.3906 233.211 62.3906C234.185 62.3906 234.948 62.6354 235.5 63.125C236.052 63.6094 236.339 64.2786 236.359 65.1328V69.0234C236.359 69.7995 236.458 70.4167 236.656 70.875V71H235.141ZM232.742 69.8984C233.195 69.8984 233.625 69.7812 234.031 69.5469C234.438 69.3125 234.732 69.0078 234.914 68.6328V66.8984H233.781C232.01 66.8984 231.125 67.4167 231.125 68.4531C231.125 68.9062 231.276 69.2604 231.578 69.5156C231.88 69.7708 232.268 69.8984 232.742 69.8984ZM239.992 62.5469L240.039 63.6094C240.685 62.7969 241.529 62.3906 242.57 62.3906C244.357 62.3906 245.258 63.3984 245.273 65.4141V71H243.828V65.4062C243.823 64.7969 243.682 64.3464 243.406 64.0547C243.135 63.763 242.711 63.6172 242.133 63.6172C241.664 63.6172 241.253 63.7422 240.898 63.9922C240.544 64.2422 240.268 64.5703 240.07 64.9766V71H238.625V62.5469H239.992ZM15.3125 101C15.2292 100.833 15.1615 100.536 15.1094 100.109C14.4375 100.807 13.6354 101.156 12.7031 101.156C11.8698 101.156 11.1849 100.922 10.6484 100.453C10.1172 99.9792 9.85156 99.3802 9.85156 98.6562C9.85156 97.776 10.1849 97.0938 10.8516 96.6094C11.5234 96.1198 12.4661 95.875 13.6797 95.875H15.0859V95.2109C15.0859 94.7057 14.9349 94.3047 14.6328 94.0078C14.3307 93.7057 13.8854 93.5547 13.2969 93.5547C12.7812 93.5547 12.349 93.6849 12 93.9453C11.651 94.2057 11.4766 94.5208 11.4766 94.8906H10.0234C10.0234 94.4688 10.1719 94.0625 10.4688 93.6719C10.7708 93.276 11.1771 92.9635 11.6875 92.7344C12.2031 92.5052 12.7682 92.3906 13.3828 92.3906C14.3568 92.3906 15.1198 92.6354 15.6719 93.125C16.224 93.6094 16.5104 94.2786 16.5312 95.1328V99.0234C16.5312 99.7995 16.6302 100.417 16.8281 100.875V101H15.3125ZM12.9141 99.8984C13.3672 99.8984 13.7969 99.7812 14.2031 99.5469C14.6094 99.3125 14.9036 99.0078 15.0859 98.6328V96.8984H13.9531C12.1823 96.8984 11.2969 97.4167 11.2969 98.4531C11.2969 98.9062 11.4479 99.2604 11.75 99.5156C12.0521 99.7708 12.4401 99.8984 12.9141 99.8984ZM25.9375 96.8672C25.9375 98.1536 25.6432 99.1901 25.0547 99.9766C24.4661 100.763 23.6693 101.156 22.6641 101.156C21.638 101.156 20.8307 100.831 20.2422 100.18V104.25H18.7969V92.5469H20.1172L20.1875 93.4844C20.776 92.7552 21.5938 92.3906 22.6406 92.3906C23.6562 92.3906 24.4583 92.7734 25.0469 93.5391C25.6406 94.3047 25.9375 95.3698 25.9375 96.7344V96.8672ZM24.4922 96.7031C24.4922 95.75 24.2891 94.9974 23.8828 94.4453C23.4766 93.8932 22.9193 93.6172 22.2109 93.6172C21.3359 93.6172 20.6797 94.0052 20.2422 94.7812V98.8203C20.6745 99.5911 21.3359 99.9766 22.2266 99.9766C22.9193 99.9766 23.4688 99.7031 23.875 99.1562C24.2865 98.6042 24.4922 97.7865 24.4922 96.7031ZM34.9219 96.8672C34.9219 98.1536 34.6276 99.1901 34.0391 99.9766C33.4505 100.763 32.6536 101.156 31.6484 101.156C30.6224 101.156 29.8151 100.831 29.2266 100.18V104.25H27.7812V92.5469H29.1016L29.1719 93.4844C29.7604 92.7552 30.5781 92.3906 31.625 92.3906C32.6406 92.3906 33.4427 92.7734 34.0312 93.5391C34.625 94.3047 34.9219 95.3698 34.9219 96.7344V96.8672ZM33.4766 96.7031C33.4766 95.75 33.2734 94.9974 32.8672 94.4453C32.4609 93.8932 31.9036 93.6172 31.1953 93.6172C30.3203 93.6172 29.6641 94.0052 29.2266 94.7812V98.8203C29.6589 99.5911 30.3203 99.9766 31.2109 99.9766C31.9036 99.9766 32.4531 99.7031 32.8594 99.1562C33.2708 98.6042 33.4766 97.7865 33.4766 96.7031ZM36.3828 96.6953C36.3828 95.8672 36.5443 95.1224 36.8672 94.4609C37.1953 93.7995 37.6484 93.2891 38.2266 92.9297C38.8099 92.5703 39.474 92.3906 40.2188 92.3906C41.3698 92.3906 42.2995 92.7891 43.0078 93.5859C43.7214 94.3828 44.0781 95.4427 44.0781 96.7656V96.8672C44.0781 97.6901 43.9193 98.4297 43.6016 99.0859C43.2891 99.737 42.8385 100.245 42.25 100.609C41.6667 100.974 40.9948 101.156 40.2344 101.156C39.0885 101.156 38.1589 100.758 37.4453 99.9609C36.737 99.1641 36.3828 98.1094 36.3828 96.7969V96.6953ZM37.8359 96.8672C37.8359 97.8047 38.0521 98.5573 38.4844 99.125C38.9219 99.6927 39.5052 99.9766 40.2344 99.9766C40.9688 99.9766 41.5521 99.6901 41.9844 99.1172C42.4167 98.5391 42.6328 97.7318 42.6328 96.6953C42.6328 95.7682 42.4115 95.0182 41.9688 94.4453C41.5312 93.8672 40.9479 93.5781 40.2188 93.5781C39.5052 93.5781 38.9297 93.862 38.4922 94.4297C38.0547 94.9974 37.8359 95.8099 37.8359 96.8672ZM47.4609 101H46.0156V92.5469H47.4609V101ZM45.8984 90.3047C45.8984 90.0703 45.9688 89.8724 46.1094 89.7109C46.2552 89.5495 46.4688 89.4688 46.75 89.4688C47.0312 89.4688 47.2448 89.5495 47.3906 89.7109C47.5365 89.8724 47.6094 90.0703 47.6094 90.3047C47.6094 90.5391 47.5365 90.7344 47.3906 90.8906C47.2448 91.0469 47.0312 91.125 46.75 91.125C46.4688 91.125 46.2552 91.0469 46.1094 90.8906C45.9688 90.7344 45.8984 90.5391 45.8984 90.3047ZM51.1484 92.5469L51.1953 93.6094C51.8411 92.7969 52.6849 92.3906 53.7266 92.3906C55.513 92.3906 56.4141 93.3984 56.4297 95.4141V101H54.9844V95.4062C54.9792 94.7969 54.8385 94.3464 54.5625 94.0547C54.2917 93.763 53.8672 93.6172 53.2891 93.6172C52.8203 93.6172 52.4089 93.7422 52.0547 93.9922C51.7005 94.2422 51.4245 94.5703 51.2266 94.9766V101H49.7812V92.5469H51.1484ZM60.5703 90.5V92.5469H62.1484V93.6641H60.5703V98.9062C60.5703 99.2448 60.6406 99.5 60.7812 99.6719C60.9219 99.8385 61.1615 99.9219 61.5 99.9219C61.6667 99.9219 61.8958 99.8906 62.1875 99.8281V101C61.8073 101.104 61.4375 101.156 61.0781 101.156C60.4323 101.156 59.9453 100.961 59.6172 100.57C59.2891 100.18 59.125 99.625 59.125 98.9062V93.6641H57.5859V92.5469H59.125V90.5H60.5703ZM65.2031 92.5469L65.2422 93.4844C65.862 92.7552 66.6979 92.3906 67.75 92.3906C68.9323 92.3906 69.737 92.8438 70.1641 93.75C70.4453 93.3438 70.8099 93.0156 71.2578 92.7656C71.7109 92.5156 72.2448 92.3906 72.8594 92.3906C74.7135 92.3906 75.6562 93.3724 75.6875 95.3359V101H74.2422V95.4219C74.2422 94.8177 74.1042 94.3672 73.8281 94.0703C73.5521 93.7682 73.0885 93.6172 72.4375 93.6172C71.901 93.6172 71.4557 93.7786 71.1016 94.1016C70.7474 94.4193 70.5417 94.849 70.4844 95.3906V101H69.0312V95.4609C69.0312 94.2318 68.4297 93.6172 67.2266 93.6172C66.2786 93.6172 65.6302 94.0208 65.2812 94.8281V101H63.8359V92.5469H65.2031ZM81.3828 101.156C80.237 101.156 79.3047 100.781 78.5859 100.031C77.8672 99.276 77.5078 98.2682 77.5078 97.0078V96.7422C77.5078 95.9036 77.6667 95.1562 77.9844 94.5C78.3073 93.8385 78.7552 93.3229 79.3281 92.9531C79.9062 92.5781 80.5312 92.3906 81.2031 92.3906C82.3021 92.3906 83.1562 92.7526 83.7656 93.4766C84.375 94.2005 84.6797 95.237 84.6797 96.5859V97.1875H78.9531C78.974 98.0208 79.2161 98.6953 79.6797 99.2109C80.1484 99.7214 80.7422 99.9766 81.4609 99.9766C81.9714 99.9766 82.4036 99.8724 82.7578 99.6641C83.112 99.4557 83.4219 99.1797 83.6875 98.8359L84.5703 99.5234C83.862 100.612 82.7995 101.156 81.3828 101.156ZM81.2031 93.5781C80.6198 93.5781 80.1302 93.7917 79.7344 94.2188C79.3385 94.6406 79.0938 95.2344 79 96H83.2344V95.8906C83.1927 95.1562 82.9948 94.5885 82.6406 94.1875C82.2865 93.7812 81.8073 93.5781 81.2031 93.5781ZM87.7266 92.5469L87.7734 93.6094C88.4193 92.7969 89.263 92.3906 90.3047 92.3906C92.0911 92.3906 92.9922 93.3984 93.0078 95.4141V101H91.5625V95.4062C91.5573 94.7969 91.4167 94.3464 91.1406 94.0547C90.8698 93.763 90.4453 93.6172 89.8672 93.6172C89.3984 93.6172 88.987 93.7422 88.6328 93.9922C88.2786 94.2422 88.0026 94.5703 87.8047 94.9766V101H86.3594V92.5469H87.7266ZM97.1484 90.5V92.5469H98.7266V93.6641H97.1484V98.9062C97.1484 99.2448 97.2188 99.5 97.3594 99.6719C97.5 99.8385 97.7396 99.9219 98.0781 99.9219C98.2448 99.9219 98.474 99.8906 98.7656 99.8281V101C98.3854 101.104 98.0156 101.156 97.6562 101.156C97.0104 101.156 96.5234 100.961 96.1953 100.57C95.8672 100.18 95.7031 99.625 95.7031 98.9062V93.6641H94.1641V92.5469H95.7031V90.5H97.1484ZM100.453 100.242C100.453 99.9922 100.526 99.7839 100.672 99.6172C100.823 99.4505 101.047 99.3672 101.344 99.3672C101.641 99.3672 101.865 99.4505 102.016 99.6172C102.172 99.7839 102.25 99.9922 102.25 100.242C102.25 100.482 102.172 100.682 102.016 100.844C101.865 101.005 101.641 101.086 101.344 101.086C101.047 101.086 100.823 101.005 100.672 100.844C100.526 100.682 100.453 100.482 100.453 100.242ZM112.305 95.3359L115.273 89.625H116.977L113.055 96.7578V101H111.555V96.7578L107.633 89.625H109.352L112.305 95.3359ZM117.32 96.6953C117.32 95.8672 117.482 95.1224 117.805 94.4609C118.133 93.7995 118.586 93.2891 119.164 92.9297C119.747 92.5703 120.411 92.3906 121.156 92.3906C122.307 92.3906 123.237 92.7891 123.945 93.5859C124.659 94.3828 125.016 95.4427 125.016 96.7656V96.8672C125.016 97.6901 124.857 98.4297 124.539 99.0859C124.227 99.737 123.776 100.245 123.188 100.609C122.604 100.974 121.932 101.156 121.172 101.156C120.026 101.156 119.096 100.758 118.383 99.9609C117.674 99.1641 117.32 98.1094 117.32 96.7969V96.6953ZM118.773 96.8672C118.773 97.8047 118.99 98.5573 119.422 99.125C119.859 99.6927 120.443 99.9766 121.172 99.9766C121.906 99.9766 122.49 99.6901 122.922 99.1172C123.354 98.5391 123.57 97.7318 123.57 96.6953C123.57 95.7682 123.349 95.0182 122.906 94.4453C122.469 93.8672 121.885 93.5781 121.156 93.5781C120.443 93.5781 119.867 93.862 119.43 94.4297C118.992 94.9974 118.773 95.8099 118.773 96.8672ZM132.047 100.164C131.484 100.826 130.659 101.156 129.57 101.156C128.669 101.156 127.982 100.896 127.508 100.375C127.039 99.849 126.802 99.0729 126.797 98.0469V92.5469H128.242V98.0078C128.242 99.2891 128.763 99.9297 129.805 99.9297C130.909 99.9297 131.643 99.5182 132.008 98.6953V92.5469H133.453V101H132.078L132.047 100.164ZM143.016 99.9766C143.531 99.9766 143.982 99.8203 144.367 99.5078C144.753 99.1953 144.966 98.8047 145.008 98.3359H146.375C146.349 98.8203 146.182 99.2812 145.875 99.7188C145.568 100.156 145.156 100.505 144.641 100.766C144.13 101.026 143.589 101.156 143.016 101.156C141.865 101.156 140.948 100.773 140.266 100.008C139.589 99.237 139.25 98.1849 139.25 96.8516V96.6094C139.25 95.7865 139.401 95.0547 139.703 94.4141C140.005 93.7734 140.438 93.276 141 92.9219C141.568 92.5677 142.237 92.3906 143.008 92.3906C143.956 92.3906 144.742 92.6745 145.367 93.2422C145.997 93.8099 146.333 94.5469 146.375 95.4531H145.008C144.966 94.9062 144.758 94.4583 144.383 94.1094C144.013 93.7552 143.555 93.5781 143.008 93.5781C142.273 93.5781 141.703 93.8438 141.297 94.375C140.896 94.901 140.695 95.6641 140.695 96.6641V96.9375C140.695 97.9115 140.896 98.6615 141.297 99.1875C141.698 99.7135 142.271 99.9766 143.016 99.9766ZM153.219 101C153.135 100.833 153.068 100.536 153.016 100.109C152.344 100.807 151.542 101.156 150.609 101.156C149.776 101.156 149.091 100.922 148.555 100.453C148.023 99.9792 147.758 99.3802 147.758 98.6562C147.758 97.776 148.091 97.0938 148.758 96.6094C149.43 96.1198 150.372 95.875 151.586 95.875H152.992V95.2109C152.992 94.7057 152.841 94.3047 152.539 94.0078C152.237 93.7057 151.792 93.5547 151.203 93.5547C150.688 93.5547 150.255 93.6849 149.906 93.9453C149.557 94.2057 149.383 94.5208 149.383 94.8906H147.93C147.93 94.4688 148.078 94.0625 148.375 93.6719C148.677 93.276 149.083 92.9635 149.594 92.7344C150.109 92.5052 150.674 92.3906 151.289 92.3906C152.263 92.3906 153.026 92.6354 153.578 93.125C154.13 93.6094 154.417 94.2786 154.438 95.1328V99.0234C154.438 99.7995 154.536 100.417 154.734 100.875V101H153.219ZM150.82 99.8984C151.273 99.8984 151.703 99.7812 152.109 99.5469C152.516 99.3125 152.81 99.0078 152.992 98.6328V96.8984H151.859C150.089 96.8984 149.203 97.4167 149.203 98.4531C149.203 98.9062 149.354 99.2604 149.656 99.5156C149.958 99.7708 150.346 99.8984 150.82 99.8984ZM158.07 92.5469L158.117 93.6094C158.763 92.7969 159.607 92.3906 160.648 92.3906C162.435 92.3906 163.336 93.3984 163.352 95.4141V101H161.906V95.4062C161.901 94.7969 161.76 94.3464 161.484 94.0547C161.214 93.763 160.789 93.6172 160.211 93.6172C159.742 93.6172 159.331 93.7422 158.977 93.9922C158.622 94.2422 158.346 94.5703 158.148 94.9766V101H156.703V92.5469H158.07ZM172.289 99.0391L174.383 92.5469H175.859L172.828 101H171.727L168.664 92.5469H170.141L172.289 99.0391ZM178.82 101H177.375V92.5469H178.82V101ZM177.258 90.3047C177.258 90.0703 177.328 89.8724 177.469 89.7109C177.615 89.5495 177.828 89.4688 178.109 89.4688C178.391 89.4688 178.604 89.5495 178.75 89.7109C178.896 89.8724 178.969 90.0703 178.969 90.3047C178.969 90.5391 178.896 90.7344 178.75 90.8906C178.604 91.0469 178.391 91.125 178.109 91.125C177.828 91.125 177.615 91.0469 177.469 90.8906C177.328 90.7344 177.258 90.5391 177.258 90.3047ZM184.648 101.156C183.503 101.156 182.57 100.781 181.852 100.031C181.133 99.276 180.773 98.2682 180.773 97.0078V96.7422C180.773 95.9036 180.932 95.1562 181.25 94.5C181.573 93.8385 182.021 93.3229 182.594 92.9531C183.172 92.5781 183.797 92.3906 184.469 92.3906C185.568 92.3906 186.422 92.7526 187.031 93.4766C187.641 94.2005 187.945 95.237 187.945 96.5859V97.1875H182.219C182.24 98.0208 182.482 98.6953 182.945 99.2109C183.414 99.7214 184.008 99.9766 184.727 99.9766C185.237 99.9766 185.669 99.8724 186.023 99.6641C186.378 99.4557 186.688 99.1797 186.953 98.8359L187.836 99.5234C187.128 100.612 186.065 101.156 184.648 101.156ZM184.469 93.5781C183.885 93.5781 183.396 93.7917 183 94.2188C182.604 94.6406 182.359 95.2344 182.266 96H186.5V95.8906C186.458 95.1562 186.26 94.5885 185.906 94.1875C185.552 93.7812 185.073 93.5781 184.469 93.5781ZM197.109 99.0078L198.734 92.5469H200.18L197.719 101H196.547L194.492 94.5938L192.492 101H191.32L188.867 92.5469H190.305L191.969 98.875L193.938 92.5469H195.102L197.109 99.0078ZM201.945 101.977H200.703L205.453 89.625H206.688L201.945 101.977ZM211.641 99.9766C212.156 99.9766 212.607 99.8203 212.992 99.5078C213.378 99.1953 213.591 98.8047 213.633 98.3359H215C214.974 98.8203 214.807 99.2812 214.5 99.7188C214.193 100.156 213.781 100.505 213.266 100.766C212.755 101.026 212.214 101.156 211.641 101.156C210.49 101.156 209.573 100.773 208.891 100.008C208.214 99.237 207.875 98.1849 207.875 96.8516V96.6094C207.875 95.7865 208.026 95.0547 208.328 94.4141C208.63 93.7734 209.062 93.276 209.625 92.9219C210.193 92.5677 210.862 92.3906 211.633 92.3906C212.581 92.3906 213.367 92.6745 213.992 93.2422C214.622 93.8099 214.958 94.5469 215 95.4531H213.633C213.591 94.9062 213.383 94.4583 213.008 94.1094C212.638 93.7552 212.18 93.5781 211.633 93.5781C210.898 93.5781 210.328 93.8438 209.922 94.375C209.521 94.901 209.32 95.6641 209.32 96.6641V96.9375C209.32 97.9115 209.521 98.6615 209.922 99.1875C210.323 99.7135 210.896 99.9766 211.641 99.9766ZM221.844 101C221.76 100.833 221.693 100.536 221.641 100.109C220.969 100.807 220.167 101.156 219.234 101.156C218.401 101.156 217.716 100.922 217.18 100.453C216.648 99.9792 216.383 99.3802 216.383 98.6562C216.383 97.776 216.716 97.0938 217.383 96.6094C218.055 96.1198 218.997 95.875 220.211 95.875H221.617V95.2109C221.617 94.7057 221.466 94.3047 221.164 94.0078C220.862 93.7057 220.417 93.5547 219.828 93.5547C219.312 93.5547 218.88 93.6849 218.531 93.9453C218.182 94.2057 218.008 94.5208 218.008 94.8906H216.555C216.555 94.4688 216.703 94.0625 217 93.6719C217.302 93.276 217.708 92.9635 218.219 92.7344C218.734 92.5052 219.299 92.3906 219.914 92.3906C220.888 92.3906 221.651 92.6354 222.203 93.125C222.755 93.6094 223.042 94.2786 223.062 95.1328V99.0234C223.062 99.7995 223.161 100.417 223.359 100.875V101H221.844ZM219.445 99.8984C219.898 99.8984 220.328 99.7812 220.734 99.5469C221.141 99.3125 221.435 99.0078 221.617 98.6328V96.8984H220.484C218.714 96.8984 217.828 97.4167 217.828 98.4531C217.828 98.9062 217.979 99.2604 218.281 99.5156C218.583 99.7708 218.971 99.8984 219.445 99.8984ZM226.695 92.5469L226.742 93.6094C227.388 92.7969 228.232 92.3906 229.273 92.3906C231.06 92.3906 231.961 93.3984 231.977 95.4141V101H230.531V95.4062C230.526 94.7969 230.385 94.3464 230.109 94.0547C229.839 93.763 229.414 93.6172 228.836 93.6172C228.367 93.6172 227.956 93.7422 227.602 93.9922C227.247 94.2422 226.971 94.5703 226.773 94.9766V101H225.328V92.5469H226.695ZM237.547 99.9766C238.062 99.9766 238.513 99.8203 238.898 99.5078C239.284 99.1953 239.497 98.8047 239.539 98.3359H240.906C240.88 98.8203 240.714 99.2812 240.406 99.7188C240.099 100.156 239.688 100.505 239.172 100.766C238.661 101.026 238.12 101.156 237.547 101.156C236.396 101.156 235.479 100.773 234.797 100.008C234.12 99.237 233.781 98.1849 233.781 96.8516V96.6094C233.781 95.7865 233.932 95.0547 234.234 94.4141C234.536 93.7734 234.969 93.276 235.531 92.9219C236.099 92.5677 236.768 92.3906 237.539 92.3906C238.487 92.3906 239.273 92.6745 239.898 93.2422C240.529 93.8099 240.865 94.5469 240.906 95.4531H239.539C239.497 94.9062 239.289 94.4583 238.914 94.1094C238.544 93.7552 238.086 93.5781 237.539 93.5781C236.805 93.5781 236.234 93.8438 235.828 94.375C235.427 94.901 235.227 95.6641 235.227 96.6641V96.9375C235.227 97.9115 235.427 98.6615 235.828 99.1875C236.229 99.7135 236.802 99.9766 237.547 99.9766ZM246.039 101.156C244.893 101.156 243.961 100.781 243.242 100.031C242.523 99.276 242.164 98.2682 242.164 97.0078V96.7422C242.164 95.9036 242.323 95.1562 242.641 94.5C242.964 93.8385 243.411 93.3229 243.984 92.9531C244.562 92.5781 245.188 92.3906 245.859 92.3906C246.958 92.3906 247.812 92.7526 248.422 93.4766C249.031 94.2005 249.336 95.237 249.336 96.5859V97.1875H243.609C243.63 98.0208 243.872 98.6953 244.336 99.2109C244.805 99.7214 245.398 99.9766 246.117 99.9766C246.628 99.9766 247.06 99.8724 247.414 99.6641C247.768 99.4557 248.078 99.1797 248.344 98.8359L249.227 99.5234C248.518 100.612 247.456 101.156 246.039 101.156ZM245.859 93.5781C245.276 93.5781 244.786 93.7917 244.391 94.2188C243.995 94.6406 243.75 95.2344 243.656 96H247.891V95.8906C247.849 95.1562 247.651 94.5885 247.297 94.1875C246.943 93.7812 246.464 93.5781 245.859 93.5781ZM252.586 101H251.141V89H252.586V101ZM12.8594 128.883L14.8281 122.547H16.375L12.9766 132.305C12.4505 133.711 11.6146 134.414 10.4688 134.414L10.1953 134.391L9.65625 134.289V133.117L10.0469 133.148C10.5365 133.148 10.9167 133.049 11.1875 132.852C11.4635 132.654 11.6901 132.292 11.8672 131.766L12.1875 130.906L9.17188 122.547H10.75L12.8594 128.883ZM17.1641 126.695C17.1641 125.867 17.3255 125.122 17.6484 124.461C17.9766 123.799 18.4297 123.289 19.0078 122.93C19.5911 122.57 20.2552 122.391 21 122.391C22.151 122.391 23.0807 122.789 23.7891 123.586C24.5026 124.383 24.8594 125.443 24.8594 126.766V126.867C24.8594 127.69 24.7005 128.43 24.3828 129.086C24.0703 129.737 23.6198 130.245 23.0312 130.609C22.4479 130.974 21.776 131.156 21.0156 131.156C19.8698 131.156 18.9401 130.758 18.2266 129.961C17.5182 129.164 17.1641 128.109 17.1641 126.797V126.695ZM18.6172 126.867C18.6172 127.805 18.8333 128.557 19.2656 129.125C19.7031 129.693 20.2865 129.977 21.0156 129.977C21.75 129.977 22.3333 129.69 22.7656 129.117C23.1979 128.539 23.4141 127.732 23.4141 126.695C23.4141 125.768 23.1927 125.018 22.75 124.445C22.3125 123.867 21.7292 123.578 21 123.578C20.2865 123.578 19.7109 123.862 19.2734 124.43C18.8359 124.997 18.6172 125.81 18.6172 126.867ZM31.8906 130.164C31.3281 130.826 30.5026 131.156 29.4141 131.156C28.513 131.156 27.8255 130.896 27.3516 130.375C26.8828 129.849 26.6458 129.073 26.6406 128.047V122.547H28.0859V128.008C28.0859 129.289 28.6068 129.93 29.6484 129.93C30.7526 129.93 31.487 129.518 31.8516 128.695V122.547H33.2969V131H31.9219L31.8906 130.164ZM39.5859 123.844C39.3672 123.807 39.1302 123.789 38.875 123.789C37.9271 123.789 37.2839 124.193 36.9453 125V131H35.5V122.547H36.9062L36.9297 123.523C37.4036 122.768 38.0755 122.391 38.9453 122.391C39.2266 122.391 39.4401 122.427 39.5859 122.5V123.844ZM50.1094 131C50.026 130.833 49.9583 130.536 49.9062 130.109C49.2344 130.807 48.4323 131.156 47.5 131.156C46.6667 131.156 45.9818 130.922 45.4453 130.453C44.9141 129.979 44.6484 129.38 44.6484 128.656C44.6484 127.776 44.9818 127.094 45.6484 126.609C46.3203 126.12 47.263 125.875 48.4766 125.875H49.8828V125.211C49.8828 124.706 49.7318 124.305 49.4297 124.008C49.1276 123.706 48.6823 123.555 48.0938 123.555C47.5781 123.555 47.1458 123.685 46.7969 123.945C46.4479 124.206 46.2734 124.521 46.2734 124.891H44.8203C44.8203 124.469 44.9688 124.062 45.2656 123.672C45.5677 123.276 45.974 122.964 46.4844 122.734C47 122.505 47.5651 122.391 48.1797 122.391C49.1536 122.391 49.9167 122.635 50.4688 123.125C51.0208 123.609 51.3073 124.279 51.3281 125.133V129.023C51.3281 129.799 51.4271 130.417 51.625 130.875V131H50.1094ZM47.7109 129.898C48.1641 129.898 48.5938 129.781 49 129.547C49.4062 129.312 49.7005 129.008 49.8828 128.633V126.898H48.75C46.9792 126.898 46.0938 127.417 46.0938 128.453C46.0938 128.906 46.2448 129.26 46.5469 129.516C46.849 129.771 47.237 129.898 47.7109 129.898ZM60.7344 126.867C60.7344 128.154 60.4401 129.19 59.8516 129.977C59.263 130.763 58.4661 131.156 57.4609 131.156C56.4349 131.156 55.6276 130.831 55.0391 130.18V134.25H53.5938V122.547H54.9141L54.9844 123.484C55.5729 122.755 56.3906 122.391 57.4375 122.391C58.4531 122.391 59.2552 122.773 59.8438 123.539C60.4375 124.305 60.7344 125.37 60.7344 126.734V126.867ZM59.2891 126.703C59.2891 125.75 59.0859 124.997 58.6797 124.445C58.2734 123.893 57.7161 123.617 57.0078 123.617C56.1328 123.617 55.4766 124.005 55.0391 124.781V128.82C55.4714 129.591 56.1328 129.977 57.0234 129.977C57.7161 129.977 58.2656 129.703 58.6719 129.156C59.0833 128.604 59.2891 127.786 59.2891 126.703ZM69.7188 126.867C69.7188 128.154 69.4245 129.19 68.8359 129.977C68.2474 130.763 67.4505 131.156 66.4453 131.156C65.4193 131.156 64.612 130.831 64.0234 130.18V134.25H62.5781V122.547H63.8984L63.9688 123.484C64.5573 122.755 65.375 122.391 66.4219 122.391C67.4375 122.391 68.2396 122.773 68.8281 123.539C69.4219 124.305 69.7188 125.37 69.7188 126.734V126.867ZM68.2734 126.703C68.2734 125.75 68.0703 124.997 67.6641 124.445C67.2578 123.893 66.7005 123.617 65.9922 123.617C65.1172 123.617 64.4609 124.005 64.0234 124.781V128.82C64.4557 129.591 65.1172 129.977 66.0078 129.977C66.7005 129.977 67.25 129.703 67.6562 129.156C68.0677 128.604 68.2734 127.786 68.2734 126.703ZM71.1797 126.695C71.1797 125.867 71.3411 125.122 71.6641 124.461C71.9922 123.799 72.4453 123.289 73.0234 122.93C73.6068 122.57 74.2708 122.391 75.0156 122.391C76.1667 122.391 77.0964 122.789 77.8047 123.586C78.5182 124.383 78.875 125.443 78.875 126.766V126.867C78.875 127.69 78.7161 128.43 78.3984 129.086C78.0859 129.737 77.6354 130.245 77.0469 130.609C76.4635 130.974 75.7917 131.156 75.0312 131.156C73.8854 131.156 72.9557 130.758 72.2422 129.961C71.5339 129.164 71.1797 128.109 71.1797 126.797V126.695ZM72.6328 126.867C72.6328 127.805 72.849 128.557 73.2812 129.125C73.7188 129.693 74.3021 129.977 75.0312 129.977C75.7656 129.977 76.349 129.69 76.7812 129.117C77.2135 128.539 77.4297 127.732 77.4297 126.695C77.4297 125.768 77.2083 125.018 76.7656 124.445C76.3281 123.867 75.7448 123.578 75.0156 123.578C74.3021 123.578 73.7266 123.862 73.2891 124.43C72.8516 124.997 72.6328 125.81 72.6328 126.867ZM82.2578 131H80.8125V122.547H82.2578V131ZM80.6953 120.305C80.6953 120.07 80.7656 119.872 80.9062 119.711C81.0521 119.549 81.2656 119.469 81.5469 119.469C81.8281 119.469 82.0417 119.549 82.1875 119.711C82.3333 119.872 82.4062 120.07 82.4062 120.305C82.4062 120.539 82.3333 120.734 82.1875 120.891C82.0417 121.047 81.8281 121.125 81.5469 121.125C81.2656 121.125 81.0521 121.047 80.9062 120.891C80.7656 120.734 80.6953 120.539 80.6953 120.305ZM85.9453 122.547L85.9922 123.609C86.638 122.797 87.4818 122.391 88.5234 122.391C90.3099 122.391 91.2109 123.398 91.2266 125.414V131H89.7812V125.406C89.776 124.797 89.6354 124.346 89.3594 124.055C89.0885 123.763 88.6641 123.617 88.0859 123.617C87.6172 123.617 87.2057 123.742 86.8516 123.992C86.4974 124.242 86.2214 124.57 86.0234 124.977V131H84.5781V122.547H85.9453ZM95.3672 120.5V122.547H96.9453V123.664H95.3672V128.906C95.3672 129.245 95.4375 129.5 95.5781 129.672C95.7188 129.839 95.9583 129.922 96.2969 129.922C96.4635 129.922 96.6927 129.891 96.9844 129.828V131C96.6042 131.104 96.2344 131.156 95.875 131.156C95.2292 131.156 94.7422 130.961 94.4141 130.57C94.0859 130.18 93.9219 129.625 93.9219 128.906V123.664H92.3828V122.547H93.9219V120.5H95.3672ZM100 122.547L100.039 123.484C100.659 122.755 101.495 122.391 102.547 122.391C103.729 122.391 104.534 122.844 104.961 123.75C105.242 123.344 105.607 123.016 106.055 122.766C106.508 122.516 107.042 122.391 107.656 122.391C109.51 122.391 110.453 123.372 110.484 125.336V131H109.039V125.422C109.039 124.818 108.901 124.367 108.625 124.07C108.349 123.768 107.885 123.617 107.234 123.617C106.698 123.617 106.253 123.779 105.898 124.102C105.544 124.419 105.339 124.849 105.281 125.391V131H103.828V125.461C103.828 124.232 103.227 123.617 102.023 123.617C101.076 123.617 100.427 124.021 100.078 124.828V131H98.6328V122.547H100ZM116.18 131.156C115.034 131.156 114.102 130.781 113.383 130.031C112.664 129.276 112.305 128.268 112.305 127.008V126.742C112.305 125.904 112.464 125.156 112.781 124.5C113.104 123.839 113.552 123.323 114.125 122.953C114.703 122.578 115.328 122.391 116 122.391C117.099 122.391 117.953 122.753 118.562 123.477C119.172 124.201 119.477 125.237 119.477 126.586V127.188H113.75C113.771 128.021 114.013 128.695 114.477 129.211C114.945 129.721 115.539 129.977 116.258 129.977C116.768 129.977 117.201 129.872 117.555 129.664C117.909 129.456 118.219 129.18 118.484 128.836L119.367 129.523C118.659 130.612 117.596 131.156 116.18 131.156ZM116 123.578C115.417 123.578 114.927 123.792 114.531 124.219C114.135 124.641 113.891 125.234 113.797 126H118.031V125.891C117.99 125.156 117.792 124.589 117.438 124.188C117.083 123.781 116.604 123.578 116 123.578ZM122.523 122.547L122.57 123.609C123.216 122.797 124.06 122.391 125.102 122.391C126.888 122.391 127.789 123.398 127.805 125.414V131H126.359V125.406C126.354 124.797 126.214 124.346 125.938 124.055C125.667 123.763 125.242 123.617 124.664 123.617C124.195 123.617 123.784 123.742 123.43 123.992C123.076 124.242 122.799 124.57 122.602 124.977V131H121.156V122.547H122.523ZM131.945 120.5V122.547H133.523V123.664H131.945V128.906C131.945 129.245 132.016 129.5 132.156 129.672C132.297 129.839 132.536 129.922 132.875 129.922C133.042 129.922 133.271 129.891 133.562 129.828V131C133.182 131.104 132.812 131.156 132.453 131.156C131.807 131.156 131.32 130.961 130.992 130.57C130.664 130.18 130.5 129.625 130.5 128.906V123.664H128.961V122.547H130.5V120.5H131.945ZM140.141 128.758C140.141 128.367 139.992 128.065 139.695 127.852C139.404 127.633 138.891 127.445 138.156 127.289C137.427 127.133 136.846 126.945 136.414 126.727C135.987 126.508 135.669 126.247 135.461 125.945C135.258 125.643 135.156 125.284 135.156 124.867C135.156 124.174 135.448 123.589 136.031 123.109C136.62 122.63 137.37 122.391 138.281 122.391C139.24 122.391 140.016 122.638 140.609 123.133C141.208 123.628 141.508 124.26 141.508 125.031H140.055C140.055 124.635 139.885 124.294 139.547 124.008C139.214 123.721 138.792 123.578 138.281 123.578C137.755 123.578 137.344 123.693 137.047 123.922C136.75 124.151 136.602 124.451 136.602 124.82C136.602 125.169 136.74 125.432 137.016 125.609C137.292 125.786 137.789 125.956 138.508 126.117C139.232 126.279 139.818 126.471 140.266 126.695C140.714 126.919 141.044 127.19 141.258 127.508C141.477 127.82 141.586 128.203 141.586 128.656C141.586 129.411 141.284 130.018 140.68 130.477C140.076 130.93 139.292 131.156 138.328 131.156C137.651 131.156 137.052 131.036 136.531 130.797C136.01 130.557 135.602 130.224 135.305 129.797C135.013 129.365 134.867 128.898 134.867 128.398H136.312C136.339 128.883 136.531 129.268 136.891 129.555C137.255 129.836 137.734 129.977 138.328 129.977C138.875 129.977 139.312 129.867 139.641 129.648C139.974 129.424 140.141 129.128 140.141 128.758ZM150.227 129.039L152.32 122.547H153.797L150.766 131H149.664L146.602 122.547H148.078L150.227 129.039ZM156.758 131H155.312V122.547H156.758V131ZM155.195 120.305C155.195 120.07 155.266 119.872 155.406 119.711C155.552 119.549 155.766 119.469 156.047 119.469C156.328 119.469 156.542 119.549 156.688 119.711C156.833 119.872 156.906 120.07 156.906 120.305C156.906 120.539 156.833 120.734 156.688 120.891C156.542 121.047 156.328 121.125 156.047 121.125C155.766 121.125 155.552 121.047 155.406 120.891C155.266 120.734 155.195 120.539 155.195 120.305ZM164.297 131C164.214 130.833 164.146 130.536 164.094 130.109C163.422 130.807 162.62 131.156 161.688 131.156C160.854 131.156 160.169 130.922 159.633 130.453C159.102 129.979 158.836 129.38 158.836 128.656C158.836 127.776 159.169 127.094 159.836 126.609C160.508 126.12 161.451 125.875 162.664 125.875H164.07V125.211C164.07 124.706 163.919 124.305 163.617 124.008C163.315 123.706 162.87 123.555 162.281 123.555C161.766 123.555 161.333 123.685 160.984 123.945C160.635 124.206 160.461 124.521 160.461 124.891H159.008C159.008 124.469 159.156 124.062 159.453 123.672C159.755 123.276 160.161 122.964 160.672 122.734C161.188 122.505 161.753 122.391 162.367 122.391C163.341 122.391 164.104 122.635 164.656 123.125C165.208 123.609 165.495 124.279 165.516 125.133V129.023C165.516 129.799 165.615 130.417 165.812 130.875V131H164.297ZM161.898 129.898C162.352 129.898 162.781 129.781 163.188 129.547C163.594 129.312 163.888 129.008 164.07 128.633V126.898H162.938C161.167 126.898 160.281 127.417 160.281 128.453C160.281 128.906 160.432 129.26 160.734 129.516C161.036 129.771 161.424 129.898 161.898 129.898ZM12.2578 149.625L15.9766 158.906L19.6953 149.625H21.6406V161H20.1406V156.57L20.2812 151.789L16.5469 161H15.3984L11.6719 151.812L11.8203 156.57V161H10.3203V149.625H12.2578ZM26.8281 158.883L28.7969 152.547H30.3438L26.9453 162.305C26.4193 163.711 25.5833 164.414 24.4375 164.414L24.1641 164.391L23.625 164.289V163.117L24.0156 163.148C24.5052 163.148 24.8854 163.049 25.1562 162.852C25.4323 162.654 25.6589 162.292 25.8359 161.766L26.1562 160.906L23.1406 152.547H24.7188L26.8281 158.883ZM35.2188 155.93C33.9323 155.56 32.9948 155.107 32.4062 154.57C31.8229 154.029 31.5312 153.362 31.5312 152.57C31.5312 151.674 31.888 150.935 32.6016 150.352C33.3203 149.763 34.2526 149.469 35.3984 149.469C36.1797 149.469 36.875 149.62 37.4844 149.922C38.099 150.224 38.5729 150.641 38.9062 151.172C39.2448 151.703 39.4141 152.284 39.4141 152.914H37.9062C37.9062 152.227 37.6875 151.688 37.25 151.297C36.8125 150.901 36.1953 150.703 35.3984 150.703C34.6589 150.703 34.0807 150.867 33.6641 151.195C33.2526 151.518 33.0469 151.969 33.0469 152.547C33.0469 153.01 33.2422 153.404 33.6328 153.727C34.0286 154.044 34.6979 154.336 35.6406 154.602C36.5885 154.867 37.3281 155.161 37.8594 155.484C38.3958 155.802 38.7917 156.174 39.0469 156.602C39.3073 157.029 39.4375 157.531 39.4375 158.109C39.4375 159.031 39.0781 159.771 38.3594 160.328C37.6406 160.88 36.6797 161.156 35.4766 161.156C34.6953 161.156 33.9661 161.008 33.2891 160.711C32.612 160.409 32.0885 159.997 31.7188 159.477C31.3542 158.956 31.1719 158.365 31.1719 157.703H32.6797C32.6797 158.391 32.9323 158.935 33.4375 159.336C33.9479 159.732 34.6276 159.93 35.4766 159.93C36.2682 159.93 36.875 159.768 37.2969 159.445C37.7188 159.122 37.9297 158.682 37.9297 158.125C37.9297 157.568 37.7344 157.138 37.3438 156.836C36.9531 156.529 36.2448 156.227 35.2188 155.93ZM43.1016 150.5V152.547H44.6797V153.664H43.1016V158.906C43.1016 159.245 43.1719 159.5 43.3125 159.672C43.4531 159.839 43.6927 159.922 44.0312 159.922C44.1979 159.922 44.4271 159.891 44.7188 159.828V161C44.3385 161.104 43.9688 161.156 43.6094 161.156C42.9635 161.156 42.4766 160.961 42.1484 160.57C41.8203 160.18 41.6562 159.625 41.6562 158.906V153.664H40.1172V152.547H41.6562V150.5H43.1016ZM51.5938 160.164C51.0312 160.826 50.2057 161.156 49.1172 161.156C48.2161 161.156 47.5286 160.896 47.0547 160.375C46.5859 159.849 46.349 159.073 46.3438 158.047V152.547H47.7891V158.008C47.7891 159.289 48.3099 159.93 49.3516 159.93C50.4557 159.93 51.1901 159.518 51.5547 158.695V152.547H53V161H51.625L51.5938 160.164ZM54.8516 156.703C54.8516 155.406 55.1589 154.365 55.7734 153.578C56.388 152.786 57.1927 152.391 58.1875 152.391C59.1771 152.391 59.9609 152.729 60.5391 153.406V149H61.9844V161H60.6562L60.5859 160.094C60.0078 160.802 59.2031 161.156 58.1719 161.156C57.1927 161.156 56.3932 160.755 55.7734 159.953C55.1589 159.151 54.8516 158.104 54.8516 156.812V156.703ZM56.2969 156.867C56.2969 157.826 56.4948 158.576 56.8906 159.117C57.2865 159.659 57.8333 159.93 58.5312 159.93C59.4479 159.93 60.1172 159.518 60.5391 158.695V154.812C60.1068 154.016 59.4427 153.617 58.5469 153.617C57.8385 153.617 57.2865 153.891 56.8906 154.438C56.4948 154.984 56.2969 155.794 56.2969 156.867ZM67.7422 161.156C66.5964 161.156 65.6641 160.781 64.9453 160.031C64.2266 159.276 63.8672 158.268 63.8672 157.008V156.742C63.8672 155.904 64.026 155.156 64.3438 154.5C64.6667 153.839 65.1146 153.323 65.6875 152.953C66.2656 152.578 66.8906 152.391 67.5625 152.391C68.6615 152.391 69.5156 152.753 70.125 153.477C70.7344 154.201 71.0391 155.237 71.0391 156.586V157.188H65.3125C65.3333 158.021 65.5755 158.695 66.0391 159.211C66.5078 159.721 67.1016 159.977 67.8203 159.977C68.3307 159.977 68.763 159.872 69.1172 159.664C69.4714 159.456 69.7812 159.18 70.0469 158.836L70.9297 159.523C70.2214 160.612 69.1589 161.156 67.7422 161.156ZM67.5625 153.578C66.9792 153.578 66.4896 153.792 66.0938 154.219C65.6979 154.641 65.4531 155.234 65.3594 156H69.5938V155.891C69.5521 155.156 69.3542 154.589 69 154.188C68.6458 153.781 68.1667 153.578 67.5625 153.578ZM74.0859 152.547L74.1328 153.609C74.7786 152.797 75.6224 152.391 76.6641 152.391C78.4505 152.391 79.3516 153.398 79.3672 155.414V161H77.9219V155.406C77.9167 154.797 77.776 154.346 77.5 154.055C77.2292 153.763 76.8047 153.617 76.2266 153.617C75.7578 153.617 75.3464 153.742 74.9922 153.992C74.638 154.242 74.362 154.57 74.1641 154.977V161H72.7188V152.547H74.0859ZM83.5078 150.5V152.547H85.0859V153.664H83.5078V158.906C83.5078 159.245 83.5781 159.5 83.7188 159.672C83.8594 159.839 84.099 159.922 84.4375 159.922C84.6042 159.922 84.8333 159.891 85.125 159.828V161C84.7448 161.104 84.375 161.156 84.0156 161.156C83.3698 161.156 82.8828 160.961 82.5547 160.57C82.2266 160.18 82.0625 159.625 82.0625 158.906V153.664H80.5234V152.547H82.0625V150.5H83.5078ZM95.375 157.391C95.2344 158.594 94.7891 159.523 94.0391 160.18C93.2943 160.831 92.3021 161.156 91.0625 161.156C89.7188 161.156 88.6406 160.674 87.8281 159.711C87.0208 158.747 86.6172 157.458 86.6172 155.844V154.75C86.6172 153.693 86.8047 152.763 87.1797 151.961C87.5599 151.159 88.0964 150.544 88.7891 150.117C89.4818 149.685 90.2839 149.469 91.1953 149.469C92.4036 149.469 93.3724 149.807 94.1016 150.484C94.8307 151.156 95.2552 152.089 95.375 153.281H93.8672C93.737 152.375 93.4531 151.719 93.0156 151.312C92.5833 150.906 91.9766 150.703 91.1953 150.703C90.237 150.703 89.4844 151.057 88.9375 151.766C88.3958 152.474 88.125 153.482 88.125 154.789V155.891C88.125 157.125 88.3828 158.107 88.8984 158.836C89.4141 159.565 90.1354 159.93 91.0625 159.93C91.8958 159.93 92.5339 159.742 92.9766 159.367C93.4245 158.987 93.7214 158.328 93.8672 157.391H95.375ZM98.6484 153.57C99.2891 152.784 100.122 152.391 101.148 152.391C102.935 152.391 103.836 153.398 103.852 155.414V161H102.406V155.406C102.401 154.797 102.26 154.346 101.984 154.055C101.714 153.763 101.289 153.617 100.711 153.617C100.242 153.617 99.8307 153.742 99.4766 153.992C99.1224 154.242 98.8464 154.57 98.6484 154.977V161H97.2031V149H98.6484V153.57ZM111.234 161C111.151 160.833 111.083 160.536 111.031 160.109C110.359 160.807 109.557 161.156 108.625 161.156C107.792 161.156 107.107 160.922 106.57 160.453C106.039 159.979 105.773 159.38 105.773 158.656C105.773 157.776 106.107 157.094 106.773 156.609C107.445 156.12 108.388 155.875 109.602 155.875H111.008V155.211C111.008 154.706 110.857 154.305 110.555 154.008C110.253 153.706 109.807 153.555 109.219 153.555C108.703 153.555 108.271 153.685 107.922 153.945C107.573 154.206 107.398 154.521 107.398 154.891H105.945C105.945 154.469 106.094 154.062 106.391 153.672C106.693 153.276 107.099 152.964 107.609 152.734C108.125 152.505 108.69 152.391 109.305 152.391C110.279 152.391 111.042 152.635 111.594 153.125C112.146 153.609 112.432 154.279 112.453 155.133V159.023C112.453 159.799 112.552 160.417 112.75 160.875V161H111.234ZM108.836 159.898C109.289 159.898 109.719 159.781 110.125 159.547C110.531 159.312 110.826 159.008 111.008 158.633V156.898H109.875C108.104 156.898 107.219 157.417 107.219 158.453C107.219 158.906 107.37 159.26 107.672 159.516C107.974 159.771 108.362 159.898 108.836 159.898ZM118.805 153.844C118.586 153.807 118.349 153.789 118.094 153.789C117.146 153.789 116.503 154.193 116.164 155V161H114.719V152.547H116.125L116.148 153.523C116.622 152.768 117.294 152.391 118.164 152.391C118.445 152.391 118.659 152.427 118.805 152.5V153.844ZM122.492 150.5V152.547H124.07V153.664H122.492V158.906C122.492 159.245 122.562 159.5 122.703 159.672C122.844 159.839 123.083 159.922 123.422 159.922C123.589 159.922 123.818 159.891 124.109 159.828V161C123.729 161.104 123.359 161.156 123 161.156C122.354 161.156 121.867 160.961 121.539 160.57C121.211 160.18 121.047 159.625 121.047 158.906V153.664H119.508V152.547H121.047V150.5H122.492ZM125.797 160.242C125.797 159.992 125.87 159.784 126.016 159.617C126.167 159.451 126.391 159.367 126.688 159.367C126.984 159.367 127.208 159.451 127.359 159.617C127.516 159.784 127.594 159.992 127.594 160.242C127.594 160.482 127.516 160.682 127.359 160.844C127.208 161.005 126.984 161.086 126.688 161.086C126.391 161.086 126.167 161.005 126.016 160.844C125.87 160.682 125.797 160.482 125.797 160.242Z" fill="black"/>
<rect x="4.9375" y="237" width="194.616" height="62" fill="#00629B"/>
<path d="M50.6976 274.62H56.7621V276H49.0013V263.203H50.6976V274.62ZM65.9203 270.085H60.3744V274.62H66.8168V276H58.6869V263.203H66.7289V264.592H60.3744V268.705H65.9203V270.085ZM75.9838 272.66H70.6224L69.4183 276H67.6781L72.5648 263.203H74.0414L78.9369 276H77.2054L75.9838 272.66ZM71.1322 271.271H75.4828L73.3031 265.286L71.1322 271.271ZM85.3529 270.823H82.347V276H80.6508V263.203H84.8871C86.3285 263.203 87.4359 263.531 88.2094 264.188C88.9887 264.844 89.3783 265.799 89.3783 267.053C89.3783 267.85 89.1615 268.544 88.7279 269.136C88.3002 269.728 87.7025 270.17 86.9349 270.463L89.9408 275.895V276H88.1303L85.3529 270.823ZM82.347 269.443H84.9398C85.7777 269.443 86.4428 269.227 86.9349 268.793C87.433 268.359 87.682 267.779 87.682 267.053C87.682 266.262 87.4447 265.655 86.9701 265.233C86.5013 264.812 85.8217 264.598 84.931 264.592H82.347V269.443ZM101.586 276H99.89L93.4476 266.139V276H91.7513V263.203H93.4476L99.9076 273.108V263.203H101.586V276ZM111.228 263.203L115.412 273.645L119.595 263.203H121.784V276H120.096V271.017L120.254 265.638L116.053 276H114.761L110.569 265.664L110.736 271.017V276H109.048V263.203H111.228ZM134.607 270.015C134.607 271.269 134.396 272.364 133.974 273.302C133.552 274.233 132.954 274.945 132.181 275.438C131.408 275.93 130.505 276.176 129.474 276.176C128.466 276.176 127.573 275.93 126.793 275.438C126.014 274.939 125.408 274.233 124.974 273.319C124.546 272.399 124.327 271.336 124.315 270.129V269.206C124.315 267.976 124.529 266.889 124.956 265.945C125.384 265.002 125.988 264.281 126.767 263.783C127.552 263.279 128.449 263.027 129.456 263.027C130.482 263.027 131.384 263.276 132.163 263.774C132.949 264.267 133.552 264.984 133.974 265.928C134.396 266.865 134.607 267.958 134.607 269.206V270.015ZM132.928 269.188C132.928 267.671 132.623 266.508 132.014 265.699C131.405 264.885 130.552 264.478 129.456 264.478C128.39 264.478 127.549 264.885 126.934 265.699C126.325 266.508 126.011 267.633 125.994 269.074V270.015C125.994 271.485 126.301 272.643 126.916 273.486C127.537 274.324 128.39 274.743 129.474 274.743C130.564 274.743 131.408 274.348 132.005 273.557C132.603 272.76 132.911 271.62 132.928 270.138V269.188ZM141.831 270.823H138.826V276H137.129V263.203H141.366C142.807 263.203 143.914 263.531 144.688 264.188C145.467 264.844 145.857 265.799 145.857 267.053C145.857 267.85 145.64 268.544 145.206 269.136C144.779 269.728 144.181 270.17 143.413 270.463L146.419 275.895V276H144.609L141.831 270.823ZM138.826 269.443H141.418C142.256 269.443 142.921 269.227 143.413 268.793C143.911 268.359 144.161 267.779 144.161 267.053C144.161 266.262 143.923 265.655 143.449 265.233C142.98 264.812 142.3 264.598 141.41 264.592H138.826V269.443ZM155.463 270.085H149.917V274.62H156.36V276H148.23V263.203H156.272V264.592H149.917V268.705H155.463V270.085Z" fill="white"/>
</g>
<defs>
<filter id="filter0_d" x="0.9375" y="3.58594" width="255.648" height="303.414" filterUnits="userSpaceOnUse" color-interpolation-filters="sRGB">
<feFlood flood-opacity="0" result="BackgroundImageFix"/>
<feColorMatrix in="SourceAlpha" type="matrix" values="0 0 0 0 0 0 0 0 0 0 0 0 0 0 0 0 0 0 127 0"/>
<feOffset dy="4"/>
<feGaussianBlur stdDeviation="2"/>
<feColorMatrix type="matrix" values="0 0 0 0 0 0 0 0 0 0 0 0 0 0 0 0 0 0 0.25 0"/>
<feBlend mode="normal" in2="BackgroundImageFix" result="effect1_dropShadow"/>
<feBlend mode="normal" in="SourceGraphic" in2="effect1_dropShadow" result="shape"/>
</filter>
</defs>
</svg>
