<svg width="196" height="62" viewBox="0 0 196 62" fill="none" xmlns="http://www.w3.org/2000/svg">
<rect x="0.9375" width="194.616" height="62" fill="#00629B"/>
<path d="M46.6976 37.6201H52.7621V39H45.0013V26.2031H46.6976V37.6201ZM61.9203 33.085H56.3744V37.6201H62.8168V39H54.6869V26.2031H62.7289V27.5918H56.3744V31.7051H61.9203V33.085ZM71.9838 35.6602H66.6224L65.4183 39H63.6781L68.5648 26.2031H70.0414L74.9369 39H73.2054L71.9838 35.6602ZM67.1322 34.2715H71.4828L69.3031 28.2861L67.1322 34.2715ZM81.3529 33.8232H78.347V39H76.6508V26.2031H80.8871C82.3285 26.2031 83.4359 26.5312 84.2094 27.1875C84.9887 27.8438 85.3783 28.7988 85.3783 30.0527C85.3783 30.8496 85.1615 31.5439 84.7279 32.1357C84.3002 32.7275 83.7025 33.1699 82.9349 33.4629L85.9408 38.8945V39H84.1303L81.3529 33.8232ZM78.347 32.4434H80.9398C81.7777 32.4434 82.4428 32.2266 82.9349 31.793C83.433 31.3594 83.682 30.7793 83.682 30.0527C83.682 29.2617 83.4447 28.6553 82.9701 28.2334C82.5013 27.8115 81.8217 27.5977 80.931 27.5918H78.347V32.4434ZM97.5863 39H95.89L89.4476 29.1387V39H87.7513V26.2031H89.4476L95.9076 36.1084V26.2031H97.5863V39ZM107.228 26.2031L111.412 36.6445L115.595 26.2031H117.784V39H116.096V34.0166L116.254 28.6377L112.053 39H110.761L106.569 28.6641L106.736 34.0166V39H105.048V26.2031H107.228ZM130.607 33.0146C130.607 34.2686 130.396 35.3643 129.974 36.3018C129.552 37.2334 128.954 37.9453 128.181 38.4375C127.408 38.9297 126.505 39.1758 125.474 39.1758C124.466 39.1758 123.573 38.9297 122.793 38.4375C122.014 37.9395 121.408 37.2334 120.974 36.3193C120.546 35.3994 120.327 34.3359 120.315 33.1289V32.2061C120.315 30.9756 120.529 29.8887 120.956 28.9453C121.384 28.002 121.988 27.2812 122.767 26.7832C123.552 26.2793 124.449 26.0273 125.456 26.0273C126.482 26.0273 127.384 26.2764 128.163 26.7744C128.949 27.2666 129.552 27.9844 129.974 28.9277C130.396 29.8652 130.607 30.958 130.607 32.2061V33.0146ZM128.928 32.1885C128.928 30.6709 128.623 29.5078 128.014 28.6992C127.405 27.8848 126.552 27.4775 125.456 27.4775C124.39 27.4775 123.549 27.8848 122.934 28.6992C122.325 29.5078 122.011 30.6328 121.994 32.0742V33.0146C121.994 34.4854 122.301 35.6426 122.916 36.4863C123.537 37.3242 124.39 37.7432 125.474 37.7432C126.564 37.7432 127.408 37.3477 128.005 36.5566C128.603 35.7598 128.911 34.6201 128.928 33.1377V32.1885ZM137.831 33.8232H134.826V39H133.129V26.2031H137.366C138.807 26.2031 139.914 26.5312 140.688 27.1875C141.467 27.8438 141.857 28.7988 141.857 30.0527C141.857 30.8496 141.64 31.5439 141.206 32.1357C140.779 32.7275 140.181 33.1699 139.413 33.4629L142.419 38.8945V39H140.609L137.831 33.8232ZM134.826 32.4434H137.418C138.256 32.4434 138.921 32.2266 139.413 31.793C139.911 31.3594 140.161 30.7793 140.161 30.0527C140.161 29.2617 139.923 28.6553 139.449 28.2334C138.98 27.8115 138.3 27.5977 137.41 27.5918H134.826V32.4434ZM151.463 33.085H145.917V37.6201H152.36V39H144.23V26.2031H152.272V27.5918H145.917V31.7051H151.463V33.085Z" fill="white"/>
</svg>
