<svg width="890" height="164" viewBox="0 0 1440 264" fill="none" xmlns="http://www.w3.org/2000/svg">
<rect width="1640" height="264" fill="#C4C4C4"/>
<rect width="1640" height="264" fill="#00629B"/>
<rect width="1640" height="264" fill="#00629B"/>
<rect width="1640" height="264" fill="#00629B"/>
<path d="M93.4375 83.4062H75.4375V102H66.0625V56.5H95.6875V64.0938H75.4375V75.8438H93.4375V83.4062ZM128.5 82.2812H110.5V94.4688H131.625V102H101.125V56.5H131.562V64.0938H110.5V74.9375H128.5V82.2812ZM164.5 82.2812H146.5V94.4688H167.625V102H137.125V56.5H167.562V64.0938H146.5V74.9375H164.5V82.2812ZM173.125 102V56.5H187.125C191.125 56.5 194.698 57.4062 197.844 59.2188C201.01 61.0104 203.479 63.5729 205.25 66.9062C207.021 70.2188 207.906 73.9896 207.906 78.2188V80.3125C207.906 84.5417 207.031 88.3021 205.281 91.5938C203.552 94.8854 201.104 97.4375 197.938 99.25C194.771 101.062 191.198 101.979 187.219 102H173.125ZM182.5 64.0938V94.4688H187.031C190.698 94.4688 193.5 93.2708 195.438 90.875C197.375 88.4792 198.365 85.0521 198.406 80.5938V78.1875C198.406 73.5625 197.448 70.0625 195.531 67.6875C193.615 65.2917 190.812 64.0938 187.125 64.0938H182.5ZM214.75 102V56.5H230.688C236.208 56.5 240.396 57.5625 243.25 59.6875C246.104 61.7917 247.531 64.8854 247.531 68.9688C247.531 71.1979 246.958 73.1667 245.812 74.875C244.667 76.5625 243.073 77.8021 241.031 78.5938C243.365 79.1771 245.198 80.3542 246.531 82.125C247.885 83.8958 248.562 86.0625 248.562 88.625C248.562 93 247.167 96.3125 244.375 98.5625C241.583 100.812 237.604 101.958 232.438 102H214.75ZM224.125 82.1875V94.4688H232.156C234.365 94.4688 236.083 93.9479 237.312 92.9062C238.562 91.8438 239.188 90.3854 239.188 88.5312C239.188 84.3646 237.031 82.25 232.719 82.1875H224.125ZM224.125 75.5625H231.062C235.792 75.4792 238.156 73.5938 238.156 69.9062C238.156 67.8438 237.552 66.3646 236.344 65.4688C235.156 64.5521 233.271 64.0938 230.688 64.0938H224.125V75.5625ZM281.312 92.625H264.875L261.75 102H251.781L268.719 56.5H277.406L294.438 102H284.469L281.312 92.625ZM267.406 85.0312H278.781L273.062 68L267.406 85.0312ZM333.719 86.8438C333.365 91.7396 331.552 95.5938 328.281 98.4062C325.031 101.219 320.74 102.625 315.406 102.625C309.573 102.625 304.979 100.667 301.625 96.75C298.292 92.8125 296.625 87.4167 296.625 80.5625V77.7812C296.625 73.4062 297.396 69.5521 298.938 66.2188C300.479 62.8854 302.677 60.3333 305.531 58.5625C308.406 56.7708 311.74 55.875 315.531 55.875C320.781 55.875 325.01 57.2812 328.219 60.0938C331.427 62.9062 333.281 66.8542 333.781 71.9375H324.406C324.177 69 323.354 66.875 321.938 65.5625C320.542 64.2292 318.406 63.5625 315.531 63.5625C312.406 63.5625 310.062 64.6875 308.5 66.9375C306.958 69.1667 306.167 72.6354 306.125 77.3438V80.7812C306.125 85.6979 306.865 89.2917 308.344 91.5625C309.844 93.8333 312.198 94.9688 315.406 94.9688C318.302 94.9688 320.458 94.3125 321.875 93C323.312 91.6667 324.135 89.6146 324.344 86.8438H333.719ZM354.125 83.75L349.25 89V102H339.875V56.5H349.25V77.125L353.375 71.4688L364.969 56.5H376.5L360.344 76.7188L376.969 102H365.812L354.125 83.75ZM64.8281 160.773H70.2188V162H63.3203V150.625H64.8281V160.773ZM75.2109 162.156C74.0651 162.156 73.1328 161.781 72.4141 161.031C71.6953 160.276 71.3359 159.268 71.3359 158.008V157.742C71.3359 156.904 71.4948 156.156 71.8125 155.5C72.1354 154.839 72.5833 154.323 73.1562 153.953C73.7344 153.578 74.3594 153.391 75.0312 153.391C76.1302 153.391 76.9844 153.753 77.5938 154.477C78.2031 155.201 78.5078 156.237 78.5078 157.586V158.188H72.7812C72.8021 159.021 73.0443 159.695 73.5078 160.211C73.9766 160.721 74.5703 160.977 75.2891 160.977C75.7995 160.977 76.2318 160.872 76.5859 160.664C76.9401 160.456 77.25 160.18 77.5156 159.836L78.3984 160.523C77.6901 161.612 76.6276 162.156 75.2109 162.156ZM75.0312 154.578C74.4479 154.578 73.9583 154.792 73.5625 155.219C73.1667 155.641 72.9219 156.234 72.8281 157H77.0625V156.891C77.0208 156.156 76.8229 155.589 76.4688 155.188C76.1146 154.781 75.6354 154.578 75.0312 154.578ZM82.1484 151.5V153.547H83.7266V154.664H82.1484V159.906C82.1484 160.245 82.2188 160.5 82.3594 160.672C82.5 160.839 82.7396 160.922 83.0781 160.922C83.2448 160.922 83.474 160.891 83.7656 160.828V162C83.3854 162.104 83.0156 162.156 82.6562 162.156C82.0104 162.156 81.5234 161.961 81.1953 161.57C80.8672 161.18 80.7031 160.625 80.7031 159.906V154.664H79.1641V153.547H80.7031V151.5H82.1484ZM94.6094 161.164C94.0469 161.826 93.2214 162.156 92.1328 162.156C91.2318 162.156 90.5443 161.896 90.0703 161.375C89.6016 160.849 89.3646 160.073 89.3594 159.047V153.547H90.8047V159.008C90.8047 160.289 91.3255 160.93 92.3672 160.93C93.4714 160.93 94.2057 160.518 94.5703 159.695V153.547H96.0156V162H94.6406L94.6094 161.164ZM103.141 159.758C103.141 159.367 102.992 159.065 102.695 158.852C102.404 158.633 101.891 158.445 101.156 158.289C100.427 158.133 99.8464 157.945 99.4141 157.727C98.987 157.508 98.6693 157.247 98.4609 156.945C98.2578 156.643 98.1562 156.284 98.1562 155.867C98.1562 155.174 98.4479 154.589 99.0312 154.109C99.6198 153.63 100.37 153.391 101.281 153.391C102.24 153.391 103.016 153.638 103.609 154.133C104.208 154.628 104.508 155.26 104.508 156.031H103.055C103.055 155.635 102.885 155.294 102.547 155.008C102.214 154.721 101.792 154.578 101.281 154.578C100.755 154.578 100.344 154.693 100.047 154.922C99.75 155.151 99.6016 155.451 99.6016 155.82C99.6016 156.169 99.7396 156.432 100.016 156.609C100.292 156.786 100.789 156.956 101.508 157.117C102.232 157.279 102.818 157.471 103.266 157.695C103.714 157.919 104.044 158.19 104.258 158.508C104.477 158.82 104.586 159.203 104.586 159.656C104.586 160.411 104.284 161.018 103.68 161.477C103.076 161.93 102.292 162.156 101.328 162.156C100.651 162.156 100.052 162.036 99.5312 161.797C99.0104 161.557 98.6016 161.224 98.3047 160.797C98.013 160.365 97.8672 159.898 97.8672 159.398H99.3125C99.3385 159.883 99.5312 160.268 99.8906 160.555C100.255 160.836 100.734 160.977 101.328 160.977C101.875 160.977 102.312 160.867 102.641 160.648C102.974 160.424 103.141 160.128 103.141 159.758ZM112.797 158.086L111.891 159.031V162H110.445V150H111.891V157.258L112.664 156.328L115.297 153.547H117.055L113.766 157.078L117.438 162H115.742L112.797 158.086ZM119.914 153.547L119.961 154.609C120.607 153.797 121.451 153.391 122.492 153.391C124.279 153.391 125.18 154.398 125.195 156.414V162H123.75V156.406C123.745 155.797 123.604 155.346 123.328 155.055C123.057 154.763 122.633 154.617 122.055 154.617C121.586 154.617 121.174 154.742 120.82 154.992C120.466 155.242 120.19 155.57 119.992 155.977V162H118.547V153.547H119.914ZM126.992 157.695C126.992 156.867 127.154 156.122 127.477 155.461C127.805 154.799 128.258 154.289 128.836 153.93C129.419 153.57 130.083 153.391 130.828 153.391C131.979 153.391 132.909 153.789 133.617 154.586C134.331 155.383 134.688 156.443 134.688 157.766V157.867C134.688 158.69 134.529 159.43 134.211 160.086C133.898 160.737 133.448 161.245 132.859 161.609C132.276 161.974 131.604 162.156 130.844 162.156C129.698 162.156 128.768 161.758 128.055 160.961C127.346 160.164 126.992 159.109 126.992 157.797V157.695ZM128.445 157.867C128.445 158.805 128.661 159.557 129.094 160.125C129.531 160.693 130.115 160.977 130.844 160.977C131.578 160.977 132.161 160.69 132.594 160.117C133.026 159.539 133.242 158.732 133.242 157.695C133.242 156.768 133.021 156.018 132.578 155.445C132.141 154.867 131.557 154.578 130.828 154.578C130.115 154.578 129.539 154.862 129.102 155.43C128.664 155.997 128.445 156.81 128.445 157.867ZM143.984 160.008L145.609 153.547H147.055L144.594 162H143.422L141.367 155.594L139.367 162H138.195L135.742 153.547H137.18L138.844 159.875L140.812 153.547H141.977L143.984 160.008ZM153.945 154.57C154.586 153.784 155.419 153.391 156.445 153.391C158.232 153.391 159.133 154.398 159.148 156.414V162H157.703V156.406C157.698 155.797 157.557 155.346 157.281 155.055C157.01 154.763 156.586 154.617 156.008 154.617C155.539 154.617 155.128 154.742 154.773 154.992C154.419 155.242 154.143 155.57 153.945 155.977V162H152.5V150H153.945V154.57ZM160.93 157.695C160.93 156.867 161.091 156.122 161.414 155.461C161.742 154.799 162.195 154.289 162.773 153.93C163.357 153.57 164.021 153.391 164.766 153.391C165.917 153.391 166.846 153.789 167.555 154.586C168.268 155.383 168.625 156.443 168.625 157.766V157.867C168.625 158.69 168.466 159.43 168.148 160.086C167.836 160.737 167.385 161.245 166.797 161.609C166.214 161.974 165.542 162.156 164.781 162.156C163.635 162.156 162.706 161.758 161.992 160.961C161.284 160.164 160.93 159.109 160.93 157.797V157.695ZM162.383 157.867C162.383 158.805 162.599 159.557 163.031 160.125C163.469 160.693 164.052 160.977 164.781 160.977C165.516 160.977 166.099 160.69 166.531 160.117C166.964 159.539 167.18 158.732 167.18 157.695C167.18 156.768 166.958 156.018 166.516 155.445C166.078 154.867 165.495 154.578 164.766 154.578C164.052 154.578 163.477 154.862 163.039 155.43C162.602 155.997 162.383 156.81 162.383 157.867ZM177.922 160.008L179.547 153.547H180.992L178.531 162H177.359L175.305 155.594L173.305 162H172.133L169.68 153.547H171.117L172.781 159.875L174.75 153.547H175.914L177.922 160.008ZM193.922 160.008L195.547 153.547H196.992L194.531 162H193.359L191.305 155.594L189.305 162H188.133L185.68 153.547H187.117L188.781 159.875L190.75 153.547H191.914L193.922 160.008ZM201.977 162.156C200.831 162.156 199.898 161.781 199.18 161.031C198.461 160.276 198.102 159.268 198.102 158.008V157.742C198.102 156.904 198.26 156.156 198.578 155.5C198.901 154.839 199.349 154.323 199.922 153.953C200.5 153.578 201.125 153.391 201.797 153.391C202.896 153.391 203.75 153.753 204.359 154.477C204.969 155.201 205.273 156.237 205.273 157.586V158.188H199.547C199.568 159.021 199.81 159.695 200.273 160.211C200.742 160.721 201.336 160.977 202.055 160.977C202.565 160.977 202.997 160.872 203.352 160.664C203.706 160.456 204.016 160.18 204.281 159.836L205.164 160.523C204.456 161.612 203.393 162.156 201.977 162.156ZM201.797 154.578C201.214 154.578 200.724 154.792 200.328 155.219C199.932 155.641 199.688 156.234 199.594 157H203.828V156.891C203.786 156.156 203.589 155.589 203.234 155.188C202.88 154.781 202.401 154.578 201.797 154.578ZM206.43 153.828L205.609 153.266C206.094 152.589 206.344 151.875 206.359 151.125V150H207.789V151.016C207.784 151.536 207.654 152.057 207.398 152.578C207.148 153.094 206.826 153.51 206.43 153.828ZM213.617 154.844C213.398 154.807 213.161 154.789 212.906 154.789C211.958 154.789 211.315 155.193 210.977 156V162H209.531V153.547H210.938L210.961 154.523C211.435 153.768 212.107 153.391 212.977 153.391C213.258 153.391 213.471 153.427 213.617 153.5V154.844ZM218.305 162.156C217.159 162.156 216.227 161.781 215.508 161.031C214.789 160.276 214.43 159.268 214.43 158.008V157.742C214.43 156.904 214.589 156.156 214.906 155.5C215.229 154.839 215.677 154.323 216.25 153.953C216.828 153.578 217.453 153.391 218.125 153.391C219.224 153.391 220.078 153.753 220.688 154.477C221.297 155.201 221.602 156.237 221.602 157.586V158.188H215.875C215.896 159.021 216.138 159.695 216.602 160.211C217.07 160.721 217.664 160.977 218.383 160.977C218.893 160.977 219.326 160.872 219.68 160.664C220.034 160.456 220.344 160.18 220.609 159.836L221.492 160.523C220.784 161.612 219.721 162.156 218.305 162.156ZM218.125 154.578C217.542 154.578 217.052 154.792 216.656 155.219C216.26 155.641 216.016 156.234 215.922 157H220.156V156.891C220.115 156.156 219.917 155.589 219.562 155.188C219.208 154.781 218.729 154.578 218.125 154.578ZM226.898 157.703C226.898 156.406 227.206 155.365 227.82 154.578C228.435 153.786 229.24 153.391 230.234 153.391C231.224 153.391 232.008 153.729 232.586 154.406V150H234.031V162H232.703L232.633 161.094C232.055 161.802 231.25 162.156 230.219 162.156C229.24 162.156 228.44 161.755 227.82 160.953C227.206 160.151 226.898 159.104 226.898 157.812V157.703ZM228.344 157.867C228.344 158.826 228.542 159.576 228.938 160.117C229.333 160.659 229.88 160.93 230.578 160.93C231.495 160.93 232.164 160.518 232.586 159.695V155.812C232.154 155.016 231.49 154.617 230.594 154.617C229.885 154.617 229.333 154.891 228.938 155.438C228.542 155.984 228.344 156.794 228.344 157.867ZM235.898 157.695C235.898 156.867 236.06 156.122 236.383 155.461C236.711 154.799 237.164 154.289 237.742 153.93C238.326 153.57 238.99 153.391 239.734 153.391C240.885 153.391 241.815 153.789 242.523 154.586C243.237 155.383 243.594 156.443 243.594 157.766V157.867C243.594 158.69 243.435 159.43 243.117 160.086C242.805 160.737 242.354 161.245 241.766 161.609C241.182 161.974 240.51 162.156 239.75 162.156C238.604 162.156 237.674 161.758 236.961 160.961C236.253 160.164 235.898 159.109 235.898 157.797V157.695ZM237.352 157.867C237.352 158.805 237.568 159.557 238 160.125C238.438 160.693 239.021 160.977 239.75 160.977C240.484 160.977 241.068 160.69 241.5 160.117C241.932 159.539 242.148 158.732 242.148 157.695C242.148 156.768 241.927 156.018 241.484 155.445C241.047 154.867 240.464 154.578 239.734 154.578C239.021 154.578 238.445 154.862 238.008 155.43C237.57 155.997 237.352 156.81 237.352 157.867ZM246.977 162H245.531V153.547H246.977V162ZM245.414 151.305C245.414 151.07 245.484 150.872 245.625 150.711C245.771 150.549 245.984 150.469 246.266 150.469C246.547 150.469 246.76 150.549 246.906 150.711C247.052 150.872 247.125 151.07 247.125 151.305C247.125 151.539 247.052 151.734 246.906 151.891C246.76 152.047 246.547 152.125 246.266 152.125C245.984 152.125 245.771 152.047 245.625 151.891C245.484 151.734 245.414 151.539 245.414 151.305ZM250.664 153.547L250.711 154.609C251.357 153.797 252.201 153.391 253.242 153.391C255.029 153.391 255.93 154.398 255.945 156.414V162H254.5V156.406C254.495 155.797 254.354 155.346 254.078 155.055C253.807 154.763 253.383 154.617 252.805 154.617C252.336 154.617 251.924 154.742 251.57 154.992C251.216 155.242 250.94 155.57 250.742 155.977V162H249.297V153.547H250.664ZM257.781 157.703C257.781 156.385 258.086 155.339 258.695 154.562C259.305 153.781 260.112 153.391 261.117 153.391C262.148 153.391 262.953 153.755 263.531 154.484L263.602 153.547H264.922V161.797C264.922 162.891 264.596 163.753 263.945 164.383C263.299 165.013 262.43 165.328 261.336 165.328C260.727 165.328 260.13 165.198 259.547 164.938C258.964 164.677 258.518 164.32 258.211 163.867L258.961 163C259.581 163.766 260.339 164.148 261.234 164.148C261.938 164.148 262.484 163.951 262.875 163.555C263.271 163.159 263.469 162.602 263.469 161.883V161.156C262.891 161.823 262.102 162.156 261.102 162.156C260.112 162.156 259.31 161.758 258.695 160.961C258.086 160.164 257.781 159.078 257.781 157.703ZM259.234 157.867C259.234 158.82 259.43 159.57 259.82 160.117C260.211 160.659 260.758 160.93 261.461 160.93C262.372 160.93 263.042 160.516 263.469 159.688V155.828C263.026 155.021 262.362 154.617 261.477 154.617C260.773 154.617 260.224 154.891 259.828 155.438C259.432 155.984 259.234 156.794 259.234 157.867ZM267.062 164.266L266.242 163.703C266.732 163.021 266.987 162.318 267.008 161.594V160.289H268.422V161.422C268.422 161.948 268.292 162.474 268.031 163C267.776 163.526 267.453 163.948 267.062 164.266ZM279.438 162C279.354 161.833 279.286 161.536 279.234 161.109C278.562 161.807 277.76 162.156 276.828 162.156C275.995 162.156 275.31 161.922 274.773 161.453C274.242 160.979 273.977 160.38 273.977 159.656C273.977 158.776 274.31 158.094 274.977 157.609C275.648 157.12 276.591 156.875 277.805 156.875H279.211V156.211C279.211 155.706 279.06 155.305 278.758 155.008C278.456 154.706 278.01 154.555 277.422 154.555C276.906 154.555 276.474 154.685 276.125 154.945C275.776 155.206 275.602 155.521 275.602 155.891H274.148C274.148 155.469 274.297 155.062 274.594 154.672C274.896 154.276 275.302 153.964 275.812 153.734C276.328 153.505 276.893 153.391 277.508 153.391C278.482 153.391 279.245 153.635 279.797 154.125C280.349 154.609 280.635 155.279 280.656 156.133V160.023C280.656 160.799 280.755 161.417 280.953 161.875V162H279.438ZM277.039 160.898C277.492 160.898 277.922 160.781 278.328 160.547C278.734 160.312 279.029 160.008 279.211 159.633V157.898H278.078C276.307 157.898 275.422 158.417 275.422 159.453C275.422 159.906 275.573 160.26 275.875 160.516C276.177 160.771 276.565 160.898 277.039 160.898ZM284.289 153.547L284.336 154.609C284.982 153.797 285.826 153.391 286.867 153.391C288.654 153.391 289.555 154.398 289.57 156.414V162H288.125V156.406C288.12 155.797 287.979 155.346 287.703 155.055C287.432 154.763 287.008 154.617 286.43 154.617C285.961 154.617 285.549 154.742 285.195 154.992C284.841 155.242 284.565 155.57 284.367 155.977V162H282.922V153.547H284.289ZM291.398 157.703C291.398 156.406 291.706 155.365 292.32 154.578C292.935 153.786 293.74 153.391 294.734 153.391C295.724 153.391 296.508 153.729 297.086 154.406V150H298.531V162H297.203L297.133 161.094C296.555 161.802 295.75 162.156 294.719 162.156C293.74 162.156 292.94 161.755 292.32 160.953C291.706 160.151 291.398 159.104 291.398 157.812V157.703ZM292.844 157.867C292.844 158.826 293.042 159.576 293.438 160.117C293.833 160.659 294.38 160.93 295.078 160.93C295.995 160.93 296.664 160.518 297.086 159.695V155.812C296.654 155.016 295.99 154.617 295.094 154.617C294.385 154.617 293.833 154.891 293.438 155.438C293.042 155.984 292.844 156.794 292.844 157.867ZM312.234 160.008L313.859 153.547H315.305L312.844 162H311.672L309.617 155.594L307.617 162H306.445L303.992 153.547H305.43L307.094 159.875L309.062 153.547H310.227L312.234 160.008ZM318.227 154.57C318.867 153.784 319.701 153.391 320.727 153.391C322.513 153.391 323.414 154.398 323.43 156.414V162H321.984V156.406C321.979 155.797 321.839 155.346 321.562 155.055C321.292 154.763 320.867 154.617 320.289 154.617C319.82 154.617 319.409 154.742 319.055 154.992C318.701 155.242 318.424 155.57 318.227 155.977V162H316.781V150H318.227V154.57ZM330.812 162C330.729 161.833 330.661 161.536 330.609 161.109C329.938 161.807 329.135 162.156 328.203 162.156C327.37 162.156 326.685 161.922 326.148 161.453C325.617 160.979 325.352 160.38 325.352 159.656C325.352 158.776 325.685 158.094 326.352 157.609C327.023 157.12 327.966 156.875 329.18 156.875H330.586V156.211C330.586 155.706 330.435 155.305 330.133 155.008C329.831 154.706 329.385 154.555 328.797 154.555C328.281 154.555 327.849 154.685 327.5 154.945C327.151 155.206 326.977 155.521 326.977 155.891H325.523C325.523 155.469 325.672 155.062 325.969 154.672C326.271 154.276 326.677 153.964 327.188 153.734C327.703 153.505 328.268 153.391 328.883 153.391C329.857 153.391 330.62 153.635 331.172 154.125C331.724 154.609 332.01 155.279 332.031 156.133V160.023C332.031 160.799 332.13 161.417 332.328 161.875V162H330.812ZM328.414 160.898C328.867 160.898 329.297 160.781 329.703 160.547C330.109 160.312 330.404 160.008 330.586 159.633V157.898H329.453C327.682 157.898 326.797 158.417 326.797 159.453C326.797 159.906 326.948 160.26 327.25 160.516C327.552 160.771 327.94 160.898 328.414 160.898ZM336.258 151.5V153.547H337.836V154.664H336.258V159.906C336.258 160.245 336.328 160.5 336.469 160.672C336.609 160.839 336.849 160.922 337.188 160.922C337.354 160.922 337.583 160.891 337.875 160.828V162C337.495 162.104 337.125 162.156 336.766 162.156C336.12 162.156 335.633 161.961 335.305 161.57C334.977 161.18 334.812 160.625 334.812 159.906V154.664H333.273V153.547H334.812V151.5H336.258ZM350.984 160.008L352.609 153.547H354.055L351.594 162H350.422L348.367 155.594L346.367 162H345.195L342.742 153.547H344.18L345.844 159.875L347.812 153.547H348.977L350.984 160.008ZM359.039 162.156C357.893 162.156 356.961 161.781 356.242 161.031C355.523 160.276 355.164 159.268 355.164 158.008V157.742C355.164 156.904 355.323 156.156 355.641 155.5C355.964 154.839 356.411 154.323 356.984 153.953C357.562 153.578 358.188 153.391 358.859 153.391C359.958 153.391 360.812 153.753 361.422 154.477C362.031 155.201 362.336 156.237 362.336 157.586V158.188H356.609C356.63 159.021 356.872 159.695 357.336 160.211C357.805 160.721 358.398 160.977 359.117 160.977C359.628 160.977 360.06 160.872 360.414 160.664C360.768 160.456 361.078 160.18 361.344 159.836L362.227 160.523C361.518 161.612 360.456 162.156 359.039 162.156ZM358.859 154.578C358.276 154.578 357.786 154.792 357.391 155.219C356.995 155.641 356.75 156.234 356.656 157H360.891V156.891C360.849 156.156 360.651 155.589 360.297 155.188C359.943 154.781 359.464 154.578 358.859 154.578ZM371.375 160.977C371.891 160.977 372.341 160.82 372.727 160.508C373.112 160.195 373.326 159.805 373.367 159.336H374.734C374.708 159.82 374.542 160.281 374.234 160.719C373.927 161.156 373.516 161.505 373 161.766C372.49 162.026 371.948 162.156 371.375 162.156C370.224 162.156 369.307 161.773 368.625 161.008C367.948 160.237 367.609 159.185 367.609 157.852V157.609C367.609 156.786 367.76 156.055 368.062 155.414C368.365 154.773 368.797 154.276 369.359 153.922C369.927 153.568 370.596 153.391 371.367 153.391C372.315 153.391 373.102 153.674 373.727 154.242C374.357 154.81 374.693 155.547 374.734 156.453H373.367C373.326 155.906 373.117 155.458 372.742 155.109C372.372 154.755 371.914 154.578 371.367 154.578C370.633 154.578 370.062 154.844 369.656 155.375C369.255 155.901 369.055 156.664 369.055 157.664V157.938C369.055 158.911 369.255 159.661 369.656 160.188C370.057 160.714 370.63 160.977 371.375 160.977ZM381.578 162C381.495 161.833 381.427 161.536 381.375 161.109C380.703 161.807 379.901 162.156 378.969 162.156C378.135 162.156 377.451 161.922 376.914 161.453C376.383 160.979 376.117 160.38 376.117 159.656C376.117 158.776 376.451 158.094 377.117 157.609C377.789 157.12 378.732 156.875 379.945 156.875H381.352V156.211C381.352 155.706 381.201 155.305 380.898 155.008C380.596 154.706 380.151 154.555 379.562 154.555C379.047 154.555 378.615 154.685 378.266 154.945C377.917 155.206 377.742 155.521 377.742 155.891H376.289C376.289 155.469 376.438 155.062 376.734 154.672C377.036 154.276 377.443 153.964 377.953 153.734C378.469 153.505 379.034 153.391 379.648 153.391C380.622 153.391 381.385 153.635 381.938 154.125C382.49 154.609 382.776 155.279 382.797 156.133V160.023C382.797 160.799 382.896 161.417 383.094 161.875V162H381.578ZM379.18 160.898C379.633 160.898 380.062 160.781 380.469 160.547C380.875 160.312 381.169 160.008 381.352 159.633V157.898H380.219C378.448 157.898 377.562 158.417 377.562 159.453C377.562 159.906 377.714 160.26 378.016 160.516C378.318 160.771 378.706 160.898 379.18 160.898ZM386.43 153.547L386.477 154.609C387.122 153.797 387.966 153.391 389.008 153.391C390.794 153.391 391.695 154.398 391.711 156.414V162H390.266V156.406C390.26 155.797 390.12 155.346 389.844 155.055C389.573 154.763 389.148 154.617 388.57 154.617C388.102 154.617 387.69 154.742 387.336 154.992C386.982 155.242 386.706 155.57 386.508 155.977V162H385.062V153.547H386.43ZM397.508 157.703C397.508 156.406 397.815 155.365 398.43 154.578C399.044 153.786 399.849 153.391 400.844 153.391C401.833 153.391 402.617 153.729 403.195 154.406V150H404.641V162H403.312L403.242 161.094C402.664 161.802 401.859 162.156 400.828 162.156C399.849 162.156 399.049 161.755 398.43 160.953C397.815 160.151 397.508 159.104 397.508 157.812V157.703ZM398.953 157.867C398.953 158.826 399.151 159.576 399.547 160.117C399.943 160.659 400.49 160.93 401.188 160.93C402.104 160.93 402.773 160.518 403.195 159.695V155.812C402.763 155.016 402.099 154.617 401.203 154.617C400.495 154.617 399.943 154.891 399.547 155.438C399.151 155.984 398.953 156.794 398.953 157.867ZM406.508 157.695C406.508 156.867 406.669 156.122 406.992 155.461C407.32 154.799 407.773 154.289 408.352 153.93C408.935 153.57 409.599 153.391 410.344 153.391C411.495 153.391 412.424 153.789 413.133 154.586C413.846 155.383 414.203 156.443 414.203 157.766V157.867C414.203 158.69 414.044 159.43 413.727 160.086C413.414 160.737 412.964 161.245 412.375 161.609C411.792 161.974 411.12 162.156 410.359 162.156C409.214 162.156 408.284 161.758 407.57 160.961C406.862 160.164 406.508 159.109 406.508 157.797V157.695ZM407.961 157.867C407.961 158.805 408.177 159.557 408.609 160.125C409.047 160.693 409.63 160.977 410.359 160.977C411.094 160.977 411.677 160.69 412.109 160.117C412.542 159.539 412.758 158.732 412.758 157.695C412.758 156.768 412.536 156.018 412.094 155.445C411.656 154.867 411.073 154.578 410.344 154.578C409.63 154.578 409.055 154.862 408.617 155.43C408.18 155.997 407.961 156.81 407.961 157.867ZM421.945 151.5V153.547H423.523V154.664H421.945V159.906C421.945 160.245 422.016 160.5 422.156 160.672C422.297 160.839 422.536 160.922 422.875 160.922C423.042 160.922 423.271 160.891 423.562 160.828V162C423.182 162.104 422.812 162.156 422.453 162.156C421.807 162.156 421.32 161.961 420.992 161.57C420.664 161.18 420.5 160.625 420.5 159.906V154.664H418.961V153.547H420.5V151.5H421.945ZM424.68 157.695C424.68 156.867 424.841 156.122 425.164 155.461C425.492 154.799 425.945 154.289 426.523 153.93C427.107 153.57 427.771 153.391 428.516 153.391C429.667 153.391 430.596 153.789 431.305 154.586C432.018 155.383 432.375 156.443 432.375 157.766V157.867C432.375 158.69 432.216 159.43 431.898 160.086C431.586 160.737 431.135 161.245 430.547 161.609C429.964 161.974 429.292 162.156 428.531 162.156C427.385 162.156 426.456 161.758 425.742 160.961C425.034 160.164 424.68 159.109 424.68 157.797V157.695ZM426.133 157.867C426.133 158.805 426.349 159.557 426.781 160.125C427.219 160.693 427.802 160.977 428.531 160.977C429.266 160.977 429.849 160.69 430.281 160.117C430.714 159.539 430.93 158.732 430.93 157.695C430.93 156.768 430.708 156.018 430.266 155.445C429.828 154.867 429.245 154.578 428.516 154.578C427.802 154.578 427.227 154.862 426.789 155.43C426.352 155.997 426.133 156.81 426.133 157.867ZM445.312 157.867C445.312 159.159 445.016 160.198 444.422 160.984C443.828 161.766 443.031 162.156 442.031 162.156C440.964 162.156 440.138 161.779 439.555 161.023L439.484 162H438.156V150H439.602V154.477C440.185 153.753 440.99 153.391 442.016 153.391C443.042 153.391 443.846 153.779 444.43 154.555C445.018 155.331 445.312 156.393 445.312 157.742V157.867ZM443.867 157.703C443.867 156.719 443.677 155.958 443.297 155.422C442.917 154.885 442.37 154.617 441.656 154.617C440.703 154.617 440.018 155.06 439.602 155.945V159.602C440.044 160.487 440.734 160.93 441.672 160.93C442.365 160.93 442.904 160.661 443.289 160.125C443.674 159.589 443.867 158.781 443.867 157.703ZM450.648 162.156C449.503 162.156 448.57 161.781 447.852 161.031C447.133 160.276 446.773 159.268 446.773 158.008V157.742C446.773 156.904 446.932 156.156 447.25 155.5C447.573 154.839 448.021 154.323 448.594 153.953C449.172 153.578 449.797 153.391 450.469 153.391C451.568 153.391 452.422 153.753 453.031 154.477C453.641 155.201 453.945 156.237 453.945 157.586V158.188H448.219C448.24 159.021 448.482 159.695 448.945 160.211C449.414 160.721 450.008 160.977 450.727 160.977C451.237 160.977 451.669 160.872 452.023 160.664C452.378 160.456 452.688 160.18 452.953 159.836L453.836 160.523C453.128 161.612 452.065 162.156 450.648 162.156ZM450.469 154.578C449.885 154.578 449.396 154.792 449 155.219C448.604 155.641 448.359 156.234 448.266 157H452.5V156.891C452.458 156.156 452.26 155.589 451.906 155.188C451.552 154.781 451.073 154.578 450.469 154.578ZM457.586 151.5V153.547H459.164V154.664H457.586V159.906C457.586 160.245 457.656 160.5 457.797 160.672C457.938 160.839 458.177 160.922 458.516 160.922C458.682 160.922 458.911 160.891 459.203 160.828V162C458.823 162.104 458.453 162.156 458.094 162.156C457.448 162.156 456.961 161.961 456.633 161.57C456.305 161.18 456.141 160.625 456.141 159.906V154.664H454.602V153.547H456.141V151.5H457.586ZM462.82 151.5V153.547H464.398V154.664H462.82V159.906C462.82 160.245 462.891 160.5 463.031 160.672C463.172 160.839 463.411 160.922 463.75 160.922C463.917 160.922 464.146 160.891 464.438 160.828V162C464.057 162.104 463.688 162.156 463.328 162.156C462.682 162.156 462.195 161.961 461.867 161.57C461.539 161.18 461.375 160.625 461.375 159.906V154.664H459.836V153.547H461.375V151.5H462.82ZM469.602 162.156C468.456 162.156 467.523 161.781 466.805 161.031C466.086 160.276 465.727 159.268 465.727 158.008V157.742C465.727 156.904 465.885 156.156 466.203 155.5C466.526 154.839 466.974 154.323 467.547 153.953C468.125 153.578 468.75 153.391 469.422 153.391C470.521 153.391 471.375 153.753 471.984 154.477C472.594 155.201 472.898 156.237 472.898 157.586V158.188H467.172C467.193 159.021 467.435 159.695 467.898 160.211C468.367 160.721 468.961 160.977 469.68 160.977C470.19 160.977 470.622 160.872 470.977 160.664C471.331 160.456 471.641 160.18 471.906 159.836L472.789 160.523C472.081 161.612 471.018 162.156 469.602 162.156ZM469.422 154.578C468.839 154.578 468.349 154.792 467.953 155.219C467.557 155.641 467.312 156.234 467.219 157H471.453V156.891C471.411 156.156 471.214 155.589 470.859 155.188C470.505 154.781 470.026 154.578 469.422 154.578ZM478.664 154.844C478.445 154.807 478.208 154.789 477.953 154.789C477.005 154.789 476.362 155.193 476.023 156V162H474.578V153.547H475.984L476.008 154.523C476.482 153.768 477.154 153.391 478.023 153.391C478.305 153.391 478.518 153.427 478.664 153.5V154.844ZM488.891 159.758C488.891 159.367 488.742 159.065 488.445 158.852C488.154 158.633 487.641 158.445 486.906 158.289C486.177 158.133 485.596 157.945 485.164 157.727C484.737 157.508 484.419 157.247 484.211 156.945C484.008 156.643 483.906 156.284 483.906 155.867C483.906 155.174 484.198 154.589 484.781 154.109C485.37 153.63 486.12 153.391 487.031 153.391C487.99 153.391 488.766 153.638 489.359 154.133C489.958 154.628 490.258 155.26 490.258 156.031H488.805C488.805 155.635 488.635 155.294 488.297 155.008C487.964 154.721 487.542 154.578 487.031 154.578C486.505 154.578 486.094 154.693 485.797 154.922C485.5 155.151 485.352 155.451 485.352 155.82C485.352 156.169 485.49 156.432 485.766 156.609C486.042 156.786 486.539 156.956 487.258 157.117C487.982 157.279 488.568 157.471 489.016 157.695C489.464 157.919 489.794 158.19 490.008 158.508C490.227 158.82 490.336 159.203 490.336 159.656C490.336 160.411 490.034 161.018 489.43 161.477C488.826 161.93 488.042 162.156 487.078 162.156C486.401 162.156 485.802 162.036 485.281 161.797C484.76 161.557 484.352 161.224 484.055 160.797C483.763 160.365 483.617 159.898 483.617 159.398H485.062C485.089 159.883 485.281 160.268 485.641 160.555C486.005 160.836 486.484 160.977 487.078 160.977C487.625 160.977 488.062 160.867 488.391 160.648C488.724 160.424 488.891 160.128 488.891 159.758ZM497.438 161.164C496.875 161.826 496.049 162.156 494.961 162.156C494.06 162.156 493.372 161.896 492.898 161.375C492.43 160.849 492.193 160.073 492.188 159.047V153.547H493.633V159.008C493.633 160.289 494.154 160.93 495.195 160.93C496.299 160.93 497.034 160.518 497.398 159.695V153.547H498.844V162H497.469L497.438 161.164ZM508.188 157.867C508.188 159.154 507.893 160.19 507.305 160.977C506.716 161.763 505.919 162.156 504.914 162.156C503.888 162.156 503.081 161.831 502.492 161.18V165.25H501.047V153.547H502.367L502.438 154.484C503.026 153.755 503.844 153.391 504.891 153.391C505.906 153.391 506.708 153.773 507.297 154.539C507.891 155.305 508.188 156.37 508.188 157.734V157.867ZM506.742 157.703C506.742 156.75 506.539 155.997 506.133 155.445C505.727 154.893 505.169 154.617 504.461 154.617C503.586 154.617 502.93 155.005 502.492 155.781V159.82C502.924 160.591 503.586 160.977 504.477 160.977C505.169 160.977 505.719 160.703 506.125 160.156C506.536 159.604 506.742 158.786 506.742 157.703ZM517.172 157.867C517.172 159.154 516.878 160.19 516.289 160.977C515.701 161.763 514.904 162.156 513.898 162.156C512.872 162.156 512.065 161.831 511.477 161.18V165.25H510.031V153.547H511.352L511.422 154.484C512.01 153.755 512.828 153.391 513.875 153.391C514.891 153.391 515.693 153.773 516.281 154.539C516.875 155.305 517.172 156.37 517.172 157.734V157.867ZM515.727 157.703C515.727 156.75 515.523 155.997 515.117 155.445C514.711 154.893 514.154 154.617 513.445 154.617C512.57 154.617 511.914 155.005 511.477 155.781V159.82C511.909 160.591 512.57 160.977 513.461 160.977C514.154 160.977 514.703 160.703 515.109 160.156C515.521 159.604 515.727 158.786 515.727 157.703ZM518.633 157.695C518.633 156.867 518.794 156.122 519.117 155.461C519.445 154.799 519.898 154.289 520.477 153.93C521.06 153.57 521.724 153.391 522.469 153.391C523.62 153.391 524.549 153.789 525.258 154.586C525.971 155.383 526.328 156.443 526.328 157.766V157.867C526.328 158.69 526.169 159.43 525.852 160.086C525.539 160.737 525.089 161.245 524.5 161.609C523.917 161.974 523.245 162.156 522.484 162.156C521.339 162.156 520.409 161.758 519.695 160.961C518.987 160.164 518.633 159.109 518.633 157.797V157.695ZM520.086 157.867C520.086 158.805 520.302 159.557 520.734 160.125C521.172 160.693 521.755 160.977 522.484 160.977C523.219 160.977 523.802 160.69 524.234 160.117C524.667 159.539 524.883 158.732 524.883 157.695C524.883 156.768 524.661 156.018 524.219 155.445C523.781 154.867 523.198 154.578 522.469 154.578C521.755 154.578 521.18 154.862 520.742 155.43C520.305 155.997 520.086 156.81 520.086 157.867ZM532.227 154.844C532.008 154.807 531.771 154.789 531.516 154.789C530.568 154.789 529.924 155.193 529.586 156V162H528.141V153.547H529.547L529.57 154.523C530.044 153.768 530.716 153.391 531.586 153.391C531.867 153.391 532.081 153.427 532.227 153.5V154.844ZM535.914 151.5V153.547H537.492V154.664H535.914V159.906C535.914 160.245 535.984 160.5 536.125 160.672C536.266 160.839 536.505 160.922 536.844 160.922C537.01 160.922 537.24 160.891 537.531 160.828V162C537.151 162.104 536.781 162.156 536.422 162.156C535.776 162.156 535.289 161.961 534.961 161.57C534.633 161.18 534.469 160.625 534.469 159.906V154.664H532.93V153.547H534.469V151.5H535.914ZM545.922 159.883L547.891 153.547H549.438L546.039 163.305C545.513 164.711 544.677 165.414 543.531 165.414L543.258 165.391L542.719 165.289V164.117L543.109 164.148C543.599 164.148 543.979 164.049 544.25 163.852C544.526 163.654 544.753 163.292 544.93 162.766L545.25 161.906L542.234 153.547H543.812L545.922 159.883ZM550.227 157.695C550.227 156.867 550.388 156.122 550.711 155.461C551.039 154.799 551.492 154.289 552.07 153.93C552.654 153.57 553.318 153.391 554.062 153.391C555.214 153.391 556.143 153.789 556.852 154.586C557.565 155.383 557.922 156.443 557.922 157.766V157.867C557.922 158.69 557.763 159.43 557.445 160.086C557.133 160.737 556.682 161.245 556.094 161.609C555.51 161.974 554.839 162.156 554.078 162.156C552.932 162.156 552.003 161.758 551.289 160.961C550.581 160.164 550.227 159.109 550.227 157.797V157.695ZM551.68 157.867C551.68 158.805 551.896 159.557 552.328 160.125C552.766 160.693 553.349 160.977 554.078 160.977C554.812 160.977 555.396 160.69 555.828 160.117C556.26 159.539 556.477 158.732 556.477 157.695C556.477 156.768 556.255 156.018 555.812 155.445C555.375 154.867 554.792 154.578 554.062 154.578C553.349 154.578 552.773 154.862 552.336 155.43C551.898 155.997 551.68 156.81 551.68 157.867ZM564.953 161.164C564.391 161.826 563.565 162.156 562.477 162.156C561.576 162.156 560.888 161.896 560.414 161.375C559.945 160.849 559.708 160.073 559.703 159.047V153.547H561.148V159.008C561.148 160.289 561.669 160.93 562.711 160.93C563.815 160.93 564.549 160.518 564.914 159.695V153.547H566.359V162H564.984L564.953 161.164ZM570.18 158.789H568.875L568.773 150.625H570.289L570.18 158.789ZM568.719 161.273C568.719 161.039 568.789 160.844 568.93 160.688C569.076 160.526 569.289 160.445 569.57 160.445C569.852 160.445 570.065 160.526 570.211 160.688C570.357 160.844 570.43 161.039 570.43 161.273C570.43 161.508 570.357 161.703 570.211 161.859C570.065 162.01 569.852 162.086 569.57 162.086C569.289 162.086 569.076 162.01 568.93 161.859C568.789 161.703 568.719 161.508 568.719 161.273Z" fill="white"/>
<path d="M724.23 69.3203V76H721.98V58.9375H728.273C730.141 58.9375 731.602 59.4141 732.656 60.3672C733.719 61.3203 734.25 62.582 734.25 64.1523C734.25 65.8086 733.73 67.0859 732.691 67.9844C731.66 68.875 730.18 69.3203 728.25 69.3203H724.23ZM724.23 67.4805H728.273C729.477 67.4805 730.398 67.1992 731.039 66.6367C731.68 66.0664 732 65.2461 732 64.1758C732 63.1602 731.68 62.3477 731.039 61.7383C730.398 61.1289 729.52 60.8125 728.402 60.7891H724.23V67.4805ZM744.469 76C744.344 75.75 744.242 75.3047 744.164 74.6641C743.156 75.7109 741.953 76.2344 740.555 76.2344C739.305 76.2344 738.277 75.8828 737.473 75.1797C736.676 74.4688 736.277 73.5703 736.277 72.4844C736.277 71.1641 736.777 70.1406 737.777 69.4141C738.785 68.6797 740.199 68.3125 742.02 68.3125H744.129V67.3164C744.129 66.5586 743.902 65.957 743.449 65.5117C742.996 65.0586 742.328 64.832 741.445 64.832C740.672 64.832 740.023 65.0273 739.5 65.418C738.977 65.8086 738.715 66.2812 738.715 66.8359H736.535C736.535 66.2031 736.758 65.5938 737.203 65.0078C737.656 64.4141 738.266 63.9453 739.031 63.6016C739.805 63.2578 740.652 63.0859 741.574 63.0859C743.035 63.0859 744.18 63.4531 745.008 64.1875C745.836 64.9141 746.266 65.918 746.297 67.1992V73.0352C746.297 74.1992 746.445 75.125 746.742 75.8125V76H744.469ZM740.871 74.3477C741.551 74.3477 742.195 74.1719 742.805 73.8203C743.414 73.4688 743.855 73.0117 744.129 72.4492V69.8477H742.43C739.773 69.8477 738.445 70.625 738.445 72.1797C738.445 72.8594 738.672 73.3906 739.125 73.7734C739.578 74.1562 740.16 74.3477 740.871 74.3477ZM752.637 60.25V63.3203H755.004V64.9961H752.637V72.8594C752.637 73.3672 752.742 73.75 752.953 74.0078C753.164 74.2578 753.523 74.3828 754.031 74.3828C754.281 74.3828 754.625 74.3359 755.062 74.2422V76C754.492 76.1562 753.938 76.2344 753.398 76.2344C752.43 76.2344 751.699 75.9414 751.207 75.3555C750.715 74.7695 750.469 73.9375 750.469 72.8594V64.9961H748.16V63.3203H750.469V60.25H752.637ZM759.902 76H757.734V63.3203H759.902V76ZM757.559 59.957C757.559 59.6055 757.664 59.3086 757.875 59.0664C758.094 58.8242 758.414 58.7031 758.836 58.7031C759.258 58.7031 759.578 58.8242 759.797 59.0664C760.016 59.3086 760.125 59.6055 760.125 59.957C760.125 60.3086 760.016 60.6016 759.797 60.8359C759.578 61.0703 759.258 61.1875 758.836 61.1875C758.414 61.1875 758.094 61.0703 757.875 60.8359C757.664 60.6016 757.559 60.3086 757.559 59.957ZM768.645 76.2344C766.926 76.2344 765.527 75.6719 764.449 74.5469C763.371 73.4141 762.832 71.9023 762.832 70.0117V69.6133C762.832 68.3555 763.07 67.2344 763.547 66.25C764.031 65.2578 764.703 64.4844 765.562 63.9297C766.43 63.3672 767.367 63.0859 768.375 63.0859C770.023 63.0859 771.305 63.6289 772.219 64.7148C773.133 65.8008 773.59 67.3555 773.59 69.3789V70.2812H765C765.031 71.5312 765.395 72.543 766.09 73.3164C766.793 74.082 767.684 74.4648 768.762 74.4648C769.527 74.4648 770.176 74.3086 770.707 73.9961C771.238 73.6836 771.703 73.2695 772.102 72.7539L773.426 73.7852C772.363 75.418 770.77 76.2344 768.645 76.2344ZM768.375 64.8672C767.5 64.8672 766.766 65.1875 766.172 65.8281C765.578 66.4609 765.211 67.3516 765.07 68.5H771.422V68.3359C771.359 67.2344 771.062 66.3828 770.531 65.7812C770 65.1719 769.281 64.8672 768.375 64.8672ZM778.16 63.3203L778.23 64.9141C779.199 63.6953 780.465 63.0859 782.027 63.0859C784.707 63.0859 786.059 64.5977 786.082 67.6211V76H783.914V67.6094C783.906 66.6953 783.695 66.0195 783.281 65.582C782.875 65.1445 782.238 64.9258 781.371 64.9258C780.668 64.9258 780.051 65.1133 779.52 65.4883C778.988 65.8633 778.574 66.3555 778.277 66.9648V76H776.109V63.3203H778.16ZM792.293 60.25V63.3203H794.66V64.9961H792.293V72.8594C792.293 73.3672 792.398 73.75 792.609 74.0078C792.82 74.2578 793.18 74.3828 793.688 74.3828C793.938 74.3828 794.281 74.3359 794.719 74.2422V76C794.148 76.1562 793.594 76.2344 793.055 76.2344C792.086 76.2344 791.355 75.9414 790.863 75.3555C790.371 74.7695 790.125 73.9375 790.125 72.8594V64.9961H787.816V63.3203H790.125V60.25H792.293ZM812.906 68.4648H805.746V76H803.496V58.9375H814.066V60.7891H805.746V66.625H812.906V68.4648ZM821.426 76.2344C819.707 76.2344 818.309 75.6719 817.23 74.5469C816.152 73.4141 815.613 71.9023 815.613 70.0117V69.6133C815.613 68.3555 815.852 67.2344 816.328 66.25C816.812 65.2578 817.484 64.4844 818.344 63.9297C819.211 63.3672 820.148 63.0859 821.156 63.0859C822.805 63.0859 824.086 63.6289 825 64.7148C825.914 65.8008 826.371 67.3555 826.371 69.3789V70.2812H817.781C817.812 71.5312 818.176 72.543 818.871 73.3164C819.574 74.082 820.465 74.4648 821.543 74.4648C822.309 74.4648 822.957 74.3086 823.488 73.9961C824.02 73.6836 824.484 73.2695 824.883 72.7539L826.207 73.7852C825.145 75.418 823.551 76.2344 821.426 76.2344ZM821.156 64.8672C820.281 64.8672 819.547 65.1875 818.953 65.8281C818.359 66.4609 817.992 67.3516 817.852 68.5H824.203V68.3359C824.141 67.2344 823.844 66.3828 823.312 65.7812C822.781 65.1719 822.062 64.8672 821.156 64.8672ZM834.152 76.2344C832.434 76.2344 831.035 75.6719 829.957 74.5469C828.879 73.4141 828.34 71.9023 828.34 70.0117V69.6133C828.34 68.3555 828.578 67.2344 829.055 66.25C829.539 65.2578 830.211 64.4844 831.07 63.9297C831.938 63.3672 832.875 63.0859 833.883 63.0859C835.531 63.0859 836.812 63.6289 837.727 64.7148C838.641 65.8008 839.098 67.3555 839.098 69.3789V70.2812H830.508C830.539 71.5312 830.902 72.543 831.598 73.3164C832.301 74.082 833.191 74.4648 834.27 74.4648C835.035 74.4648 835.684 74.3086 836.215 73.9961C836.746 73.6836 837.211 73.2695 837.609 72.7539L838.934 73.7852C837.871 75.418 836.277 76.2344 834.152 76.2344ZM833.883 64.8672C833.008 64.8672 832.273 65.1875 831.68 65.8281C831.086 66.4609 830.719 67.3516 830.578 68.5H836.93V68.3359C836.867 67.2344 836.57 66.3828 836.039 65.7812C835.508 65.1719 834.789 64.8672 833.883 64.8672ZM841.09 69.5547C841.09 67.6094 841.551 66.0469 842.473 64.8672C843.395 63.6797 844.602 63.0859 846.094 63.0859C847.578 63.0859 848.754 63.5938 849.621 64.6094V58H851.789V76H849.797L849.691 74.6406C848.824 75.7031 847.617 76.2344 846.07 76.2344C844.602 76.2344 843.402 75.6328 842.473 74.4297C841.551 73.2266 841.09 71.6562 841.09 69.7188V69.5547ZM843.258 69.8008C843.258 71.2383 843.555 72.3633 844.148 73.1758C844.742 73.9883 845.562 74.3945 846.609 74.3945C847.984 74.3945 848.988 73.7773 849.621 72.543V66.7188C848.973 65.5234 847.977 64.9258 846.633 64.9258C845.57 64.9258 844.742 65.3359 844.148 66.1562C843.555 66.9766 843.258 68.1914 843.258 69.8008ZM865.898 69.8008C865.898 71.7383 865.453 73.2969 864.562 74.4766C863.672 75.6484 862.477 76.2344 860.977 76.2344C859.375 76.2344 858.137 75.668 857.262 74.5352L857.156 76H855.164V58H857.332V64.7148C858.207 63.6289 859.414 63.0859 860.953 63.0859C862.492 63.0859 863.699 63.668 864.574 64.832C865.457 65.9961 865.898 67.5898 865.898 69.6133V69.8008ZM863.73 69.5547C863.73 68.0781 863.445 66.9375 862.875 66.1328C862.305 65.3281 861.484 64.9258 860.414 64.9258C858.984 64.9258 857.957 65.5898 857.332 66.918V72.4023C857.996 73.7305 859.031 74.3945 860.438 74.3945C861.477 74.3945 862.285 73.9922 862.863 73.1875C863.441 72.3828 863.73 71.1719 863.73 69.5547ZM876.469 76C876.344 75.75 876.242 75.3047 876.164 74.6641C875.156 75.7109 873.953 76.2344 872.555 76.2344C871.305 76.2344 870.277 75.8828 869.473 75.1797C868.676 74.4688 868.277 73.5703 868.277 72.4844C868.277 71.1641 868.777 70.1406 869.777 69.4141C870.785 68.6797 872.199 68.3125 874.02 68.3125H876.129V67.3164C876.129 66.5586 875.902 65.957 875.449 65.5117C874.996 65.0586 874.328 64.832 873.445 64.832C872.672 64.832 872.023 65.0273 871.5 65.418C870.977 65.8086 870.715 66.2812 870.715 66.8359H868.535C868.535 66.2031 868.758 65.5938 869.203 65.0078C869.656 64.4141 870.266 63.9453 871.031 63.6016C871.805 63.2578 872.652 63.0859 873.574 63.0859C875.035 63.0859 876.18 63.4531 877.008 64.1875C877.836 64.9141 878.266 65.918 878.297 67.1992V73.0352C878.297 74.1992 878.445 75.125 878.742 75.8125V76H876.469ZM872.871 74.3477C873.551 74.3477 874.195 74.1719 874.805 73.8203C875.414 73.4688 875.855 73.0117 876.129 72.4492V69.8477H874.43C871.773 69.8477 870.445 70.625 870.445 72.1797C870.445 72.8594 870.672 73.3906 871.125 73.7734C871.578 74.1562 872.16 74.3477 872.871 74.3477ZM886.781 74.4648C887.555 74.4648 888.23 74.2305 888.809 73.7617C889.387 73.293 889.707 72.707 889.77 72.0039H891.82C891.781 72.7305 891.531 73.4219 891.07 74.0781C890.609 74.7344 889.992 75.2578 889.219 75.6484C888.453 76.0391 887.641 76.2344 886.781 76.2344C885.055 76.2344 883.68 75.6602 882.656 74.5117C881.641 73.3555 881.133 71.7773 881.133 69.7773V69.4141C881.133 68.1797 881.359 67.082 881.812 66.1211C882.266 65.1602 882.914 64.4141 883.758 63.8828C884.609 63.3516 885.613 63.0859 886.77 63.0859C888.191 63.0859 889.371 63.5117 890.309 64.3633C891.254 65.2148 891.758 66.3203 891.82 67.6797H889.77C889.707 66.8594 889.395 66.1875 888.832 65.6641C888.277 65.1328 887.59 64.8672 886.77 64.8672C885.668 64.8672 884.812 65.2656 884.203 66.0625C883.602 66.8516 883.301 67.9961 883.301 69.4961V69.9062C883.301 71.3672 883.602 72.4922 884.203 73.2812C884.805 74.0703 885.664 74.4648 886.781 74.4648ZM897.797 70.1289L896.438 71.5469V76H894.27V58H896.438V68.8867L897.598 67.4922L901.547 63.3203H904.184L899.25 68.6172L904.758 76H902.215L897.797 70.1289Z" fill="white"/>
<path d="M728.238 136.098H724.23V143H721.969V125.938H727.617C729.539 125.938 731.016 126.375 732.047 127.25C733.086 128.125 733.605 129.398 733.605 131.07C733.605 132.133 733.316 133.059 732.738 133.848C732.168 134.637 731.371 135.227 730.348 135.617L734.355 142.859V143H731.941L728.238 136.098ZM724.23 134.258H727.688C728.805 134.258 729.691 133.969 730.348 133.391C731.012 132.812 731.344 132.039 731.344 131.07C731.344 130.016 731.027 129.207 730.395 128.645C729.77 128.082 728.863 127.797 727.676 127.789H724.23V134.258ZM741.691 143.234C739.973 143.234 738.574 142.672 737.496 141.547C736.418 140.414 735.879 138.902 735.879 137.012V136.613C735.879 135.355 736.117 134.234 736.594 133.25C737.078 132.258 737.75 131.484 738.609 130.93C739.477 130.367 740.414 130.086 741.422 130.086C743.07 130.086 744.352 130.629 745.266 131.715C746.18 132.801 746.637 134.355 746.637 136.379V137.281H738.047C738.078 138.531 738.441 139.543 739.137 140.316C739.84 141.082 740.73 141.465 741.809 141.465C742.574 141.465 743.223 141.309 743.754 140.996C744.285 140.684 744.75 140.27 745.148 139.754L746.473 140.785C745.41 142.418 743.816 143.234 741.691 143.234ZM741.422 131.867C740.547 131.867 739.812 132.188 739.219 132.828C738.625 133.461 738.258 134.352 738.117 135.5H744.469V135.336C744.406 134.234 744.109 133.383 743.578 132.781C743.047 132.172 742.328 131.867 741.422 131.867ZM759.867 136.801C759.867 138.73 759.426 140.285 758.543 141.465C757.66 142.645 756.465 143.234 754.957 143.234C753.418 143.234 752.207 142.746 751.324 141.77V147.875H749.156V130.32H751.137L751.242 131.727C752.125 130.633 753.352 130.086 754.922 130.086C756.445 130.086 757.648 130.66 758.531 131.809C759.422 132.957 759.867 134.555 759.867 136.602V136.801ZM757.699 136.555C757.699 135.125 757.395 133.996 756.785 133.168C756.176 132.34 755.34 131.926 754.277 131.926C752.965 131.926 751.98 132.508 751.324 133.672V139.73C751.973 140.887 752.965 141.465 754.301 141.465C755.34 141.465 756.164 141.055 756.773 140.234C757.391 139.406 757.699 138.18 757.699 136.555ZM762.059 136.543C762.059 135.301 762.301 134.184 762.785 133.191C763.277 132.199 763.957 131.434 764.824 130.895C765.699 130.355 766.695 130.086 767.812 130.086C769.539 130.086 770.934 130.684 771.996 131.879C773.066 133.074 773.602 134.664 773.602 136.648V136.801C773.602 138.035 773.363 139.145 772.887 140.129C772.418 141.105 771.742 141.867 770.859 142.414C769.984 142.961 768.977 143.234 767.836 143.234C766.117 143.234 764.723 142.637 763.652 141.441C762.59 140.246 762.059 138.664 762.059 136.695V136.543ZM764.238 136.801C764.238 138.207 764.562 139.336 765.211 140.188C765.867 141.039 766.742 141.465 767.836 141.465C768.938 141.465 769.812 141.035 770.461 140.176C771.109 139.309 771.434 138.098 771.434 136.543C771.434 135.152 771.102 134.027 770.438 133.168C769.781 132.301 768.906 131.867 767.812 131.867C766.742 131.867 765.879 132.293 765.223 133.145C764.566 133.996 764.238 135.215 764.238 136.801ZM782.449 132.266C782.121 132.211 781.766 132.184 781.383 132.184C779.961 132.184 778.996 132.789 778.488 134V143H776.32V130.32H778.43L778.465 131.785C779.176 130.652 780.184 130.086 781.488 130.086C781.91 130.086 782.23 130.141 782.449 130.25V132.266ZM787.98 127.25V130.32H790.348V131.996H787.98V139.859C787.98 140.367 788.086 140.75 788.297 141.008C788.508 141.258 788.867 141.383 789.375 141.383C789.625 141.383 789.969 141.336 790.406 141.242V143C789.836 143.156 789.281 143.234 788.742 143.234C787.773 143.234 787.043 142.941 786.551 142.355C786.059 141.77 785.812 140.938 785.812 139.859V131.996H783.504V130.32H785.812V127.25H787.98ZM804.211 135.395C802.281 134.84 800.875 134.16 799.992 133.355C799.117 132.543 798.68 131.543 798.68 130.355C798.68 129.012 799.215 127.902 800.285 127.027C801.363 126.145 802.762 125.703 804.48 125.703C805.652 125.703 806.695 125.93 807.609 126.383C808.531 126.836 809.242 127.461 809.742 128.258C810.25 129.055 810.504 129.926 810.504 130.871H808.242C808.242 129.84 807.914 129.031 807.258 128.445C806.602 127.852 805.676 127.555 804.48 127.555C803.371 127.555 802.504 127.801 801.879 128.293C801.262 128.777 800.953 129.453 800.953 130.32C800.953 131.016 801.246 131.605 801.832 132.09C802.426 132.566 803.43 133.004 804.844 133.402C806.266 133.801 807.375 134.242 808.172 134.727C808.977 135.203 809.57 135.762 809.953 136.402C810.344 137.043 810.539 137.797 810.539 138.664C810.539 140.047 810 141.156 808.922 141.992C807.844 142.82 806.402 143.234 804.598 143.234C803.426 143.234 802.332 143.012 801.316 142.566C800.301 142.113 799.516 141.496 798.961 140.715C798.414 139.934 798.141 139.047 798.141 138.055H800.402C800.402 139.086 800.781 139.902 801.539 140.504C802.305 141.098 803.324 141.395 804.598 141.395C805.785 141.395 806.695 141.152 807.328 140.668C807.961 140.184 808.277 139.523 808.277 138.688C808.277 137.852 807.984 137.207 807.398 136.754C806.812 136.293 805.75 135.84 804.211 135.395ZM818.355 143.234C816.637 143.234 815.238 142.672 814.16 141.547C813.082 140.414 812.543 138.902 812.543 137.012V136.613C812.543 135.355 812.781 134.234 813.258 133.25C813.742 132.258 814.414 131.484 815.273 130.93C816.141 130.367 817.078 130.086 818.086 130.086C819.734 130.086 821.016 130.629 821.93 131.715C822.844 132.801 823.301 134.355 823.301 136.379V137.281H814.711C814.742 138.531 815.105 139.543 815.801 140.316C816.504 141.082 817.395 141.465 818.473 141.465C819.238 141.465 819.887 141.309 820.418 140.996C820.949 140.684 821.414 140.27 821.812 139.754L823.137 140.785C822.074 142.418 820.48 143.234 818.355 143.234ZM818.086 131.867C817.211 131.867 816.477 132.188 815.883 132.828C815.289 133.461 814.922 134.352 814.781 135.5H821.133V135.336C821.07 134.234 820.773 133.383 820.242 132.781C819.711 132.172 818.992 131.867 818.086 131.867ZM830.074 134.949L832.887 130.32H835.418L831.27 136.59L835.547 143H833.039L830.109 138.254L827.18 143H824.66L828.938 136.59L824.789 130.32H827.297L830.074 134.949ZM845.555 141.746C844.711 142.738 843.473 143.234 841.84 143.234C840.488 143.234 839.457 142.844 838.746 142.062C838.043 141.273 837.688 140.109 837.68 138.57V130.32H839.848V138.512C839.848 140.434 840.629 141.395 842.191 141.395C843.848 141.395 844.949 140.777 845.496 139.543V130.32H847.664V143H845.602L845.555 141.746ZM858.797 143C858.672 142.75 858.57 142.305 858.492 141.664C857.484 142.711 856.281 143.234 854.883 143.234C853.633 143.234 852.605 142.883 851.801 142.18C851.004 141.469 850.605 140.57 850.605 139.484C850.605 138.164 851.105 137.141 852.105 136.414C853.113 135.68 854.527 135.312 856.348 135.312H858.457V134.316C858.457 133.559 858.23 132.957 857.777 132.512C857.324 132.059 856.656 131.832 855.773 131.832C855 131.832 854.352 132.027 853.828 132.418C853.305 132.809 853.043 133.281 853.043 133.836H850.863C850.863 133.203 851.086 132.594 851.531 132.008C851.984 131.414 852.594 130.945 853.359 130.602C854.133 130.258 854.98 130.086 855.902 130.086C857.363 130.086 858.508 130.453 859.336 131.188C860.164 131.914 860.594 132.918 860.625 134.199V140.035C860.625 141.199 860.773 142.125 861.07 142.812V143H858.797ZM855.199 141.348C855.879 141.348 856.523 141.172 857.133 140.82C857.742 140.469 858.184 140.012 858.457 139.449V136.848H856.758C854.102 136.848 852.773 137.625 852.773 139.18C852.773 139.859 853 140.391 853.453 140.773C853.906 141.156 854.488 141.348 855.199 141.348ZM866.379 143H864.211V125H866.379V143ZM879.059 125.938L884.637 139.859L890.215 125.938H893.133V143H890.883V136.355L891.094 129.184L885.492 143H883.77L878.18 129.219L878.402 136.355V143H876.152V125.938H879.059ZM899.121 143H896.953V130.32H899.121V143ZM896.777 126.957C896.777 126.605 896.883 126.309 897.094 126.066C897.312 125.824 897.633 125.703 898.055 125.703C898.477 125.703 898.797 125.824 899.016 126.066C899.234 126.309 899.344 126.605 899.344 126.957C899.344 127.309 899.234 127.602 899.016 127.836C898.797 128.07 898.477 128.188 898.055 128.188C897.633 128.188 897.312 128.07 897.094 127.836C896.883 127.602 896.777 127.309 896.777 126.957ZM909.984 139.637C909.984 139.051 909.762 138.598 909.316 138.277C908.879 137.949 908.109 137.668 907.008 137.434C905.914 137.199 905.043 136.918 904.395 136.59C903.754 136.262 903.277 135.871 902.965 135.418C902.66 134.965 902.508 134.426 902.508 133.801C902.508 132.762 902.945 131.883 903.82 131.164C904.703 130.445 905.828 130.086 907.195 130.086C908.633 130.086 909.797 130.457 910.688 131.199C911.586 131.941 912.035 132.891 912.035 134.047H909.855C909.855 133.453 909.602 132.941 909.094 132.512C908.594 132.082 907.961 131.867 907.195 131.867C906.406 131.867 905.789 132.039 905.344 132.383C904.898 132.727 904.676 133.176 904.676 133.73C904.676 134.254 904.883 134.648 905.297 134.914C905.711 135.18 906.457 135.434 907.535 135.676C908.621 135.918 909.5 136.207 910.172 136.543C910.844 136.879 911.34 137.285 911.66 137.762C911.988 138.23 912.152 138.805 912.152 139.484C912.152 140.617 911.699 141.527 910.793 142.215C909.887 142.895 908.711 143.234 907.266 143.234C906.25 143.234 905.352 143.055 904.57 142.695C903.789 142.336 903.176 141.836 902.73 141.195C902.293 140.547 902.074 139.848 902.074 139.098H904.242C904.281 139.824 904.57 140.402 905.109 140.832C905.656 141.254 906.375 141.465 907.266 141.465C908.086 141.465 908.742 141.301 909.234 140.973C909.734 140.637 909.984 140.191 909.984 139.637ZM920.062 141.465C920.836 141.465 921.512 141.23 922.09 140.762C922.668 140.293 922.988 139.707 923.051 139.004H925.102C925.062 139.73 924.812 140.422 924.352 141.078C923.891 141.734 923.273 142.258 922.5 142.648C921.734 143.039 920.922 143.234 920.062 143.234C918.336 143.234 916.961 142.66 915.938 141.512C914.922 140.355 914.414 138.777 914.414 136.777V136.414C914.414 135.18 914.641 134.082 915.094 133.121C915.547 132.16 916.195 131.414 917.039 130.883C917.891 130.352 918.895 130.086 920.051 130.086C921.473 130.086 922.652 130.512 923.59 131.363C924.535 132.215 925.039 133.32 925.102 134.68H923.051C922.988 133.859 922.676 133.188 922.113 132.664C921.559 132.133 920.871 131.867 920.051 131.867C918.949 131.867 918.094 132.266 917.484 133.062C916.883 133.852 916.582 134.996 916.582 136.496V136.906C916.582 138.367 916.883 139.492 917.484 140.281C918.086 141.07 918.945 141.465 920.062 141.465ZM926.965 136.543C926.965 135.301 927.207 134.184 927.691 133.191C928.184 132.199 928.863 131.434 929.73 130.895C930.605 130.355 931.602 130.086 932.719 130.086C934.445 130.086 935.84 130.684 936.902 131.879C937.973 133.074 938.508 134.664 938.508 136.648V136.801C938.508 138.035 938.27 139.145 937.793 140.129C937.324 141.105 936.648 141.867 935.766 142.414C934.891 142.961 933.883 143.234 932.742 143.234C931.023 143.234 929.629 142.637 928.559 141.441C927.496 140.246 926.965 138.664 926.965 136.695V136.543ZM929.145 136.801C929.145 138.207 929.469 139.336 930.117 140.188C930.773 141.039 931.648 141.465 932.742 141.465C933.844 141.465 934.719 141.035 935.367 140.176C936.016 139.309 936.34 138.098 936.34 136.543C936.34 135.152 936.008 134.027 935.344 133.168C934.688 132.301 933.812 131.867 932.719 131.867C931.648 131.867 930.785 132.293 930.129 133.145C929.473 133.996 929.145 135.215 929.145 136.801ZM943.277 130.32L943.348 131.914C944.316 130.695 945.582 130.086 947.145 130.086C949.824 130.086 951.176 131.598 951.199 134.621V143H949.031V134.609C949.023 133.695 948.812 133.02 948.398 132.582C947.992 132.145 947.355 131.926 946.488 131.926C945.785 131.926 945.168 132.113 944.637 132.488C944.105 132.863 943.691 133.355 943.395 133.965V143H941.227V130.32H943.277ZM953.941 136.555C953.941 134.609 954.402 133.047 955.324 131.867C956.246 130.68 957.453 130.086 958.945 130.086C960.43 130.086 961.605 130.594 962.473 131.609V125H964.641V143H962.648L962.543 141.641C961.676 142.703 960.469 143.234 958.922 143.234C957.453 143.234 956.254 142.633 955.324 141.43C954.402 140.227 953.941 138.656 953.941 136.719V136.555ZM956.109 136.801C956.109 138.238 956.406 139.363 957 140.176C957.594 140.988 958.414 141.395 959.461 141.395C960.836 141.395 961.84 140.777 962.473 139.543V133.719C961.824 132.523 960.828 131.926 959.484 131.926C958.422 131.926 957.594 132.336 957 133.156C956.406 133.977 956.109 135.191 956.109 136.801ZM975.844 141.746C975 142.738 973.762 143.234 972.129 143.234C970.777 143.234 969.746 142.844 969.035 142.062C968.332 141.273 967.977 140.109 967.969 138.57V130.32H970.137V138.512C970.137 140.434 970.918 141.395 972.48 141.395C974.137 141.395 975.238 140.777 975.785 139.543V130.32H977.953V143H975.891L975.844 141.746ZM986.344 141.465C987.117 141.465 987.793 141.23 988.371 140.762C988.949 140.293 989.27 139.707 989.332 139.004H991.383C991.344 139.73 991.094 140.422 990.633 141.078C990.172 141.734 989.555 142.258 988.781 142.648C988.016 143.039 987.203 143.234 986.344 143.234C984.617 143.234 983.242 142.66 982.219 141.512C981.203 140.355 980.695 138.777 980.695 136.777V136.414C980.695 135.18 980.922 134.082 981.375 133.121C981.828 132.16 982.477 131.414 983.32 130.883C984.172 130.352 985.176 130.086 986.332 130.086C987.754 130.086 988.934 130.512 989.871 131.363C990.816 132.215 991.32 133.32 991.383 134.68H989.332C989.27 133.859 988.957 133.188 988.395 132.664C987.84 132.133 987.152 131.867 986.332 131.867C985.23 131.867 984.375 132.266 983.766 133.062C983.164 133.852 982.863 134.996 982.863 136.496V136.906C982.863 138.367 983.164 139.492 983.766 140.281C984.367 141.07 985.227 141.465 986.344 141.465ZM996.762 127.25V130.32H999.129V131.996H996.762V139.859C996.762 140.367 996.867 140.75 997.078 141.008C997.289 141.258 997.648 141.383 998.156 141.383C998.406 141.383 998.75 141.336 999.188 141.242V143C998.617 143.156 998.062 143.234 997.523 143.234C996.555 143.234 995.824 142.941 995.332 142.355C994.84 141.77 994.594 140.938 994.594 139.859V131.996H992.285V130.32H994.594V127.25H996.762Z" fill="white"/>
<path d="M724.23 203.32V210H721.98V192.938H728.273C730.141 192.938 731.602 193.414 732.656 194.367C733.719 195.32 734.25 196.582 734.25 198.152C734.25 199.809 733.73 201.086 732.691 201.984C731.66 202.875 730.18 203.32 728.25 203.32H724.23ZM724.23 201.48H728.273C729.477 201.48 730.398 201.199 731.039 200.637C731.68 200.066 732 199.246 732 198.176C732 197.16 731.68 196.348 731.039 195.738C730.398 195.129 729.52 194.812 728.402 194.789H724.23V201.48ZM742.91 199.266C742.582 199.211 742.227 199.184 741.844 199.184C740.422 199.184 739.457 199.789 738.949 201V210H736.781V197.32H738.891L738.926 198.785C739.637 197.652 740.645 197.086 741.949 197.086C742.371 197.086 742.691 197.141 742.91 197.25V199.266ZM744.105 203.543C744.105 202.301 744.348 201.184 744.832 200.191C745.324 199.199 746.004 198.434 746.871 197.895C747.746 197.355 748.742 197.086 749.859 197.086C751.586 197.086 752.98 197.684 754.043 198.879C755.113 200.074 755.648 201.664 755.648 203.648V203.801C755.648 205.035 755.41 206.145 754.934 207.129C754.465 208.105 753.789 208.867 752.906 209.414C752.031 209.961 751.023 210.234 749.883 210.234C748.164 210.234 746.77 209.637 745.699 208.441C744.637 207.246 744.105 205.664 744.105 203.695V203.543ZM746.285 203.801C746.285 205.207 746.609 206.336 747.258 207.188C747.914 208.039 748.789 208.465 749.883 208.465C750.984 208.465 751.859 208.035 752.508 207.176C753.156 206.309 753.48 205.098 753.48 203.543C753.48 202.152 753.148 201.027 752.484 200.168C751.828 199.301 750.953 198.867 749.859 198.867C748.789 198.867 747.926 199.293 747.27 200.145C746.613 200.996 746.285 202.215 746.285 203.801ZM757.852 203.555C757.852 201.578 758.309 200.008 759.223 198.844C760.137 197.672 761.348 197.086 762.855 197.086C764.402 197.086 765.609 197.633 766.477 198.727L766.582 197.32H768.562V209.695C768.562 211.336 768.074 212.629 767.098 213.574C766.129 214.52 764.824 214.992 763.184 214.992C762.27 214.992 761.375 214.797 760.5 214.406C759.625 214.016 758.957 213.48 758.496 212.801L759.621 211.5C760.551 212.648 761.688 213.223 763.031 213.223C764.086 213.223 764.906 212.926 765.492 212.332C766.086 211.738 766.383 210.902 766.383 209.824V208.734C765.516 209.734 764.332 210.234 762.832 210.234C761.348 210.234 760.145 209.637 759.223 208.441C758.309 207.246 757.852 205.617 757.852 203.555ZM760.031 203.801C760.031 205.23 760.324 206.355 760.91 207.176C761.496 207.988 762.316 208.395 763.371 208.395C764.738 208.395 765.742 207.773 766.383 206.531V200.742C765.719 199.531 764.723 198.926 763.395 198.926C762.34 198.926 761.516 199.336 760.922 200.156C760.328 200.977 760.031 202.191 760.031 203.801ZM777.973 199.266C777.645 199.211 777.289 199.184 776.906 199.184C775.484 199.184 774.52 199.789 774.012 201V210H771.844V197.32H773.953L773.988 198.785C774.699 197.652 775.707 197.086 777.012 197.086C777.434 197.086 777.754 197.141 777.973 197.25V199.266ZM787.336 210C787.211 209.75 787.109 209.305 787.031 208.664C786.023 209.711 784.82 210.234 783.422 210.234C782.172 210.234 781.145 209.883 780.34 209.18C779.543 208.469 779.145 207.57 779.145 206.484C779.145 205.164 779.645 204.141 780.645 203.414C781.652 202.68 783.066 202.312 784.887 202.312H786.996V201.316C786.996 200.559 786.77 199.957 786.316 199.512C785.863 199.059 785.195 198.832 784.312 198.832C783.539 198.832 782.891 199.027 782.367 199.418C781.844 199.809 781.582 200.281 781.582 200.836H779.402C779.402 200.203 779.625 199.594 780.07 199.008C780.523 198.414 781.133 197.945 781.898 197.602C782.672 197.258 783.52 197.086 784.441 197.086C785.902 197.086 787.047 197.453 787.875 198.188C788.703 198.914 789.133 199.918 789.164 201.199V207.035C789.164 208.199 789.312 209.125 789.609 209.812V210H787.336ZM783.738 208.348C784.418 208.348 785.062 208.172 785.672 207.82C786.281 207.469 786.723 207.012 786.996 206.449V203.848H785.297C782.641 203.848 781.312 204.625 781.312 206.18C781.312 206.859 781.539 207.391 781.992 207.773C782.445 208.156 783.027 208.348 783.738 208.348ZM794.602 197.32L794.66 198.727C795.59 197.633 796.844 197.086 798.422 197.086C800.195 197.086 801.402 197.766 802.043 199.125C802.465 198.516 803.012 198.023 803.684 197.648C804.363 197.273 805.164 197.086 806.086 197.086C808.867 197.086 810.281 198.559 810.328 201.504V210H808.16V201.633C808.16 200.727 807.953 200.051 807.539 199.605C807.125 199.152 806.43 198.926 805.453 198.926C804.648 198.926 803.98 199.168 803.449 199.652C802.918 200.129 802.609 200.773 802.523 201.586V210H800.344V201.691C800.344 199.848 799.441 198.926 797.637 198.926C796.215 198.926 795.242 199.531 794.719 200.742V210H792.551V197.32H794.602ZM829.547 202.113H822.152V208.16H830.742V210H819.902V192.938H830.625V194.789H822.152V200.273H829.547V202.113ZM837.082 207.059L840.223 197.32H842.438L837.891 210H836.238L831.645 197.32H833.859L837.082 207.059ZM852.164 210C852.039 209.75 851.938 209.305 851.859 208.664C850.852 209.711 849.648 210.234 848.25 210.234C847 210.234 845.973 209.883 845.168 209.18C844.371 208.469 843.973 207.57 843.973 206.484C843.973 205.164 844.473 204.141 845.473 203.414C846.48 202.68 847.895 202.312 849.715 202.312H851.824V201.316C851.824 200.559 851.598 199.957 851.145 199.512C850.691 199.059 850.023 198.832 849.141 198.832C848.367 198.832 847.719 199.027 847.195 199.418C846.672 199.809 846.41 200.281 846.41 200.836H844.23C844.23 200.203 844.453 199.594 844.898 199.008C845.352 198.414 845.961 197.945 846.727 197.602C847.5 197.258 848.348 197.086 849.27 197.086C850.73 197.086 851.875 197.453 852.703 198.188C853.531 198.914 853.961 199.918 853.992 201.199V207.035C853.992 208.199 854.141 209.125 854.438 209.812V210H852.164ZM848.566 208.348C849.246 208.348 849.891 208.172 850.5 207.82C851.109 207.469 851.551 207.012 851.824 206.449V203.848H850.125C847.469 203.848 846.141 204.625 846.141 206.18C846.141 206.859 846.367 207.391 846.82 207.773C847.273 208.156 847.855 208.348 848.566 208.348ZM859.746 210H857.578V192H859.746V210ZM871.055 208.746C870.211 209.738 868.973 210.234 867.34 210.234C865.988 210.234 864.957 209.844 864.246 209.062C863.543 208.273 863.188 207.109 863.18 205.57V197.32H865.348V205.512C865.348 207.434 866.129 208.395 867.691 208.395C869.348 208.395 870.449 207.777 870.996 206.543V197.32H873.164V210H871.102L871.055 208.746ZM884.297 210C884.172 209.75 884.07 209.305 883.992 208.664C882.984 209.711 881.781 210.234 880.383 210.234C879.133 210.234 878.105 209.883 877.301 209.18C876.504 208.469 876.105 207.57 876.105 206.484C876.105 205.164 876.605 204.141 877.605 203.414C878.613 202.68 880.027 202.312 881.848 202.312H883.957V201.316C883.957 200.559 883.73 199.957 883.277 199.512C882.824 199.059 882.156 198.832 881.273 198.832C880.5 198.832 879.852 199.027 879.328 199.418C878.805 199.809 878.543 200.281 878.543 200.836H876.363C876.363 200.203 876.586 199.594 877.031 199.008C877.484 198.414 878.094 197.945 878.859 197.602C879.633 197.258 880.48 197.086 881.402 197.086C882.863 197.086 884.008 197.453 884.836 198.188C885.664 198.914 886.094 199.918 886.125 201.199V207.035C886.125 208.199 886.273 209.125 886.57 209.812V210H884.297ZM880.699 208.348C881.379 208.348 882.023 208.172 882.633 207.82C883.242 207.469 883.684 207.012 883.957 206.449V203.848H882.258C879.602 203.848 878.273 204.625 878.273 206.18C878.273 206.859 878.5 207.391 878.953 207.773C879.406 208.156 879.988 208.348 880.699 208.348ZM892.465 194.25V197.32H894.832V198.996H892.465V206.859C892.465 207.367 892.57 207.75 892.781 208.008C892.992 208.258 893.352 208.383 893.859 208.383C894.109 208.383 894.453 208.336 894.891 208.242V210C894.32 210.156 893.766 210.234 893.227 210.234C892.258 210.234 891.527 209.941 891.035 209.355C890.543 208.77 890.297 207.938 890.297 206.859V198.996H887.988V197.32H890.297V194.25H892.465ZM899.73 210H897.562V197.32H899.73V210ZM897.387 193.957C897.387 193.605 897.492 193.309 897.703 193.066C897.922 192.824 898.242 192.703 898.664 192.703C899.086 192.703 899.406 192.824 899.625 193.066C899.844 193.309 899.953 193.605 899.953 193.957C899.953 194.309 899.844 194.602 899.625 194.836C899.406 195.07 899.086 195.188 898.664 195.188C898.242 195.188 897.922 195.07 897.703 194.836C897.492 194.602 897.387 194.309 897.387 193.957ZM902.637 203.543C902.637 202.301 902.879 201.184 903.363 200.191C903.855 199.199 904.535 198.434 905.402 197.895C906.277 197.355 907.273 197.086 908.391 197.086C910.117 197.086 911.512 197.684 912.574 198.879C913.645 200.074 914.18 201.664 914.18 203.648V203.801C914.18 205.035 913.941 206.145 913.465 207.129C912.996 208.105 912.32 208.867 911.438 209.414C910.562 209.961 909.555 210.234 908.414 210.234C906.695 210.234 905.301 209.637 904.23 208.441C903.168 207.246 902.637 205.664 902.637 203.695V203.543ZM904.816 203.801C904.816 205.207 905.141 206.336 905.789 207.188C906.445 208.039 907.32 208.465 908.414 208.465C909.516 208.465 910.391 208.035 911.039 207.176C911.688 206.309 912.012 205.098 912.012 203.543C912.012 202.152 911.68 201.027 911.016 200.168C910.359 199.301 909.484 198.867 908.391 198.867C907.32 198.867 906.457 199.293 905.801 200.145C905.145 200.996 904.816 202.215 904.816 203.801ZM918.949 197.32L919.02 198.914C919.988 197.695 921.254 197.086 922.816 197.086C925.496 197.086 926.848 198.598 926.871 201.621V210H924.703V201.609C924.695 200.695 924.484 200.02 924.07 199.582C923.664 199.145 923.027 198.926 922.16 198.926C921.457 198.926 920.84 199.113 920.309 199.488C919.777 199.863 919.363 200.355 919.066 200.965V210H916.898V197.32H918.949ZM941.461 202.395C939.531 201.84 938.125 201.16 937.242 200.355C936.367 199.543 935.93 198.543 935.93 197.355C935.93 196.012 936.465 194.902 937.535 194.027C938.613 193.145 940.012 192.703 941.73 192.703C942.902 192.703 943.945 192.93 944.859 193.383C945.781 193.836 946.492 194.461 946.992 195.258C947.5 196.055 947.754 196.926 947.754 197.871H945.492C945.492 196.84 945.164 196.031 944.508 195.445C943.852 194.852 942.926 194.555 941.73 194.555C940.621 194.555 939.754 194.801 939.129 195.293C938.512 195.777 938.203 196.453 938.203 197.32C938.203 198.016 938.496 198.605 939.082 199.09C939.676 199.566 940.68 200.004 942.094 200.402C943.516 200.801 944.625 201.242 945.422 201.727C946.227 202.203 946.82 202.762 947.203 203.402C947.594 204.043 947.789 204.797 947.789 205.664C947.789 207.047 947.25 208.156 946.172 208.992C945.094 209.82 943.652 210.234 941.848 210.234C940.676 210.234 939.582 210.012 938.566 209.566C937.551 209.113 936.766 208.496 936.211 207.715C935.664 206.934 935.391 206.047 935.391 205.055H937.652C937.652 206.086 938.031 206.902 938.789 207.504C939.555 208.098 940.574 208.395 941.848 208.395C943.035 208.395 943.945 208.152 944.578 207.668C945.211 207.184 945.527 206.523 945.527 205.688C945.527 204.852 945.234 204.207 944.648 203.754C944.062 203.293 943 202.84 941.461 202.395ZM958.172 208.746C957.328 209.738 956.09 210.234 954.457 210.234C953.105 210.234 952.074 209.844 951.363 209.062C950.66 208.273 950.305 207.109 950.297 205.57V197.32H952.465V205.512C952.465 207.434 953.246 208.395 954.809 208.395C956.465 208.395 957.566 207.777 958.113 206.543V197.32H960.281V210H958.219L958.172 208.746ZM969.715 199.266C969.387 199.211 969.031 199.184 968.648 199.184C967.227 199.184 966.262 199.789 965.754 201V210H963.586V197.32H965.695L965.73 198.785C966.441 197.652 967.449 197.086 968.754 197.086C969.176 197.086 969.496 197.141 969.715 197.25V199.266ZM976.113 207.059L979.254 197.32H981.469L976.922 210H975.27L970.676 197.32H972.891L976.113 207.059ZM988.652 210.234C986.934 210.234 985.535 209.672 984.457 208.547C983.379 207.414 982.84 205.902 982.84 204.012V203.613C982.84 202.355 983.078 201.234 983.555 200.25C984.039 199.258 984.711 198.484 985.57 197.93C986.438 197.367 987.375 197.086 988.383 197.086C990.031 197.086 991.312 197.629 992.227 198.715C993.141 199.801 993.598 201.355 993.598 203.379V204.281H985.008C985.039 205.531 985.402 206.543 986.098 207.316C986.801 208.082 987.691 208.465 988.77 208.465C989.535 208.465 990.184 208.309 990.715 207.996C991.246 207.684 991.711 207.27 992.109 206.754L993.434 207.785C992.371 209.418 990.777 210.234 988.652 210.234ZM988.383 198.867C987.508 198.867 986.773 199.188 986.18 199.828C985.586 200.461 985.219 201.352 985.078 202.5H991.43V202.336C991.367 201.234 991.07 200.383 990.539 199.781C990.008 199.172 989.289 198.867 988.383 198.867ZM1000.1 206.824L1003.05 197.32H1005.38L1000.28 211.957C999.488 214.066 998.234 215.121 996.516 215.121L996.105 215.086L995.297 214.934V213.176L995.883 213.223C996.617 213.223 997.188 213.074 997.594 212.777C998.008 212.48 998.348 211.938 998.613 211.148L999.094 209.859L994.57 197.32H996.938L1000.1 206.824Z" fill="white"/>
<path d="M1432 18H1422V8H1425V12.77L1431.98 6L1434 8.03L1427.15 15H1432V18Z" fill="black"/>
</svg>
