<svg width="890" height="164" viewBox="0 0 1440 264" fill="none" xmlns="http://www.w3.org/2000/svg">
<rect width="1640" height="264" fill="#C4C4C4"/>
<rect width="1640" height="264" fill="#00629B"/>
<rect width="1640" height="264" fill="#00629B"/>
<rect width="1640" height="264" fill="#00629B"/>
<path d="M75.4375 85.9688V102H66.0625V56.5H83.8125C87.2292 56.5 90.2292 57.125 92.8125 58.375C95.4167 59.625 97.4167 61.4062 98.8125 63.7188C100.208 66.0104 100.906 68.625 100.906 71.5625C100.906 76.0208 99.375 79.5417 96.3125 82.125C93.2708 84.6875 89.0521 85.9688 83.6562 85.9688H75.4375ZM75.4375 78.375H83.8125C86.2917 78.375 88.1771 77.7917 89.4688 76.625C90.7812 75.4583 91.4375 73.7917 91.4375 71.625C91.4375 69.3958 90.7812 67.5938 89.4688 66.2188C88.1562 64.8438 86.3438 64.1354 84.0312 64.0938H75.4375V78.375ZM124.219 85.3438H116.75V102H107.375V56.5H124.281C129.656 56.5 133.802 57.6979 136.719 60.0938C139.635 62.4896 141.094 65.875 141.094 70.25C141.094 73.3542 140.417 75.9479 139.062 78.0312C137.729 80.0938 135.698 81.7396 132.969 82.9688L142.812 101.562V102H132.75L124.219 85.3438ZM116.75 77.75H124.312C126.667 77.75 128.49 77.1562 129.781 75.9688C131.073 74.7604 131.719 73.1042 131.719 71C131.719 68.8542 131.104 67.1667 129.875 65.9375C128.667 64.7083 126.802 64.0938 124.281 64.0938H116.75V77.75ZM185.625 80.2812C185.625 84.7604 184.833 88.6875 183.25 92.0625C181.667 95.4375 179.396 98.0417 176.438 99.875C173.5 101.708 170.125 102.625 166.312 102.625C162.542 102.625 159.177 101.719 156.219 99.9062C153.26 98.0938 150.969 95.5104 149.344 92.1562C147.719 88.7812 146.896 84.9062 146.875 80.5312V78.2812C146.875 73.8021 147.677 69.8646 149.281 66.4688C150.906 63.0521 153.188 60.4375 156.125 58.625C159.083 56.7917 162.458 55.875 166.25 55.875C170.042 55.875 173.406 56.7917 176.344 58.625C179.302 60.4375 181.583 63.0521 183.188 66.4688C184.812 69.8646 185.625 73.7917 185.625 78.25V80.2812ZM176.125 78.2188C176.125 73.4479 175.271 69.8229 173.562 67.3438C171.854 64.8646 169.417 63.625 166.25 63.625C163.104 63.625 160.677 64.8542 158.969 67.3125C157.26 69.75 156.396 73.3333 156.375 78.0625V80.2812C156.375 84.9271 157.229 88.5312 158.938 91.0938C160.646 93.6562 163.104 94.9375 166.312 94.9375C169.458 94.9375 171.875 93.7083 173.562 91.25C175.25 88.7708 176.104 85.1667 176.125 80.4375V78.2188ZM228.438 96.25C226.75 98.2708 224.365 99.8438 221.281 100.969C218.198 102.073 214.781 102.625 211.031 102.625C207.094 102.625 203.635 101.771 200.656 100.062C197.698 98.3333 195.406 95.8333 193.781 92.5625C192.177 89.2917 191.354 85.4479 191.312 81.0312V77.9375C191.312 73.3958 192.073 69.4688 193.594 66.1562C195.135 62.8229 197.344 60.2812 200.219 58.5312C203.115 56.7604 206.5 55.875 210.375 55.875C215.771 55.875 219.99 57.1667 223.031 59.75C226.073 62.3125 227.875 66.0521 228.438 70.9688H219.312C218.896 68.3646 217.969 66.4583 216.531 65.25C215.115 64.0417 213.156 63.4375 210.656 63.4375C207.469 63.4375 205.042 64.6354 203.375 67.0312C201.708 69.4271 200.865 72.9896 200.844 77.7188V80.625C200.844 85.3958 201.75 89 203.562 91.4375C205.375 93.875 208.031 95.0938 211.531 95.0938C215.052 95.0938 217.562 94.3438 219.062 92.8438V85H210.531V78.0938H228.438V96.25ZM252.906 85.3438H245.438V102H236.062V56.5H252.969C258.344 56.5 262.49 57.6979 265.406 60.0938C268.323 62.4896 269.781 65.875 269.781 70.25C269.781 73.3542 269.104 75.9479 267.75 78.0312C266.417 80.0938 264.385 81.7396 261.656 82.9688L271.5 101.562V102H261.438L252.906 85.3438ZM245.438 77.75H253C255.354 77.75 257.177 77.1562 258.469 75.9688C259.76 74.7604 260.406 73.1042 260.406 71C260.406 68.8542 259.792 67.1667 258.562 65.9375C257.354 64.7083 255.49 64.0938 252.969 64.0938H245.438V77.75ZM302.625 92.625H286.188L283.062 102H273.094L290.031 56.5H298.719L315.75 102H305.781L302.625 92.625ZM288.719 85.0312H300.094L294.375 68L288.719 85.0312ZM332.25 56.5L343.938 89.5L355.562 56.5H367.875V102H358.469V89.5625L359.406 68.0938L347.125 102H340.688L328.438 68.125L329.375 89.5625V102H320V56.5H332.25ZM399.656 90.0625C399.656 88.2917 399.031 86.9375 397.781 86C396.531 85.0417 394.281 84.0417 391.031 83C387.781 81.9375 385.208 80.8958 383.312 79.875C378.146 77.0833 375.562 73.3229 375.562 68.5938C375.562 66.1354 376.25 63.9479 377.625 62.0312C379.021 60.0938 381.01 58.5833 383.594 57.5C386.198 56.4167 389.115 55.875 392.344 55.875C395.594 55.875 398.49 56.4688 401.031 57.6562C403.573 58.8229 405.542 60.4792 406.938 62.625C408.354 64.7708 409.062 67.2083 409.062 69.9375H399.688C399.688 67.8542 399.031 66.2396 397.719 65.0938C396.406 63.9271 394.562 63.3438 392.188 63.3438C389.896 63.3438 388.115 63.8333 386.844 64.8125C385.573 65.7708 384.938 67.0417 384.938 68.625C384.938 70.1042 385.677 71.3438 387.156 72.3438C388.656 73.3438 390.854 74.2812 393.75 75.1562C399.083 76.7604 402.969 78.75 405.406 81.125C407.844 83.5 409.062 86.4583 409.062 90C409.062 93.9375 407.573 97.0312 404.594 99.2812C401.615 101.51 397.604 102.625 392.562 102.625C389.062 102.625 385.875 101.99 383 100.719C380.125 99.4271 377.927 97.6667 376.406 95.4375C374.906 93.2083 374.156 90.625 374.156 87.6875H383.562C383.562 92.7083 386.562 95.2188 392.562 95.2188C394.792 95.2188 396.531 94.7708 397.781 93.875C399.031 92.9583 399.656 91.6875 399.656 90.0625ZM67.0859 160.008L70.3359 150.625H71.9766L67.7578 162H66.4297L62.2188 150.625H63.8516L67.0859 160.008ZM74.8516 162H73.4062V153.547H74.8516V162ZM73.2891 151.305C73.2891 151.07 73.3594 150.872 73.5 150.711C73.6458 150.549 73.8594 150.469 74.1406 150.469C74.4219 150.469 74.6354 150.549 74.7812 150.711C74.9271 150.872 75 151.07 75 151.305C75 151.539 74.9271 151.734 74.7812 151.891C74.6354 152.047 74.4219 152.125 74.1406 152.125C73.8594 152.125 73.6458 152.047 73.5 151.891C73.3594 151.734 73.2891 151.539 73.2891 151.305ZM80.6797 162.156C79.5339 162.156 78.6016 161.781 77.8828 161.031C77.1641 160.276 76.8047 159.268 76.8047 158.008V157.742C76.8047 156.904 76.9635 156.156 77.2812 155.5C77.6042 154.839 78.0521 154.323 78.625 153.953C79.2031 153.578 79.8281 153.391 80.5 153.391C81.599 153.391 82.4531 153.753 83.0625 154.477C83.6719 155.201 83.9766 156.237 83.9766 157.586V158.188H78.25C78.2708 159.021 78.513 159.695 78.9766 160.211C79.4453 160.721 80.0391 160.977 80.7578 160.977C81.2682 160.977 81.7005 160.872 82.0547 160.664C82.4089 160.456 82.7188 160.18 82.9844 159.836L83.8672 160.523C83.1589 161.612 82.0964 162.156 80.6797 162.156ZM80.5 154.578C79.9167 154.578 79.4271 154.792 79.0312 155.219C78.6354 155.641 78.3906 156.234 78.2969 157H82.5312V156.891C82.4896 156.156 82.2917 155.589 81.9375 155.188C81.5833 154.781 81.1042 154.578 80.5 154.578ZM93.1406 160.008L94.7656 153.547H96.2109L93.75 162H92.5781L90.5234 155.594L88.5234 162H87.3516L84.8984 153.547H86.3359L88 159.875L89.9688 153.547H91.1328L93.1406 160.008ZM101.273 157.695C101.273 156.867 101.435 156.122 101.758 155.461C102.086 154.799 102.539 154.289 103.117 153.93C103.701 153.57 104.365 153.391 105.109 153.391C106.26 153.391 107.19 153.789 107.898 154.586C108.612 155.383 108.969 156.443 108.969 157.766V157.867C108.969 158.69 108.81 159.43 108.492 160.086C108.18 160.737 107.729 161.245 107.141 161.609C106.557 161.974 105.885 162.156 105.125 162.156C103.979 162.156 103.049 161.758 102.336 160.961C101.628 160.164 101.273 159.109 101.273 157.797V157.695ZM102.727 157.867C102.727 158.805 102.943 159.557 103.375 160.125C103.812 160.693 104.396 160.977 105.125 160.977C105.859 160.977 106.443 160.69 106.875 160.117C107.307 159.539 107.523 158.732 107.523 157.695C107.523 156.768 107.302 156.018 106.859 155.445C106.422 154.867 105.839 154.578 105.109 154.578C104.396 154.578 103.82 154.862 103.383 155.43C102.945 155.997 102.727 156.81 102.727 157.867ZM116 161.164C115.438 161.826 114.612 162.156 113.523 162.156C112.622 162.156 111.935 161.896 111.461 161.375C110.992 160.849 110.755 160.073 110.75 159.047V153.547H112.195V159.008C112.195 160.289 112.716 160.93 113.758 160.93C114.862 160.93 115.596 160.518 115.961 159.695V153.547H117.406V162H116.031L116 161.164ZM123.695 154.844C123.477 154.807 123.24 154.789 122.984 154.789C122.036 154.789 121.393 155.193 121.055 156V162H119.609V153.547H121.016L121.039 154.523C121.513 153.768 122.185 153.391 123.055 153.391C123.336 153.391 123.549 153.427 123.695 153.5V154.844ZM132.508 162.156C131.362 162.156 130.43 161.781 129.711 161.031C128.992 160.276 128.633 159.268 128.633 158.008V157.742C128.633 156.904 128.792 156.156 129.109 155.5C129.432 154.839 129.88 154.323 130.453 153.953C131.031 153.578 131.656 153.391 132.328 153.391C133.427 153.391 134.281 153.753 134.891 154.477C135.5 155.201 135.805 156.237 135.805 157.586V158.188H130.078C130.099 159.021 130.341 159.695 130.805 160.211C131.273 160.721 131.867 160.977 132.586 160.977C133.096 160.977 133.529 160.872 133.883 160.664C134.237 160.456 134.547 160.18 134.812 159.836L135.695 160.523C134.987 161.612 133.924 162.156 132.508 162.156ZM132.328 154.578C131.745 154.578 131.255 154.792 130.859 155.219C130.464 155.641 130.219 156.234 130.125 157H134.359V156.891C134.318 156.156 134.12 155.589 133.766 155.188C133.411 154.781 132.932 154.578 132.328 154.578ZM140.164 160.039L142.258 153.547H143.734L140.703 162H139.602L136.539 153.547H138.016L140.164 160.039ZM148.523 162.156C147.378 162.156 146.445 161.781 145.727 161.031C145.008 160.276 144.648 159.268 144.648 158.008V157.742C144.648 156.904 144.807 156.156 145.125 155.5C145.448 154.839 145.896 154.323 146.469 153.953C147.047 153.578 147.672 153.391 148.344 153.391C149.443 153.391 150.297 153.753 150.906 154.477C151.516 155.201 151.82 156.237 151.82 157.586V158.188H146.094C146.115 159.021 146.357 159.695 146.82 160.211C147.289 160.721 147.883 160.977 148.602 160.977C149.112 160.977 149.544 160.872 149.898 160.664C150.253 160.456 150.562 160.18 150.828 159.836L151.711 160.523C151.003 161.612 149.94 162.156 148.523 162.156ZM148.344 154.578C147.76 154.578 147.271 154.792 146.875 155.219C146.479 155.641 146.234 156.234 146.141 157H150.375V156.891C150.333 156.156 150.135 155.589 149.781 155.188C149.427 154.781 148.948 154.578 148.344 154.578ZM154.867 153.547L154.914 154.609C155.56 153.797 156.404 153.391 157.445 153.391C159.232 153.391 160.133 154.398 160.148 156.414V162H158.703V156.406C158.698 155.797 158.557 155.346 158.281 155.055C158.01 154.763 157.586 154.617 157.008 154.617C156.539 154.617 156.128 154.742 155.773 154.992C155.419 155.242 155.143 155.57 154.945 155.977V162H153.5V153.547H154.867ZM164.289 151.5V153.547H165.867V154.664H164.289V159.906C164.289 160.245 164.359 160.5 164.5 160.672C164.641 160.839 164.88 160.922 165.219 160.922C165.385 160.922 165.615 160.891 165.906 160.828V162C165.526 162.104 165.156 162.156 164.797 162.156C164.151 162.156 163.664 161.961 163.336 161.57C163.008 161.18 162.844 160.625 162.844 159.906V154.664H161.305V153.547H162.844V151.5H164.289ZM172.484 159.758C172.484 159.367 172.336 159.065 172.039 158.852C171.747 158.633 171.234 158.445 170.5 158.289C169.771 158.133 169.19 157.945 168.758 157.727C168.331 157.508 168.013 157.247 167.805 156.945C167.602 156.643 167.5 156.284 167.5 155.867C167.5 155.174 167.792 154.589 168.375 154.109C168.964 153.63 169.714 153.391 170.625 153.391C171.583 153.391 172.359 153.638 172.953 154.133C173.552 154.628 173.852 155.26 173.852 156.031H172.398C172.398 155.635 172.229 155.294 171.891 155.008C171.557 154.721 171.135 154.578 170.625 154.578C170.099 154.578 169.688 154.693 169.391 154.922C169.094 155.151 168.945 155.451 168.945 155.82C168.945 156.169 169.083 156.432 169.359 156.609C169.635 156.786 170.133 156.956 170.852 157.117C171.576 157.279 172.161 157.471 172.609 157.695C173.057 157.919 173.388 158.19 173.602 158.508C173.82 158.82 173.93 159.203 173.93 159.656C173.93 160.411 173.628 161.018 173.023 161.477C172.419 161.93 171.635 162.156 170.672 162.156C169.995 162.156 169.396 162.036 168.875 161.797C168.354 161.557 167.945 161.224 167.648 160.797C167.357 160.365 167.211 159.898 167.211 159.398H168.656C168.682 159.883 168.875 160.268 169.234 160.555C169.599 160.836 170.078 160.977 170.672 160.977C171.219 160.977 171.656 160.867 171.984 160.648C172.318 160.424 172.484 160.128 172.484 159.758ZM185 162C184.917 161.833 184.849 161.536 184.797 161.109C184.125 161.807 183.323 162.156 182.391 162.156C181.557 162.156 180.872 161.922 180.336 161.453C179.805 160.979 179.539 160.38 179.539 159.656C179.539 158.776 179.872 158.094 180.539 157.609C181.211 157.12 182.154 156.875 183.367 156.875H184.773V156.211C184.773 155.706 184.622 155.305 184.32 155.008C184.018 154.706 183.573 154.555 182.984 154.555C182.469 154.555 182.036 154.685 181.688 154.945C181.339 155.206 181.164 155.521 181.164 155.891H179.711C179.711 155.469 179.859 155.062 180.156 154.672C180.458 154.276 180.865 153.964 181.375 153.734C181.891 153.505 182.456 153.391 183.07 153.391C184.044 153.391 184.807 153.635 185.359 154.125C185.911 154.609 186.198 155.279 186.219 156.133V160.023C186.219 160.799 186.318 161.417 186.516 161.875V162H185ZM182.602 160.898C183.055 160.898 183.484 160.781 183.891 160.547C184.297 160.312 184.591 160.008 184.773 159.633V157.898H183.641C181.87 157.898 180.984 158.417 180.984 159.453C180.984 159.906 181.135 160.26 181.438 160.516C181.74 160.771 182.128 160.898 182.602 160.898ZM189.852 153.547L189.898 154.609C190.544 153.797 191.388 153.391 192.43 153.391C194.216 153.391 195.117 154.398 195.133 156.414V162H193.688V156.406C193.682 155.797 193.542 155.346 193.266 155.055C192.995 154.763 192.57 154.617 191.992 154.617C191.523 154.617 191.112 154.742 190.758 154.992C190.404 155.242 190.128 155.57 189.93 155.977V162H188.484V153.547H189.852ZM196.961 157.703C196.961 156.406 197.268 155.365 197.883 154.578C198.497 153.786 199.302 153.391 200.297 153.391C201.286 153.391 202.07 153.729 202.648 154.406V150H204.094V162H202.766L202.695 161.094C202.117 161.802 201.312 162.156 200.281 162.156C199.302 162.156 198.503 161.755 197.883 160.953C197.268 160.151 196.961 159.104 196.961 157.812V157.703ZM198.406 157.867C198.406 158.826 198.604 159.576 199 160.117C199.396 160.659 199.943 160.93 200.641 160.93C201.557 160.93 202.227 160.518 202.648 159.695V155.812C202.216 155.016 201.552 154.617 200.656 154.617C199.948 154.617 199.396 154.891 199 155.438C198.604 155.984 198.406 156.794 198.406 157.867ZM211.883 162H210.438V153.547H211.883V162ZM210.32 151.305C210.32 151.07 210.391 150.872 210.531 150.711C210.677 150.549 210.891 150.469 211.172 150.469C211.453 150.469 211.667 150.549 211.812 150.711C211.958 150.872 212.031 151.07 212.031 151.305C212.031 151.539 211.958 151.734 211.812 151.891C211.667 152.047 211.453 152.125 211.172 152.125C210.891 152.125 210.677 152.047 210.531 151.891C210.391 151.734 210.32 151.539 210.32 151.305ZM215.57 153.547L215.617 154.609C216.263 153.797 217.107 153.391 218.148 153.391C219.935 153.391 220.836 154.398 220.852 156.414V162H219.406V156.406C219.401 155.797 219.26 155.346 218.984 155.055C218.714 154.763 218.289 154.617 217.711 154.617C217.242 154.617 216.831 154.742 216.477 154.992C216.122 155.242 215.846 155.57 215.648 155.977V162H214.203V153.547H215.57ZM224.602 162H223.156V153.547H224.602V162ZM223.039 151.305C223.039 151.07 223.109 150.872 223.25 150.711C223.396 150.549 223.609 150.469 223.891 150.469C224.172 150.469 224.385 150.549 224.531 150.711C224.677 150.872 224.75 151.07 224.75 151.305C224.75 151.539 224.677 151.734 224.531 151.891C224.385 152.047 224.172 152.125 223.891 152.125C223.609 152.125 223.396 152.047 223.25 151.891C223.109 151.734 223.039 151.539 223.039 151.305ZM228.883 151.5V153.547H230.461V154.664H228.883V159.906C228.883 160.245 228.953 160.5 229.094 160.672C229.234 160.839 229.474 160.922 229.812 160.922C229.979 160.922 230.208 160.891 230.5 160.828V162C230.12 162.104 229.75 162.156 229.391 162.156C228.745 162.156 228.258 161.961 227.93 161.57C227.602 161.18 227.438 160.625 227.438 159.906V154.664H225.898V153.547H227.438V151.5H228.883ZM233.727 162H232.281V153.547H233.727V162ZM232.164 151.305C232.164 151.07 232.234 150.872 232.375 150.711C232.521 150.549 232.734 150.469 233.016 150.469C233.297 150.469 233.51 150.549 233.656 150.711C233.802 150.872 233.875 151.07 233.875 151.305C233.875 151.539 233.802 151.734 233.656 151.891C233.51 152.047 233.297 152.125 233.016 152.125C232.734 152.125 232.521 152.047 232.375 151.891C232.234 151.734 232.164 151.539 232.164 151.305ZM241.266 162C241.182 161.833 241.115 161.536 241.062 161.109C240.391 161.807 239.589 162.156 238.656 162.156C237.823 162.156 237.138 161.922 236.602 161.453C236.07 160.979 235.805 160.38 235.805 159.656C235.805 158.776 236.138 158.094 236.805 157.609C237.477 157.12 238.419 156.875 239.633 156.875H241.039V156.211C241.039 155.706 240.888 155.305 240.586 155.008C240.284 154.706 239.839 154.555 239.25 154.555C238.734 154.555 238.302 154.685 237.953 154.945C237.604 155.206 237.43 155.521 237.43 155.891H235.977C235.977 155.469 236.125 155.062 236.422 154.672C236.724 154.276 237.13 153.964 237.641 153.734C238.156 153.505 238.721 153.391 239.336 153.391C240.31 153.391 241.073 153.635 241.625 154.125C242.177 154.609 242.464 155.279 242.484 156.133V160.023C242.484 160.799 242.583 161.417 242.781 161.875V162H241.266ZM238.867 160.898C239.32 160.898 239.75 160.781 240.156 160.547C240.562 160.312 240.857 160.008 241.039 159.633V157.898H239.906C238.135 157.898 237.25 158.417 237.25 159.453C237.25 159.906 237.401 160.26 237.703 160.516C238.005 160.771 238.393 160.898 238.867 160.898ZM246.711 151.5V153.547H248.289V154.664H246.711V159.906C246.711 160.245 246.781 160.5 246.922 160.672C247.062 160.839 247.302 160.922 247.641 160.922C247.807 160.922 248.036 160.891 248.328 160.828V162C247.948 162.104 247.578 162.156 247.219 162.156C246.573 162.156 246.086 161.961 245.758 161.57C245.43 161.18 245.266 160.625 245.266 159.906V154.664H243.727V153.547H245.266V151.5H246.711ZM251.555 162H250.109V153.547H251.555V162ZM249.992 151.305C249.992 151.07 250.062 150.872 250.203 150.711C250.349 150.549 250.562 150.469 250.844 150.469C251.125 150.469 251.339 150.549 251.484 150.711C251.63 150.872 251.703 151.07 251.703 151.305C251.703 151.539 251.63 151.734 251.484 151.891C251.339 152.047 251.125 152.125 250.844 152.125C250.562 152.125 250.349 152.047 250.203 151.891C250.062 151.734 249.992 151.539 249.992 151.305ZM256.664 160.039L258.758 153.547H260.234L257.203 162H256.102L253.039 153.547H254.516L256.664 160.039ZM265.023 162.156C263.878 162.156 262.945 161.781 262.227 161.031C261.508 160.276 261.148 159.268 261.148 158.008V157.742C261.148 156.904 261.307 156.156 261.625 155.5C261.948 154.839 262.396 154.323 262.969 153.953C263.547 153.578 264.172 153.391 264.844 153.391C265.943 153.391 266.797 153.753 267.406 154.477C268.016 155.201 268.32 156.237 268.32 157.586V158.188H262.594C262.615 159.021 262.857 159.695 263.32 160.211C263.789 160.721 264.383 160.977 265.102 160.977C265.612 160.977 266.044 160.872 266.398 160.664C266.753 160.456 267.062 160.18 267.328 159.836L268.211 160.523C267.503 161.612 266.44 162.156 265.023 162.156ZM264.844 154.578C264.26 154.578 263.771 154.792 263.375 155.219C262.979 155.641 262.734 156.234 262.641 157H266.875V156.891C266.833 156.156 266.635 155.589 266.281 155.188C265.927 154.781 265.448 154.578 264.844 154.578ZM274.922 159.758C274.922 159.367 274.773 159.065 274.477 158.852C274.185 158.633 273.672 158.445 272.938 158.289C272.208 158.133 271.628 157.945 271.195 157.727C270.768 157.508 270.451 157.247 270.242 156.945C270.039 156.643 269.938 156.284 269.938 155.867C269.938 155.174 270.229 154.589 270.812 154.109C271.401 153.63 272.151 153.391 273.062 153.391C274.021 153.391 274.797 153.638 275.391 154.133C275.99 154.628 276.289 155.26 276.289 156.031H274.836C274.836 155.635 274.667 155.294 274.328 155.008C273.995 154.721 273.573 154.578 273.062 154.578C272.536 154.578 272.125 154.693 271.828 154.922C271.531 155.151 271.383 155.451 271.383 155.82C271.383 156.169 271.521 156.432 271.797 156.609C272.073 156.786 272.57 156.956 273.289 157.117C274.013 157.279 274.599 157.471 275.047 157.695C275.495 157.919 275.826 158.19 276.039 158.508C276.258 158.82 276.367 159.203 276.367 159.656C276.367 160.411 276.065 161.018 275.461 161.477C274.857 161.93 274.073 162.156 273.109 162.156C272.432 162.156 271.833 162.036 271.312 161.797C270.792 161.557 270.383 161.224 270.086 160.797C269.794 160.365 269.648 159.898 269.648 159.398H271.094C271.12 159.883 271.312 160.268 271.672 160.555C272.036 160.836 272.516 160.977 273.109 160.977C273.656 160.977 274.094 160.867 274.422 160.648C274.755 160.424 274.922 160.128 274.922 159.758ZM278.281 161.242C278.281 160.992 278.354 160.784 278.5 160.617C278.651 160.451 278.875 160.367 279.172 160.367C279.469 160.367 279.693 160.451 279.844 160.617C280 160.784 280.078 160.992 280.078 161.242C280.078 161.482 280 161.682 279.844 161.844C279.693 162.005 279.469 162.086 279.172 162.086C278.875 162.086 278.651 162.005 278.5 161.844C278.354 161.682 278.281 161.482 278.281 161.242Z" fill="white"/>
<path d="M733.77 127.789H728.285V143H726.047V127.789H720.574V125.938H733.77V127.789ZM741.199 132.266C740.871 132.211 740.516 132.184 740.133 132.184C738.711 132.184 737.746 132.789 737.238 134V143H735.07V130.32H737.18L737.215 131.785C737.926 130.652 738.934 130.086 740.238 130.086C740.66 130.086 740.98 130.141 741.199 130.25V132.266ZM745.559 143H743.391V130.32H745.559V143ZM743.215 126.957C743.215 126.605 743.32 126.309 743.531 126.066C743.75 125.824 744.07 125.703 744.492 125.703C744.914 125.703 745.234 125.824 745.453 126.066C745.672 126.309 745.781 126.605 745.781 126.957C745.781 127.309 745.672 127.602 745.453 127.836C745.234 128.07 744.914 128.188 744.492 128.188C744.07 128.188 743.75 128.07 743.531 127.836C743.32 127.602 743.215 127.309 743.215 126.957ZM751.98 127.25V130.32H754.348V131.996H751.98V139.859C751.98 140.367 752.086 140.75 752.297 141.008C752.508 141.258 752.867 141.383 753.375 141.383C753.625 141.383 753.969 141.336 754.406 141.242V143C753.836 143.156 753.281 143.234 752.742 143.234C751.773 143.234 751.043 142.941 750.551 142.355C750.059 141.77 749.812 140.938 749.812 139.859V131.996H747.504V130.32H749.812V127.25H751.98ZM756.082 136.543C756.082 135.301 756.324 134.184 756.809 133.191C757.301 132.199 757.98 131.434 758.848 130.895C759.723 130.355 760.719 130.086 761.836 130.086C763.562 130.086 764.957 130.684 766.02 131.879C767.09 133.074 767.625 134.664 767.625 136.648V136.801C767.625 138.035 767.387 139.145 766.91 140.129C766.441 141.105 765.766 141.867 764.883 142.414C764.008 142.961 763 143.234 761.859 143.234C760.141 143.234 758.746 142.637 757.676 141.441C756.613 140.246 756.082 138.664 756.082 136.695V136.543ZM758.262 136.801C758.262 138.207 758.586 139.336 759.234 140.188C759.891 141.039 760.766 141.465 761.859 141.465C762.961 141.465 763.836 141.035 764.484 140.176C765.133 139.309 765.457 138.098 765.457 136.543C765.457 135.152 765.125 134.027 764.461 133.168C763.805 132.301 762.93 131.867 761.836 131.867C760.766 131.867 759.902 132.293 759.246 133.145C758.59 133.996 758.262 135.215 758.262 136.801ZM772.395 130.32L772.465 131.914C773.434 130.695 774.699 130.086 776.262 130.086C778.941 130.086 780.293 131.598 780.316 134.621V143H778.148V134.609C778.141 133.695 777.93 133.02 777.516 132.582C777.109 132.145 776.473 131.926 775.605 131.926C774.902 131.926 774.285 132.113 773.754 132.488C773.223 132.863 772.809 133.355 772.512 133.965V143H770.344V130.32H772.395ZM790.969 139.637C790.969 139.051 790.746 138.598 790.301 138.277C789.863 137.949 789.094 137.668 787.992 137.434C786.898 137.199 786.027 136.918 785.379 136.59C784.738 136.262 784.262 135.871 783.949 135.418C783.645 134.965 783.492 134.426 783.492 133.801C783.492 132.762 783.93 131.883 784.805 131.164C785.688 130.445 786.812 130.086 788.18 130.086C789.617 130.086 790.781 130.457 791.672 131.199C792.57 131.941 793.02 132.891 793.02 134.047H790.84C790.84 133.453 790.586 132.941 790.078 132.512C789.578 132.082 788.945 131.867 788.18 131.867C787.391 131.867 786.773 132.039 786.328 132.383C785.883 132.727 785.66 133.176 785.66 133.73C785.66 134.254 785.867 134.648 786.281 134.914C786.695 135.18 787.441 135.434 788.52 135.676C789.605 135.918 790.484 136.207 791.156 136.543C791.828 136.879 792.324 137.285 792.645 137.762C792.973 138.23 793.137 138.805 793.137 139.484C793.137 140.617 792.684 141.527 791.777 142.215C790.871 142.895 789.695 143.234 788.25 143.234C787.234 143.234 786.336 143.055 785.555 142.695C784.773 142.336 784.16 141.836 783.715 141.195C783.277 140.547 783.059 139.848 783.059 139.098H785.227C785.266 139.824 785.555 140.402 786.094 140.832C786.641 141.254 787.359 141.465 788.25 141.465C789.07 141.465 789.727 141.301 790.219 140.973C790.719 140.637 790.969 140.191 790.969 139.637ZM811.664 135.465H804.504V143H802.254V125.938H812.824V127.789H804.504V133.625H811.664V135.465ZM817.535 143H815.367V125H817.535V143ZM820.441 136.543C820.441 135.301 820.684 134.184 821.168 133.191C821.66 132.199 822.34 131.434 823.207 130.895C824.082 130.355 825.078 130.086 826.195 130.086C827.922 130.086 829.316 130.684 830.379 131.879C831.449 133.074 831.984 134.664 831.984 136.648V136.801C831.984 138.035 831.746 139.145 831.27 140.129C830.801 141.105 830.125 141.867 829.242 142.414C828.367 142.961 827.359 143.234 826.219 143.234C824.5 143.234 823.105 142.637 822.035 141.441C820.973 140.246 820.441 138.664 820.441 136.695V136.543ZM822.621 136.801C822.621 138.207 822.945 139.336 823.594 140.188C824.25 141.039 825.125 141.465 826.219 141.465C827.32 141.465 828.195 141.035 828.844 140.176C829.492 139.309 829.816 138.098 829.816 136.543C829.816 135.152 829.484 134.027 828.82 133.168C828.164 132.301 827.289 131.867 826.195 131.867C825.125 131.867 824.262 132.293 823.605 133.145C822.949 133.996 822.621 135.215 822.621 136.801ZM842.531 141.746C841.688 142.738 840.449 143.234 838.816 143.234C837.465 143.234 836.434 142.844 835.723 142.062C835.02 141.273 834.664 140.109 834.656 138.57V130.32H836.824V138.512C836.824 140.434 837.605 141.395 839.168 141.395C840.824 141.395 841.926 140.777 842.473 139.543V130.32H844.641V143H842.578L842.531 141.746ZM854.074 132.266C853.746 132.211 853.391 132.184 853.008 132.184C851.586 132.184 850.621 132.789 850.113 134V143H847.945V130.32H850.055L850.09 131.785C850.801 130.652 851.809 130.086 853.113 130.086C853.535 130.086 853.855 130.141 854.074 130.25V132.266ZM858.434 143H856.266V130.32H858.434V143ZM856.09 126.957C856.09 126.605 856.195 126.309 856.406 126.066C856.625 125.824 856.945 125.703 857.367 125.703C857.789 125.703 858.109 125.824 858.328 126.066C858.547 126.309 858.656 126.605 858.656 126.957C858.656 127.309 858.547 127.602 858.328 127.836C858.109 128.07 857.789 128.188 857.367 128.188C856.945 128.188 856.625 128.07 856.406 127.836C856.195 127.602 856.09 127.309 856.09 126.957ZM869.297 139.637C869.297 139.051 869.074 138.598 868.629 138.277C868.191 137.949 867.422 137.668 866.32 137.434C865.227 137.199 864.355 136.918 863.707 136.59C863.066 136.262 862.59 135.871 862.277 135.418C861.973 134.965 861.82 134.426 861.82 133.801C861.82 132.762 862.258 131.883 863.133 131.164C864.016 130.445 865.141 130.086 866.508 130.086C867.945 130.086 869.109 130.457 870 131.199C870.898 131.941 871.348 132.891 871.348 134.047H869.168C869.168 133.453 868.914 132.941 868.406 132.512C867.906 132.082 867.273 131.867 866.508 131.867C865.719 131.867 865.102 132.039 864.656 132.383C864.211 132.727 863.988 133.176 863.988 133.73C863.988 134.254 864.195 134.648 864.609 134.914C865.023 135.18 865.77 135.434 866.848 135.676C867.934 135.918 868.812 136.207 869.484 136.543C870.156 136.879 870.652 137.285 870.973 137.762C871.301 138.23 871.465 138.805 871.465 139.484C871.465 140.617 871.012 141.527 870.105 142.215C869.199 142.895 868.023 143.234 866.578 143.234C865.562 143.234 864.664 143.055 863.883 142.695C863.102 142.336 862.488 141.836 862.043 141.195C861.605 140.547 861.387 139.848 861.387 139.098H863.555C863.594 139.824 863.883 140.402 864.422 140.832C864.969 141.254 865.688 141.465 866.578 141.465C867.398 141.465 868.055 141.301 868.547 140.973C869.047 140.637 869.297 140.191 869.297 139.637ZM876.457 131.855C877.418 130.676 878.668 130.086 880.207 130.086C882.887 130.086 884.238 131.598 884.262 134.621V143H882.094V134.609C882.086 133.695 881.875 133.02 881.461 132.582C881.055 132.145 880.418 131.926 879.551 131.926C878.848 131.926 878.23 132.113 877.699 132.488C877.168 132.863 876.754 133.355 876.457 133.965V143H874.289V125H876.457V131.855ZM896.215 143H893.965V125.938H896.215V143ZM902.051 130.32L902.121 131.914C903.09 130.695 904.355 130.086 905.918 130.086C908.598 130.086 909.949 131.598 909.973 134.621V143H907.805V134.609C907.797 133.695 907.586 133.02 907.172 132.582C906.766 132.145 906.129 131.926 905.262 131.926C904.559 131.926 903.941 132.113 903.41 132.488C902.879 132.863 902.465 133.355 902.168 133.965V143H900V130.32H902.051ZM915.598 143H913.43V130.32H915.598V143ZM913.254 126.957C913.254 126.605 913.359 126.309 913.57 126.066C913.789 125.824 914.109 125.703 914.531 125.703C914.953 125.703 915.273 125.824 915.492 126.066C915.711 126.309 915.82 126.605 915.82 126.957C915.82 127.309 915.711 127.602 915.492 127.836C915.273 128.07 914.953 128.188 914.531 128.188C914.109 128.188 913.789 128.07 913.57 127.836C913.359 127.602 913.254 127.309 913.254 126.957ZM922.02 127.25V130.32H924.387V131.996H922.02V139.859C922.02 140.367 922.125 140.75 922.336 141.008C922.547 141.258 922.906 141.383 923.414 141.383C923.664 141.383 924.008 141.336 924.445 141.242V143C923.875 143.156 923.32 143.234 922.781 143.234C921.812 143.234 921.082 142.941 920.59 142.355C920.098 141.77 919.852 140.938 919.852 139.859V131.996H917.543V130.32H919.852V127.25H922.02ZM929.285 143H927.117V130.32H929.285V143ZM926.941 126.957C926.941 126.605 927.047 126.309 927.258 126.066C927.477 125.824 927.797 125.703 928.219 125.703C928.641 125.703 928.961 125.824 929.18 126.066C929.398 126.309 929.508 126.605 929.508 126.957C929.508 127.309 929.398 127.602 929.18 127.836C928.961 128.07 928.641 128.188 928.219 128.188C927.797 128.188 927.477 128.07 927.258 127.836C927.047 127.602 926.941 127.309 926.941 126.957ZM940.594 143C940.469 142.75 940.367 142.305 940.289 141.664C939.281 142.711 938.078 143.234 936.68 143.234C935.43 143.234 934.402 142.883 933.598 142.18C932.801 141.469 932.402 140.57 932.402 139.484C932.402 138.164 932.902 137.141 933.902 136.414C934.91 135.68 936.324 135.312 938.145 135.312H940.254V134.316C940.254 133.559 940.027 132.957 939.574 132.512C939.121 132.059 938.453 131.832 937.57 131.832C936.797 131.832 936.148 132.027 935.625 132.418C935.102 132.809 934.84 133.281 934.84 133.836H932.66C932.66 133.203 932.883 132.594 933.328 132.008C933.781 131.414 934.391 130.945 935.156 130.602C935.93 130.258 936.777 130.086 937.699 130.086C939.16 130.086 940.305 130.453 941.133 131.188C941.961 131.914 942.391 132.918 942.422 134.199V140.035C942.422 141.199 942.57 142.125 942.867 142.812V143H940.594ZM936.996 141.348C937.676 141.348 938.32 141.172 938.93 140.82C939.539 140.469 939.98 140.012 940.254 139.449V136.848H938.555C935.898 136.848 934.57 137.625 934.57 139.18C934.57 139.859 934.797 140.391 935.25 140.773C935.703 141.156 936.285 141.348 936.996 141.348ZM948.762 127.25V130.32H951.129V131.996H948.762V139.859C948.762 140.367 948.867 140.75 949.078 141.008C949.289 141.258 949.648 141.383 950.156 141.383C950.406 141.383 950.75 141.336 951.188 141.242V143C950.617 143.156 950.062 143.234 949.523 143.234C948.555 143.234 947.824 142.941 947.332 142.355C946.84 141.77 946.594 140.938 946.594 139.859V131.996H944.285V130.32H946.594V127.25H948.762ZM956.027 143H953.859V130.32H956.027V143ZM953.684 126.957C953.684 126.605 953.789 126.309 954 126.066C954.219 125.824 954.539 125.703 954.961 125.703C955.383 125.703 955.703 125.824 955.922 126.066C956.141 126.309 956.25 126.605 956.25 126.957C956.25 127.309 956.141 127.602 955.922 127.836C955.703 128.07 955.383 128.188 954.961 128.188C954.539 128.188 954.219 128.07 954 127.836C953.789 127.602 953.684 127.309 953.684 126.957ZM963.691 140.059L966.832 130.32H969.047L964.5 143H962.848L958.254 130.32H960.469L963.691 140.059ZM976.23 143.234C974.512 143.234 973.113 142.672 972.035 141.547C970.957 140.414 970.418 138.902 970.418 137.012V136.613C970.418 135.355 970.656 134.234 971.133 133.25C971.617 132.258 972.289 131.484 973.148 130.93C974.016 130.367 974.953 130.086 975.961 130.086C977.609 130.086 978.891 130.629 979.805 131.715C980.719 132.801 981.176 134.355 981.176 136.379V137.281H972.586C972.617 138.531 972.98 139.543 973.676 140.316C974.379 141.082 975.27 141.465 976.348 141.465C977.113 141.465 977.762 141.309 978.293 140.996C978.824 140.684 979.289 140.27 979.688 139.754L981.012 140.785C979.949 142.418 978.355 143.234 976.23 143.234ZM975.961 131.867C975.086 131.867 974.352 132.188 973.758 132.828C973.164 133.461 972.797 134.352 972.656 135.5H979.008V135.336C978.945 134.234 978.648 133.383 978.117 132.781C977.586 132.172 976.867 131.867 975.961 131.867Z" fill="white"/>
<path d="M734.531 70.5859C734.32 72.3906 733.652 73.7852 732.527 74.7695C731.41 75.7461 729.922 76.2344 728.062 76.2344C726.047 76.2344 724.43 75.5117 723.211 74.0664C722 72.6211 721.395 70.6875 721.395 68.2656V66.625C721.395 65.0391 721.676 63.6445 722.238 62.4414C722.809 61.2383 723.613 60.3164 724.652 59.6758C725.691 59.0273 726.895 58.7031 728.262 58.7031C730.074 58.7031 731.527 59.2109 732.621 60.2266C733.715 61.2344 734.352 62.6328 734.531 64.4219H732.27C732.074 63.0625 731.648 62.0781 730.992 61.4688C730.344 60.8594 729.434 60.5547 728.262 60.5547C726.824 60.5547 725.695 61.0859 724.875 62.1484C724.062 63.2109 723.656 64.7227 723.656 66.6836V68.3359C723.656 70.1875 724.043 71.6602 724.816 72.7539C725.59 73.8477 726.672 74.3945 728.062 74.3945C729.312 74.3945 730.27 74.1133 730.934 73.5508C731.605 72.9805 732.051 71.9922 732.27 70.5859H734.531ZM747.035 71.5469H739.887L738.281 76H735.961L742.477 58.9375H744.445L750.973 76H748.664L747.035 71.5469ZM740.566 69.6953H746.367L743.461 61.7148L740.566 69.6953ZM755.52 69.3203V76H753.27V58.9375H759.562C761.43 58.9375 762.891 59.4141 763.945 60.3672C765.008 61.3203 765.539 62.582 765.539 64.1523C765.539 65.8086 765.02 67.0859 763.98 67.9844C762.949 68.875 761.469 69.3203 759.539 69.3203H755.52ZM755.52 67.4805H759.562C760.766 67.4805 761.688 67.1992 762.328 66.6367C762.969 66.0664 763.289 65.2461 763.289 64.1758C763.289 63.1602 762.969 62.3477 762.328 61.7383C761.688 61.1289 760.809 60.8125 759.691 60.7891H755.52V67.4805ZM773.438 68.3945C771.508 67.8398 770.102 67.1602 769.219 66.3555C768.344 65.543 767.906 64.543 767.906 63.3555C767.906 62.0117 768.441 60.9023 769.512 60.0273C770.59 59.1445 771.988 58.7031 773.707 58.7031C774.879 58.7031 775.922 58.9297 776.836 59.3828C777.758 59.8359 778.469 60.4609 778.969 61.2578C779.477 62.0547 779.73 62.9258 779.73 63.8711H777.469C777.469 62.8398 777.141 62.0312 776.484 61.4453C775.828 60.8516 774.902 60.5547 773.707 60.5547C772.598 60.5547 771.73 60.8008 771.105 61.293C770.488 61.7773 770.18 62.4531 770.18 63.3203C770.18 64.0156 770.473 64.6055 771.059 65.0898C771.652 65.5664 772.656 66.0039 774.07 66.4023C775.492 66.8008 776.602 67.2422 777.398 67.7266C778.203 68.2031 778.797 68.7617 779.18 69.4023C779.57 70.043 779.766 70.7969 779.766 71.6641C779.766 73.0469 779.227 74.1562 778.148 74.9922C777.07 75.8203 775.629 76.2344 773.824 76.2344C772.652 76.2344 771.559 76.0117 770.543 75.5664C769.527 75.1133 768.742 74.4961 768.188 73.7148C767.641 72.9336 767.367 72.0469 767.367 71.0547H769.629C769.629 72.0859 770.008 72.9023 770.766 73.5039C771.531 74.0977 772.551 74.3945 773.824 74.3945C775.012 74.3945 775.922 74.1523 776.555 73.668C777.188 73.1836 777.504 72.5234 777.504 71.6875C777.504 70.8516 777.211 70.207 776.625 69.7539C776.039 69.293 774.977 68.8398 773.438 68.3945ZM801.164 70.5859C800.953 72.3906 800.285 73.7852 799.16 74.7695C798.043 75.7461 796.555 76.2344 794.695 76.2344C792.68 76.2344 791.062 75.5117 789.844 74.0664C788.633 72.6211 788.027 70.6875 788.027 68.2656V66.625C788.027 65.0391 788.309 63.6445 788.871 62.4414C789.441 61.2383 790.246 60.3164 791.285 59.6758C792.324 59.0273 793.527 58.7031 794.895 58.7031C796.707 58.7031 798.16 59.2109 799.254 60.2266C800.348 61.2344 800.984 62.6328 801.164 64.4219H798.902C798.707 63.0625 798.281 62.0781 797.625 61.4688C796.977 60.8594 796.066 60.5547 794.895 60.5547C793.457 60.5547 792.328 61.0859 791.508 62.1484C790.695 63.2109 790.289 64.7227 790.289 66.6836V68.3359C790.289 70.1875 790.676 71.6602 791.449 72.7539C792.223 73.8477 793.305 74.3945 794.695 74.3945C795.945 74.3945 796.902 74.1133 797.566 73.5508C798.238 72.9805 798.684 71.9922 798.902 70.5859H801.164ZM811.734 76C811.609 75.75 811.508 75.3047 811.43 74.6641C810.422 75.7109 809.219 76.2344 807.82 76.2344C806.57 76.2344 805.543 75.8828 804.738 75.1797C803.941 74.4688 803.543 73.5703 803.543 72.4844C803.543 71.1641 804.043 70.1406 805.043 69.4141C806.051 68.6797 807.465 68.3125 809.285 68.3125H811.395V67.3164C811.395 66.5586 811.168 65.957 810.715 65.5117C810.262 65.0586 809.594 64.832 808.711 64.832C807.938 64.832 807.289 65.0273 806.766 65.418C806.242 65.8086 805.98 66.2812 805.98 66.8359H803.801C803.801 66.2031 804.023 65.5938 804.469 65.0078C804.922 64.4141 805.531 63.9453 806.297 63.6016C807.07 63.2578 807.918 63.0859 808.84 63.0859C810.301 63.0859 811.445 63.4531 812.273 64.1875C813.102 64.9141 813.531 65.918 813.562 67.1992V73.0352C813.562 74.1992 813.711 75.125 814.008 75.8125V76H811.734ZM808.137 74.3477C808.816 74.3477 809.461 74.1719 810.07 73.8203C810.68 73.4688 811.121 73.0117 811.395 72.4492V69.8477H809.695C807.039 69.8477 805.711 70.625 805.711 72.1797C805.711 72.8594 805.938 73.3906 806.391 73.7734C806.844 74.1562 807.426 74.3477 808.137 74.3477ZM819.316 76H817.148V58H819.316V76ZM828.059 76.2344C826.34 76.2344 824.941 75.6719 823.863 74.5469C822.785 73.4141 822.246 71.9023 822.246 70.0117V69.6133C822.246 68.3555 822.484 67.2344 822.961 66.25C823.445 65.2578 824.117 64.4844 824.977 63.9297C825.844 63.3672 826.781 63.0859 827.789 63.0859C829.438 63.0859 830.719 63.6289 831.633 64.7148C832.547 65.8008 833.004 67.3555 833.004 69.3789V70.2812H824.414C824.445 71.5312 824.809 72.543 825.504 73.3164C826.207 74.082 827.098 74.4648 828.176 74.4648C828.941 74.4648 829.59 74.3086 830.121 73.9961C830.652 73.6836 831.117 73.2695 831.516 72.7539L832.84 73.7852C831.777 75.418 830.184 76.2344 828.059 76.2344ZM827.789 64.8672C826.914 64.8672 826.18 65.1875 825.586 65.8281C824.992 66.4609 824.625 67.3516 824.484 68.5H830.836V68.3359C830.773 67.2344 830.477 66.3828 829.945 65.7812C829.414 65.1719 828.695 64.8672 827.789 64.8672ZM837.574 63.3203L837.645 64.9141C838.613 63.6953 839.879 63.0859 841.441 63.0859C844.121 63.0859 845.473 64.5977 845.496 67.6211V76H843.328V67.6094C843.32 66.6953 843.109 66.0195 842.695 65.582C842.289 65.1445 841.652 64.9258 840.785 64.9258C840.082 64.9258 839.465 65.1133 838.934 65.4883C838.402 65.8633 837.988 66.3555 837.691 66.9648V76H835.523V63.3203H837.574ZM848.238 69.5547C848.238 67.6094 848.699 66.0469 849.621 64.8672C850.543 63.6797 851.75 63.0859 853.242 63.0859C854.727 63.0859 855.902 63.5938 856.77 64.6094V58H858.938V76H856.945L856.84 74.6406C855.973 75.7031 854.766 76.2344 853.219 76.2344C851.75 76.2344 850.551 75.6328 849.621 74.4297C848.699 73.2266 848.238 71.6562 848.238 69.7188V69.5547ZM850.406 69.8008C850.406 71.2383 850.703 72.3633 851.297 73.1758C851.891 73.9883 852.711 74.3945 853.758 74.3945C855.133 74.3945 856.137 73.7773 856.77 72.543V66.7188C856.121 65.5234 855.125 64.9258 853.781 64.9258C852.719 64.9258 851.891 65.3359 851.297 66.1562C850.703 66.9766 850.406 68.1914 850.406 69.8008ZM870.141 76C870.016 75.75 869.914 75.3047 869.836 74.6641C868.828 75.7109 867.625 76.2344 866.227 76.2344C864.977 76.2344 863.949 75.8828 863.145 75.1797C862.348 74.4688 861.949 73.5703 861.949 72.4844C861.949 71.1641 862.449 70.1406 863.449 69.4141C864.457 68.6797 865.871 68.3125 867.691 68.3125H869.801V67.3164C869.801 66.5586 869.574 65.957 869.121 65.5117C868.668 65.0586 868 64.832 867.117 64.832C866.344 64.832 865.695 65.0273 865.172 65.418C864.648 65.8086 864.387 66.2812 864.387 66.8359H862.207C862.207 66.2031 862.43 65.5938 862.875 65.0078C863.328 64.4141 863.938 63.9453 864.703 63.6016C865.477 63.2578 866.324 63.0859 867.246 63.0859C868.707 63.0859 869.852 63.4531 870.68 64.1875C871.508 64.9141 871.938 65.918 871.969 67.1992V73.0352C871.969 74.1992 872.117 75.125 872.414 75.8125V76H870.141ZM866.543 74.3477C867.223 74.3477 867.867 74.1719 868.477 73.8203C869.086 73.4688 869.527 73.0117 869.801 72.4492V69.8477H868.102C865.445 69.8477 864.117 70.625 864.117 72.1797C864.117 72.8594 864.344 73.3906 864.797 73.7734C865.25 74.1562 865.832 74.3477 866.543 74.3477ZM881.496 65.2656C881.168 65.2109 880.812 65.1836 880.43 65.1836C879.008 65.1836 878.043 65.7891 877.535 67V76H875.367V63.3203H877.477L877.512 64.7852C878.223 63.6523 879.23 63.0859 880.535 63.0859C880.957 63.0859 881.277 63.1406 881.496 63.25V65.2656Z" fill="white"/>
<path d="M724.23 203.32V210H721.98V192.938H728.273C730.141 192.938 731.602 193.414 732.656 194.367C733.719 195.32 734.25 196.582 734.25 198.152C734.25 199.809 733.73 201.086 732.691 201.984C731.66 202.875 730.18 203.32 728.25 203.32H724.23ZM724.23 201.48H728.273C729.477 201.48 730.398 201.199 731.039 200.637C731.68 200.066 732 199.246 732 198.176C732 197.16 731.68 196.348 731.039 195.738C730.398 195.129 729.52 194.812 728.402 194.789H724.23V201.48ZM741.879 210.234C740.16 210.234 738.762 209.672 737.684 208.547C736.605 207.414 736.066 205.902 736.066 204.012V203.613C736.066 202.355 736.305 201.234 736.781 200.25C737.266 199.258 737.938 198.484 738.797 197.93C739.664 197.367 740.602 197.086 741.609 197.086C743.258 197.086 744.539 197.629 745.453 198.715C746.367 199.801 746.824 201.355 746.824 203.379V204.281H738.234C738.266 205.531 738.629 206.543 739.324 207.316C740.027 208.082 740.918 208.465 741.996 208.465C742.762 208.465 743.41 208.309 743.941 207.996C744.473 207.684 744.938 207.27 745.336 206.754L746.66 207.785C745.598 209.418 744.004 210.234 741.879 210.234ZM741.609 198.867C740.734 198.867 740 199.188 739.406 199.828C738.812 200.461 738.445 201.352 738.305 202.5H744.656V202.336C744.594 201.234 744.297 200.383 743.766 199.781C743.234 199.172 742.516 198.867 741.609 198.867ZM754.605 210.234C752.887 210.234 751.488 209.672 750.41 208.547C749.332 207.414 748.793 205.902 748.793 204.012V203.613C748.793 202.355 749.031 201.234 749.508 200.25C749.992 199.258 750.664 198.484 751.523 197.93C752.391 197.367 753.328 197.086 754.336 197.086C755.984 197.086 757.266 197.629 758.18 198.715C759.094 199.801 759.551 201.355 759.551 203.379V204.281H750.961C750.992 205.531 751.355 206.543 752.051 207.316C752.754 208.082 753.645 208.465 754.723 208.465C755.488 208.465 756.137 208.309 756.668 207.996C757.199 207.684 757.664 207.27 758.062 206.754L759.387 207.785C758.324 209.418 756.73 210.234 754.605 210.234ZM754.336 198.867C753.461 198.867 752.727 199.188 752.133 199.828C751.539 200.461 751.172 201.352 751.031 202.5H757.383V202.336C757.32 201.234 757.023 200.383 756.492 199.781C755.961 199.172 755.242 198.867 754.336 198.867ZM768.199 199.266C767.871 199.211 767.516 199.184 767.133 199.184C765.711 199.184 764.746 199.789 764.238 201V210H762.07V197.32H764.18L764.215 198.785C764.926 197.652 765.934 197.086 767.238 197.086C767.66 197.086 767.98 197.141 768.199 197.25V199.266ZM789.609 210H787.348V202.113H778.746V210H776.496V192.938H778.746V200.273H787.348V192.938H789.609V210ZM798.527 210.234C796.809 210.234 795.41 209.672 794.332 208.547C793.254 207.414 792.715 205.902 792.715 204.012V203.613C792.715 202.355 792.953 201.234 793.43 200.25C793.914 199.258 794.586 198.484 795.445 197.93C796.312 197.367 797.25 197.086 798.258 197.086C799.906 197.086 801.188 197.629 802.102 198.715C803.016 199.801 803.473 201.355 803.473 203.379V204.281H794.883C794.914 205.531 795.277 206.543 795.973 207.316C796.676 208.082 797.566 208.465 798.645 208.465C799.41 208.465 800.059 208.309 800.59 207.996C801.121 207.684 801.586 207.27 801.984 206.754L803.309 207.785C802.246 209.418 800.652 210.234 798.527 210.234ZM798.258 198.867C797.383 198.867 796.648 199.188 796.055 199.828C795.461 200.461 795.094 201.352 794.953 202.5H801.305V202.336C801.242 201.234 800.945 200.383 800.414 199.781C799.883 199.172 799.164 198.867 798.258 198.867ZM813.82 210C813.695 209.75 813.594 209.305 813.516 208.664C812.508 209.711 811.305 210.234 809.906 210.234C808.656 210.234 807.629 209.883 806.824 209.18C806.027 208.469 805.629 207.57 805.629 206.484C805.629 205.164 806.129 204.141 807.129 203.414C808.137 202.68 809.551 202.312 811.371 202.312H813.48V201.316C813.48 200.559 813.254 199.957 812.801 199.512C812.348 199.059 811.68 198.832 810.797 198.832C810.023 198.832 809.375 199.027 808.852 199.418C808.328 199.809 808.066 200.281 808.066 200.836H805.887C805.887 200.203 806.109 199.594 806.555 199.008C807.008 198.414 807.617 197.945 808.383 197.602C809.156 197.258 810.004 197.086 810.926 197.086C812.387 197.086 813.531 197.453 814.359 198.188C815.188 198.914 815.617 199.918 815.648 201.199V207.035C815.648 208.199 815.797 209.125 816.094 209.812V210H813.82ZM810.223 208.348C810.902 208.348 811.547 208.172 812.156 207.82C812.766 207.469 813.207 207.012 813.48 206.449V203.848H811.781C809.125 203.848 807.797 204.625 807.797 206.18C807.797 206.859 808.023 207.391 808.477 207.773C808.93 208.156 809.512 208.348 810.223 208.348ZM821.402 210H819.234V192H821.402V210ZM827.824 194.25V197.32H830.191V198.996H827.824V206.859C827.824 207.367 827.93 207.75 828.141 208.008C828.352 208.258 828.711 208.383 829.219 208.383C829.469 208.383 829.812 208.336 830.25 208.242V210C829.68 210.156 829.125 210.234 828.586 210.234C827.617 210.234 826.887 209.941 826.395 209.355C825.902 208.77 825.656 207.938 825.656 206.859V198.996H823.348V197.32H825.656V194.25H827.824ZM834.902 198.855C835.863 197.676 837.113 197.086 838.652 197.086C841.332 197.086 842.684 198.598 842.707 201.621V210H840.539V201.609C840.531 200.695 840.32 200.02 839.906 199.582C839.5 199.145 838.863 198.926 837.996 198.926C837.293 198.926 836.676 199.113 836.145 199.488C835.613 199.863 835.199 200.355 834.902 200.965V210H832.734V192H834.902V198.855ZM861.891 202.113H854.496V208.16H863.086V210H852.246V192.938H862.969V194.789H854.496V200.273H861.891V202.113ZM864.785 203.555C864.785 201.609 865.246 200.047 866.168 198.867C867.09 197.68 868.297 197.086 869.789 197.086C871.273 197.086 872.449 197.594 873.316 198.609V192H875.484V210H873.492L873.387 208.641C872.52 209.703 871.312 210.234 869.766 210.234C868.297 210.234 867.098 209.633 866.168 208.43C865.246 207.227 864.785 205.656 864.785 203.719V203.555ZM866.953 203.801C866.953 205.238 867.25 206.363 867.844 207.176C868.438 207.988 869.258 208.395 870.305 208.395C871.68 208.395 872.684 207.777 873.316 206.543V200.719C872.668 199.523 871.672 198.926 870.328 198.926C869.266 198.926 868.438 199.336 867.844 200.156C867.25 200.977 866.953 202.191 866.953 203.801ZM886.688 208.746C885.844 209.738 884.605 210.234 882.973 210.234C881.621 210.234 880.59 209.844 879.879 209.062C879.176 208.273 878.82 207.109 878.812 205.57V197.32H880.98V205.512C880.98 207.434 881.762 208.395 883.324 208.395C884.98 208.395 886.082 207.777 886.629 206.543V197.32H888.797V210H886.734L886.688 208.746ZM897.188 208.465C897.961 208.465 898.637 208.23 899.215 207.762C899.793 207.293 900.113 206.707 900.176 206.004H902.227C902.188 206.73 901.938 207.422 901.477 208.078C901.016 208.734 900.398 209.258 899.625 209.648C898.859 210.039 898.047 210.234 897.188 210.234C895.461 210.234 894.086 209.66 893.062 208.512C892.047 207.355 891.539 205.777 891.539 203.777V203.414C891.539 202.18 891.766 201.082 892.219 200.121C892.672 199.16 893.32 198.414 894.164 197.883C895.016 197.352 896.02 197.086 897.176 197.086C898.598 197.086 899.777 197.512 900.715 198.363C901.66 199.215 902.164 200.32 902.227 201.68H900.176C900.113 200.859 899.801 200.188 899.238 199.664C898.684 199.133 897.996 198.867 897.176 198.867C896.074 198.867 895.219 199.266 894.609 200.062C894.008 200.852 893.707 201.996 893.707 203.496V203.906C893.707 205.367 894.008 206.492 894.609 207.281C895.211 208.07 896.07 208.465 897.188 208.465ZM912.492 210C912.367 209.75 912.266 209.305 912.188 208.664C911.18 209.711 909.977 210.234 908.578 210.234C907.328 210.234 906.301 209.883 905.496 209.18C904.699 208.469 904.301 207.57 904.301 206.484C904.301 205.164 904.801 204.141 905.801 203.414C906.809 202.68 908.223 202.312 910.043 202.312H912.152V201.316C912.152 200.559 911.926 199.957 911.473 199.512C911.02 199.059 910.352 198.832 909.469 198.832C908.695 198.832 908.047 199.027 907.523 199.418C907 199.809 906.738 200.281 906.738 200.836H904.559C904.559 200.203 904.781 199.594 905.227 199.008C905.68 198.414 906.289 197.945 907.055 197.602C907.828 197.258 908.676 197.086 909.598 197.086C911.059 197.086 912.203 197.453 913.031 198.188C913.859 198.914 914.289 199.918 914.32 201.199V207.035C914.32 208.199 914.469 209.125 914.766 209.812V210H912.492ZM908.895 208.348C909.574 208.348 910.219 208.172 910.828 207.82C911.438 207.469 911.879 207.012 912.152 206.449V203.848H910.453C907.797 203.848 906.469 204.625 906.469 206.18C906.469 206.859 906.695 207.391 907.148 207.773C907.602 208.156 908.184 208.348 908.895 208.348ZM920.66 194.25V197.32H923.027V198.996H920.66V206.859C920.66 207.367 920.766 207.75 920.977 208.008C921.188 208.258 921.547 208.383 922.055 208.383C922.305 208.383 922.648 208.336 923.086 208.242V210C922.516 210.156 921.961 210.234 921.422 210.234C920.453 210.234 919.723 209.941 919.23 209.355C918.738 208.77 918.492 207.938 918.492 206.859V198.996H916.184V197.32H918.492V194.25H920.66ZM927.926 210H925.758V197.32H927.926V210ZM925.582 193.957C925.582 193.605 925.688 193.309 925.898 193.066C926.117 192.824 926.438 192.703 926.859 192.703C927.281 192.703 927.602 192.824 927.82 193.066C928.039 193.309 928.148 193.605 928.148 193.957C928.148 194.309 928.039 194.602 927.82 194.836C927.602 195.07 927.281 195.188 926.859 195.188C926.438 195.188 926.117 195.07 925.898 194.836C925.688 194.602 925.582 194.309 925.582 193.957ZM930.832 203.543C930.832 202.301 931.074 201.184 931.559 200.191C932.051 199.199 932.73 198.434 933.598 197.895C934.473 197.355 935.469 197.086 936.586 197.086C938.312 197.086 939.707 197.684 940.77 198.879C941.84 200.074 942.375 201.664 942.375 203.648V203.801C942.375 205.035 942.137 206.145 941.66 207.129C941.191 208.105 940.516 208.867 939.633 209.414C938.758 209.961 937.75 210.234 936.609 210.234C934.891 210.234 933.496 209.637 932.426 208.441C931.363 207.246 930.832 205.664 930.832 203.695V203.543ZM933.012 203.801C933.012 205.207 933.336 206.336 933.984 207.188C934.641 208.039 935.516 208.465 936.609 208.465C937.711 208.465 938.586 208.035 939.234 207.176C939.883 206.309 940.207 205.098 940.207 203.543C940.207 202.152 939.875 201.027 939.211 200.168C938.555 199.301 937.68 198.867 936.586 198.867C935.516 198.867 934.652 199.293 933.996 200.145C933.34 200.996 933.012 202.215 933.012 203.801ZM947.145 197.32L947.215 198.914C948.184 197.695 949.449 197.086 951.012 197.086C953.691 197.086 955.043 198.598 955.066 201.621V210H952.898V201.609C952.891 200.695 952.68 200.02 952.266 199.582C951.859 199.145 951.223 198.926 950.355 198.926C949.652 198.926 949.035 199.113 948.504 199.488C947.973 199.863 947.559 200.355 947.262 200.965V210H945.094V197.32H947.145Z" fill="white"/>
<path d="M1120.89 58.9375L1126.46 72.8594L1132.04 58.9375H1134.96V76H1132.71V69.3555L1132.92 62.1836L1127.32 76H1125.6L1120.01 62.2188L1120.23 69.3555V76H1117.98V58.9375H1120.89ZM1143.86 76.2344C1142.14 76.2344 1140.74 75.6719 1139.66 74.5469C1138.58 73.4141 1138.04 71.9023 1138.04 70.0117V69.6133C1138.04 68.3555 1138.28 67.2344 1138.76 66.25C1139.24 65.2578 1139.91 64.4844 1140.77 63.9297C1141.64 63.3672 1142.58 63.0859 1143.59 63.0859C1145.23 63.0859 1146.52 63.6289 1147.43 64.7148C1148.34 65.8008 1148.8 67.3555 1148.8 69.3789V70.2812H1140.21C1140.24 71.5312 1140.61 72.543 1141.3 73.3164C1142 74.082 1142.89 74.4648 1143.97 74.4648C1144.74 74.4648 1145.39 74.3086 1145.92 73.9961C1146.45 73.6836 1146.91 73.2695 1147.31 72.7539L1148.64 73.7852C1147.57 75.418 1145.98 76.2344 1143.86 76.2344ZM1143.59 64.8672C1142.71 64.8672 1141.98 65.1875 1141.38 65.8281C1140.79 66.4609 1140.42 67.3516 1140.28 68.5H1146.63V68.3359C1146.57 67.2344 1146.27 66.3828 1145.74 65.7812C1145.21 65.1719 1144.49 64.8672 1143.59 64.8672ZM1153.37 63.3203L1153.44 64.9141C1154.41 63.6953 1155.68 63.0859 1157.24 63.0859C1159.92 63.0859 1161.27 64.5977 1161.29 67.6211V76H1159.12V67.6094C1159.12 66.6953 1158.91 66.0195 1158.49 65.582C1158.09 65.1445 1157.45 64.9258 1156.58 64.9258C1155.88 64.9258 1155.26 65.1133 1154.73 65.4883C1154.2 65.8633 1153.79 66.3555 1153.49 66.9648V76H1151.32V63.3203H1153.37ZM1167.5 60.25V63.3203H1169.87V64.9961H1167.5V72.8594C1167.5 73.3672 1167.61 73.75 1167.82 74.0078C1168.03 74.2578 1168.39 74.3828 1168.9 74.3828C1169.15 74.3828 1169.49 74.3359 1169.93 74.2422V76C1169.36 76.1562 1168.8 76.2344 1168.27 76.2344C1167.3 76.2344 1166.57 75.9414 1166.07 75.3555C1165.58 74.7695 1165.34 73.9375 1165.34 72.8594V64.9961H1163.03V63.3203H1165.34V60.25H1167.5ZM1180.24 76C1180.12 75.75 1180.02 75.3047 1179.94 74.6641C1178.93 75.7109 1177.73 76.2344 1176.33 76.2344C1175.08 76.2344 1174.05 75.8828 1173.25 75.1797C1172.45 74.4688 1172.05 73.5703 1172.05 72.4844C1172.05 71.1641 1172.55 70.1406 1173.55 69.4141C1174.56 68.6797 1175.97 68.3125 1177.79 68.3125H1179.9V67.3164C1179.9 66.5586 1179.68 65.957 1179.22 65.5117C1178.77 65.0586 1178.1 64.832 1177.22 64.832C1176.45 64.832 1175.8 65.0273 1175.27 65.418C1174.75 65.8086 1174.49 66.2812 1174.49 66.8359H1172.31C1172.31 66.2031 1172.53 65.5938 1172.98 65.0078C1173.43 64.4141 1174.04 63.9453 1174.8 63.6016C1175.58 63.2578 1176.43 63.0859 1177.35 63.0859C1178.81 63.0859 1179.95 63.4531 1180.78 64.1875C1181.61 64.9141 1182.04 65.918 1182.07 67.1992V73.0352C1182.07 74.1992 1182.22 75.125 1182.52 75.8125V76H1180.24ZM1176.64 74.3477C1177.32 74.3477 1177.97 74.1719 1178.58 73.8203C1179.19 73.4688 1179.63 73.0117 1179.9 72.4492V69.8477H1178.2C1175.55 69.8477 1174.22 70.625 1174.22 72.1797C1174.22 72.8594 1174.45 73.3906 1174.9 73.7734C1175.35 74.1562 1175.93 74.3477 1176.64 74.3477ZM1187.82 76H1185.66V58H1187.82V76ZM1210.71 76H1208.45V68.1133H1199.85V76H1197.6V58.9375H1199.85V66.2734H1208.45V58.9375H1210.71V76ZM1219.63 76.2344C1217.91 76.2344 1216.51 75.6719 1215.43 74.5469C1214.36 73.4141 1213.82 71.9023 1213.82 70.0117V69.6133C1213.82 68.3555 1214.05 67.2344 1214.53 66.25C1215.02 65.2578 1215.69 64.4844 1216.55 63.9297C1217.41 63.3672 1218.35 63.0859 1219.36 63.0859C1221.01 63.0859 1222.29 63.6289 1223.2 64.7148C1224.12 65.8008 1224.57 67.3555 1224.57 69.3789V70.2812H1215.98C1216.02 71.5312 1216.38 72.543 1217.07 73.3164C1217.78 74.082 1218.67 74.4648 1219.75 74.4648C1220.51 74.4648 1221.16 74.3086 1221.69 73.9961C1222.22 73.6836 1222.69 73.2695 1223.09 72.7539L1224.41 73.7852C1223.35 75.418 1221.75 76.2344 1219.63 76.2344ZM1219.36 64.8672C1218.48 64.8672 1217.75 65.1875 1217.16 65.8281C1216.56 66.4609 1216.2 67.3516 1216.05 68.5H1222.41V68.3359C1222.34 67.2344 1222.05 66.3828 1221.52 65.7812C1220.98 65.1719 1220.27 64.8672 1219.36 64.8672ZM1234.92 76C1234.8 75.75 1234.7 75.3047 1234.62 74.6641C1233.61 75.7109 1232.41 76.2344 1231.01 76.2344C1229.76 76.2344 1228.73 75.8828 1227.93 75.1797C1227.13 74.4688 1226.73 73.5703 1226.73 72.4844C1226.73 71.1641 1227.23 70.1406 1228.23 69.4141C1229.24 68.6797 1230.65 68.3125 1232.47 68.3125H1234.58V67.3164C1234.58 66.5586 1234.36 65.957 1233.9 65.5117C1233.45 65.0586 1232.78 64.832 1231.9 64.832C1231.12 64.832 1230.48 65.0273 1229.95 65.418C1229.43 65.8086 1229.17 66.2812 1229.17 66.8359H1226.99C1226.99 66.2031 1227.21 65.5938 1227.66 65.0078C1228.11 64.4141 1228.72 63.9453 1229.48 63.6016C1230.26 63.2578 1231.11 63.0859 1232.03 63.0859C1233.49 63.0859 1234.63 63.4531 1235.46 64.1875C1236.29 64.9141 1236.72 65.918 1236.75 67.1992V73.0352C1236.75 74.1992 1236.9 75.125 1237.2 75.8125V76H1234.92ZM1231.32 74.3477C1232 74.3477 1232.65 74.1719 1233.26 73.8203C1233.87 73.4688 1234.31 73.0117 1234.58 72.4492V69.8477H1232.88C1230.23 69.8477 1228.9 70.625 1228.9 72.1797C1228.9 72.8594 1229.12 73.3906 1229.58 73.7734C1230.03 74.1562 1230.61 74.3477 1231.32 74.3477ZM1242.5 76H1240.34V58H1242.5V76ZM1248.93 60.25V63.3203H1251.29V64.9961H1248.93V72.8594C1248.93 73.3672 1249.03 73.75 1249.24 74.0078C1249.45 74.2578 1249.81 74.3828 1250.32 74.3828C1250.57 74.3828 1250.91 74.3359 1251.35 74.2422V76C1250.78 76.1562 1250.23 76.2344 1249.69 76.2344C1248.72 76.2344 1247.99 75.9414 1247.5 75.3555C1247 74.7695 1246.76 73.9375 1246.76 72.8594V64.9961H1244.45V63.3203H1246.76V60.25H1248.93ZM1256 64.8555C1256.96 63.6758 1258.21 63.0859 1259.75 63.0859C1262.43 63.0859 1263.79 64.5977 1263.81 67.6211V76H1261.64V67.6094C1261.63 66.6953 1261.42 66.0195 1261.01 65.582C1260.6 65.1445 1259.96 64.9258 1259.1 64.9258C1258.39 64.9258 1257.78 65.1133 1257.25 65.4883C1256.71 65.8633 1256.3 66.3555 1256 66.9648V76H1253.84V58H1256V64.8555ZM1276.25 58.9375L1281.83 72.8594L1287.41 58.9375H1290.33V76H1288.08V69.3555L1288.29 62.1836L1282.69 76H1280.96L1275.38 62.2188L1275.6 69.3555V76H1273.35V58.9375H1276.25ZM1293.39 69.543C1293.39 68.3008 1293.63 67.1836 1294.11 66.1914C1294.61 65.1992 1295.29 64.4336 1296.15 63.8945C1297.03 63.3555 1298.02 63.0859 1299.14 63.0859C1300.87 63.0859 1302.26 63.6836 1303.32 64.8789C1304.39 66.0742 1304.93 67.6641 1304.93 69.6484V69.8008C1304.93 71.0352 1304.69 72.1445 1304.21 73.1289C1303.75 74.1055 1303.07 74.8672 1302.19 75.4141C1301.31 75.9609 1300.3 76.2344 1299.16 76.2344C1297.45 76.2344 1296.05 75.6367 1294.98 74.4414C1293.92 73.2461 1293.39 71.6641 1293.39 69.6953V69.543ZM1295.57 69.8008C1295.57 71.207 1295.89 72.3359 1296.54 73.1875C1297.2 74.0391 1298.07 74.4648 1299.16 74.4648C1300.27 74.4648 1301.14 74.0352 1301.79 73.1758C1302.44 72.3086 1302.76 71.0977 1302.76 69.543C1302.76 68.1523 1302.43 67.0273 1301.77 66.168C1301.11 65.3008 1300.23 64.8672 1299.14 64.8672C1298.07 64.8672 1297.21 65.293 1296.55 66.1445C1295.89 66.9961 1295.57 68.2148 1295.57 69.8008ZM1309.7 63.3203L1309.77 64.9141C1310.74 63.6953 1312 63.0859 1313.57 63.0859C1316.25 63.0859 1317.6 64.5977 1317.62 67.6211V76H1315.45V67.6094C1315.45 66.6953 1315.23 66.0195 1314.82 65.582C1314.41 65.1445 1313.78 64.9258 1312.91 64.9258C1312.21 64.9258 1311.59 65.1133 1311.06 65.4883C1310.53 65.8633 1310.11 66.3555 1309.82 66.9648V76H1307.65V63.3203H1309.7ZM1323.83 60.25V63.3203H1326.2V64.9961H1323.83V72.8594C1323.83 73.3672 1323.94 73.75 1324.15 74.0078C1324.36 74.2578 1324.72 74.3828 1325.23 74.3828C1325.48 74.3828 1325.82 74.3359 1326.26 74.2422V76C1325.69 76.1562 1325.13 76.2344 1324.59 76.2344C1323.62 76.2344 1322.89 75.9414 1322.4 75.3555C1321.91 74.7695 1321.66 73.9375 1321.66 72.8594V64.9961H1319.36V63.3203H1321.66V60.25H1323.83ZM1330.91 64.8555C1331.87 63.6758 1333.12 63.0859 1334.66 63.0859C1337.34 63.0859 1338.69 64.5977 1338.71 67.6211V76H1336.55V67.6094C1336.54 66.6953 1336.33 66.0195 1335.91 65.582C1335.51 65.1445 1334.87 64.9258 1334 64.9258C1333.3 64.9258 1332.68 65.1133 1332.15 65.4883C1331.62 65.8633 1331.21 66.3555 1330.91 66.9648V76H1328.74V58H1330.91V64.8555Z" fill="white"/>
<path d="M1120.23 136.32V143H1117.98V125.938H1124.27C1126.14 125.938 1127.6 126.414 1128.66 127.367C1129.72 128.32 1130.25 129.582 1130.25 131.152C1130.25 132.809 1129.73 134.086 1128.69 134.984C1127.66 135.875 1126.18 136.32 1124.25 136.32H1120.23ZM1120.23 134.48H1124.27C1125.48 134.48 1126.4 134.199 1127.04 133.637C1127.68 133.066 1128 132.246 1128 131.176C1128 130.16 1127.68 129.348 1127.04 128.738C1126.4 128.129 1125.52 127.812 1124.4 127.789H1120.23V134.48ZM1132.04 136.543C1132.04 135.301 1132.29 134.184 1132.77 133.191C1133.26 132.199 1133.94 131.434 1134.81 130.895C1135.68 130.355 1136.68 130.086 1137.8 130.086C1139.52 130.086 1140.92 130.684 1141.98 131.879C1143.05 133.074 1143.59 134.664 1143.59 136.648V136.801C1143.59 138.035 1143.35 139.145 1142.87 140.129C1142.4 141.105 1141.73 141.867 1140.84 142.414C1139.97 142.961 1138.96 143.234 1137.82 143.234C1136.1 143.234 1134.71 142.637 1133.64 141.441C1132.57 140.246 1132.04 138.664 1132.04 136.695V136.543ZM1134.22 136.801C1134.22 138.207 1134.55 139.336 1135.2 140.188C1135.85 141.039 1136.73 141.465 1137.82 141.465C1138.92 141.465 1139.8 141.035 1140.45 140.176C1141.09 139.309 1141.42 138.098 1141.42 136.543C1141.42 135.152 1141.09 134.027 1140.42 133.168C1139.77 132.301 1138.89 131.867 1137.8 131.867C1136.73 131.867 1135.86 132.293 1135.21 133.145C1134.55 133.996 1134.22 135.215 1134.22 136.801ZM1153.69 139.637C1153.69 139.051 1153.46 138.598 1153.02 138.277C1152.58 137.949 1151.81 137.668 1150.71 137.434C1149.62 137.199 1148.75 136.918 1148.1 136.59C1147.46 136.262 1146.98 135.871 1146.67 135.418C1146.36 134.965 1146.21 134.426 1146.21 133.801C1146.21 132.762 1146.65 131.883 1147.52 131.164C1148.41 130.445 1149.53 130.086 1150.9 130.086C1152.34 130.086 1153.5 130.457 1154.39 131.199C1155.29 131.941 1155.74 132.891 1155.74 134.047H1153.56C1153.56 133.453 1153.3 132.941 1152.8 132.512C1152.3 132.082 1151.66 131.867 1150.9 131.867C1150.11 131.867 1149.49 132.039 1149.05 132.383C1148.6 132.727 1148.38 133.176 1148.38 133.73C1148.38 134.254 1148.59 134.648 1149 134.914C1149.41 135.18 1150.16 135.434 1151.24 135.676C1152.32 135.918 1153.2 136.207 1153.88 136.543C1154.55 136.879 1155.04 137.285 1155.36 137.762C1155.69 138.23 1155.86 138.805 1155.86 139.484C1155.86 140.617 1155.4 141.527 1154.5 142.215C1153.59 142.895 1152.41 143.234 1150.97 143.234C1149.95 143.234 1149.05 143.055 1148.27 142.695C1147.49 142.336 1146.88 141.836 1146.43 141.195C1146 140.547 1145.78 139.848 1145.78 139.098H1147.95C1147.98 139.824 1148.27 140.402 1148.81 140.832C1149.36 141.254 1150.08 141.465 1150.97 141.465C1151.79 141.465 1152.45 141.301 1152.94 140.973C1153.44 140.637 1153.69 140.191 1153.69 139.637ZM1161.62 127.25V130.32H1163.99V131.996H1161.62V139.859C1161.62 140.367 1161.73 140.75 1161.94 141.008C1162.15 141.258 1162.51 141.383 1163.02 141.383C1163.27 141.383 1163.61 141.336 1164.05 141.242V143C1163.48 143.156 1162.92 143.234 1162.38 143.234C1161.41 143.234 1160.68 142.941 1160.19 142.355C1159.7 141.77 1159.45 140.938 1159.45 139.859V131.996H1157.14V130.32H1159.45V127.25H1161.62ZM1171.04 136.637H1165.32V134.867H1171.04V136.637ZM1173.5 143V125.938H1178.32C1179.8 125.938 1181.12 126.266 1182.26 126.922C1183.4 127.578 1184.28 128.512 1184.89 129.723C1185.52 130.934 1185.84 132.324 1185.84 133.895V134.984C1185.84 136.594 1185.53 138.004 1184.91 139.215C1184.29 140.426 1183.4 141.355 1182.25 142.004C1181.1 142.652 1179.76 142.984 1178.23 143H1173.5ZM1175.75 127.789V141.16H1178.12C1179.86 141.16 1181.2 140.621 1182.16 139.543C1183.13 138.465 1183.62 136.93 1183.62 134.938V133.941C1183.62 132.004 1183.16 130.5 1182.25 129.43C1181.34 128.352 1180.05 127.805 1178.38 127.789H1175.75ZM1188.34 136.543C1188.34 135.301 1188.58 134.184 1189.07 133.191C1189.56 132.199 1190.24 131.434 1191.11 130.895C1191.98 130.355 1192.98 130.086 1194.09 130.086C1195.82 130.086 1197.21 130.684 1198.28 131.879C1199.35 133.074 1199.88 134.664 1199.88 136.648V136.801C1199.88 138.035 1199.64 139.145 1199.17 140.129C1198.7 141.105 1198.02 141.867 1197.14 142.414C1196.27 142.961 1195.26 143.234 1194.12 143.234C1192.4 143.234 1191 142.637 1189.93 141.441C1188.87 140.246 1188.34 138.664 1188.34 136.695V136.543ZM1190.52 136.801C1190.52 138.207 1190.84 139.336 1191.49 140.188C1192.15 141.039 1193.02 141.465 1194.12 141.465C1195.22 141.465 1196.09 141.035 1196.74 140.176C1197.39 139.309 1197.71 138.098 1197.71 136.543C1197.71 135.152 1197.38 134.027 1196.72 133.168C1196.06 132.301 1195.19 131.867 1194.09 131.867C1193.02 131.867 1192.16 132.293 1191.5 133.145C1190.85 133.996 1190.52 135.215 1190.52 136.801ZM1207.69 141.465C1208.46 141.465 1209.14 141.23 1209.71 140.762C1210.29 140.293 1210.61 139.707 1210.68 139.004H1212.73C1212.69 139.73 1212.44 140.422 1211.98 141.078C1211.52 141.734 1210.9 142.258 1210.12 142.648C1209.36 143.039 1208.55 143.234 1207.69 143.234C1205.96 143.234 1204.59 142.66 1203.56 141.512C1202.55 140.355 1202.04 138.777 1202.04 136.777V136.414C1202.04 135.18 1202.27 134.082 1202.72 133.121C1203.17 132.16 1203.82 131.414 1204.66 130.883C1205.52 130.352 1206.52 130.086 1207.68 130.086C1209.1 130.086 1210.28 130.512 1211.21 131.363C1212.16 132.215 1212.66 133.32 1212.73 134.68H1210.68C1210.61 133.859 1210.3 133.188 1209.74 132.664C1209.18 132.133 1208.5 131.867 1207.68 131.867C1206.57 131.867 1205.72 132.266 1205.11 133.062C1204.51 133.852 1204.21 134.996 1204.21 136.496V136.906C1204.21 138.367 1204.51 139.492 1205.11 140.281C1205.71 141.07 1206.57 141.465 1207.69 141.465ZM1227.71 136.098H1223.71V143H1221.45V125.938H1227.09C1229.02 125.938 1230.49 126.375 1231.52 127.25C1232.56 128.125 1233.08 129.398 1233.08 131.07C1233.08 132.133 1232.79 133.059 1232.21 133.848C1231.64 134.637 1230.85 135.227 1229.82 135.617L1233.83 142.859V143H1231.42L1227.71 136.098ZM1223.71 134.258H1227.16C1228.28 134.258 1229.17 133.969 1229.82 133.391C1230.49 132.812 1230.82 132.039 1230.82 131.07C1230.82 130.016 1230.5 129.207 1229.87 128.645C1229.25 128.082 1228.34 127.797 1227.15 127.789H1223.71V134.258ZM1241.17 143.234C1239.45 143.234 1238.05 142.672 1236.97 141.547C1235.89 140.414 1235.36 138.902 1235.36 137.012V136.613C1235.36 135.355 1235.59 134.234 1236.07 133.25C1236.55 132.258 1237.23 131.484 1238.09 130.93C1238.95 130.367 1239.89 130.086 1240.9 130.086C1242.55 130.086 1243.83 130.629 1244.74 131.715C1245.66 132.801 1246.11 134.355 1246.11 136.379V137.281H1237.52C1237.55 138.531 1237.92 139.543 1238.61 140.316C1239.32 141.082 1240.21 141.465 1241.29 141.465C1242.05 141.465 1242.7 141.309 1243.23 140.996C1243.76 140.684 1244.23 140.27 1244.62 139.754L1245.95 140.785C1244.89 142.418 1243.29 143.234 1241.17 143.234ZM1240.9 131.867C1240.02 131.867 1239.29 132.188 1238.7 132.828C1238.1 133.461 1237.73 134.352 1237.59 135.5H1243.95V135.336C1243.88 134.234 1243.59 133.383 1243.05 132.781C1242.52 132.172 1241.8 131.867 1240.9 131.867ZM1256.02 139.637C1256.02 139.051 1255.79 138.598 1255.35 138.277C1254.91 137.949 1254.14 137.668 1253.04 137.434C1251.95 137.199 1251.07 136.918 1250.43 136.59C1249.79 136.262 1249.31 135.871 1249 135.418C1248.69 134.965 1248.54 134.426 1248.54 133.801C1248.54 132.762 1248.98 131.883 1249.85 131.164C1250.73 130.445 1251.86 130.086 1253.23 130.086C1254.66 130.086 1255.83 130.457 1256.72 131.199C1257.62 131.941 1258.07 132.891 1258.07 134.047H1255.89C1255.89 133.453 1255.63 132.941 1255.12 132.512C1254.62 132.082 1253.99 131.867 1253.23 131.867C1252.44 131.867 1251.82 132.039 1251.38 132.383C1250.93 132.727 1250.71 133.176 1250.71 133.73C1250.71 134.254 1250.91 134.648 1251.33 134.914C1251.74 135.18 1252.49 135.434 1253.57 135.676C1254.65 135.918 1255.53 136.207 1256.2 136.543C1256.88 136.879 1257.37 137.285 1257.69 137.762C1258.02 138.23 1258.18 138.805 1258.18 139.484C1258.18 140.617 1257.73 141.527 1256.82 142.215C1255.92 142.895 1254.74 143.234 1253.3 143.234C1252.28 143.234 1251.38 143.055 1250.6 142.695C1249.82 142.336 1249.21 141.836 1248.76 141.195C1248.32 140.547 1248.11 139.848 1248.11 139.098H1250.27C1250.31 139.824 1250.6 140.402 1251.14 140.832C1251.69 141.254 1252.41 141.465 1253.3 141.465C1254.12 141.465 1254.77 141.301 1255.27 140.973C1255.77 140.637 1256.02 140.191 1256.02 139.637ZM1263.36 143H1261.2V130.32H1263.36V143ZM1261.02 126.957C1261.02 126.605 1261.12 126.309 1261.34 126.066C1261.55 125.824 1261.88 125.703 1262.3 125.703C1262.72 125.703 1263.04 125.824 1263.26 126.066C1263.48 126.309 1263.59 126.605 1263.59 126.957C1263.59 127.309 1263.48 127.602 1263.26 127.836C1263.04 128.07 1262.72 128.188 1262.3 128.188C1261.88 128.188 1261.55 128.07 1261.34 127.836C1261.12 127.602 1261.02 127.309 1261.02 126.957ZM1266.32 136.555C1266.32 134.609 1266.78 133.047 1267.7 131.867C1268.62 130.68 1269.83 130.086 1271.32 130.086C1272.8 130.086 1273.98 130.594 1274.85 131.609V125H1277.02V143H1275.02L1274.92 141.641C1274.05 142.703 1272.84 143.234 1271.3 143.234C1269.83 143.234 1268.63 142.633 1267.7 141.43C1266.78 140.227 1266.32 138.656 1266.32 136.719V136.555ZM1268.48 136.801C1268.48 138.238 1268.78 139.363 1269.38 140.176C1269.97 140.988 1270.79 141.395 1271.84 141.395C1273.21 141.395 1274.21 140.777 1274.85 139.543V133.719C1274.2 132.523 1273.2 131.926 1271.86 131.926C1270.8 131.926 1269.97 132.336 1269.38 133.156C1268.78 133.977 1268.48 135.191 1268.48 136.801ZM1285.65 143.234C1283.93 143.234 1282.54 142.672 1281.46 141.547C1280.38 140.414 1279.84 138.902 1279.84 137.012V136.613C1279.84 135.355 1280.08 134.234 1280.55 133.25C1281.04 132.258 1281.71 131.484 1282.57 130.93C1283.44 130.367 1284.38 130.086 1285.38 130.086C1287.03 130.086 1288.31 130.629 1289.23 131.715C1290.14 132.801 1290.6 134.355 1290.6 136.379V137.281H1282.01C1282.04 138.531 1282.4 139.543 1283.1 140.316C1283.8 141.082 1284.69 141.465 1285.77 141.465C1286.54 141.465 1287.18 141.309 1287.71 140.996C1288.25 140.684 1288.71 140.27 1289.11 139.754L1290.43 140.785C1289.37 142.418 1287.78 143.234 1285.65 143.234ZM1285.38 131.867C1284.51 131.867 1283.77 132.188 1283.18 132.828C1282.59 133.461 1282.22 134.352 1282.08 135.5H1288.43V135.336C1288.37 134.234 1288.07 133.383 1287.54 132.781C1287.01 132.172 1286.29 131.867 1285.38 131.867ZM1295.17 130.32L1295.24 131.914C1296.21 130.695 1297.47 130.086 1299.04 130.086C1301.71 130.086 1303.07 131.598 1303.09 134.621V143H1300.92V134.609C1300.91 133.695 1300.7 133.02 1300.29 132.582C1299.88 132.145 1299.25 131.926 1298.38 131.926C1297.68 131.926 1297.06 132.113 1296.53 132.488C1296 132.863 1295.58 133.355 1295.29 133.965V143H1293.12V130.32H1295.17ZM1311.45 141.465C1312.22 141.465 1312.89 141.23 1313.47 140.762C1314.05 140.293 1314.37 139.707 1314.43 139.004H1316.48C1316.45 139.73 1316.2 140.422 1315.73 141.078C1315.27 141.734 1314.66 142.258 1313.88 142.648C1313.12 143.039 1312.3 143.234 1311.45 143.234C1309.72 143.234 1308.34 142.66 1307.32 141.512C1306.3 140.355 1305.8 138.777 1305.8 136.777V136.414C1305.8 135.18 1306.02 134.082 1306.48 133.121C1306.93 132.16 1307.58 131.414 1308.42 130.883C1309.27 130.352 1310.28 130.086 1311.43 130.086C1312.86 130.086 1314.04 130.512 1314.97 131.363C1315.92 132.215 1316.42 133.32 1316.48 134.68H1314.43C1314.37 133.859 1314.06 133.188 1313.5 132.664C1312.94 132.133 1312.25 131.867 1311.43 131.867C1310.33 131.867 1309.48 132.266 1308.87 133.062C1308.27 133.852 1307.96 134.996 1307.96 136.496V136.906C1307.96 138.367 1308.27 139.492 1308.87 140.281C1309.47 141.07 1310.33 141.465 1311.45 141.465ZM1323.07 139.824L1326.02 130.32H1328.34L1323.25 144.957C1322.46 147.066 1321.2 148.121 1319.48 148.121L1319.07 148.086L1318.27 147.934V146.176L1318.85 146.223C1319.59 146.223 1320.16 146.074 1320.56 145.777C1320.98 145.48 1321.32 144.938 1321.58 144.148L1322.06 142.859L1317.54 130.32H1319.91L1323.07 139.824Z" fill="white"/>
<path d="M1123.01 202.395C1121.08 201.84 1119.67 201.16 1118.79 200.355C1117.91 199.543 1117.48 198.543 1117.48 197.355C1117.48 196.012 1118.01 194.902 1119.08 194.027C1120.16 193.145 1121.56 192.703 1123.28 192.703C1124.45 192.703 1125.49 192.93 1126.41 193.383C1127.33 193.836 1128.04 194.461 1128.54 195.258C1129.05 196.055 1129.3 196.926 1129.3 197.871H1127.04C1127.04 196.84 1126.71 196.031 1126.05 195.445C1125.4 194.852 1124.47 194.555 1123.28 194.555C1122.17 194.555 1121.3 194.801 1120.68 195.293C1120.06 195.777 1119.75 196.453 1119.75 197.32C1119.75 198.016 1120.04 198.605 1120.63 199.09C1121.22 199.566 1122.23 200.004 1123.64 200.402C1125.06 200.801 1126.17 201.242 1126.97 201.727C1127.77 202.203 1128.37 202.762 1128.75 203.402C1129.14 204.043 1129.34 204.797 1129.34 205.664C1129.34 207.047 1128.8 208.156 1127.72 208.992C1126.64 209.82 1125.2 210.234 1123.39 210.234C1122.22 210.234 1121.13 210.012 1120.11 209.566C1119.1 209.113 1118.31 208.496 1117.76 207.715C1117.21 206.934 1116.94 206.047 1116.94 205.055H1119.2C1119.2 206.086 1119.58 206.902 1120.34 207.504C1121.1 208.098 1122.12 208.395 1123.39 208.395C1124.58 208.395 1125.49 208.152 1126.12 207.668C1126.76 207.184 1127.07 206.523 1127.07 205.688C1127.07 204.852 1126.78 204.207 1126.2 203.754C1125.61 203.293 1124.55 202.84 1123.01 202.395ZM1134.48 203.32V210H1132.23V192.938H1138.52C1140.39 192.938 1141.85 193.414 1142.91 194.367C1143.97 195.32 1144.5 196.582 1144.5 198.152C1144.5 199.809 1143.98 201.086 1142.94 201.984C1141.91 202.875 1140.43 203.32 1138.5 203.32H1134.48ZM1134.48 201.48H1138.52C1139.73 201.48 1140.65 201.199 1141.29 200.637C1141.93 200.066 1142.25 199.246 1142.25 198.176C1142.25 197.16 1141.93 196.348 1141.29 195.738C1140.65 195.129 1139.77 194.812 1138.65 194.789H1134.48V201.48ZM1160.5 202.02C1160.5 203.691 1160.21 205.152 1159.65 206.402C1159.09 207.645 1158.29 208.594 1157.26 209.25C1156.23 209.906 1155.03 210.234 1153.65 210.234C1152.31 210.234 1151.12 209.906 1150.08 209.25C1149.04 208.586 1148.23 207.645 1147.65 206.426C1147.08 205.199 1146.79 203.781 1146.77 202.172V200.941C1146.77 199.301 1147.06 197.852 1147.63 196.594C1148.2 195.336 1149 194.375 1150.04 193.711C1151.09 193.039 1152.29 192.703 1153.63 192.703C1155 192.703 1156.2 193.035 1157.24 193.699C1158.29 194.355 1159.09 195.312 1159.65 196.57C1160.21 197.82 1160.5 199.277 1160.5 200.941V202.02ZM1158.26 200.918C1158.26 198.895 1157.85 197.344 1157.04 196.266C1156.23 195.18 1155.09 194.637 1153.63 194.637C1152.21 194.637 1151.09 195.18 1150.27 196.266C1149.45 197.344 1149.04 198.844 1149.01 200.766V202.02C1149.01 203.98 1149.42 205.523 1150.24 206.648C1151.07 207.766 1152.21 208.324 1153.65 208.324C1155.11 208.324 1156.23 207.797 1157.03 206.742C1157.82 205.68 1158.23 204.16 1158.26 202.184V200.918ZM1170.13 203.098H1166.12V210H1163.86V192.938H1169.51C1171.43 192.938 1172.91 193.375 1173.94 194.25C1174.98 195.125 1175.5 196.398 1175.5 198.07C1175.5 199.133 1175.21 200.059 1174.63 200.848C1174.06 201.637 1173.26 202.227 1172.24 202.617L1176.25 209.859V210H1173.83L1170.13 203.098ZM1166.12 201.258H1169.58C1170.7 201.258 1171.58 200.969 1172.24 200.391C1172.9 199.812 1173.23 199.039 1173.23 198.07C1173.23 197.016 1172.92 196.207 1172.29 195.645C1171.66 195.082 1170.75 194.797 1169.57 194.789H1166.12V201.258ZM1189.51 194.789H1184.03V210H1181.79V194.789H1176.32V192.938H1189.51V194.789ZM1199.78 203.32V210H1197.53V192.938H1203.82C1205.69 192.938 1207.15 193.414 1208.2 194.367C1209.27 195.32 1209.8 196.582 1209.8 198.152C1209.8 199.809 1209.28 201.086 1208.24 201.984C1207.21 202.875 1205.73 203.32 1203.8 203.32H1199.78ZM1199.78 201.48H1203.82C1205.02 201.48 1205.95 201.199 1206.59 200.637C1207.23 200.066 1207.55 199.246 1207.55 198.176C1207.55 197.16 1207.23 196.348 1206.59 195.738C1205.95 195.129 1205.07 194.812 1203.95 194.789H1199.78V201.48ZM1218.46 199.266C1218.13 199.211 1217.77 199.184 1217.39 199.184C1215.97 199.184 1215 199.789 1214.5 201V210H1212.33V197.32H1214.44L1214.47 198.785C1215.18 197.652 1216.19 197.086 1217.5 197.086C1217.92 197.086 1218.24 197.141 1218.46 197.25V199.266ZM1219.65 203.543C1219.65 202.301 1219.89 201.184 1220.38 200.191C1220.87 199.199 1221.55 198.434 1222.42 197.895C1223.29 197.355 1224.29 197.086 1225.41 197.086C1227.13 197.086 1228.53 197.684 1229.59 198.879C1230.66 200.074 1231.2 201.664 1231.2 203.648V203.801C1231.2 205.035 1230.96 206.145 1230.48 207.129C1230.01 208.105 1229.34 208.867 1228.45 209.414C1227.58 209.961 1226.57 210.234 1225.43 210.234C1223.71 210.234 1222.32 209.637 1221.25 208.441C1220.18 207.246 1219.65 205.664 1219.65 203.695V203.543ZM1221.83 203.801C1221.83 205.207 1222.16 206.336 1222.8 207.188C1223.46 208.039 1224.34 208.465 1225.43 208.465C1226.53 208.465 1227.41 208.035 1228.05 207.176C1228.7 206.309 1229.03 205.098 1229.03 203.543C1229.03 202.152 1228.7 201.027 1228.03 200.168C1227.38 199.301 1226.5 198.867 1225.41 198.867C1224.34 198.867 1223.47 199.293 1222.82 200.145C1222.16 200.996 1221.83 202.215 1221.83 203.801ZM1233.4 203.555C1233.4 201.578 1233.86 200.008 1234.77 198.844C1235.68 197.672 1236.89 197.086 1238.4 197.086C1239.95 197.086 1241.16 197.633 1242.02 198.727L1242.13 197.32H1244.11V209.695C1244.11 211.336 1243.62 212.629 1242.64 213.574C1241.68 214.52 1240.37 214.992 1238.73 214.992C1237.82 214.992 1236.92 214.797 1236.05 214.406C1235.17 214.016 1234.5 213.48 1234.04 212.801L1235.17 211.5C1236.1 212.648 1237.23 213.223 1238.58 213.223C1239.63 213.223 1240.45 212.926 1241.04 212.332C1241.63 211.738 1241.93 210.902 1241.93 209.824V208.734C1241.06 209.734 1239.88 210.234 1238.38 210.234C1236.89 210.234 1235.69 209.637 1234.77 208.441C1233.86 207.246 1233.4 205.617 1233.4 203.555ZM1235.58 203.801C1235.58 205.23 1235.87 206.355 1236.46 207.176C1237.04 207.988 1237.86 208.395 1238.92 208.395C1240.29 208.395 1241.29 207.773 1241.93 206.531V200.742C1241.27 199.531 1240.27 198.926 1238.94 198.926C1237.89 198.926 1237.06 199.336 1236.47 200.156C1235.88 200.977 1235.58 202.191 1235.58 203.801ZM1253.52 199.266C1253.19 199.211 1252.84 199.184 1252.45 199.184C1251.03 199.184 1250.07 199.789 1249.56 201V210H1247.39V197.32H1249.5L1249.54 198.785C1250.25 197.652 1251.25 197.086 1252.56 197.086C1252.98 197.086 1253.3 197.141 1253.52 197.25V199.266ZM1262.88 210C1262.76 209.75 1262.66 209.305 1262.58 208.664C1261.57 209.711 1260.37 210.234 1258.97 210.234C1257.72 210.234 1256.69 209.883 1255.89 209.18C1255.09 208.469 1254.69 207.57 1254.69 206.484C1254.69 205.164 1255.19 204.141 1256.19 203.414C1257.2 202.68 1258.61 202.312 1260.43 202.312H1262.54V201.316C1262.54 200.559 1262.32 199.957 1261.86 199.512C1261.41 199.059 1260.74 198.832 1259.86 198.832C1259.09 198.832 1258.44 199.027 1257.91 199.418C1257.39 199.809 1257.13 200.281 1257.13 200.836H1254.95C1254.95 200.203 1255.17 199.594 1255.62 199.008C1256.07 198.414 1256.68 197.945 1257.45 197.602C1258.22 197.258 1259.07 197.086 1259.99 197.086C1261.45 197.086 1262.59 197.453 1263.42 198.188C1264.25 198.914 1264.68 199.918 1264.71 201.199V207.035C1264.71 208.199 1264.86 209.125 1265.16 209.812V210H1262.88ZM1259.29 208.348C1259.96 208.348 1260.61 208.172 1261.22 207.82C1261.83 207.469 1262.27 207.012 1262.54 206.449V203.848H1260.84C1258.19 203.848 1256.86 204.625 1256.86 206.18C1256.86 206.859 1257.09 207.391 1257.54 207.773C1257.99 208.156 1258.57 208.348 1259.29 208.348ZM1270.15 197.32L1270.21 198.727C1271.14 197.633 1272.39 197.086 1273.97 197.086C1275.74 197.086 1276.95 197.766 1277.59 199.125C1278.01 198.516 1278.56 198.023 1279.23 197.648C1279.91 197.273 1280.71 197.086 1281.63 197.086C1284.41 197.086 1285.83 198.559 1285.88 201.504V210H1283.71V201.633C1283.71 200.727 1283.5 200.051 1283.09 199.605C1282.67 199.152 1281.98 198.926 1281 198.926C1280.2 198.926 1279.53 199.168 1279 199.652C1278.46 200.129 1278.16 200.773 1278.07 201.586V210H1275.89V201.691C1275.89 199.848 1274.99 198.926 1273.18 198.926C1271.76 198.926 1270.79 199.531 1270.27 200.742V210H1268.1V197.32H1270.15Z" fill="white"/>
<path d="M1432 19H1422V9H1425V13.77L1431.98 7L1434 9.03L1427.15 16H1432V19Z" fill="black"/>
</svg>
