<svg width="890" height="164" viewBox="0 0 1440 264" fill="none" xmlns="http://www.w3.org/2000/svg">
<rect width="1640" height="264" fill="#C4C4C4"/>
<rect width="1640" height="264" fill="#00629B"/>
<rect width="1640" height="264" fill="#00629B"/>
<rect width="1640" height="264" fill="#00629B"/>
<path d="M82.9062 85.3438H75.4375V102H66.0625V56.5H82.9688C88.3438 56.5 92.4896 57.6979 95.4062 60.0938C98.3229 62.4896 99.7812 65.875 99.7812 70.25C99.7812 73.3542 99.1042 75.9479 97.75 78.0312C96.4167 80.0938 94.3854 81.7396 91.6562 82.9688L101.5 101.562V102H91.4375L82.9062 85.3438ZM75.4375 77.75H83C85.3542 77.75 87.1771 77.1562 88.4688 75.9688C89.7604 74.7604 90.4062 73.1042 90.4062 71C90.4062 68.8542 89.7917 67.1667 88.5625 65.9375C87.3542 64.7083 85.4896 64.0938 82.9688 64.0938H75.4375V77.75ZM134.312 82.2812H116.312V94.4688H137.438V102H106.938V56.5H137.375V64.0938H116.312V74.9375H134.312V82.2812ZM166.531 90.0625C166.531 88.2917 165.906 86.9375 164.656 86C163.406 85.0417 161.156 84.0417 157.906 83C154.656 81.9375 152.083 80.8958 150.188 79.875C145.021 77.0833 142.438 73.3229 142.438 68.5938C142.438 66.1354 143.125 63.9479 144.5 62.0312C145.896 60.0938 147.885 58.5833 150.469 57.5C153.073 56.4167 155.99 55.875 159.219 55.875C162.469 55.875 165.365 56.4688 167.906 57.6562C170.448 58.8229 172.417 60.4792 173.812 62.625C175.229 64.7708 175.938 67.2083 175.938 69.9375H166.562C166.562 67.8542 165.906 66.2396 164.594 65.0938C163.281 63.9271 161.438 63.3438 159.062 63.3438C156.771 63.3438 154.99 63.8333 153.719 64.8125C152.448 65.7708 151.812 67.0417 151.812 68.625C151.812 70.1042 152.552 71.3438 154.031 72.3438C155.531 73.3438 157.729 74.2812 160.625 75.1562C165.958 76.7604 169.844 78.75 172.281 81.125C174.719 83.5 175.938 86.4583 175.938 90C175.938 93.9375 174.448 97.0312 171.469 99.2812C168.49 101.51 164.479 102.625 159.438 102.625C155.938 102.625 152.75 101.99 149.875 100.719C147 99.4271 144.802 97.6667 143.281 95.4375C141.781 93.2083 141.031 90.625 141.031 87.6875H150.438C150.438 92.7083 153.438 95.2188 159.438 95.2188C161.667 95.2188 163.406 94.7708 164.656 93.875C165.906 92.9583 166.531 91.6875 166.531 90.0625ZM219.688 80.2812C219.688 84.7604 218.896 88.6875 217.312 92.0625C215.729 95.4375 213.458 98.0417 210.5 99.875C207.562 101.708 204.188 102.625 200.375 102.625C196.604 102.625 193.24 101.719 190.281 99.9062C187.323 98.0938 185.031 95.5104 183.406 92.1562C181.781 88.7812 180.958 84.9062 180.938 80.5312V78.2812C180.938 73.8021 181.74 69.8646 183.344 66.4688C184.969 63.0521 187.25 60.4375 190.188 58.625C193.146 56.7917 196.521 55.875 200.312 55.875C204.104 55.875 207.469 56.7917 210.406 58.625C213.365 60.4375 215.646 63.0521 217.25 66.4688C218.875 69.8646 219.688 73.7917 219.688 78.25V80.2812ZM210.188 78.2188C210.188 73.4479 209.333 69.8229 207.625 67.3438C205.917 64.8646 203.479 63.625 200.312 63.625C197.167 63.625 194.74 64.8542 193.031 67.3125C191.323 69.75 190.458 73.3333 190.438 78.0625V80.2812C190.438 84.9271 191.292 88.5312 193 91.0938C194.708 93.6562 197.167 94.9375 200.375 94.9375C203.521 94.9375 205.938 93.7083 207.625 91.25C209.312 88.7708 210.167 85.1667 210.188 80.4375V78.2188ZM260.938 56.5V86.4688C260.938 91.4479 259.375 95.3854 256.25 98.2812C253.146 101.177 248.896 102.625 243.5 102.625C238.188 102.625 233.969 101.219 230.844 98.4062C227.719 95.5938 226.125 91.7292 226.062 86.8125V56.5H235.438V86.5312C235.438 89.5104 236.146 91.6875 237.562 93.0625C239 94.4167 240.979 95.0938 243.5 95.0938C248.771 95.0938 251.448 92.3229 251.531 86.7812V56.5H260.938ZM285.469 85.3438H278V102H268.625V56.5H285.531C290.906 56.5 295.052 57.6979 297.969 60.0938C300.885 62.4896 302.344 65.875 302.344 70.25C302.344 73.3542 301.667 75.9479 300.312 78.0312C298.979 80.0938 296.948 81.7396 294.219 82.9688L304.062 101.562V102H294L285.469 85.3438ZM278 77.75H285.562C287.917 77.75 289.74 77.1562 291.031 75.9688C292.323 74.7604 292.969 73.1042 292.969 71C292.969 68.8542 292.354 67.1667 291.125 65.9375C289.917 64.7083 288.052 64.0938 285.531 64.0938H278V77.75ZM345.219 86.8438C344.865 91.7396 343.052 95.5938 339.781 98.4062C336.531 101.219 332.24 102.625 326.906 102.625C321.073 102.625 316.479 100.667 313.125 96.75C309.792 92.8125 308.125 87.4167 308.125 80.5625V77.7812C308.125 73.4062 308.896 69.5521 310.438 66.2188C311.979 62.8854 314.177 60.3333 317.031 58.5625C319.906 56.7708 323.24 55.875 327.031 55.875C332.281 55.875 336.51 57.2812 339.719 60.0938C342.927 62.9062 344.781 66.8542 345.281 71.9375H335.906C335.677 69 334.854 66.875 333.438 65.5625C332.042 64.2292 329.906 63.5625 327.031 63.5625C323.906 63.5625 321.562 64.6875 320 66.9375C318.458 69.1667 317.667 72.6354 317.625 77.3438V80.7812C317.625 85.6979 318.365 89.2917 319.844 91.5625C321.344 93.8333 323.698 94.9688 326.906 94.9688C329.802 94.9688 331.958 94.3125 333.375 93C334.812 91.6667 335.635 89.6146 335.844 86.8438H345.219ZM378.75 82.2812H360.75V94.4688H381.875V102H351.375V56.5H381.812V64.0938H360.75V74.9375H378.75V82.2812ZM410.969 90.0625C410.969 88.2917 410.344 86.9375 409.094 86C407.844 85.0417 405.594 84.0417 402.344 83C399.094 81.9375 396.521 80.8958 394.625 79.875C389.458 77.0833 386.875 73.3229 386.875 68.5938C386.875 66.1354 387.562 63.9479 388.938 62.0312C390.333 60.0938 392.323 58.5833 394.906 57.5C397.51 56.4167 400.427 55.875 403.656 55.875C406.906 55.875 409.802 56.4688 412.344 57.6562C414.885 58.8229 416.854 60.4792 418.25 62.625C419.667 64.7708 420.375 67.2083 420.375 69.9375H411C411 67.8542 410.344 66.2396 409.031 65.0938C407.719 63.9271 405.875 63.3438 403.5 63.3438C401.208 63.3438 399.427 63.8333 398.156 64.8125C396.885 65.7708 396.25 67.0417 396.25 68.625C396.25 70.1042 396.99 71.3438 398.469 72.3438C399.969 73.3438 402.167 74.2812 405.062 75.1562C410.396 76.7604 414.281 78.75 416.719 81.125C419.156 83.5 420.375 86.4583 420.375 90C420.375 93.9375 418.885 97.0312 415.906 99.2812C412.927 101.51 408.917 102.625 403.875 102.625C400.375 102.625 397.188 101.99 394.312 100.719C391.438 99.4271 389.24 97.6667 387.719 95.4375C386.219 93.2083 385.469 90.625 385.469 87.6875H394.875C394.875 92.7083 397.875 95.2188 403.875 95.2188C406.104 95.2188 407.844 94.7708 409.094 93.875C410.344 92.9583 410.969 91.6875 410.969 90.0625ZM71.1797 151.859H67.5234V162H66.0312V151.859H62.3828V150.625H71.1797V151.859ZM76.9688 162C76.8854 161.833 76.8177 161.536 76.7656 161.109C76.0938 161.807 75.2917 162.156 74.3594 162.156C73.526 162.156 72.8411 161.922 72.3047 161.453C71.7734 160.979 71.5078 160.38 71.5078 159.656C71.5078 158.776 71.8411 158.094 72.5078 157.609C73.1797 157.12 74.1224 156.875 75.3359 156.875H76.7422V156.211C76.7422 155.706 76.5911 155.305 76.2891 155.008C75.987 154.706 75.5417 154.555 74.9531 154.555C74.4375 154.555 74.0052 154.685 73.6562 154.945C73.3073 155.206 73.1328 155.521 73.1328 155.891H71.6797C71.6797 155.469 71.8281 155.062 72.125 154.672C72.4271 154.276 72.8333 153.964 73.3438 153.734C73.8594 153.505 74.4245 153.391 75.0391 153.391C76.013 153.391 76.776 153.635 77.3281 154.125C77.8802 154.609 78.1667 155.279 78.1875 156.133V160.023C78.1875 160.799 78.2865 161.417 78.4844 161.875V162H76.9688ZM74.5703 160.898C75.0234 160.898 75.4531 160.781 75.8594 160.547C76.2656 160.312 76.5599 160.008 76.7422 159.633V157.898H75.6094C73.8385 157.898 72.9531 158.417 72.9531 159.453C72.9531 159.906 73.1042 160.26 73.4062 160.516C73.7083 160.771 74.0964 160.898 74.5703 160.898ZM82.8125 158.086L81.9062 159.031V162H80.4609V150H81.9062V157.258L82.6797 156.328L85.3125 153.547H87.0703L83.7812 157.078L87.4531 162H85.7578L82.8125 158.086ZM91.9141 162.156C90.7682 162.156 89.8359 161.781 89.1172 161.031C88.3984 160.276 88.0391 159.268 88.0391 158.008V157.742C88.0391 156.904 88.1979 156.156 88.5156 155.5C88.8385 154.839 89.2865 154.323 89.8594 153.953C90.4375 153.578 91.0625 153.391 91.7344 153.391C92.8333 153.391 93.6875 153.753 94.2969 154.477C94.9062 155.201 95.2109 156.237 95.2109 157.586V158.188H89.4844C89.5052 159.021 89.7474 159.695 90.2109 160.211C90.6797 160.721 91.2734 160.977 91.9922 160.977C92.5026 160.977 92.9349 160.872 93.2891 160.664C93.6432 160.456 93.9531 160.18 94.2188 159.836L95.1016 160.523C94.3932 161.612 93.3307 162.156 91.9141 162.156ZM91.7344 154.578C91.151 154.578 90.6615 154.792 90.2656 155.219C89.8698 155.641 89.625 156.234 89.5312 157H93.7656V156.891C93.724 156.156 93.526 155.589 93.1719 155.188C92.8177 154.781 92.3385 154.578 91.7344 154.578ZM106.078 162C105.995 161.833 105.927 161.536 105.875 161.109C105.203 161.807 104.401 162.156 103.469 162.156C102.635 162.156 101.951 161.922 101.414 161.453C100.883 160.979 100.617 160.38 100.617 159.656C100.617 158.776 100.951 158.094 101.617 157.609C102.289 157.12 103.232 156.875 104.445 156.875H105.852V156.211C105.852 155.706 105.701 155.305 105.398 155.008C105.096 154.706 104.651 154.555 104.062 154.555C103.547 154.555 103.115 154.685 102.766 154.945C102.417 155.206 102.242 155.521 102.242 155.891H100.789C100.789 155.469 100.938 155.062 101.234 154.672C101.536 154.276 101.943 153.964 102.453 153.734C102.969 153.505 103.534 153.391 104.148 153.391C105.122 153.391 105.885 153.635 106.438 154.125C106.99 154.609 107.276 155.279 107.297 156.133V160.023C107.297 160.799 107.396 161.417 107.594 161.875V162H106.078ZM103.68 160.898C104.133 160.898 104.562 160.781 104.969 160.547C105.375 160.312 105.669 160.008 105.852 159.633V157.898H104.719C102.948 157.898 102.062 158.417 102.062 159.453C102.062 159.906 102.214 160.26 102.516 160.516C102.818 160.771 103.206 160.898 103.68 160.898ZM115.102 162H113.656V150H115.102V162ZM117.039 157.695C117.039 156.867 117.201 156.122 117.523 155.461C117.852 154.799 118.305 154.289 118.883 153.93C119.466 153.57 120.13 153.391 120.875 153.391C122.026 153.391 122.956 153.789 123.664 154.586C124.378 155.383 124.734 156.443 124.734 157.766V157.867C124.734 158.69 124.576 159.43 124.258 160.086C123.945 160.737 123.495 161.245 122.906 161.609C122.323 161.974 121.651 162.156 120.891 162.156C119.745 162.156 118.815 161.758 118.102 160.961C117.393 160.164 117.039 159.109 117.039 157.797V157.695ZM118.492 157.867C118.492 158.805 118.708 159.557 119.141 160.125C119.578 160.693 120.161 160.977 120.891 160.977C121.625 160.977 122.208 160.69 122.641 160.117C123.073 159.539 123.289 158.732 123.289 157.695C123.289 156.768 123.068 156.018 122.625 155.445C122.188 154.867 121.604 154.578 120.875 154.578C120.161 154.578 119.586 154.862 119.148 155.43C118.711 155.997 118.492 156.81 118.492 157.867ZM126.164 157.695C126.164 156.867 126.326 156.122 126.648 155.461C126.977 154.799 127.43 154.289 128.008 153.93C128.591 153.57 129.255 153.391 130 153.391C131.151 153.391 132.081 153.789 132.789 154.586C133.503 155.383 133.859 156.443 133.859 157.766V157.867C133.859 158.69 133.701 159.43 133.383 160.086C133.07 160.737 132.62 161.245 132.031 161.609C131.448 161.974 130.776 162.156 130.016 162.156C128.87 162.156 127.94 161.758 127.227 160.961C126.518 160.164 126.164 159.109 126.164 157.797V157.695ZM127.617 157.867C127.617 158.805 127.833 159.557 128.266 160.125C128.703 160.693 129.286 160.977 130.016 160.977C130.75 160.977 131.333 160.69 131.766 160.117C132.198 159.539 132.414 158.732 132.414 157.695C132.414 156.768 132.193 156.018 131.75 155.445C131.312 154.867 130.729 154.578 130 154.578C129.286 154.578 128.711 154.862 128.273 155.43C127.836 155.997 127.617 156.81 127.617 157.867ZM138.031 158.086L137.125 159.031V162H135.68V150H137.125V157.258L137.898 156.328L140.531 153.547H142.289L139 157.078L142.672 162H140.977L138.031 158.086ZM152.969 162C152.885 161.833 152.818 161.536 152.766 161.109C152.094 161.807 151.292 162.156 150.359 162.156C149.526 162.156 148.841 161.922 148.305 161.453C147.773 160.979 147.508 160.38 147.508 159.656C147.508 158.776 147.841 158.094 148.508 157.609C149.18 157.12 150.122 156.875 151.336 156.875H152.742V156.211C152.742 155.706 152.591 155.305 152.289 155.008C151.987 154.706 151.542 154.555 150.953 154.555C150.438 154.555 150.005 154.685 149.656 154.945C149.307 155.206 149.133 155.521 149.133 155.891H147.68C147.68 155.469 147.828 155.062 148.125 154.672C148.427 154.276 148.833 153.964 149.344 153.734C149.859 153.505 150.424 153.391 151.039 153.391C152.013 153.391 152.776 153.635 153.328 154.125C153.88 154.609 154.167 155.279 154.188 156.133V160.023C154.188 160.799 154.286 161.417 154.484 161.875V162H152.969ZM150.57 160.898C151.023 160.898 151.453 160.781 151.859 160.547C152.266 160.312 152.56 160.008 152.742 159.633V157.898H151.609C149.839 157.898 148.953 158.417 148.953 159.453C148.953 159.906 149.104 160.26 149.406 160.516C149.708 160.771 150.096 160.898 150.57 160.898ZM158.414 151.5V153.547H159.992V154.664H158.414V159.906C158.414 160.245 158.484 160.5 158.625 160.672C158.766 160.839 159.005 160.922 159.344 160.922C159.51 160.922 159.74 160.891 160.031 160.828V162C159.651 162.104 159.281 162.156 158.922 162.156C158.276 162.156 157.789 161.961 157.461 161.57C157.133 161.18 156.969 160.625 156.969 159.906V154.664H155.43V153.547H156.969V151.5H158.414ZM174.25 158.391C174.109 159.594 173.664 160.523 172.914 161.18C172.169 161.831 171.177 162.156 169.938 162.156C168.594 162.156 167.516 161.674 166.703 160.711C165.896 159.747 165.492 158.458 165.492 156.844V155.75C165.492 154.693 165.68 153.763 166.055 152.961C166.435 152.159 166.971 151.544 167.664 151.117C168.357 150.685 169.159 150.469 170.07 150.469C171.279 150.469 172.247 150.807 172.977 151.484C173.706 152.156 174.13 153.089 174.25 154.281H172.742C172.612 153.375 172.328 152.719 171.891 152.312C171.458 151.906 170.852 151.703 170.07 151.703C169.112 151.703 168.359 152.057 167.812 152.766C167.271 153.474 167 154.482 167 155.789V156.891C167 158.125 167.258 159.107 167.773 159.836C168.289 160.565 169.01 160.93 169.938 160.93C170.771 160.93 171.409 160.742 171.852 160.367C172.299 159.987 172.596 159.328 172.742 158.391H174.25ZM182.586 159.031H177.82L176.75 162H175.203L179.547 150.625H180.859L185.211 162H183.672L182.586 159.031ZM178.273 157.797H182.141L180.203 152.477L178.273 157.797ZM188.242 157.547V162H186.742V150.625H190.938C192.182 150.625 193.156 150.943 193.859 151.578C194.568 152.214 194.922 153.055 194.922 154.102C194.922 155.206 194.576 156.057 193.883 156.656C193.195 157.25 192.208 157.547 190.922 157.547H188.242ZM188.242 156.32H190.938C191.74 156.32 192.354 156.133 192.781 155.758C193.208 155.378 193.422 154.831 193.422 154.117C193.422 153.44 193.208 152.898 192.781 152.492C192.354 152.086 191.768 151.875 191.023 151.859H188.242V156.32ZM200.188 156.93C198.901 156.56 197.964 156.107 197.375 155.57C196.792 155.029 196.5 154.362 196.5 153.57C196.5 152.674 196.857 151.935 197.57 151.352C198.289 150.763 199.221 150.469 200.367 150.469C201.148 150.469 201.844 150.62 202.453 150.922C203.068 151.224 203.542 151.641 203.875 152.172C204.214 152.703 204.383 153.284 204.383 153.914H202.875C202.875 153.227 202.656 152.688 202.219 152.297C201.781 151.901 201.164 151.703 200.367 151.703C199.628 151.703 199.049 151.867 198.633 152.195C198.221 152.518 198.016 152.969 198.016 153.547C198.016 154.01 198.211 154.404 198.602 154.727C198.997 155.044 199.667 155.336 200.609 155.602C201.557 155.867 202.297 156.161 202.828 156.484C203.365 156.802 203.76 157.174 204.016 157.602C204.276 158.029 204.406 158.531 204.406 159.109C204.406 160.031 204.047 160.771 203.328 161.328C202.609 161.88 201.648 162.156 200.445 162.156C199.664 162.156 198.935 162.008 198.258 161.711C197.581 161.409 197.057 160.997 196.688 160.477C196.323 159.956 196.141 159.365 196.141 158.703H197.648C197.648 159.391 197.901 159.935 198.406 160.336C198.917 160.732 199.596 160.93 200.445 160.93C201.237 160.93 201.844 160.768 202.266 160.445C202.688 160.122 202.898 159.682 202.898 159.125C202.898 158.568 202.703 158.138 202.312 157.836C201.922 157.529 201.214 157.227 200.188 156.93ZM215.297 162C215.214 161.833 215.146 161.536 215.094 161.109C214.422 161.807 213.62 162.156 212.688 162.156C211.854 162.156 211.169 161.922 210.633 161.453C210.102 160.979 209.836 160.38 209.836 159.656C209.836 158.776 210.169 158.094 210.836 157.609C211.508 157.12 212.451 156.875 213.664 156.875H215.07V156.211C215.07 155.706 214.919 155.305 214.617 155.008C214.315 154.706 213.87 154.555 213.281 154.555C212.766 154.555 212.333 154.685 211.984 154.945C211.635 155.206 211.461 155.521 211.461 155.891H210.008C210.008 155.469 210.156 155.062 210.453 154.672C210.755 154.276 211.161 153.964 211.672 153.734C212.188 153.505 212.753 153.391 213.367 153.391C214.341 153.391 215.104 153.635 215.656 154.125C216.208 154.609 216.495 155.279 216.516 156.133V160.023C216.516 160.799 216.615 161.417 216.812 161.875V162H215.297ZM212.898 160.898C213.352 160.898 213.781 160.781 214.188 160.547C214.594 160.312 214.888 160.008 215.07 159.633V157.898H213.938C212.167 157.898 211.281 158.417 211.281 159.453C211.281 159.906 211.432 160.26 211.734 160.516C212.036 160.771 212.424 160.898 212.898 160.898ZM225.922 157.867C225.922 159.154 225.628 160.19 225.039 160.977C224.451 161.763 223.654 162.156 222.648 162.156C221.622 162.156 220.815 161.831 220.227 161.18V165.25H218.781V153.547H220.102L220.172 154.484C220.76 153.755 221.578 153.391 222.625 153.391C223.641 153.391 224.443 153.773 225.031 154.539C225.625 155.305 225.922 156.37 225.922 157.734V157.867ZM224.477 157.703C224.477 156.75 224.273 155.997 223.867 155.445C223.461 154.893 222.904 154.617 222.195 154.617C221.32 154.617 220.664 155.005 220.227 155.781V159.82C220.659 160.591 221.32 160.977 222.211 160.977C222.904 160.977 223.453 160.703 223.859 160.156C224.271 159.604 224.477 158.786 224.477 157.703ZM234.906 157.867C234.906 159.154 234.612 160.19 234.023 160.977C233.435 161.763 232.638 162.156 231.633 162.156C230.607 162.156 229.799 161.831 229.211 161.18V165.25H227.766V153.547H229.086L229.156 154.484C229.745 153.755 230.562 153.391 231.609 153.391C232.625 153.391 233.427 153.773 234.016 154.539C234.609 155.305 234.906 156.37 234.906 157.734V157.867ZM233.461 157.703C233.461 156.75 233.258 155.997 232.852 155.445C232.445 154.893 231.888 154.617 231.18 154.617C230.305 154.617 229.648 155.005 229.211 155.781V159.82C229.643 160.591 230.305 160.977 231.195 160.977C231.888 160.977 232.438 160.703 232.844 160.156C233.255 159.604 233.461 158.786 233.461 157.703ZM240.836 154.844C240.617 154.807 240.38 154.789 240.125 154.789C239.177 154.789 238.534 155.193 238.195 156V162H236.75V153.547H238.156L238.18 154.523C238.654 153.768 239.326 153.391 240.195 153.391C240.477 153.391 240.69 153.427 240.836 153.5V154.844ZM241.633 157.695C241.633 156.867 241.794 156.122 242.117 155.461C242.445 154.799 242.898 154.289 243.477 153.93C244.06 153.57 244.724 153.391 245.469 153.391C246.62 153.391 247.549 153.789 248.258 154.586C248.971 155.383 249.328 156.443 249.328 157.766V157.867C249.328 158.69 249.169 159.43 248.852 160.086C248.539 160.737 248.089 161.245 247.5 161.609C246.917 161.974 246.245 162.156 245.484 162.156C244.339 162.156 243.409 161.758 242.695 160.961C241.987 160.164 241.633 159.109 241.633 157.797V157.695ZM243.086 157.867C243.086 158.805 243.302 159.557 243.734 160.125C244.172 160.693 244.755 160.977 245.484 160.977C246.219 160.977 246.802 160.69 247.234 160.117C247.667 159.539 247.883 158.732 247.883 157.695C247.883 156.768 247.661 156.018 247.219 155.445C246.781 154.867 246.198 154.578 245.469 154.578C244.755 154.578 244.18 154.862 243.742 155.43C243.305 155.997 243.086 156.81 243.086 157.867ZM253.805 160.039L255.898 153.547H257.375L254.344 162H253.242L250.18 153.547H251.656L253.805 160.039ZM262.164 162.156C261.018 162.156 260.086 161.781 259.367 161.031C258.648 160.276 258.289 159.268 258.289 158.008V157.742C258.289 156.904 258.448 156.156 258.766 155.5C259.089 154.839 259.536 154.323 260.109 153.953C260.688 153.578 261.312 153.391 261.984 153.391C263.083 153.391 263.938 153.753 264.547 154.477C265.156 155.201 265.461 156.237 265.461 157.586V158.188H259.734C259.755 159.021 259.997 159.695 260.461 160.211C260.93 160.721 261.523 160.977 262.242 160.977C262.753 160.977 263.185 160.872 263.539 160.664C263.893 160.456 264.203 160.18 264.469 159.836L265.352 160.523C264.643 161.612 263.581 162.156 262.164 162.156ZM261.984 154.578C261.401 154.578 260.911 154.792 260.516 155.219C260.12 155.641 259.875 156.234 259.781 157H264.016V156.891C263.974 156.156 263.776 155.589 263.422 155.188C263.068 154.781 262.589 154.578 261.984 154.578ZM266.789 157.703C266.789 156.406 267.096 155.365 267.711 154.578C268.326 153.786 269.13 153.391 270.125 153.391C271.115 153.391 271.898 153.729 272.477 154.406V150H273.922V162H272.594L272.523 161.094C271.945 161.802 271.141 162.156 270.109 162.156C269.13 162.156 268.331 161.755 267.711 160.953C267.096 160.151 266.789 159.104 266.789 157.812V157.703ZM268.234 157.867C268.234 158.826 268.432 159.576 268.828 160.117C269.224 160.659 269.771 160.93 270.469 160.93C271.385 160.93 272.055 160.518 272.477 159.695V155.812C272.044 155.016 271.38 154.617 270.484 154.617C269.776 154.617 269.224 154.891 268.828 155.438C268.432 155.984 268.234 156.794 268.234 157.867ZM283.648 162.156C282.503 162.156 281.57 161.781 280.852 161.031C280.133 160.276 279.773 159.268 279.773 158.008V157.742C279.773 156.904 279.932 156.156 280.25 155.5C280.573 154.839 281.021 154.323 281.594 153.953C282.172 153.578 282.797 153.391 283.469 153.391C284.568 153.391 285.422 153.753 286.031 154.477C286.641 155.201 286.945 156.237 286.945 157.586V158.188H281.219C281.24 159.021 281.482 159.695 281.945 160.211C282.414 160.721 283.008 160.977 283.727 160.977C284.237 160.977 284.669 160.872 285.023 160.664C285.378 160.456 285.688 160.18 285.953 159.836L286.836 160.523C286.128 161.612 285.065 162.156 283.648 162.156ZM283.469 154.578C282.885 154.578 282.396 154.792 282 155.219C281.604 155.641 281.359 156.234 281.266 157H285.5V156.891C285.458 156.156 285.26 155.589 284.906 155.188C284.552 154.781 284.073 154.578 283.469 154.578ZM291.461 156.633L293.336 153.547H295.023L292.258 157.727L295.109 162H293.438L291.484 158.836L289.531 162H287.852L290.703 157.727L287.938 153.547H289.609L291.461 156.633ZM298.523 151.5V153.547H300.102V154.664H298.523V159.906C298.523 160.245 298.594 160.5 298.734 160.672C298.875 160.839 299.115 160.922 299.453 160.922C299.62 160.922 299.849 160.891 300.141 160.828V162C299.76 162.104 299.391 162.156 299.031 162.156C298.385 162.156 297.898 161.961 297.57 161.57C297.242 161.18 297.078 160.625 297.078 159.906V154.664H295.539V153.547H297.078V151.5H298.523ZM305.305 162.156C304.159 162.156 303.227 161.781 302.508 161.031C301.789 160.276 301.43 159.268 301.43 158.008V157.742C301.43 156.904 301.589 156.156 301.906 155.5C302.229 154.839 302.677 154.323 303.25 153.953C303.828 153.578 304.453 153.391 305.125 153.391C306.224 153.391 307.078 153.753 307.688 154.477C308.297 155.201 308.602 156.237 308.602 157.586V158.188H302.875C302.896 159.021 303.138 159.695 303.602 160.211C304.07 160.721 304.664 160.977 305.383 160.977C305.893 160.977 306.326 160.872 306.68 160.664C307.034 160.456 307.344 160.18 307.609 159.836L308.492 160.523C307.784 161.612 306.721 162.156 305.305 162.156ZM305.125 154.578C304.542 154.578 304.052 154.792 303.656 155.219C303.26 155.641 303.016 156.234 302.922 157H307.156V156.891C307.115 156.156 306.917 155.589 306.562 155.188C306.208 154.781 305.729 154.578 305.125 154.578ZM314.367 154.844C314.148 154.807 313.911 154.789 313.656 154.789C312.708 154.789 312.065 155.193 311.727 156V162H310.281V153.547H311.688L311.711 154.523C312.185 153.768 312.857 153.391 313.727 153.391C314.008 153.391 314.221 153.427 314.367 153.5V154.844ZM317.07 153.547L317.117 154.609C317.763 153.797 318.607 153.391 319.648 153.391C321.435 153.391 322.336 154.398 322.352 156.414V162H320.906V156.406C320.901 155.797 320.76 155.346 320.484 155.055C320.214 154.763 319.789 154.617 319.211 154.617C318.742 154.617 318.331 154.742 317.977 154.992C317.622 155.242 317.346 155.57 317.148 155.977V162H315.703V153.547H317.07ZM329.75 162C329.667 161.833 329.599 161.536 329.547 161.109C328.875 161.807 328.073 162.156 327.141 162.156C326.307 162.156 325.622 161.922 325.086 161.453C324.555 160.979 324.289 160.38 324.289 159.656C324.289 158.776 324.622 158.094 325.289 157.609C325.961 157.12 326.904 156.875 328.117 156.875H329.523V156.211C329.523 155.706 329.372 155.305 329.07 155.008C328.768 154.706 328.323 154.555 327.734 154.555C327.219 154.555 326.786 154.685 326.438 154.945C326.089 155.206 325.914 155.521 325.914 155.891H324.461C324.461 155.469 324.609 155.062 324.906 154.672C325.208 154.276 325.615 153.964 326.125 153.734C326.641 153.505 327.206 153.391 327.82 153.391C328.794 153.391 329.557 153.635 330.109 154.125C330.661 154.609 330.948 155.279 330.969 156.133V160.023C330.969 160.799 331.068 161.417 331.266 161.875V162H329.75ZM327.352 160.898C327.805 160.898 328.234 160.781 328.641 160.547C329.047 160.312 329.341 160.008 329.523 159.633V157.898H328.391C326.62 157.898 325.734 158.417 325.734 159.453C325.734 159.906 325.885 160.26 326.188 160.516C326.49 160.771 326.878 160.898 327.352 160.898ZM334.805 162H333.359V150H334.805V162ZM345.18 154.844C344.961 154.807 344.724 154.789 344.469 154.789C343.521 154.789 342.878 155.193 342.539 156V162H341.094V153.547H342.5L342.523 154.523C342.997 153.768 343.669 153.391 344.539 153.391C344.82 153.391 345.034 153.427 345.18 153.5V154.844ZM349.867 162.156C348.721 162.156 347.789 161.781 347.07 161.031C346.352 160.276 345.992 159.268 345.992 158.008V157.742C345.992 156.904 346.151 156.156 346.469 155.5C346.792 154.839 347.24 154.323 347.812 153.953C348.391 153.578 349.016 153.391 349.688 153.391C350.786 153.391 351.641 153.753 352.25 154.477C352.859 155.201 353.164 156.237 353.164 157.586V158.188H347.438C347.458 159.021 347.701 159.695 348.164 160.211C348.633 160.721 349.227 160.977 349.945 160.977C350.456 160.977 350.888 160.872 351.242 160.664C351.596 160.456 351.906 160.18 352.172 159.836L353.055 160.523C352.346 161.612 351.284 162.156 349.867 162.156ZM349.688 154.578C349.104 154.578 348.615 154.792 348.219 155.219C347.823 155.641 347.578 156.234 347.484 157H351.719V156.891C351.677 156.156 351.479 155.589 351.125 155.188C350.771 154.781 350.292 154.578 349.688 154.578ZM359.766 159.758C359.766 159.367 359.617 159.065 359.32 158.852C359.029 158.633 358.516 158.445 357.781 158.289C357.052 158.133 356.471 157.945 356.039 157.727C355.612 157.508 355.294 157.247 355.086 156.945C354.883 156.643 354.781 156.284 354.781 155.867C354.781 155.174 355.073 154.589 355.656 154.109C356.245 153.63 356.995 153.391 357.906 153.391C358.865 153.391 359.641 153.638 360.234 154.133C360.833 154.628 361.133 155.26 361.133 156.031H359.68C359.68 155.635 359.51 155.294 359.172 155.008C358.839 154.721 358.417 154.578 357.906 154.578C357.38 154.578 356.969 154.693 356.672 154.922C356.375 155.151 356.227 155.451 356.227 155.82C356.227 156.169 356.365 156.432 356.641 156.609C356.917 156.786 357.414 156.956 358.133 157.117C358.857 157.279 359.443 157.471 359.891 157.695C360.339 157.919 360.669 158.19 360.883 158.508C361.102 158.82 361.211 159.203 361.211 159.656C361.211 160.411 360.909 161.018 360.305 161.477C359.701 161.93 358.917 162.156 357.953 162.156C357.276 162.156 356.677 162.036 356.156 161.797C355.635 161.557 355.227 161.224 354.93 160.797C354.638 160.365 354.492 159.898 354.492 159.398H355.938C355.964 159.883 356.156 160.268 356.516 160.555C356.88 160.836 357.359 160.977 357.953 160.977C358.5 160.977 358.938 160.867 359.266 160.648C359.599 160.424 359.766 160.128 359.766 159.758ZM362.711 157.695C362.711 156.867 362.872 156.122 363.195 155.461C363.523 154.799 363.977 154.289 364.555 153.93C365.138 153.57 365.802 153.391 366.547 153.391C367.698 153.391 368.628 153.789 369.336 154.586C370.049 155.383 370.406 156.443 370.406 157.766V157.867C370.406 158.69 370.247 159.43 369.93 160.086C369.617 160.737 369.167 161.245 368.578 161.609C367.995 161.974 367.323 162.156 366.562 162.156C365.417 162.156 364.487 161.758 363.773 160.961C363.065 160.164 362.711 159.109 362.711 157.797V157.695ZM364.164 157.867C364.164 158.805 364.38 159.557 364.812 160.125C365.25 160.693 365.833 160.977 366.562 160.977C367.297 160.977 367.88 160.69 368.312 160.117C368.745 159.539 368.961 158.732 368.961 157.695C368.961 156.768 368.74 156.018 368.297 155.445C367.859 154.867 367.276 154.578 366.547 154.578C365.833 154.578 365.258 154.862 364.82 155.43C364.383 155.997 364.164 156.81 364.164 157.867ZM377.438 161.164C376.875 161.826 376.049 162.156 374.961 162.156C374.06 162.156 373.372 161.896 372.898 161.375C372.43 160.849 372.193 160.073 372.188 159.047V153.547H373.633V159.008C373.633 160.289 374.154 160.93 375.195 160.93C376.299 160.93 377.034 160.518 377.398 159.695V153.547H378.844V162H377.469L377.438 161.164ZM385.133 154.844C384.914 154.807 384.677 154.789 384.422 154.789C383.474 154.789 382.831 155.193 382.492 156V162H381.047V153.547H382.453L382.477 154.523C382.951 153.768 383.622 153.391 384.492 153.391C384.773 153.391 384.987 153.427 385.133 153.5V154.844ZM389.703 160.977C390.219 160.977 390.669 160.82 391.055 160.508C391.44 160.195 391.654 159.805 391.695 159.336H393.062C393.036 159.82 392.87 160.281 392.562 160.719C392.255 161.156 391.844 161.505 391.328 161.766C390.818 162.026 390.276 162.156 389.703 162.156C388.552 162.156 387.635 161.773 386.953 161.008C386.276 160.237 385.938 159.185 385.938 157.852V157.609C385.938 156.786 386.089 156.055 386.391 155.414C386.693 154.773 387.125 154.276 387.688 153.922C388.255 153.568 388.924 153.391 389.695 153.391C390.643 153.391 391.43 153.674 392.055 154.242C392.685 154.81 393.021 155.547 393.062 156.453H391.695C391.654 155.906 391.445 155.458 391.07 155.109C390.701 154.755 390.242 154.578 389.695 154.578C388.961 154.578 388.391 154.844 387.984 155.375C387.583 155.901 387.383 156.664 387.383 157.664V157.938C387.383 158.911 387.583 159.661 387.984 160.188C388.385 160.714 388.958 160.977 389.703 160.977ZM398.195 162.156C397.049 162.156 396.117 161.781 395.398 161.031C394.68 160.276 394.32 159.268 394.32 158.008V157.742C394.32 156.904 394.479 156.156 394.797 155.5C395.12 154.839 395.568 154.323 396.141 153.953C396.719 153.578 397.344 153.391 398.016 153.391C399.115 153.391 399.969 153.753 400.578 154.477C401.188 155.201 401.492 156.237 401.492 157.586V158.188H395.766C395.786 159.021 396.029 159.695 396.492 160.211C396.961 160.721 397.555 160.977 398.273 160.977C398.784 160.977 399.216 160.872 399.57 160.664C399.924 160.456 400.234 160.18 400.5 159.836L401.383 160.523C400.674 161.612 399.612 162.156 398.195 162.156ZM398.016 154.578C397.432 154.578 396.943 154.792 396.547 155.219C396.151 155.641 395.906 156.234 395.812 157H400.047V156.891C400.005 156.156 399.807 155.589 399.453 155.188C399.099 154.781 398.62 154.578 398.016 154.578ZM408.094 159.758C408.094 159.367 407.945 159.065 407.648 158.852C407.357 158.633 406.844 158.445 406.109 158.289C405.38 158.133 404.799 157.945 404.367 157.727C403.94 157.508 403.622 157.247 403.414 156.945C403.211 156.643 403.109 156.284 403.109 155.867C403.109 155.174 403.401 154.589 403.984 154.109C404.573 153.63 405.323 153.391 406.234 153.391C407.193 153.391 407.969 153.638 408.562 154.133C409.161 154.628 409.461 155.26 409.461 156.031H408.008C408.008 155.635 407.839 155.294 407.5 155.008C407.167 154.721 406.745 154.578 406.234 154.578C405.708 154.578 405.297 154.693 405 154.922C404.703 155.151 404.555 155.451 404.555 155.82C404.555 156.169 404.693 156.432 404.969 156.609C405.245 156.786 405.742 156.956 406.461 157.117C407.185 157.279 407.771 157.471 408.219 157.695C408.667 157.919 408.997 158.19 409.211 158.508C409.43 158.82 409.539 159.203 409.539 159.656C409.539 160.411 409.237 161.018 408.633 161.477C408.029 161.93 407.245 162.156 406.281 162.156C405.604 162.156 405.005 162.036 404.484 161.797C403.964 161.557 403.555 161.224 403.258 160.797C402.966 160.365 402.82 159.898 402.82 159.398H404.266C404.292 159.883 404.484 160.268 404.844 160.555C405.208 160.836 405.688 160.977 406.281 160.977C406.828 160.977 407.266 160.867 407.594 160.648C407.927 160.424 408.094 160.128 408.094 159.758ZM413.039 158.789H411.734L411.633 150.625H413.148L413.039 158.789ZM411.578 161.273C411.578 161.039 411.648 160.844 411.789 160.688C411.935 160.526 412.148 160.445 412.43 160.445C412.711 160.445 412.924 160.526 413.07 160.688C413.216 160.844 413.289 161.039 413.289 161.273C413.289 161.508 413.216 161.703 413.07 161.859C412.924 162.01 412.711 162.086 412.43 162.086C412.148 162.086 411.935 162.01 411.789 161.859C411.648 161.703 411.578 161.508 411.578 161.273Z" fill="white"/>
<path d="M731.391 68.4648H724.23V76H721.98V58.9375H732.551V60.7891H724.23V66.625H731.391V68.4648ZM734.074 69.543C734.074 68.3008 734.316 67.1836 734.801 66.1914C735.293 65.1992 735.973 64.4336 736.84 63.8945C737.715 63.3555 738.711 63.0859 739.828 63.0859C741.555 63.0859 742.949 63.6836 744.012 64.8789C745.082 66.0742 745.617 67.6641 745.617 69.6484V69.8008C745.617 71.0352 745.379 72.1445 744.902 73.1289C744.434 74.1055 743.758 74.8672 742.875 75.4141C742 75.9609 740.992 76.2344 739.852 76.2344C738.133 76.2344 736.738 75.6367 735.668 74.4414C734.605 73.2461 734.074 71.6641 734.074 69.6953V69.543ZM736.254 69.8008C736.254 71.207 736.578 72.3359 737.227 73.1875C737.883 74.0391 738.758 74.4648 739.852 74.4648C740.953 74.4648 741.828 74.0352 742.477 73.1758C743.125 72.3086 743.449 71.0977 743.449 69.543C743.449 68.1523 743.117 67.0273 742.453 66.168C741.797 65.3008 740.922 64.8672 739.828 64.8672C738.758 64.8672 737.895 65.293 737.238 66.1445C736.582 66.9961 736.254 68.2148 736.254 69.8008ZM754.465 65.2656C754.137 65.2109 753.781 65.1836 753.398 65.1836C751.977 65.1836 751.012 65.7891 750.504 67V76H748.336V63.3203H750.445L750.48 64.7852C751.191 63.6523 752.199 63.0859 753.504 63.0859C753.926 63.0859 754.246 63.1406 754.465 63.25V65.2656ZM758.508 63.3203L758.566 64.7266C759.496 63.6328 760.75 63.0859 762.328 63.0859C764.102 63.0859 765.309 63.7656 765.949 65.125C766.371 64.5156 766.918 64.0234 767.59 63.6484C768.27 63.2734 769.07 63.0859 769.992 63.0859C772.773 63.0859 774.188 64.5586 774.234 67.5039V76H772.066V67.6328C772.066 66.7266 771.859 66.0508 771.445 65.6055C771.031 65.1523 770.336 64.9258 769.359 64.9258C768.555 64.9258 767.887 65.168 767.355 65.6523C766.824 66.1289 766.516 66.7734 766.43 67.5859V76H764.25V67.6914C764.25 65.8477 763.348 64.9258 761.543 64.9258C760.121 64.9258 759.148 65.5312 758.625 66.7422V76H756.457V63.3203H758.508ZM784.898 72.6367C784.898 72.0508 784.676 71.5977 784.23 71.2773C783.793 70.9492 783.023 70.668 781.922 70.4336C780.828 70.1992 779.957 69.918 779.309 69.5898C778.668 69.2617 778.191 68.8711 777.879 68.418C777.574 67.9648 777.422 67.4258 777.422 66.8008C777.422 65.7617 777.859 64.8828 778.734 64.1641C779.617 63.4453 780.742 63.0859 782.109 63.0859C783.547 63.0859 784.711 63.457 785.602 64.1992C786.5 64.9414 786.949 65.8906 786.949 67.0469H784.77C784.77 66.4531 784.516 65.9414 784.008 65.5117C783.508 65.082 782.875 64.8672 782.109 64.8672C781.32 64.8672 780.703 65.0391 780.258 65.3828C779.812 65.7266 779.59 66.1758 779.59 66.7305C779.59 67.2539 779.797 67.6484 780.211 67.9141C780.625 68.1797 781.371 68.4336 782.449 68.6758C783.535 68.918 784.414 69.207 785.086 69.543C785.758 69.8789 786.254 70.2852 786.574 70.7617C786.902 71.2305 787.066 71.8047 787.066 72.4844C787.066 73.6172 786.613 74.5273 785.707 75.2148C784.801 75.8945 783.625 76.2344 782.18 76.2344C781.164 76.2344 780.266 76.0547 779.484 75.6953C778.703 75.3359 778.09 74.8359 777.645 74.1953C777.207 73.5469 776.988 72.8477 776.988 72.0977H779.156C779.195 72.8242 779.484 73.4023 780.023 73.832C780.57 74.2539 781.289 74.4648 782.18 74.4648C783 74.4648 783.656 74.3008 784.148 73.9727C784.648 73.6367 784.898 73.1914 784.898 72.6367ZM789.82 79.3984L788.59 78.5547C789.324 77.5312 789.707 76.4766 789.738 75.3906V73.4336H791.859V75.1328C791.859 75.9219 791.664 76.7109 791.273 77.5C790.891 78.2891 790.406 78.9219 789.82 79.3984ZM814.008 76H811.746V68.1133H803.145V76H800.895V58.9375H803.145V66.2734H811.746V58.9375H814.008V76ZM825.492 76C825.367 75.75 825.266 75.3047 825.188 74.6641C824.18 75.7109 822.977 76.2344 821.578 76.2344C820.328 76.2344 819.301 75.8828 818.496 75.1797C817.699 74.4688 817.301 73.5703 817.301 72.4844C817.301 71.1641 817.801 70.1406 818.801 69.4141C819.809 68.6797 821.223 68.3125 823.043 68.3125H825.152V67.3164C825.152 66.5586 824.926 65.957 824.473 65.5117C824.02 65.0586 823.352 64.832 822.469 64.832C821.695 64.832 821.047 65.0273 820.523 65.418C820 65.8086 819.738 66.2812 819.738 66.8359H817.559C817.559 66.2031 817.781 65.5938 818.227 65.0078C818.68 64.4141 819.289 63.9453 820.055 63.6016C820.828 63.2578 821.676 63.0859 822.598 63.0859C824.059 63.0859 825.203 63.4531 826.031 64.1875C826.859 64.9141 827.289 65.918 827.32 67.1992V73.0352C827.32 74.1992 827.469 75.125 827.766 75.8125V76H825.492ZM821.895 74.3477C822.574 74.3477 823.219 74.1719 823.828 73.8203C824.438 73.4688 824.879 73.0117 825.152 72.4492V69.8477H823.453C820.797 69.8477 819.469 70.625 819.469 72.1797C819.469 72.8594 819.695 73.3906 820.148 73.7734C820.602 74.1562 821.184 74.3477 821.895 74.3477ZM832.77 63.3203L832.84 64.9141C833.809 63.6953 835.074 63.0859 836.637 63.0859C839.316 63.0859 840.668 64.5977 840.691 67.6211V76H838.523V67.6094C838.516 66.6953 838.305 66.0195 837.891 65.582C837.484 65.1445 836.848 64.9258 835.98 64.9258C835.277 64.9258 834.66 65.1133 834.129 65.4883C833.598 65.8633 833.184 66.3555 832.887 66.9648V76H830.719V63.3203H832.77ZM843.434 69.5547C843.434 67.6094 843.895 66.0469 844.816 64.8672C845.738 63.6797 846.945 63.0859 848.438 63.0859C849.922 63.0859 851.098 63.5938 851.965 64.6094V58H854.133V76H852.141L852.035 74.6406C851.168 75.7031 849.961 76.2344 848.414 76.2344C846.945 76.2344 845.746 75.6328 844.816 74.4297C843.895 73.2266 843.434 71.6562 843.434 69.7188V69.5547ZM845.602 69.8008C845.602 71.2383 845.898 72.3633 846.492 73.1758C847.086 73.9883 847.906 74.3945 848.953 74.3945C850.328 74.3945 851.332 73.7773 851.965 72.543V66.7188C851.316 65.5234 850.32 64.9258 848.977 64.9258C847.914 64.9258 847.086 65.3359 846.492 66.1562C845.898 66.9766 845.602 68.1914 845.602 69.8008ZM856.934 69.543C856.934 68.3008 857.176 67.1836 857.66 66.1914C858.152 65.1992 858.832 64.4336 859.699 63.8945C860.574 63.3555 861.57 63.0859 862.688 63.0859C864.414 63.0859 865.809 63.6836 866.871 64.8789C867.941 66.0742 868.477 67.6641 868.477 69.6484V69.8008C868.477 71.0352 868.238 72.1445 867.762 73.1289C867.293 74.1055 866.617 74.8672 865.734 75.4141C864.859 75.9609 863.852 76.2344 862.711 76.2344C860.992 76.2344 859.598 75.6367 858.527 74.4414C857.465 73.2461 856.934 71.6641 856.934 69.6953V69.543ZM859.113 69.8008C859.113 71.207 859.438 72.3359 860.086 73.1875C860.742 74.0391 861.617 74.4648 862.711 74.4648C863.812 74.4648 864.688 74.0352 865.336 73.1758C865.984 72.3086 866.309 71.0977 866.309 69.543C866.309 68.1523 865.977 67.0273 865.312 66.168C864.656 65.3008 863.781 64.8672 862.688 64.8672C861.617 64.8672 860.754 65.293 860.098 66.1445C859.441 66.9961 859.113 68.2148 859.113 69.8008ZM879.023 74.7461C878.18 75.7383 876.941 76.2344 875.309 76.2344C873.957 76.2344 872.926 75.8438 872.215 75.0625C871.512 74.2734 871.156 73.1094 871.148 71.5703V63.3203H873.316V71.5117C873.316 73.4336 874.098 74.3945 875.66 74.3945C877.316 74.3945 878.418 73.7773 878.965 72.543V63.3203H881.133V76H879.07L879.023 74.7461ZM887.379 60.25V63.3203H889.746V64.9961H887.379V72.8594C887.379 73.3672 887.484 73.75 887.695 74.0078C887.906 74.2578 888.266 74.3828 888.773 74.3828C889.023 74.3828 889.367 74.3359 889.805 74.2422V76C889.234 76.1562 888.68 76.2344 888.141 76.2344C887.172 76.2344 886.441 75.9414 885.949 75.3555C885.457 74.7695 885.211 73.9375 885.211 72.8594V64.9961H882.902V63.3203H885.211V60.25H887.379ZM899.672 72.6367C899.672 72.0508 899.449 71.5977 899.004 71.2773C898.566 70.9492 897.797 70.668 896.695 70.4336C895.602 70.1992 894.73 69.918 894.082 69.5898C893.441 69.2617 892.965 68.8711 892.652 68.418C892.348 67.9648 892.195 67.4258 892.195 66.8008C892.195 65.7617 892.633 64.8828 893.508 64.1641C894.391 63.4453 895.516 63.0859 896.883 63.0859C898.32 63.0859 899.484 63.457 900.375 64.1992C901.273 64.9414 901.723 65.8906 901.723 67.0469H899.543C899.543 66.4531 899.289 65.9414 898.781 65.5117C898.281 65.082 897.648 64.8672 896.883 64.8672C896.094 64.8672 895.477 65.0391 895.031 65.3828C894.586 65.7266 894.363 66.1758 894.363 66.7305C894.363 67.2539 894.57 67.6484 894.984 67.9141C895.398 68.1797 896.145 68.4336 897.223 68.6758C898.309 68.918 899.188 69.207 899.859 69.543C900.531 69.8789 901.027 70.2852 901.348 70.7617C901.676 71.2305 901.84 71.8047 901.84 72.4844C901.84 73.6172 901.387 74.5273 900.48 75.2148C899.574 75.8945 898.398 76.2344 896.953 76.2344C895.938 76.2344 895.039 76.0547 894.258 75.6953C893.477 75.3359 892.863 74.8359 892.418 74.1953C891.98 73.5469 891.762 72.8477 891.762 72.0977H893.93C893.969 72.8242 894.258 73.4023 894.797 73.832C895.344 74.2539 896.062 74.4648 896.953 74.4648C897.773 74.4648 898.43 74.3008 898.922 73.9727C899.422 73.6367 899.672 73.1914 899.672 72.6367ZM904.594 79.3984L903.363 78.5547C904.098 77.5312 904.48 76.4766 904.512 75.3906V73.4336H906.633V75.1328C906.633 75.9219 906.438 76.7109 906.047 77.5C905.664 78.2891 905.18 78.9219 904.594 79.3984ZM914.871 71.418C914.871 70.5977 915.098 69.8438 915.551 69.1562C916.012 68.4688 916.887 67.668 918.176 66.7539C917.418 65.832 916.91 65.0898 916.652 64.5273C916.395 63.9648 916.266 63.4062 916.266 62.8516C916.266 61.5547 916.648 60.5391 917.414 59.8047C918.18 59.0703 919.219 58.7031 920.531 58.7031C921.703 58.7031 922.672 59.0469 923.438 59.7344C924.203 60.4141 924.586 61.2734 924.586 62.3125C924.586 63 924.41 63.6367 924.059 64.2227C923.715 64.8008 923.109 65.4102 922.242 66.0508L920.988 66.9766L924.785 71.5117C925.316 70.4961 925.582 69.3672 925.582 68.125H927.539C927.539 70.1172 927.059 71.7695 926.098 73.082L928.535 76H925.934L924.797 74.6523C924.219 75.168 923.539 75.5625 922.758 75.8359C921.984 76.1016 921.195 76.2344 920.391 76.2344C918.727 76.2344 917.391 75.793 916.383 74.9102C915.375 74.0273 914.871 72.8633 914.871 71.418ZM920.391 74.4648C921.539 74.4648 922.59 74.0273 923.543 73.1523L919.383 68.1719L918.996 68.4531C917.691 69.4141 917.039 70.4023 917.039 71.418C917.039 72.3398 917.336 73.0781 917.93 73.6328C918.531 74.1875 919.352 74.4648 920.391 74.4648ZM918.434 62.7812C918.434 63.5312 918.895 64.4688 919.816 65.5938L921.199 64.6211C921.73 64.2461 922.094 63.8906 922.289 63.5547C922.484 63.2109 922.582 62.7969 922.582 62.3125C922.582 61.7891 922.387 61.3555 921.996 61.0117C921.605 60.6602 921.113 60.4844 920.52 60.4844C919.879 60.4844 919.371 60.7031 918.996 61.1406C918.621 61.5703 918.434 62.1172 918.434 62.7812ZM945.961 68.4648H938.801V76H936.551V58.9375H947.121V60.7891H938.801V66.625H945.961V68.4648ZM951.832 76H949.664V58H951.832V76ZM959.461 72.8242L962.414 63.3203H964.734L959.637 77.957C958.848 80.0664 957.594 81.1211 955.875 81.1211L955.465 81.0859L954.656 80.9336V79.1758L955.242 79.2227C955.977 79.2227 956.547 79.0742 956.953 78.7773C957.367 78.4805 957.707 77.9375 957.973 77.1484L958.453 75.8594L953.93 63.3203H956.297L959.461 72.8242ZM971.777 76.2344C970.059 76.2344 968.66 75.6719 967.582 74.5469C966.504 73.4141 965.965 71.9023 965.965 70.0117V69.6133C965.965 68.3555 966.203 67.2344 966.68 66.25C967.164 65.2578 967.836 64.4844 968.695 63.9297C969.562 63.3672 970.5 63.0859 971.508 63.0859C973.156 63.0859 974.438 63.6289 975.352 64.7148C976.266 65.8008 976.723 67.3555 976.723 69.3789V70.2812H968.133C968.164 71.5312 968.527 72.543 969.223 73.3164C969.926 74.082 970.816 74.4648 971.895 74.4648C972.66 74.4648 973.309 74.3086 973.84 73.9961C974.371 73.6836 974.836 73.2695 975.234 72.7539L976.559 73.7852C975.496 75.418 973.902 76.2344 971.777 76.2344ZM971.508 64.8672C970.633 64.8672 969.898 65.1875 969.305 65.8281C968.711 66.4609 968.344 67.3516 968.203 68.5H974.555V68.3359C974.492 67.2344 974.195 66.3828 973.664 65.7812C973.133 65.1719 972.414 64.8672 971.508 64.8672ZM985.371 65.2656C985.043 65.2109 984.688 65.1836 984.305 65.1836C982.883 65.1836 981.918 65.7891 981.41 67V76H979.242V63.3203H981.352L981.387 64.7852C982.098 63.6523 983.105 63.0859 984.41 63.0859C984.832 63.0859 985.152 63.1406 985.371 63.25V65.2656ZM994.758 72.6367C994.758 72.0508 994.535 71.5977 994.09 71.2773C993.652 70.9492 992.883 70.668 991.781 70.4336C990.688 70.1992 989.816 69.918 989.168 69.5898C988.527 69.2617 988.051 68.8711 987.738 68.418C987.434 67.9648 987.281 67.4258 987.281 66.8008C987.281 65.7617 987.719 64.8828 988.594 64.1641C989.477 63.4453 990.602 63.0859 991.969 63.0859C993.406 63.0859 994.57 63.457 995.461 64.1992C996.359 64.9414 996.809 65.8906 996.809 67.0469H994.629C994.629 66.4531 994.375 65.9414 993.867 65.5117C993.367 65.082 992.734 64.8672 991.969 64.8672C991.18 64.8672 990.562 65.0391 990.117 65.3828C989.672 65.7266 989.449 66.1758 989.449 66.7305C989.449 67.2539 989.656 67.6484 990.07 67.9141C990.484 68.1797 991.23 68.4336 992.309 68.6758C993.395 68.918 994.273 69.207 994.945 69.543C995.617 69.8789 996.113 70.2852 996.434 70.7617C996.762 71.2305 996.926 71.8047 996.926 72.4844C996.926 73.6172 996.473 74.5273 995.566 75.2148C994.66 75.8945 993.484 76.2344 992.039 76.2344C991.023 76.2344 990.125 76.0547 989.344 75.6953C988.562 75.3359 987.949 74.8359 987.504 74.1953C987.066 73.5469 986.848 72.8477 986.848 72.0977H989.016C989.055 72.8242 989.344 73.4023 989.883 73.832C990.43 74.2539 991.148 74.4648 992.039 74.4648C992.859 74.4648 993.516 74.3008 994.008 73.9727C994.508 73.6367 994.758 73.1914 994.758 72.6367Z" fill="white"/>
<path d="M723.996 143H721.828V130.32H723.996V143ZM721.652 126.957C721.652 126.605 721.758 126.309 721.969 126.066C722.188 125.824 722.508 125.703 722.93 125.703C723.352 125.703 723.672 125.824 723.891 126.066C724.109 126.309 724.219 126.605 724.219 126.957C724.219 127.309 724.109 127.602 723.891 127.836C723.672 128.07 723.352 128.188 722.93 128.188C722.508 128.188 722.188 128.07 721.969 127.836C721.758 127.602 721.652 127.309 721.652 126.957ZM737.227 135.465H730.066V143H727.816V125.938H738.387V127.789H730.066V133.625H737.227V135.465ZM743.098 143H740.93V125H743.098V143ZM746.004 136.543C746.004 135.301 746.246 134.184 746.73 133.191C747.223 132.199 747.902 131.434 748.77 130.895C749.645 130.355 750.641 130.086 751.758 130.086C753.484 130.086 754.879 130.684 755.941 131.879C757.012 133.074 757.547 134.664 757.547 136.648V136.801C757.547 138.035 757.309 139.145 756.832 140.129C756.363 141.105 755.688 141.867 754.805 142.414C753.93 142.961 752.922 143.234 751.781 143.234C750.062 143.234 748.668 142.637 747.598 141.441C746.535 140.246 746.004 138.664 746.004 136.695V136.543ZM748.184 136.801C748.184 138.207 748.508 139.336 749.156 140.188C749.812 141.039 750.688 141.465 751.781 141.465C752.883 141.465 753.758 141.035 754.406 140.176C755.055 139.309 755.379 138.098 755.379 136.543C755.379 135.152 755.047 134.027 754.383 133.168C753.727 132.301 752.852 131.867 751.758 131.867C750.688 131.867 749.824 132.293 749.168 133.145C748.512 133.996 748.184 135.215 748.184 136.801ZM768.094 141.746C767.25 142.738 766.012 143.234 764.379 143.234C763.027 143.234 761.996 142.844 761.285 142.062C760.582 141.273 760.227 140.109 760.219 138.57V130.32H762.387V138.512C762.387 140.434 763.168 141.395 764.73 141.395C766.387 141.395 767.488 140.777 768.035 139.543V130.32H770.203V143H768.141L768.094 141.746ZM779.637 132.266C779.309 132.211 778.953 132.184 778.57 132.184C777.148 132.184 776.184 132.789 775.676 134V143H773.508V130.32H775.617L775.652 131.785C776.363 130.652 777.371 130.086 778.676 130.086C779.098 130.086 779.418 130.141 779.637 130.25V132.266ZM783.996 143H781.828V130.32H783.996V143ZM781.652 126.957C781.652 126.605 781.758 126.309 781.969 126.066C782.188 125.824 782.508 125.703 782.93 125.703C783.352 125.703 783.672 125.824 783.891 126.066C784.109 126.309 784.219 126.605 784.219 126.957C784.219 127.309 784.109 127.602 783.891 127.836C783.672 128.07 783.352 128.188 782.93 128.188C782.508 128.188 782.188 128.07 781.969 127.836C781.758 127.602 781.652 127.309 781.652 126.957ZM794.859 139.637C794.859 139.051 794.637 138.598 794.191 138.277C793.754 137.949 792.984 137.668 791.883 137.434C790.789 137.199 789.918 136.918 789.27 136.59C788.629 136.262 788.152 135.871 787.84 135.418C787.535 134.965 787.383 134.426 787.383 133.801C787.383 132.762 787.82 131.883 788.695 131.164C789.578 130.445 790.703 130.086 792.07 130.086C793.508 130.086 794.672 130.457 795.562 131.199C796.461 131.941 796.91 132.891 796.91 134.047H794.73C794.73 133.453 794.477 132.941 793.969 132.512C793.469 132.082 792.836 131.867 792.07 131.867C791.281 131.867 790.664 132.039 790.219 132.383C789.773 132.727 789.551 133.176 789.551 133.73C789.551 134.254 789.758 134.648 790.172 134.914C790.586 135.18 791.332 135.434 792.41 135.676C793.496 135.918 794.375 136.207 795.047 136.543C795.719 136.879 796.215 137.285 796.535 137.762C796.863 138.23 797.027 138.805 797.027 139.484C797.027 140.617 796.574 141.527 795.668 142.215C794.762 142.895 793.586 143.234 792.141 143.234C791.125 143.234 790.227 143.055 789.445 142.695C788.664 142.336 788.051 141.836 787.605 141.195C787.168 140.547 786.949 139.848 786.949 139.098H789.117C789.156 139.824 789.445 140.402 789.984 140.832C790.531 141.254 791.25 141.465 792.141 141.465C792.961 141.465 793.617 141.301 794.109 140.973C794.609 140.637 794.859 140.191 794.859 139.637ZM802.02 131.855C802.98 130.676 804.23 130.086 805.77 130.086C808.449 130.086 809.801 131.598 809.824 134.621V143H807.656V134.609C807.648 133.695 807.438 133.02 807.023 132.582C806.617 132.145 805.98 131.926 805.113 131.926C804.41 131.926 803.793 132.113 803.262 132.488C802.73 132.863 802.316 133.355 802.02 133.965V143H799.852V125H802.02V131.855ZM824.391 135.395C822.461 134.84 821.055 134.16 820.172 133.355C819.297 132.543 818.859 131.543 818.859 130.355C818.859 129.012 819.395 127.902 820.465 127.027C821.543 126.145 822.941 125.703 824.66 125.703C825.832 125.703 826.875 125.93 827.789 126.383C828.711 126.836 829.422 127.461 829.922 128.258C830.43 129.055 830.684 129.926 830.684 130.871H828.422C828.422 129.84 828.094 129.031 827.438 128.445C826.781 127.852 825.855 127.555 824.66 127.555C823.551 127.555 822.684 127.801 822.059 128.293C821.441 128.777 821.133 129.453 821.133 130.32C821.133 131.016 821.426 131.605 822.012 132.09C822.605 132.566 823.609 133.004 825.023 133.402C826.445 133.801 827.555 134.242 828.352 134.727C829.156 135.203 829.75 135.762 830.133 136.402C830.523 137.043 830.719 137.797 830.719 138.664C830.719 140.047 830.18 141.156 829.102 141.992C828.023 142.82 826.582 143.234 824.777 143.234C823.605 143.234 822.512 143.012 821.496 142.566C820.48 142.113 819.695 141.496 819.141 140.715C818.594 139.934 818.32 139.047 818.32 138.055H820.582C820.582 139.086 820.961 139.902 821.719 140.504C822.484 141.098 823.504 141.395 824.777 141.395C825.965 141.395 826.875 141.152 827.508 140.668C828.141 140.184 828.457 139.523 828.457 138.688C828.457 137.852 828.164 137.207 827.578 136.754C826.992 136.293 825.93 135.84 824.391 135.395ZM838.535 143.234C836.816 143.234 835.418 142.672 834.34 141.547C833.262 140.414 832.723 138.902 832.723 137.012V136.613C832.723 135.355 832.961 134.234 833.438 133.25C833.922 132.258 834.594 131.484 835.453 130.93C836.32 130.367 837.258 130.086 838.266 130.086C839.914 130.086 841.195 130.629 842.109 131.715C843.023 132.801 843.48 134.355 843.48 136.379V137.281H834.891C834.922 138.531 835.285 139.543 835.98 140.316C836.684 141.082 837.574 141.465 838.652 141.465C839.418 141.465 840.066 141.309 840.598 140.996C841.129 140.684 841.594 140.27 841.992 139.754L843.316 140.785C842.254 142.418 840.66 143.234 838.535 143.234ZM838.266 131.867C837.391 131.867 836.656 132.188 836.062 132.828C835.469 133.461 835.102 134.352 834.961 135.5H841.312V135.336C841.25 134.234 840.953 133.383 840.422 132.781C839.891 132.172 839.172 131.867 838.266 131.867ZM848.355 143H846.188V125H848.355V143ZM852.902 143V131.996H850.898V130.32H852.902V129.02C852.902 127.66 853.266 126.609 853.992 125.867C854.719 125.125 855.746 124.754 857.074 124.754C857.574 124.754 858.07 124.82 858.562 124.953L858.445 126.711C858.078 126.641 857.688 126.605 857.273 126.605C856.57 126.605 856.027 126.812 855.645 127.227C855.262 127.633 855.07 128.219 855.07 128.984V130.32H857.777V131.996H855.07V143H852.902ZM864.691 136.637H858.973V134.867H864.691V136.637ZM880.266 143H878.004V135.113H869.402V143H867.152V125.938H869.402V133.273H878.004V125.938H880.266V143ZM889.184 143.234C887.465 143.234 886.066 142.672 884.988 141.547C883.91 140.414 883.371 138.902 883.371 137.012V136.613C883.371 135.355 883.609 134.234 884.086 133.25C884.57 132.258 885.242 131.484 886.102 130.93C886.969 130.367 887.906 130.086 888.914 130.086C890.562 130.086 891.844 130.629 892.758 131.715C893.672 132.801 894.129 134.355 894.129 136.379V137.281H885.539C885.57 138.531 885.934 139.543 886.629 140.316C887.332 141.082 888.223 141.465 889.301 141.465C890.066 141.465 890.715 141.309 891.246 140.996C891.777 140.684 892.242 140.27 892.641 139.754L893.965 140.785C892.902 142.418 891.309 143.234 889.184 143.234ZM888.914 131.867C888.039 131.867 887.305 132.188 886.711 132.828C886.117 133.461 885.75 134.352 885.609 135.5H891.961V135.336C891.898 134.234 891.602 133.383 891.07 132.781C890.539 132.172 889.82 131.867 888.914 131.867ZM899.004 143H896.836V125H899.004V143ZM913.195 136.801C913.195 138.73 912.754 140.285 911.871 141.465C910.988 142.645 909.793 143.234 908.285 143.234C906.746 143.234 905.535 142.746 904.652 141.77V147.875H902.484V130.32H904.465L904.57 131.727C905.453 130.633 906.68 130.086 908.25 130.086C909.773 130.086 910.977 130.66 911.859 131.809C912.75 132.957 913.195 134.555 913.195 136.602V136.801ZM911.027 136.555C911.027 135.125 910.723 133.996 910.113 133.168C909.504 132.34 908.668 131.926 907.605 131.926C906.293 131.926 905.309 132.508 904.652 133.672V139.73C905.301 140.887 906.293 141.465 907.629 141.465C908.668 141.465 909.492 141.055 910.102 140.234C910.719 139.406 911.027 138.18 911.027 136.555Z" fill="white"/>
<path d="M731.625 202.113H724.23V208.16H732.82V210H721.98V192.938H732.703V194.789H724.23V200.273H731.625V202.113ZM734.52 203.555C734.52 201.562 734.977 199.988 735.891 198.832C736.805 197.668 738.031 197.086 739.57 197.086C741.07 197.086 742.254 197.59 743.121 198.598L743.215 197.32H745.207V214.875H743.039V208.828C742.164 209.766 741 210.234 739.547 210.234C738.016 210.234 736.793 209.641 735.879 208.453C734.973 207.258 734.52 205.676 734.52 203.707V203.555ZM736.688 203.801C736.688 205.254 736.992 206.395 737.602 207.223C738.219 208.051 739.047 208.465 740.086 208.465C741.375 208.465 742.359 207.895 743.039 206.754V200.543C742.352 199.426 741.375 198.867 740.109 198.867C739.062 198.867 738.23 199.285 737.613 200.121C736.996 200.949 736.688 202.176 736.688 203.801ZM756.516 208.746C755.672 209.738 754.434 210.234 752.801 210.234C751.449 210.234 750.418 209.844 749.707 209.062C749.004 208.273 748.648 207.109 748.641 205.57V197.32H750.809V205.512C750.809 207.434 751.59 208.395 753.152 208.395C754.809 208.395 755.91 207.777 756.457 206.543V197.32H758.625V210H756.562L756.516 208.746ZM764.285 210H762.117V197.32H764.285V210ZM761.941 193.957C761.941 193.605 762.047 193.309 762.258 193.066C762.477 192.824 762.797 192.703 763.219 192.703C763.641 192.703 763.961 192.824 764.18 193.066C764.398 193.309 764.508 193.605 764.508 193.957C764.508 194.309 764.398 194.602 764.18 194.836C763.961 195.07 763.641 195.188 763.219 195.188C762.797 195.188 762.477 195.07 762.258 194.836C762.047 194.602 761.941 194.309 761.941 193.957ZM770.707 194.25V197.32H773.074V198.996H770.707V206.859C770.707 207.367 770.812 207.75 771.023 208.008C771.234 208.258 771.594 208.383 772.102 208.383C772.352 208.383 772.695 208.336 773.133 208.242V210C772.562 210.156 772.008 210.234 771.469 210.234C770.5 210.234 769.77 209.941 769.277 209.355C768.785 208.77 768.539 207.938 768.539 206.859V198.996H766.23V197.32H768.539V194.25H770.707ZM779.766 206.824L782.719 197.32H785.039L779.941 211.957C779.152 214.066 777.898 215.121 776.18 215.121L775.77 215.086L774.961 214.934V213.176L775.547 213.223C776.281 213.223 776.852 213.074 777.258 212.777C777.672 212.48 778.012 211.938 778.277 211.148L778.758 209.859L774.234 197.32H776.602L779.766 206.824ZM785.648 213.398L784.418 212.555C785.152 211.531 785.535 210.477 785.566 209.391V207.434H787.688V209.133C787.688 209.922 787.492 210.711 787.102 211.5C786.719 212.289 786.234 212.922 785.648 213.398ZM796.723 210V192.938H801.539C803.023 192.938 804.336 193.266 805.477 193.922C806.617 194.578 807.496 195.512 808.113 196.723C808.738 197.934 809.055 199.324 809.062 200.895V201.984C809.062 203.594 808.75 205.004 808.125 206.215C807.508 207.426 806.621 208.355 805.465 209.004C804.316 209.652 802.977 209.984 801.445 210H796.723ZM798.973 194.789V208.16H801.34C803.074 208.16 804.422 207.621 805.383 206.543C806.352 205.465 806.836 203.93 806.836 201.938V200.941C806.836 199.004 806.379 197.5 805.465 196.43C804.559 195.352 803.27 194.805 801.598 194.789H798.973ZM814.488 210H812.32V197.32H814.488V210ZM812.145 193.957C812.145 193.605 812.25 193.309 812.461 193.066C812.68 192.824 813 192.703 813.422 192.703C813.844 192.703 814.164 192.824 814.383 193.066C814.602 193.309 814.711 193.605 814.711 193.957C814.711 194.309 814.602 194.602 814.383 194.836C814.164 195.07 813.844 195.188 813.422 195.188C813 195.188 812.68 195.07 812.461 194.836C812.25 194.602 812.145 194.309 812.145 193.957ZM822.152 207.059L825.293 197.32H827.508L822.961 210H821.309L816.715 197.32H818.93L822.152 207.059ZM834.691 210.234C832.973 210.234 831.574 209.672 830.496 208.547C829.418 207.414 828.879 205.902 828.879 204.012V203.613C828.879 202.355 829.117 201.234 829.594 200.25C830.078 199.258 830.75 198.484 831.609 197.93C832.477 197.367 833.414 197.086 834.422 197.086C836.07 197.086 837.352 197.629 838.266 198.715C839.18 199.801 839.637 201.355 839.637 203.379V204.281H831.047C831.078 205.531 831.441 206.543 832.137 207.316C832.84 208.082 833.73 208.465 834.809 208.465C835.574 208.465 836.223 208.309 836.754 207.996C837.285 207.684 837.75 207.27 838.148 206.754L839.473 207.785C838.41 209.418 836.816 210.234 834.691 210.234ZM834.422 198.867C833.547 198.867 832.812 199.188 832.219 199.828C831.625 200.461 831.258 201.352 831.117 202.5H837.469V202.336C837.406 201.234 837.109 200.383 836.578 199.781C836.047 199.172 835.328 198.867 834.422 198.867ZM848.285 199.266C847.957 199.211 847.602 199.184 847.219 199.184C845.797 199.184 844.832 199.789 844.324 201V210H842.156V197.32H844.266L844.301 198.785C845.012 197.652 846.02 197.086 847.324 197.086C847.746 197.086 848.066 197.141 848.285 197.25V199.266ZM857.672 206.637C857.672 206.051 857.449 205.598 857.004 205.277C856.566 204.949 855.797 204.668 854.695 204.434C853.602 204.199 852.73 203.918 852.082 203.59C851.441 203.262 850.965 202.871 850.652 202.418C850.348 201.965 850.195 201.426 850.195 200.801C850.195 199.762 850.633 198.883 851.508 198.164C852.391 197.445 853.516 197.086 854.883 197.086C856.32 197.086 857.484 197.457 858.375 198.199C859.273 198.941 859.723 199.891 859.723 201.047H857.543C857.543 200.453 857.289 199.941 856.781 199.512C856.281 199.082 855.648 198.867 854.883 198.867C854.094 198.867 853.477 199.039 853.031 199.383C852.586 199.727 852.363 200.176 852.363 200.73C852.363 201.254 852.57 201.648 852.984 201.914C853.398 202.18 854.145 202.434 855.223 202.676C856.309 202.918 857.188 203.207 857.859 203.543C858.531 203.879 859.027 204.285 859.348 204.762C859.676 205.23 859.84 205.805 859.84 206.484C859.84 207.617 859.387 208.527 858.48 209.215C857.574 209.895 856.398 210.234 854.953 210.234C853.938 210.234 853.039 210.055 852.258 209.695C851.477 209.336 850.863 208.836 850.418 208.195C849.98 207.547 849.762 206.848 849.762 206.098H851.93C851.969 206.824 852.258 207.402 852.797 207.832C853.344 208.254 854.062 208.465 854.953 208.465C855.773 208.465 856.43 208.301 856.922 207.973C857.422 207.637 857.672 207.191 857.672 206.637ZM865.02 210H862.852V197.32H865.02V210ZM862.676 193.957C862.676 193.605 862.781 193.309 862.992 193.066C863.211 192.824 863.531 192.703 863.953 192.703C864.375 192.703 864.695 192.824 864.914 193.066C865.133 193.309 865.242 193.605 865.242 193.957C865.242 194.309 865.133 194.602 864.914 194.836C864.695 195.07 864.375 195.188 863.953 195.188C863.531 195.188 863.211 195.07 862.992 194.836C862.781 194.602 862.676 194.309 862.676 193.957ZM871.441 194.25V197.32H873.809V198.996H871.441V206.859C871.441 207.367 871.547 207.75 871.758 208.008C871.969 208.258 872.328 208.383 872.836 208.383C873.086 208.383 873.43 208.336 873.867 208.242V210C873.297 210.156 872.742 210.234 872.203 210.234C871.234 210.234 870.504 209.941 870.012 209.355C869.52 208.77 869.273 207.938 869.273 206.859V198.996H866.965V197.32H869.273V194.25H871.441ZM880.5 206.824L883.453 197.32H885.773L880.676 211.957C879.887 214.066 878.633 215.121 876.914 215.121L876.504 215.086L875.695 214.934V213.176L876.281 213.223C877.016 213.223 877.586 213.074 877.992 212.777C878.406 212.48 878.746 211.938 879.012 211.148L879.492 209.859L874.969 197.32H877.336L880.5 206.824ZM886.383 213.398L885.152 212.555C885.887 211.531 886.27 210.477 886.301 209.391V207.434H888.422V209.133C888.422 209.922 888.227 210.711 887.836 211.5C887.453 212.289 886.969 212.922 886.383 213.398ZM904.945 210C904.82 209.75 904.719 209.305 904.641 208.664C903.633 209.711 902.43 210.234 901.031 210.234C899.781 210.234 898.754 209.883 897.949 209.18C897.152 208.469 896.754 207.57 896.754 206.484C896.754 205.164 897.254 204.141 898.254 203.414C899.262 202.68 900.676 202.312 902.496 202.312H904.605V201.316C904.605 200.559 904.379 199.957 903.926 199.512C903.473 199.059 902.805 198.832 901.922 198.832C901.148 198.832 900.5 199.027 899.977 199.418C899.453 199.809 899.191 200.281 899.191 200.836H897.012C897.012 200.203 897.234 199.594 897.68 199.008C898.133 198.414 898.742 197.945 899.508 197.602C900.281 197.258 901.129 197.086 902.051 197.086C903.512 197.086 904.656 197.453 905.484 198.188C906.312 198.914 906.742 199.918 906.773 201.199V207.035C906.773 208.199 906.922 209.125 907.219 209.812V210H904.945ZM901.348 208.348C902.027 208.348 902.672 208.172 903.281 207.82C903.891 207.469 904.332 207.012 904.605 206.449V203.848H902.906C900.25 203.848 898.922 204.625 898.922 206.18C898.922 206.859 899.148 207.391 899.602 207.773C900.055 208.156 900.637 208.348 901.348 208.348ZM912.223 197.32L912.293 198.914C913.262 197.695 914.527 197.086 916.09 197.086C918.77 197.086 920.121 198.598 920.145 201.621V210H917.977V201.609C917.969 200.695 917.758 200.02 917.344 199.582C916.938 199.145 916.301 198.926 915.434 198.926C914.73 198.926 914.113 199.113 913.582 199.488C913.051 199.863 912.637 200.355 912.34 200.965V210H910.172V197.32H912.223ZM922.887 203.555C922.887 201.609 923.348 200.047 924.27 198.867C925.191 197.68 926.398 197.086 927.891 197.086C929.375 197.086 930.551 197.594 931.418 198.609V192H933.586V210H931.594L931.488 208.641C930.621 209.703 929.414 210.234 927.867 210.234C926.398 210.234 925.199 209.633 924.27 208.43C923.348 207.227 922.887 205.656 922.887 203.719V203.555ZM925.055 203.801C925.055 205.238 925.352 206.363 925.945 207.176C926.539 207.988 927.359 208.395 928.406 208.395C929.781 208.395 930.785 207.777 931.418 206.543V200.719C930.77 199.523 929.773 198.926 928.43 198.926C927.367 198.926 926.539 199.336 925.945 200.156C925.352 200.977 925.055 202.191 925.055 203.801ZM945.668 210H943.418V192.938H945.668V210ZM951.504 197.32L951.574 198.914C952.543 197.695 953.809 197.086 955.371 197.086C958.051 197.086 959.402 198.598 959.426 201.621V210H957.258V201.609C957.25 200.695 957.039 200.02 956.625 199.582C956.219 199.145 955.582 198.926 954.715 198.926C954.012 198.926 953.395 199.113 952.863 199.488C952.332 199.863 951.918 200.355 951.621 200.965V210H949.453V197.32H951.504ZM967.781 208.465C968.555 208.465 969.23 208.23 969.809 207.762C970.387 207.293 970.707 206.707 970.77 206.004H972.82C972.781 206.73 972.531 207.422 972.07 208.078C971.609 208.734 970.992 209.258 970.219 209.648C969.453 210.039 968.641 210.234 967.781 210.234C966.055 210.234 964.68 209.66 963.656 208.512C962.641 207.355 962.133 205.777 962.133 203.777V203.414C962.133 202.18 962.359 201.082 962.812 200.121C963.266 199.16 963.914 198.414 964.758 197.883C965.609 197.352 966.613 197.086 967.77 197.086C969.191 197.086 970.371 197.512 971.309 198.363C972.254 199.215 972.758 200.32 972.82 201.68H970.77C970.707 200.859 970.395 200.188 969.832 199.664C969.277 199.133 968.59 198.867 967.77 198.867C966.668 198.867 965.812 199.266 965.203 200.062C964.602 200.852 964.301 201.996 964.301 203.496V203.906C964.301 205.367 964.602 206.492 965.203 207.281C965.805 208.07 966.664 208.465 967.781 208.465ZM977.613 210H975.445V192H977.613V210ZM988.922 208.746C988.078 209.738 986.84 210.234 985.207 210.234C983.855 210.234 982.824 209.844 982.113 209.062C981.41 208.273 981.055 207.109 981.047 205.57V197.32H983.215V205.512C983.215 207.434 983.996 208.395 985.559 208.395C987.215 208.395 988.316 207.777 988.863 206.543V197.32H991.031V210H988.969L988.922 208.746ZM1001.72 206.637C1001.72 206.051 1001.5 205.598 1001.05 205.277C1000.61 204.949 999.844 204.668 998.742 204.434C997.648 204.199 996.777 203.918 996.129 203.59C995.488 203.262 995.012 202.871 994.699 202.418C994.395 201.965 994.242 201.426 994.242 200.801C994.242 199.762 994.68 198.883 995.555 198.164C996.438 197.445 997.562 197.086 998.93 197.086C1000.37 197.086 1001.53 197.457 1002.42 198.199C1003.32 198.941 1003.77 199.891 1003.77 201.047H1001.59C1001.59 200.453 1001.34 199.941 1000.83 199.512C1000.33 199.082 999.695 198.867 998.93 198.867C998.141 198.867 997.523 199.039 997.078 199.383C996.633 199.727 996.41 200.176 996.41 200.73C996.41 201.254 996.617 201.648 997.031 201.914C997.445 202.18 998.191 202.434 999.27 202.676C1000.36 202.918 1001.23 203.207 1001.91 203.543C1002.58 203.879 1003.07 204.285 1003.39 204.762C1003.72 205.23 1003.89 205.805 1003.89 206.484C1003.89 207.617 1003.43 208.527 1002.53 209.215C1001.62 209.895 1000.45 210.234 999 210.234C997.984 210.234 997.086 210.055 996.305 209.695C995.523 209.336 994.91 208.836 994.465 208.195C994.027 207.547 993.809 206.848 993.809 206.098H995.977C996.016 206.824 996.305 207.402 996.844 207.832C997.391 208.254 998.109 208.465 999 208.465C999.82 208.465 1000.48 208.301 1000.97 207.973C1001.47 207.637 1001.72 207.191 1001.72 206.637ZM1009.07 210H1006.9V197.32H1009.07V210ZM1006.72 193.957C1006.72 193.605 1006.83 193.309 1007.04 193.066C1007.26 192.824 1007.58 192.703 1008 192.703C1008.42 192.703 1008.74 192.824 1008.96 193.066C1009.18 193.309 1009.29 193.605 1009.29 193.957C1009.29 194.309 1009.18 194.602 1008.96 194.836C1008.74 195.07 1008.42 195.188 1008 195.188C1007.58 195.188 1007.26 195.07 1007.04 194.836C1006.83 194.602 1006.72 194.309 1006.72 193.957ZM1011.97 203.543C1011.97 202.301 1012.21 201.184 1012.7 200.191C1013.19 199.199 1013.87 198.434 1014.74 197.895C1015.61 197.355 1016.61 197.086 1017.73 197.086C1019.45 197.086 1020.85 197.684 1021.91 198.879C1022.98 200.074 1023.52 201.664 1023.52 203.648V203.801C1023.52 205.035 1023.28 206.145 1022.8 207.129C1022.33 208.105 1021.66 208.867 1020.77 209.414C1019.9 209.961 1018.89 210.234 1017.75 210.234C1016.03 210.234 1014.64 209.637 1013.57 208.441C1012.5 207.246 1011.97 205.664 1011.97 203.695V203.543ZM1014.15 203.801C1014.15 205.207 1014.48 206.336 1015.12 207.188C1015.78 208.039 1016.66 208.465 1017.75 208.465C1018.85 208.465 1019.73 208.035 1020.38 207.176C1021.02 206.309 1021.35 205.098 1021.35 203.543C1021.35 202.152 1021.02 201.027 1020.35 200.168C1019.7 199.301 1018.82 198.867 1017.73 198.867C1016.66 198.867 1015.79 199.293 1015.14 200.145C1014.48 200.996 1014.15 202.215 1014.15 203.801ZM1028.29 197.32L1028.36 198.914C1029.32 197.695 1030.59 197.086 1032.15 197.086C1034.83 197.086 1036.18 198.598 1036.21 201.621V210H1034.04V201.609C1034.03 200.695 1033.82 200.02 1033.41 199.582C1033 199.145 1032.36 198.926 1031.5 198.926C1030.79 198.926 1030.18 199.113 1029.64 199.488C1029.11 199.863 1028.7 200.355 1028.4 200.965V210H1026.23V197.32H1028.29Z" fill="white"/>
<path d="M1146.53 70.5859C1146.32 72.3906 1145.65 73.7852 1144.53 74.7695C1143.41 75.7461 1141.92 76.2344 1140.06 76.2344C1138.05 76.2344 1136.43 75.5117 1135.21 74.0664C1134 72.6211 1133.39 70.6875 1133.39 68.2656V66.625C1133.39 65.0391 1133.68 63.6445 1134.24 62.4414C1134.81 61.2383 1135.61 60.3164 1136.65 59.6758C1137.69 59.0273 1138.89 58.7031 1140.26 58.7031C1142.07 58.7031 1143.53 59.2109 1144.62 60.2266C1145.71 61.2344 1146.35 62.6328 1146.53 64.4219H1144.27C1144.07 63.0625 1143.65 62.0781 1142.99 61.4688C1142.34 60.8594 1141.43 60.5547 1140.26 60.5547C1138.82 60.5547 1137.7 61.0859 1136.88 62.1484C1136.06 63.2109 1135.66 64.7227 1135.66 66.6836V68.3359C1135.66 70.1875 1136.04 71.6602 1136.82 72.7539C1137.59 73.8477 1138.67 74.3945 1140.06 74.3945C1141.31 74.3945 1142.27 74.1133 1142.93 73.5508C1143.61 72.9805 1144.05 71.9922 1144.27 70.5859H1146.53ZM1159.04 71.5469H1151.89L1150.28 76H1147.96L1154.48 58.9375H1156.45L1162.97 76H1160.66L1159.04 71.5469ZM1152.57 69.6953H1158.37L1155.46 61.7148L1152.57 69.6953ZM1167.52 69.3203V76H1165.27V58.9375H1171.56C1173.43 58.9375 1174.89 59.4141 1175.95 60.3672C1177.01 61.3203 1177.54 62.582 1177.54 64.1523C1177.54 65.8086 1177.02 67.0859 1175.98 67.9844C1174.95 68.875 1173.47 69.3203 1171.54 69.3203H1167.52ZM1167.52 67.4805H1171.56C1172.77 67.4805 1173.69 67.1992 1174.33 66.6367C1174.97 66.0664 1175.29 65.2461 1175.29 64.1758C1175.29 63.1602 1174.97 62.3477 1174.33 61.7383C1173.69 61.1289 1172.81 60.8125 1171.69 60.7891H1167.52V67.4805ZM1185.44 68.3945C1183.51 67.8398 1182.1 67.1602 1181.22 66.3555C1180.34 65.543 1179.91 64.543 1179.91 63.3555C1179.91 62.0117 1180.44 60.9023 1181.51 60.0273C1182.59 59.1445 1183.99 58.7031 1185.71 58.7031C1186.88 58.7031 1187.92 58.9297 1188.84 59.3828C1189.76 59.8359 1190.47 60.4609 1190.97 61.2578C1191.48 62.0547 1191.73 62.9258 1191.73 63.8711H1189.47C1189.47 62.8398 1189.14 62.0312 1188.48 61.4453C1187.83 60.8516 1186.9 60.5547 1185.71 60.5547C1184.6 60.5547 1183.73 60.8008 1183.11 61.293C1182.49 61.7773 1182.18 62.4531 1182.18 63.3203C1182.18 64.0156 1182.47 64.6055 1183.06 65.0898C1183.65 65.5664 1184.66 66.0039 1186.07 66.4023C1187.49 66.8008 1188.6 67.2422 1189.4 67.7266C1190.2 68.2031 1190.8 68.7617 1191.18 69.4023C1191.57 70.043 1191.77 70.7969 1191.77 71.6641C1191.77 73.0469 1191.23 74.1562 1190.15 74.9922C1189.07 75.8203 1187.63 76.2344 1185.82 76.2344C1184.65 76.2344 1183.56 76.0117 1182.54 75.5664C1181.53 75.1133 1180.74 74.4961 1180.19 73.7148C1179.64 72.9336 1179.37 72.0469 1179.37 71.0547H1181.63C1181.63 72.0859 1182.01 72.9023 1182.77 73.5039C1183.53 74.0977 1184.55 74.3945 1185.82 74.3945C1187.01 74.3945 1187.92 74.1523 1188.55 73.668C1189.19 73.1836 1189.5 72.5234 1189.5 71.6875C1189.5 70.8516 1189.21 70.207 1188.62 69.7539C1188.04 69.293 1186.98 68.8398 1185.44 68.3945ZM1213.73 76H1211.46V68.1133H1202.86V76H1200.61V58.9375H1202.86V66.2734H1211.46V58.9375H1213.73V76ZM1222.64 76.2344C1220.93 76.2344 1219.53 75.6719 1218.45 74.5469C1217.37 73.4141 1216.83 71.9023 1216.83 70.0117V69.6133C1216.83 68.3555 1217.07 67.2344 1217.55 66.25C1218.03 65.2578 1218.7 64.4844 1219.56 63.9297C1220.43 63.3672 1221.37 63.0859 1222.38 63.0859C1224.02 63.0859 1225.3 63.6289 1226.22 64.7148C1227.13 65.8008 1227.59 67.3555 1227.59 69.3789V70.2812H1219C1219.03 71.5312 1219.39 72.543 1220.09 73.3164C1220.79 74.082 1221.68 74.4648 1222.76 74.4648C1223.53 74.4648 1224.18 74.3086 1224.71 73.9961C1225.24 73.6836 1225.7 73.2695 1226.1 72.7539L1227.43 73.7852C1226.36 75.418 1224.77 76.2344 1222.64 76.2344ZM1222.38 64.8672C1221.5 64.8672 1220.77 65.1875 1220.17 65.8281C1219.58 66.4609 1219.21 67.3516 1219.07 68.5H1225.42V68.3359C1225.36 67.2344 1225.06 66.3828 1224.53 65.7812C1224 65.1719 1223.28 64.8672 1222.38 64.8672ZM1232.46 76H1230.3V58H1232.46V76ZM1246.66 69.8008C1246.66 71.7305 1246.21 73.2852 1245.33 74.4648C1244.45 75.6445 1243.25 76.2344 1241.75 76.2344C1240.21 76.2344 1239 75.7461 1238.11 74.7695V80.875H1235.95V63.3203H1237.93L1238.03 64.7266C1238.91 63.6328 1240.14 63.0859 1241.71 63.0859C1243.23 63.0859 1244.44 63.6602 1245.32 64.8086C1246.21 65.957 1246.66 67.5547 1246.66 69.6016V69.8008ZM1244.49 69.5547C1244.49 68.125 1244.18 66.9961 1243.57 66.168C1242.96 65.3398 1242.13 64.9258 1241.07 64.9258C1239.75 64.9258 1238.77 65.5078 1238.11 66.6719V72.7305C1238.76 73.8867 1239.75 74.4648 1241.09 74.4648C1242.13 74.4648 1242.95 74.0547 1243.56 73.2344C1244.18 72.4062 1244.49 71.1797 1244.49 69.5547ZM1262.31 70.5859C1262.1 72.3906 1261.43 73.7852 1260.31 74.7695C1259.19 75.7461 1257.7 76.2344 1255.84 76.2344C1253.83 76.2344 1252.21 75.5117 1250.99 74.0664C1249.78 72.6211 1249.18 70.6875 1249.18 68.2656V66.625C1249.18 65.0391 1249.46 63.6445 1250.02 62.4414C1250.59 61.2383 1251.39 60.3164 1252.43 59.6758C1253.47 59.0273 1254.68 58.7031 1256.04 58.7031C1257.86 58.7031 1259.31 59.2109 1260.4 60.2266C1261.5 61.2344 1262.13 62.6328 1262.31 64.4219H1260.05C1259.86 63.0625 1259.43 62.0781 1258.77 61.4688C1258.12 60.8594 1257.21 60.5547 1256.04 60.5547C1254.61 60.5547 1253.48 61.0859 1252.66 62.1484C1251.84 63.2109 1251.44 64.7227 1251.44 66.6836V68.3359C1251.44 70.1875 1251.82 71.6602 1252.6 72.7539C1253.37 73.8477 1254.45 74.3945 1255.84 74.3945C1257.09 74.3945 1258.05 74.1133 1258.71 73.5508C1259.39 72.9805 1259.83 71.9922 1260.05 70.5859H1262.31ZM1270.32 76.2344C1268.6 76.2344 1267.2 75.6719 1266.12 74.5469C1265.04 73.4141 1264.5 71.9023 1264.5 70.0117V69.6133C1264.5 68.3555 1264.74 67.2344 1265.22 66.25C1265.7 65.2578 1266.38 64.4844 1267.23 63.9297C1268.1 63.3672 1269.04 63.0859 1270.05 63.0859C1271.7 63.0859 1272.98 63.6289 1273.89 64.7148C1274.8 65.8008 1275.26 67.3555 1275.26 69.3789V70.2812H1266.67C1266.7 71.5312 1267.07 72.543 1267.76 73.3164C1268.46 74.082 1269.36 74.4648 1270.43 74.4648C1271.2 74.4648 1271.85 74.3086 1272.38 73.9961C1272.91 73.6836 1273.38 73.2695 1273.77 72.7539L1275.1 73.7852C1274.04 75.418 1272.44 76.2344 1270.32 76.2344ZM1270.05 64.8672C1269.17 64.8672 1268.44 65.1875 1267.84 65.8281C1267.25 66.4609 1266.88 67.3516 1266.74 68.5H1273.09V68.3359C1273.03 67.2344 1272.73 66.3828 1272.2 65.7812C1271.67 65.1719 1270.95 64.8672 1270.05 64.8672ZM1279.83 63.3203L1279.9 64.9141C1280.87 63.6953 1282.14 63.0859 1283.7 63.0859C1286.38 63.0859 1287.73 64.5977 1287.75 67.6211V76H1285.59V67.6094C1285.58 66.6953 1285.37 66.0195 1284.95 65.582C1284.55 65.1445 1283.91 64.9258 1283.04 64.9258C1282.34 64.9258 1281.72 65.1133 1281.19 65.4883C1280.66 65.8633 1280.25 66.3555 1279.95 66.9648V76H1277.78V63.3203H1279.83ZM1293.96 60.25V63.3203H1296.33V64.9961H1293.96V72.8594C1293.96 73.3672 1294.07 73.75 1294.28 74.0078C1294.49 74.2578 1294.85 74.3828 1295.36 74.3828C1295.61 74.3828 1295.95 74.3359 1296.39 74.2422V76C1295.82 76.1562 1295.27 76.2344 1294.73 76.2344C1293.76 76.2344 1293.03 75.9414 1292.54 75.3555C1292.04 74.7695 1291.8 73.9375 1291.8 72.8594V64.9961H1289.49V63.3203H1291.8V60.25H1293.96ZM1304.14 76.2344C1302.42 76.2344 1301.02 75.6719 1299.94 74.5469C1298.86 73.4141 1298.32 71.9023 1298.32 70.0117V69.6133C1298.32 68.3555 1298.56 67.2344 1299.04 66.25C1299.52 65.2578 1300.2 64.4844 1301.05 63.9297C1301.92 63.3672 1302.86 63.0859 1303.87 63.0859C1305.52 63.0859 1306.8 63.6289 1307.71 64.7148C1308.62 65.8008 1309.08 67.3555 1309.08 69.3789V70.2812H1300.49C1300.52 71.5312 1300.89 72.543 1301.58 73.3164C1302.29 74.082 1303.18 74.4648 1304.25 74.4648C1305.02 74.4648 1305.67 74.3086 1306.2 73.9961C1306.73 73.6836 1307.2 73.2695 1307.59 72.7539L1308.92 73.7852C1307.86 75.418 1306.26 76.2344 1304.14 76.2344ZM1303.87 64.8672C1302.99 64.8672 1302.26 65.1875 1301.66 65.8281C1301.07 66.4609 1300.7 67.3516 1300.56 68.5H1306.91V68.3359C1306.85 67.2344 1306.55 66.3828 1306.02 65.7812C1305.49 65.1719 1304.77 64.8672 1303.87 64.8672ZM1317.73 65.2656C1317.4 65.2109 1317.05 65.1836 1316.66 65.1836C1315.24 65.1836 1314.28 65.7891 1313.77 67V76H1311.6V63.3203H1313.71L1313.75 64.7852C1314.46 63.6523 1315.46 63.0859 1316.77 63.0859C1317.19 63.0859 1317.51 63.1406 1317.73 63.25V65.2656Z" fill="white"/>
<path d="M1432 19H1422V9H1425V13.77L1431.98 7L1434 9.03L1427.15 16H1432V19Z" fill="black"/>
</svg>
