<svg width="890" height="164" viewBox="0 0 1440 264" fill="none" xmlns="http://www.w3.org/2000/svg">
<rect width="1340" height="264" fill="#C4C4C4"/>
<rect width="1340" height="264" fill="#00629B"/>
<rect width="1340" height="264" fill="#00629B"/>
<rect width="1340" height="264" fill="#00629B"/>
<path d="M89.6562 96.0625C89.6562 94.2917 89.0312 92.9375 87.7812 92C86.5312 91.0417 84.2812 90.0417 81.0312 89C77.7812 87.9375 75.2083 86.8958 73.3125 85.875C68.1458 83.0833 65.5625 79.3229 65.5625 74.5938C65.5625 72.1354 66.25 69.9479 67.625 68.0312C69.0208 66.0938 71.0104 64.5833 73.5938 63.5C76.1979 62.4167 79.1146 61.875 82.3438 61.875C85.5938 61.875 88.4896 62.4688 91.0312 63.6562C93.5729 64.8229 95.5417 66.4792 96.9375 68.625C98.3542 70.7708 99.0625 73.2083 99.0625 75.9375H89.6875C89.6875 73.8542 89.0312 72.2396 87.7188 71.0938C86.4062 69.9271 84.5625 69.3438 82.1875 69.3438C79.8958 69.3438 78.1146 69.8333 76.8438 70.8125C75.5729 71.7708 74.9375 73.0417 74.9375 74.625C74.9375 76.1042 75.6771 77.3438 77.1562 78.3438C78.6562 79.3438 80.8542 80.2812 83.75 81.1562C89.0833 82.7604 92.9688 84.75 95.4062 87.125C97.8438 89.5 99.0625 92.4583 99.0625 96C99.0625 99.9375 97.5729 103.031 94.5938 105.281C91.6146 107.51 87.6042 108.625 82.5625 108.625C79.0625 108.625 75.875 107.99 73 106.719C70.125 105.427 67.9271 103.667 66.4062 101.438C64.9062 99.2083 64.1562 96.625 64.1562 93.6875H73.5625C73.5625 98.7083 76.5625 101.219 82.5625 101.219C84.7917 101.219 86.5312 100.771 87.7812 99.875C89.0312 98.9583 89.6562 97.6875 89.6562 96.0625ZM142.469 108H133.094V88.5H114.812V108H105.438V62.5H114.812V80.9375H133.094V62.5H142.469V108ZM186.125 94.875L192.25 62.5H201.594L191.5 108H182.062L174.656 77.5625L167.25 108H157.812L147.719 62.5H157.062L163.219 94.8125L170.719 62.5H178.656L186.125 94.875ZM246.219 96.0625C246.219 94.2917 245.594 92.9375 244.344 92C243.094 91.0417 240.844 90.0417 237.594 89C234.344 87.9375 231.771 86.8958 229.875 85.875C224.708 83.0833 222.125 79.3229 222.125 74.5938C222.125 72.1354 222.812 69.9479 224.188 68.0312C225.583 66.0938 227.573 64.5833 230.156 63.5C232.76 62.4167 235.677 61.875 238.906 61.875C242.156 61.875 245.052 62.4688 247.594 63.6562C250.135 64.8229 252.104 66.4792 253.5 68.625C254.917 70.7708 255.625 73.2083 255.625 75.9375H246.25C246.25 73.8542 245.594 72.2396 244.281 71.0938C242.969 69.9271 241.125 69.3438 238.75 69.3438C236.458 69.3438 234.677 69.8333 233.406 70.8125C232.135 71.7708 231.5 73.0417 231.5 74.625C231.5 76.1042 232.24 77.3438 233.719 78.3438C235.219 79.3438 237.417 80.2812 240.312 81.1562C245.646 82.7604 249.531 84.75 251.969 87.125C254.406 89.5 255.625 92.4583 255.625 96C255.625 99.9375 254.135 103.031 251.156 105.281C248.177 107.51 244.167 108.625 239.125 108.625C235.625 108.625 232.438 107.99 229.562 106.719C226.688 105.427 224.49 103.667 222.969 101.438C221.469 99.2083 220.719 96.625 220.719 93.6875H230.125C230.125 98.7083 233.125 101.219 239.125 101.219C241.354 101.219 243.094 100.771 244.344 99.875C245.594 98.9583 246.219 97.6875 246.219 96.0625ZM271.969 108H262.594V62.5H271.969V108ZM314 70.0938H300.062V108H290.688V70.0938H276.938V62.5H314V70.0938ZM346.75 88.2812H328.75V100.469H349.875V108H319.375V62.5H349.812V70.0938H328.75V80.9375H346.75V88.2812ZM378.969 96.0625C378.969 94.2917 378.344 92.9375 377.094 92C375.844 91.0417 373.594 90.0417 370.344 89C367.094 87.9375 364.521 86.8958 362.625 85.875C357.458 83.0833 354.875 79.3229 354.875 74.5938C354.875 72.1354 355.562 69.9479 356.938 68.0312C358.333 66.0938 360.323 64.5833 362.906 63.5C365.51 62.4167 368.427 61.875 371.656 61.875C374.906 61.875 377.802 62.4688 380.344 63.6562C382.885 64.8229 384.854 66.4792 386.25 68.625C387.667 70.7708 388.375 73.2083 388.375 75.9375H379C379 73.8542 378.344 72.2396 377.031 71.0938C375.719 69.9271 373.875 69.3438 371.5 69.3438C369.208 69.3438 367.427 69.8333 366.156 70.8125C364.885 71.7708 364.25 73.0417 364.25 74.625C364.25 76.1042 364.99 77.3438 366.469 78.3438C367.969 79.3438 370.167 80.2812 373.062 81.1562C378.396 82.7604 382.281 84.75 384.719 87.125C387.156 89.5 388.375 92.4583 388.375 96C388.375 99.9375 386.885 103.031 383.906 105.281C380.927 107.51 376.917 108.625 371.875 108.625C368.375 108.625 365.188 107.99 362.312 106.719C359.438 105.427 357.24 103.667 355.719 101.438C354.219 99.2083 353.469 96.625 353.469 93.6875H362.875C362.875 98.7083 365.875 101.219 371.875 101.219C374.104 101.219 375.844 100.771 377.094 99.875C378.344 98.9583 378.969 97.6875 378.969 96.0625ZM66.6719 162.93C65.3854 162.56 64.4479 162.107 63.8594 161.57C63.276 161.029 62.9844 160.362 62.9844 159.57C62.9844 158.674 63.3411 157.935 64.0547 157.352C64.7734 156.763 65.7057 156.469 66.8516 156.469C67.6328 156.469 68.3281 156.62 68.9375 156.922C69.5521 157.224 70.026 157.641 70.3594 158.172C70.6979 158.703 70.8672 159.284 70.8672 159.914H69.3594C69.3594 159.227 69.1406 158.688 68.7031 158.297C68.2656 157.901 67.6484 157.703 66.8516 157.703C66.112 157.703 65.5339 157.867 65.1172 158.195C64.7057 158.518 64.5 158.969 64.5 159.547C64.5 160.01 64.6953 160.404 65.0859 160.727C65.4818 161.044 66.151 161.336 67.0938 161.602C68.0417 161.867 68.7812 162.161 69.3125 162.484C69.849 162.802 70.2448 163.174 70.5 163.602C70.7604 164.029 70.8906 164.531 70.8906 165.109C70.8906 166.031 70.5312 166.771 69.8125 167.328C69.0938 167.88 68.1328 168.156 66.9297 168.156C66.1484 168.156 65.4193 168.008 64.7422 167.711C64.0651 167.409 63.5417 166.997 63.1719 166.477C62.8073 165.956 62.625 165.365 62.625 164.703H64.1328C64.1328 165.391 64.3854 165.935 64.8906 166.336C65.401 166.732 66.0807 166.93 66.9297 166.93C67.7214 166.93 68.3281 166.768 68.75 166.445C69.1719 166.122 69.3828 165.682 69.3828 165.125C69.3828 164.568 69.1875 164.138 68.7969 163.836C68.4062 163.529 67.6979 163.227 66.6719 162.93ZM74.1641 168H72.7188V159.547H74.1641V168ZM72.6016 157.305C72.6016 157.07 72.6719 156.872 72.8125 156.711C72.9583 156.549 73.1719 156.469 73.4531 156.469C73.7344 156.469 73.9479 156.549 74.0938 156.711C74.2396 156.872 74.3125 157.07 74.3125 157.305C74.3125 157.539 74.2396 157.734 74.0938 157.891C73.9479 158.047 73.7344 158.125 73.4531 158.125C73.1719 158.125 72.9583 158.047 72.8125 157.891C72.6719 157.734 72.6016 157.539 72.6016 157.305ZM78.4453 157.5V159.547H80.0234V160.664H78.4453V165.906C78.4453 166.245 78.5156 166.5 78.6562 166.672C78.7969 166.839 79.0365 166.922 79.375 166.922C79.5417 166.922 79.7708 166.891 80.0625 166.828V168C79.6823 168.104 79.3125 168.156 78.9531 168.156C78.3073 168.156 77.8203 167.961 77.4922 167.57C77.1641 167.18 77 166.625 77 165.906V160.664H75.4609V159.547H77V157.5H78.4453ZM85.2266 168.156C84.0807 168.156 83.1484 167.781 82.4297 167.031C81.7109 166.276 81.3516 165.268 81.3516 164.008V163.742C81.3516 162.904 81.5104 162.156 81.8281 161.5C82.151 160.839 82.599 160.323 83.1719 159.953C83.75 159.578 84.375 159.391 85.0469 159.391C86.1458 159.391 87 159.753 87.6094 160.477C88.2188 161.201 88.5234 162.237 88.5234 163.586V164.188H82.7969C82.8177 165.021 83.0599 165.695 83.5234 166.211C83.9922 166.721 84.5859 166.977 85.3047 166.977C85.8151 166.977 86.2474 166.872 86.6016 166.664C86.9557 166.456 87.2656 166.18 87.5312 165.836L88.4141 166.523C87.7057 167.612 86.6432 168.156 85.2266 168.156ZM85.0469 160.578C84.4635 160.578 83.974 160.792 83.5781 161.219C83.1823 161.641 82.9375 162.234 82.8438 163H87.0781V162.891C87.0365 162.156 86.8385 161.589 86.4844 161.188C86.1302 160.781 85.651 160.578 85.0469 160.578ZM95.125 165.758C95.125 165.367 94.9766 165.065 94.6797 164.852C94.388 164.633 93.875 164.445 93.1406 164.289C92.4115 164.133 91.8307 163.945 91.3984 163.727C90.9714 163.508 90.6536 163.247 90.4453 162.945C90.2422 162.643 90.1406 162.284 90.1406 161.867C90.1406 161.174 90.4323 160.589 91.0156 160.109C91.6042 159.63 92.3542 159.391 93.2656 159.391C94.224 159.391 95 159.638 95.5938 160.133C96.1927 160.628 96.4922 161.26 96.4922 162.031H95.0391C95.0391 161.635 94.8698 161.294 94.5312 161.008C94.1979 160.721 93.776 160.578 93.2656 160.578C92.7396 160.578 92.3281 160.693 92.0312 160.922C91.7344 161.151 91.5859 161.451 91.5859 161.82C91.5859 162.169 91.724 162.432 92 162.609C92.276 162.786 92.7734 162.956 93.4922 163.117C94.2161 163.279 94.8021 163.471 95.25 163.695C95.6979 163.919 96.0286 164.19 96.2422 164.508C96.4609 164.82 96.5703 165.203 96.5703 165.656C96.5703 166.411 96.2682 167.018 95.6641 167.477C95.0599 167.93 94.276 168.156 93.3125 168.156C92.6354 168.156 92.0365 168.036 91.5156 167.797C90.9948 167.557 90.5859 167.224 90.2891 166.797C89.9974 166.365 89.8516 165.898 89.8516 165.398H91.2969C91.3229 165.883 91.5156 166.268 91.875 166.555C92.2396 166.836 92.7188 166.977 93.3125 166.977C93.8594 166.977 94.2969 166.867 94.625 166.648C94.9583 166.424 95.125 166.128 95.125 165.758ZM103.133 168V160.664H101.797V159.547H103.133V158.68C103.133 157.773 103.375 157.073 103.859 156.578C104.344 156.083 105.029 155.836 105.914 155.836C106.247 155.836 106.578 155.88 106.906 155.969L106.828 157.141C106.583 157.094 106.323 157.07 106.047 157.07C105.578 157.07 105.216 157.208 104.961 157.484C104.706 157.755 104.578 158.146 104.578 158.656V159.547H106.383V160.664H104.578V168H103.133ZM107.602 163.695C107.602 162.867 107.763 162.122 108.086 161.461C108.414 160.799 108.867 160.289 109.445 159.93C110.029 159.57 110.693 159.391 111.438 159.391C112.589 159.391 113.518 159.789 114.227 160.586C114.94 161.383 115.297 162.443 115.297 163.766V163.867C115.297 164.69 115.138 165.43 114.82 166.086C114.508 166.737 114.057 167.245 113.469 167.609C112.885 167.974 112.214 168.156 111.453 168.156C110.307 168.156 109.378 167.758 108.664 166.961C107.956 166.164 107.602 165.109 107.602 163.797V163.695ZM109.055 163.867C109.055 164.805 109.271 165.557 109.703 166.125C110.141 166.693 110.724 166.977 111.453 166.977C112.188 166.977 112.771 166.69 113.203 166.117C113.635 165.539 113.852 164.732 113.852 163.695C113.852 162.768 113.63 162.018 113.188 161.445C112.75 160.867 112.167 160.578 111.438 160.578C110.724 160.578 110.148 160.862 109.711 161.43C109.273 161.997 109.055 162.81 109.055 163.867ZM121.195 160.844C120.977 160.807 120.74 160.789 120.484 160.789C119.536 160.789 118.893 161.193 118.555 162V168H117.109V159.547H118.516L118.539 160.523C119.013 159.768 119.685 159.391 120.555 159.391C120.836 159.391 121.049 159.427 121.195 159.5V160.844ZM126.117 163.695C126.117 162.867 126.279 162.122 126.602 161.461C126.93 160.799 127.383 160.289 127.961 159.93C128.544 159.57 129.208 159.391 129.953 159.391C131.104 159.391 132.034 159.789 132.742 160.586C133.456 161.383 133.812 162.443 133.812 163.766V163.867C133.812 164.69 133.654 165.43 133.336 166.086C133.023 166.737 132.573 167.245 131.984 167.609C131.401 167.974 130.729 168.156 129.969 168.156C128.823 168.156 127.893 167.758 127.18 166.961C126.471 166.164 126.117 165.109 126.117 163.797V163.695ZM127.57 163.867C127.57 164.805 127.786 165.557 128.219 166.125C128.656 166.693 129.24 166.977 129.969 166.977C130.703 166.977 131.286 166.69 131.719 166.117C132.151 165.539 132.367 164.732 132.367 163.695C132.367 162.768 132.146 162.018 131.703 161.445C131.266 160.867 130.682 160.578 129.953 160.578C129.24 160.578 128.664 160.862 128.227 161.43C127.789 161.997 127.57 162.81 127.57 163.867ZM137.586 157.5V159.547H139.164V160.664H137.586V165.906C137.586 166.245 137.656 166.5 137.797 166.672C137.938 166.839 138.177 166.922 138.516 166.922C138.682 166.922 138.911 166.891 139.203 166.828V168C138.823 168.104 138.453 168.156 138.094 168.156C137.448 168.156 136.961 167.961 136.633 167.57C136.305 167.18 136.141 166.625 136.141 165.906V160.664H134.602V159.547H136.141V157.5H137.586ZM142.305 160.57C142.945 159.784 143.779 159.391 144.805 159.391C146.591 159.391 147.492 160.398 147.508 162.414V168H146.062V162.406C146.057 161.797 145.917 161.346 145.641 161.055C145.37 160.763 144.945 160.617 144.367 160.617C143.898 160.617 143.487 160.742 143.133 160.992C142.779 161.242 142.503 161.57 142.305 161.977V168H140.859V156H142.305V160.57ZM153.18 168.156C152.034 168.156 151.102 167.781 150.383 167.031C149.664 166.276 149.305 165.268 149.305 164.008V163.742C149.305 162.904 149.464 162.156 149.781 161.5C150.104 160.839 150.552 160.323 151.125 159.953C151.703 159.578 152.328 159.391 153 159.391C154.099 159.391 154.953 159.753 155.562 160.477C156.172 161.201 156.477 162.237 156.477 163.586V164.188H150.75C150.771 165.021 151.013 165.695 151.477 166.211C151.945 166.721 152.539 166.977 153.258 166.977C153.768 166.977 154.201 166.872 154.555 166.664C154.909 166.456 155.219 166.18 155.484 165.836L156.367 166.523C155.659 167.612 154.596 168.156 153.18 168.156ZM153 160.578C152.417 160.578 151.927 160.792 151.531 161.219C151.135 161.641 150.891 162.234 150.797 163H155.031V162.891C154.99 162.156 154.792 161.589 154.438 161.188C154.083 160.781 153.604 160.578 153 160.578ZM162.242 160.844C162.023 160.807 161.786 160.789 161.531 160.789C160.583 160.789 159.94 161.193 159.602 162V168H158.156V159.547H159.562L159.586 160.523C160.06 159.768 160.732 159.391 161.602 159.391C161.883 159.391 162.096 159.427 162.242 159.5V160.844ZM172.469 165.758C172.469 165.367 172.32 165.065 172.023 164.852C171.732 164.633 171.219 164.445 170.484 164.289C169.755 164.133 169.174 163.945 168.742 163.727C168.315 163.508 167.997 163.247 167.789 162.945C167.586 162.643 167.484 162.284 167.484 161.867C167.484 161.174 167.776 160.589 168.359 160.109C168.948 159.63 169.698 159.391 170.609 159.391C171.568 159.391 172.344 159.638 172.938 160.133C173.536 160.628 173.836 161.26 173.836 162.031H172.383C172.383 161.635 172.214 161.294 171.875 161.008C171.542 160.721 171.12 160.578 170.609 160.578C170.083 160.578 169.672 160.693 169.375 160.922C169.078 161.151 168.93 161.451 168.93 161.82C168.93 162.169 169.068 162.432 169.344 162.609C169.62 162.786 170.117 162.956 170.836 163.117C171.56 163.279 172.146 163.471 172.594 163.695C173.042 163.919 173.372 164.19 173.586 164.508C173.805 164.82 173.914 165.203 173.914 165.656C173.914 166.411 173.612 167.018 173.008 167.477C172.404 167.93 171.62 168.156 170.656 168.156C169.979 168.156 169.38 168.036 168.859 167.797C168.339 167.557 167.93 167.224 167.633 166.797C167.341 166.365 167.195 165.898 167.195 165.398H168.641C168.667 165.883 168.859 166.268 169.219 166.555C169.583 166.836 170.062 166.977 170.656 166.977C171.203 166.977 171.641 166.867 171.969 166.648C172.302 166.424 172.469 166.128 172.469 165.758ZM177.758 157.5V159.547H179.336V160.664H177.758V165.906C177.758 166.245 177.828 166.5 177.969 166.672C178.109 166.839 178.349 166.922 178.688 166.922C178.854 166.922 179.083 166.891 179.375 166.828V168C178.995 168.104 178.625 168.156 178.266 168.156C177.62 168.156 177.133 167.961 176.805 167.57C176.477 167.18 176.312 166.625 176.312 165.906V160.664H174.773V159.547H176.312V157.5H177.758ZM186.25 167.164C185.688 167.826 184.862 168.156 183.773 168.156C182.872 168.156 182.185 167.896 181.711 167.375C181.242 166.849 181.005 166.073 181 165.047V159.547H182.445V165.008C182.445 166.289 182.966 166.93 184.008 166.93C185.112 166.93 185.846 166.518 186.211 165.695V159.547H187.656V168H186.281L186.25 167.164ZM189.508 163.703C189.508 162.406 189.815 161.365 190.43 160.578C191.044 159.786 191.849 159.391 192.844 159.391C193.833 159.391 194.617 159.729 195.195 160.406V156H196.641V168H195.312L195.242 167.094C194.664 167.802 193.859 168.156 192.828 168.156C191.849 168.156 191.049 167.755 190.43 166.953C189.815 166.151 189.508 165.104 189.508 163.812V163.703ZM190.953 163.867C190.953 164.826 191.151 165.576 191.547 166.117C191.943 166.659 192.49 166.93 193.188 166.93C194.104 166.93 194.773 166.518 195.195 165.695V161.812C194.763 161.016 194.099 160.617 193.203 160.617C192.495 160.617 191.943 160.891 191.547 161.438C191.151 161.984 190.953 162.794 190.953 163.867ZM202.398 168.156C201.253 168.156 200.32 167.781 199.602 167.031C198.883 166.276 198.523 165.268 198.523 164.008V163.742C198.523 162.904 198.682 162.156 199 161.5C199.323 160.839 199.771 160.323 200.344 159.953C200.922 159.578 201.547 159.391 202.219 159.391C203.318 159.391 204.172 159.753 204.781 160.477C205.391 161.201 205.695 162.237 205.695 163.586V164.188H199.969C199.99 165.021 200.232 165.695 200.695 166.211C201.164 166.721 201.758 166.977 202.477 166.977C202.987 166.977 203.419 166.872 203.773 166.664C204.128 166.456 204.438 166.18 204.703 165.836L205.586 166.523C204.878 167.612 203.815 168.156 202.398 168.156ZM202.219 160.578C201.635 160.578 201.146 160.792 200.75 161.219C200.354 161.641 200.109 162.234 200.016 163H204.25V162.891C204.208 162.156 204.01 161.589 203.656 161.188C203.302 160.781 202.823 160.578 202.219 160.578ZM208.742 159.547L208.789 160.609C209.435 159.797 210.279 159.391 211.32 159.391C213.107 159.391 214.008 160.398 214.023 162.414V168H212.578V162.406C212.573 161.797 212.432 161.346 212.156 161.055C211.885 160.763 211.461 160.617 210.883 160.617C210.414 160.617 210.003 160.742 209.648 160.992C209.294 161.242 209.018 161.57 208.82 161.977V168H207.375V159.547H208.742ZM218.164 157.5V159.547H219.742V160.664H218.164V165.906C218.164 166.245 218.234 166.5 218.375 166.672C218.516 166.839 218.755 166.922 219.094 166.922C219.26 166.922 219.49 166.891 219.781 166.828V168C219.401 168.104 219.031 168.156 218.672 168.156C218.026 168.156 217.539 167.961 217.211 167.57C216.883 167.18 216.719 166.625 216.719 165.906V160.664H215.18V159.547H216.719V157.5H218.164ZM226.852 160.57C227.492 159.784 228.326 159.391 229.352 159.391C231.138 159.391 232.039 160.398 232.055 162.414V168H230.609V162.406C230.604 161.797 230.464 161.346 230.188 161.055C229.917 160.763 229.492 160.617 228.914 160.617C228.445 160.617 228.034 160.742 227.68 160.992C227.326 161.242 227.049 161.57 226.852 161.977V168H225.406V156H226.852V160.57ZM237.727 168.156C236.581 168.156 235.648 167.781 234.93 167.031C234.211 166.276 233.852 165.268 233.852 164.008V163.742C233.852 162.904 234.01 162.156 234.328 161.5C234.651 160.839 235.099 160.323 235.672 159.953C236.25 159.578 236.875 159.391 237.547 159.391C238.646 159.391 239.5 159.753 240.109 160.477C240.719 161.201 241.023 162.237 241.023 163.586V164.188H235.297C235.318 165.021 235.56 165.695 236.023 166.211C236.492 166.721 237.086 166.977 237.805 166.977C238.315 166.977 238.747 166.872 239.102 166.664C239.456 166.456 239.766 166.18 240.031 165.836L240.914 166.523C240.206 167.612 239.143 168.156 237.727 168.156ZM237.547 160.578C236.964 160.578 236.474 160.792 236.078 161.219C235.682 161.641 235.438 162.234 235.344 163H239.578V162.891C239.536 162.156 239.339 161.589 238.984 161.188C238.63 160.781 238.151 160.578 237.547 160.578ZM247.922 168C247.839 167.833 247.771 167.536 247.719 167.109C247.047 167.807 246.245 168.156 245.312 168.156C244.479 168.156 243.794 167.922 243.258 167.453C242.727 166.979 242.461 166.38 242.461 165.656C242.461 164.776 242.794 164.094 243.461 163.609C244.133 163.12 245.076 162.875 246.289 162.875H247.695V162.211C247.695 161.706 247.544 161.305 247.242 161.008C246.94 160.706 246.495 160.555 245.906 160.555C245.391 160.555 244.958 160.685 244.609 160.945C244.26 161.206 244.086 161.521 244.086 161.891H242.633C242.633 161.469 242.781 161.062 243.078 160.672C243.38 160.276 243.786 159.964 244.297 159.734C244.812 159.505 245.378 159.391 245.992 159.391C246.966 159.391 247.729 159.635 248.281 160.125C248.833 160.609 249.12 161.279 249.141 162.133V166.023C249.141 166.799 249.24 167.417 249.438 167.875V168H247.922ZM245.523 166.898C245.977 166.898 246.406 166.781 246.812 166.547C247.219 166.312 247.513 166.008 247.695 165.633V163.898H246.562C244.792 163.898 243.906 164.417 243.906 165.453C243.906 165.906 244.057 166.26 244.359 166.516C244.661 166.771 245.049 166.898 245.523 166.898ZM252.977 168H251.531V156H252.977V168ZM257.258 157.5V159.547H258.836V160.664H257.258V165.906C257.258 166.245 257.328 166.5 257.469 166.672C257.609 166.839 257.849 166.922 258.188 166.922C258.354 166.922 258.583 166.891 258.875 166.828V168C258.495 168.104 258.125 168.156 257.766 168.156C257.12 168.156 256.633 167.961 256.305 167.57C255.977 167.18 255.812 166.625 255.812 165.906V160.664H254.273V159.547H255.812V157.5H257.258ZM261.977 160.57C262.617 159.784 263.451 159.391 264.477 159.391C266.263 159.391 267.164 160.398 267.18 162.414V168H265.734V162.406C265.729 161.797 265.589 161.346 265.312 161.055C265.042 160.763 264.617 160.617 264.039 160.617C263.57 160.617 263.159 160.742 262.805 160.992C262.451 161.242 262.174 161.57 261.977 161.977V168H260.531V156H261.977V160.57ZM272.352 163.758H268.539V162.578H272.352V163.758ZM277.852 160.844C277.633 160.807 277.396 160.789 277.141 160.789C276.193 160.789 275.549 161.193 275.211 162V168H273.766V159.547H275.172L275.195 160.523C275.669 159.768 276.341 159.391 277.211 159.391C277.492 159.391 277.706 159.427 277.852 159.5V160.844ZM282.539 168.156C281.393 168.156 280.461 167.781 279.742 167.031C279.023 166.276 278.664 165.268 278.664 164.008V163.742C278.664 162.904 278.823 162.156 279.141 161.5C279.464 160.839 279.911 160.323 280.484 159.953C281.062 159.578 281.688 159.391 282.359 159.391C283.458 159.391 284.312 159.753 284.922 160.477C285.531 161.201 285.836 162.237 285.836 163.586V164.188H280.109C280.13 165.021 280.372 165.695 280.836 166.211C281.305 166.721 281.898 166.977 282.617 166.977C283.128 166.977 283.56 166.872 283.914 166.664C284.268 166.456 284.578 166.18 284.844 165.836L285.727 166.523C285.018 167.612 283.956 168.156 282.539 168.156ZM282.359 160.578C281.776 160.578 281.286 160.792 280.891 161.219C280.495 161.641 280.25 162.234 280.156 163H284.391V162.891C284.349 162.156 284.151 161.589 283.797 161.188C283.443 160.781 282.964 160.578 282.359 160.578ZM289.086 168H287.641V156H289.086V168ZM296.625 168C296.542 167.833 296.474 167.536 296.422 167.109C295.75 167.807 294.948 168.156 294.016 168.156C293.182 168.156 292.497 167.922 291.961 167.453C291.43 166.979 291.164 166.38 291.164 165.656C291.164 164.776 291.497 164.094 292.164 163.609C292.836 163.12 293.779 162.875 294.992 162.875H296.398V162.211C296.398 161.706 296.247 161.305 295.945 161.008C295.643 160.706 295.198 160.555 294.609 160.555C294.094 160.555 293.661 160.685 293.312 160.945C292.964 161.206 292.789 161.521 292.789 161.891H291.336C291.336 161.469 291.484 161.062 291.781 160.672C292.083 160.276 292.49 159.964 293 159.734C293.516 159.505 294.081 159.391 294.695 159.391C295.669 159.391 296.432 159.635 296.984 160.125C297.536 160.609 297.823 161.279 297.844 162.133V166.023C297.844 166.799 297.943 167.417 298.141 167.875V168H296.625ZM294.227 166.898C294.68 166.898 295.109 166.781 295.516 166.547C295.922 166.312 296.216 166.008 296.398 165.633V163.898H295.266C293.495 163.898 292.609 164.417 292.609 165.453C292.609 165.906 292.76 166.26 293.062 166.516C293.365 166.771 293.753 166.898 294.227 166.898ZM302.07 157.5V159.547H303.648V160.664H302.07V165.906C302.07 166.245 302.141 166.5 302.281 166.672C302.422 166.839 302.661 166.922 303 166.922C303.167 166.922 303.396 166.891 303.688 166.828V168C303.307 168.104 302.938 168.156 302.578 168.156C301.932 168.156 301.445 167.961 301.117 167.57C300.789 167.18 300.625 166.625 300.625 165.906V160.664H299.086V159.547H300.625V157.5H302.07ZM308.852 168.156C307.706 168.156 306.773 167.781 306.055 167.031C305.336 166.276 304.977 165.268 304.977 164.008V163.742C304.977 162.904 305.135 162.156 305.453 161.5C305.776 160.839 306.224 160.323 306.797 159.953C307.375 159.578 308 159.391 308.672 159.391C309.771 159.391 310.625 159.753 311.234 160.477C311.844 161.201 312.148 162.237 312.148 163.586V164.188H306.422C306.443 165.021 306.685 165.695 307.148 166.211C307.617 166.721 308.211 166.977 308.93 166.977C309.44 166.977 309.872 166.872 310.227 166.664C310.581 166.456 310.891 166.18 311.156 165.836L312.039 166.523C311.331 167.612 310.268 168.156 308.852 168.156ZM308.672 160.578C308.089 160.578 307.599 160.792 307.203 161.219C306.807 161.641 306.562 162.234 306.469 163H310.703V162.891C310.661 162.156 310.464 161.589 310.109 161.188C309.755 160.781 309.276 160.578 308.672 160.578ZM313.477 163.703C313.477 162.406 313.784 161.365 314.398 160.578C315.013 159.786 315.818 159.391 316.812 159.391C317.802 159.391 318.586 159.729 319.164 160.406V156H320.609V168H319.281L319.211 167.094C318.633 167.802 317.828 168.156 316.797 168.156C315.818 168.156 315.018 167.755 314.398 166.953C313.784 166.151 313.477 165.104 313.477 163.812V163.703ZM314.922 163.867C314.922 164.826 315.12 165.576 315.516 166.117C315.911 166.659 316.458 166.93 317.156 166.93C318.073 166.93 318.742 166.518 319.164 165.695V161.812C318.732 161.016 318.068 160.617 317.172 160.617C316.464 160.617 315.911 160.891 315.516 161.438C315.12 161.984 314.922 162.794 314.922 163.867ZM331.75 165.758C331.75 165.367 331.602 165.065 331.305 164.852C331.013 164.633 330.5 164.445 329.766 164.289C329.036 164.133 328.456 163.945 328.023 163.727C327.596 163.508 327.279 163.247 327.07 162.945C326.867 162.643 326.766 162.284 326.766 161.867C326.766 161.174 327.057 160.589 327.641 160.109C328.229 159.63 328.979 159.391 329.891 159.391C330.849 159.391 331.625 159.638 332.219 160.133C332.818 160.628 333.117 161.26 333.117 162.031H331.664C331.664 161.635 331.495 161.294 331.156 161.008C330.823 160.721 330.401 160.578 329.891 160.578C329.365 160.578 328.953 160.693 328.656 160.922C328.359 161.151 328.211 161.451 328.211 161.82C328.211 162.169 328.349 162.432 328.625 162.609C328.901 162.786 329.398 162.956 330.117 163.117C330.841 163.279 331.427 163.471 331.875 163.695C332.323 163.919 332.654 164.19 332.867 164.508C333.086 164.82 333.195 165.203 333.195 165.656C333.195 166.411 332.893 167.018 332.289 167.477C331.685 167.93 330.901 168.156 329.938 168.156C329.26 168.156 328.661 168.036 328.141 167.797C327.62 167.557 327.211 167.224 326.914 166.797C326.622 166.365 326.477 165.898 326.477 165.398H327.922C327.948 165.883 328.141 166.268 328.5 166.555C328.865 166.836 329.344 166.977 329.938 166.977C330.484 166.977 330.922 166.867 331.25 166.648C331.583 166.424 331.75 166.128 331.75 165.758ZM338.586 168.156C337.44 168.156 336.508 167.781 335.789 167.031C335.07 166.276 334.711 165.268 334.711 164.008V163.742C334.711 162.904 334.87 162.156 335.188 161.5C335.51 160.839 335.958 160.323 336.531 159.953C337.109 159.578 337.734 159.391 338.406 159.391C339.505 159.391 340.359 159.753 340.969 160.477C341.578 161.201 341.883 162.237 341.883 163.586V164.188H336.156C336.177 165.021 336.419 165.695 336.883 166.211C337.352 166.721 337.945 166.977 338.664 166.977C339.174 166.977 339.607 166.872 339.961 166.664C340.315 166.456 340.625 166.18 340.891 165.836L341.773 166.523C341.065 167.612 340.003 168.156 338.586 168.156ZM338.406 160.578C337.823 160.578 337.333 160.792 336.938 161.219C336.542 161.641 336.297 162.234 336.203 163H340.438V162.891C340.396 162.156 340.198 161.589 339.844 161.188C339.49 160.781 339.01 160.578 338.406 160.578ZM347.648 160.844C347.43 160.807 347.193 160.789 346.938 160.789C345.99 160.789 345.346 161.193 345.008 162V168H343.562V159.547H344.969L344.992 160.523C345.466 159.768 346.138 159.391 347.008 159.391C347.289 159.391 347.503 159.427 347.648 159.5V160.844ZM351.914 166.039L354.008 159.547H355.484L352.453 168H351.352L348.289 159.547H349.766L351.914 166.039ZM358.445 168H357V159.547H358.445V168ZM356.883 157.305C356.883 157.07 356.953 156.872 357.094 156.711C357.24 156.549 357.453 156.469 357.734 156.469C358.016 156.469 358.229 156.549 358.375 156.711C358.521 156.872 358.594 157.07 358.594 157.305C358.594 157.539 358.521 157.734 358.375 157.891C358.229 158.047 358.016 158.125 357.734 158.125C357.453 158.125 357.24 158.047 357.094 157.891C356.953 157.734 356.883 157.539 356.883 157.305ZM364.156 166.977C364.672 166.977 365.122 166.82 365.508 166.508C365.893 166.195 366.107 165.805 366.148 165.336H367.516C367.49 165.82 367.323 166.281 367.016 166.719C366.708 167.156 366.297 167.505 365.781 167.766C365.271 168.026 364.729 168.156 364.156 168.156C363.005 168.156 362.089 167.773 361.406 167.008C360.729 166.237 360.391 165.185 360.391 163.852V163.609C360.391 162.786 360.542 162.055 360.844 161.414C361.146 160.773 361.578 160.276 362.141 159.922C362.708 159.568 363.378 159.391 364.148 159.391C365.096 159.391 365.883 159.674 366.508 160.242C367.138 160.81 367.474 161.547 367.516 162.453H366.148C366.107 161.906 365.898 161.458 365.523 161.109C365.154 160.755 364.695 160.578 364.148 160.578C363.414 160.578 362.844 160.844 362.438 161.375C362.036 161.901 361.836 162.664 361.836 163.664V163.938C361.836 164.911 362.036 165.661 362.438 166.188C362.839 166.714 363.411 166.977 364.156 166.977ZM372.648 168.156C371.503 168.156 370.57 167.781 369.852 167.031C369.133 166.276 368.773 165.268 368.773 164.008V163.742C368.773 162.904 368.932 162.156 369.25 161.5C369.573 160.839 370.021 160.323 370.594 159.953C371.172 159.578 371.797 159.391 372.469 159.391C373.568 159.391 374.422 159.753 375.031 160.477C375.641 161.201 375.945 162.237 375.945 163.586V164.188H370.219C370.24 165.021 370.482 165.695 370.945 166.211C371.414 166.721 372.008 166.977 372.727 166.977C373.237 166.977 373.669 166.872 374.023 166.664C374.378 166.456 374.688 166.18 374.953 165.836L375.836 166.523C375.128 167.612 374.065 168.156 372.648 168.156ZM372.469 160.578C371.885 160.578 371.396 160.792 371 161.219C370.604 161.641 370.359 162.234 370.266 163H374.5V162.891C374.458 162.156 374.26 161.589 373.906 161.188C373.552 160.781 373.073 160.578 372.469 160.578ZM382.547 165.758C382.547 165.367 382.398 165.065 382.102 164.852C381.81 164.633 381.297 164.445 380.562 164.289C379.833 164.133 379.253 163.945 378.82 163.727C378.393 163.508 378.076 163.247 377.867 162.945C377.664 162.643 377.562 162.284 377.562 161.867C377.562 161.174 377.854 160.589 378.438 160.109C379.026 159.63 379.776 159.391 380.688 159.391C381.646 159.391 382.422 159.638 383.016 160.133C383.615 160.628 383.914 161.26 383.914 162.031H382.461C382.461 161.635 382.292 161.294 381.953 161.008C381.62 160.721 381.198 160.578 380.688 160.578C380.161 160.578 379.75 160.693 379.453 160.922C379.156 161.151 379.008 161.451 379.008 161.82C379.008 162.169 379.146 162.432 379.422 162.609C379.698 162.786 380.195 162.956 380.914 163.117C381.638 163.279 382.224 163.471 382.672 163.695C383.12 163.919 383.451 164.19 383.664 164.508C383.883 164.82 383.992 165.203 383.992 165.656C383.992 166.411 383.69 167.018 383.086 167.477C382.482 167.93 381.698 168.156 380.734 168.156C380.057 168.156 379.458 168.036 378.938 167.797C378.417 167.557 378.008 167.224 377.711 166.797C377.419 166.365 377.273 165.898 377.273 165.398H378.719C378.745 165.883 378.938 166.268 379.297 166.555C379.661 166.836 380.141 166.977 380.734 166.977C381.281 166.977 381.719 166.867 382.047 166.648C382.38 166.424 382.547 166.128 382.547 165.758ZM395.062 168C394.979 167.833 394.911 167.536 394.859 167.109C394.188 167.807 393.385 168.156 392.453 168.156C391.62 168.156 390.935 167.922 390.398 167.453C389.867 166.979 389.602 166.38 389.602 165.656C389.602 164.776 389.935 164.094 390.602 163.609C391.273 163.12 392.216 162.875 393.43 162.875H394.836V162.211C394.836 161.706 394.685 161.305 394.383 161.008C394.081 160.706 393.635 160.555 393.047 160.555C392.531 160.555 392.099 160.685 391.75 160.945C391.401 161.206 391.227 161.521 391.227 161.891H389.773C389.773 161.469 389.922 161.062 390.219 160.672C390.521 160.276 390.927 159.964 391.438 159.734C391.953 159.505 392.518 159.391 393.133 159.391C394.107 159.391 394.87 159.635 395.422 160.125C395.974 160.609 396.26 161.279 396.281 162.133V166.023C396.281 166.799 396.38 167.417 396.578 167.875V168H395.062ZM392.664 166.898C393.117 166.898 393.547 166.781 393.953 166.547C394.359 166.312 394.654 166.008 394.836 165.633V163.898H393.703C391.932 163.898 391.047 164.417 391.047 165.453C391.047 165.906 391.198 166.26 391.5 166.516C391.802 166.771 392.19 166.898 392.664 166.898ZM401.211 166.039L403.305 159.547H404.781L401.75 168H400.648L397.586 159.547H399.062L401.211 166.039ZM411.266 168C411.182 167.833 411.115 167.536 411.062 167.109C410.391 167.807 409.589 168.156 408.656 168.156C407.823 168.156 407.138 167.922 406.602 167.453C406.07 166.979 405.805 166.38 405.805 165.656C405.805 164.776 406.138 164.094 406.805 163.609C407.477 163.12 408.419 162.875 409.633 162.875H411.039V162.211C411.039 161.706 410.888 161.305 410.586 161.008C410.284 160.706 409.839 160.555 409.25 160.555C408.734 160.555 408.302 160.685 407.953 160.945C407.604 161.206 407.43 161.521 407.43 161.891H405.977C405.977 161.469 406.125 161.062 406.422 160.672C406.724 160.276 407.13 159.964 407.641 159.734C408.156 159.505 408.721 159.391 409.336 159.391C410.31 159.391 411.073 159.635 411.625 160.125C412.177 160.609 412.464 161.279 412.484 162.133V166.023C412.484 166.799 412.583 167.417 412.781 167.875V168H411.266ZM408.867 166.898C409.32 166.898 409.75 166.781 410.156 166.547C410.562 166.312 410.857 166.008 411.039 165.633V163.898H409.906C408.135 163.898 407.25 164.417 407.25 165.453C407.25 165.906 407.401 166.26 407.703 166.516C408.005 166.771 408.393 166.898 408.867 166.898ZM416.32 168H414.875V159.547H416.32V168ZM414.758 157.305C414.758 157.07 414.828 156.872 414.969 156.711C415.115 156.549 415.328 156.469 415.609 156.469C415.891 156.469 416.104 156.549 416.25 156.711C416.396 156.872 416.469 157.07 416.469 157.305C416.469 157.539 416.396 157.734 416.25 157.891C416.104 158.047 415.891 158.125 415.609 158.125C415.328 158.125 415.115 158.047 414.969 157.891C414.828 157.734 414.758 157.539 414.758 157.305ZM420.211 168H418.766V156H420.211V168ZM427.75 168C427.667 167.833 427.599 167.536 427.547 167.109C426.875 167.807 426.073 168.156 425.141 168.156C424.307 168.156 423.622 167.922 423.086 167.453C422.555 166.979 422.289 166.38 422.289 165.656C422.289 164.776 422.622 164.094 423.289 163.609C423.961 163.12 424.904 162.875 426.117 162.875H427.523V162.211C427.523 161.706 427.372 161.305 427.07 161.008C426.768 160.706 426.323 160.555 425.734 160.555C425.219 160.555 424.786 160.685 424.438 160.945C424.089 161.206 423.914 161.521 423.914 161.891H422.461C422.461 161.469 422.609 161.062 422.906 160.672C423.208 160.276 423.615 159.964 424.125 159.734C424.641 159.505 425.206 159.391 425.82 159.391C426.794 159.391 427.557 159.635 428.109 160.125C428.661 160.609 428.948 161.279 428.969 162.133V166.023C428.969 166.799 429.068 167.417 429.266 167.875V168H427.75ZM425.352 166.898C425.805 166.898 426.234 166.781 426.641 166.547C427.047 166.312 427.341 166.008 427.523 165.633V163.898H426.391C424.62 163.898 423.734 164.417 423.734 165.453C423.734 165.906 423.885 166.26 424.188 166.516C424.49 166.771 424.878 166.898 425.352 166.898ZM438.391 163.867C438.391 165.159 438.094 166.198 437.5 166.984C436.906 167.766 436.109 168.156 435.109 168.156C434.042 168.156 433.216 167.779 432.633 167.023L432.562 168H431.234V156H432.68V160.477C433.263 159.753 434.068 159.391 435.094 159.391C436.12 159.391 436.924 159.779 437.508 160.555C438.096 161.331 438.391 162.393 438.391 163.742V163.867ZM436.945 163.703C436.945 162.719 436.755 161.958 436.375 161.422C435.995 160.885 435.448 160.617 434.734 160.617C433.781 160.617 433.096 161.06 432.68 161.945V165.602C433.122 166.487 433.812 166.93 434.75 166.93C435.443 166.93 435.982 166.661 436.367 166.125C436.753 165.589 436.945 164.781 436.945 163.703ZM441.789 168H440.344V156H441.789V168ZM447.617 168.156C446.471 168.156 445.539 167.781 444.82 167.031C444.102 166.276 443.742 165.268 443.742 164.008V163.742C443.742 162.904 443.901 162.156 444.219 161.5C444.542 160.839 444.99 160.323 445.562 159.953C446.141 159.578 446.766 159.391 447.438 159.391C448.536 159.391 449.391 159.753 450 160.477C450.609 161.201 450.914 162.237 450.914 163.586V164.188H445.188C445.208 165.021 445.451 165.695 445.914 166.211C446.383 166.721 446.977 166.977 447.695 166.977C448.206 166.977 448.638 166.872 448.992 166.664C449.346 166.456 449.656 166.18 449.922 165.836L450.805 166.523C450.096 167.612 449.034 168.156 447.617 168.156ZM447.438 160.578C446.854 160.578 446.365 160.792 445.969 161.219C445.573 161.641 445.328 162.234 445.234 163H449.469V162.891C449.427 162.156 449.229 161.589 448.875 161.188C448.521 160.781 448.042 160.578 447.438 160.578ZM461.781 168C461.698 167.833 461.63 167.536 461.578 167.109C460.906 167.807 460.104 168.156 459.172 168.156C458.339 168.156 457.654 167.922 457.117 167.453C456.586 166.979 456.32 166.38 456.32 165.656C456.32 164.776 456.654 164.094 457.32 163.609C457.992 163.12 458.935 162.875 460.148 162.875H461.555V162.211C461.555 161.706 461.404 161.305 461.102 161.008C460.799 160.706 460.354 160.555 459.766 160.555C459.25 160.555 458.818 160.685 458.469 160.945C458.12 161.206 457.945 161.521 457.945 161.891H456.492C456.492 161.469 456.641 161.062 456.938 160.672C457.24 160.276 457.646 159.964 458.156 159.734C458.672 159.505 459.237 159.391 459.852 159.391C460.826 159.391 461.589 159.635 462.141 160.125C462.693 160.609 462.979 161.279 463 162.133V166.023C463 166.799 463.099 167.417 463.297 167.875V168H461.781ZM459.383 166.898C459.836 166.898 460.266 166.781 460.672 166.547C461.078 166.312 461.372 166.008 461.555 165.633V163.898H460.422C458.651 163.898 457.766 164.417 457.766 165.453C457.766 165.906 457.917 166.26 458.219 166.516C458.521 166.771 458.909 166.898 459.383 166.898ZM467.227 157.5V159.547H468.805V160.664H467.227V165.906C467.227 166.245 467.297 166.5 467.438 166.672C467.578 166.839 467.818 166.922 468.156 166.922C468.323 166.922 468.552 166.891 468.844 166.828V168C468.464 168.104 468.094 168.156 467.734 168.156C467.089 168.156 466.602 167.961 466.273 167.57C465.945 167.18 465.781 166.625 465.781 165.906V160.664H464.242V159.547H465.781V157.5H467.227ZM482.703 156.625V164.359C482.698 165.432 482.359 166.31 481.688 166.992C481.021 167.674 480.115 168.057 478.969 168.141L478.57 168.156C477.326 168.156 476.333 167.82 475.594 167.148C474.854 166.477 474.479 165.552 474.469 164.375V156.625H475.953V164.328C475.953 165.151 476.18 165.792 476.633 166.25C477.086 166.703 477.732 166.93 478.57 166.93C479.419 166.93 480.068 166.703 480.516 166.25C480.969 165.797 481.195 165.159 481.195 164.336V156.625H482.703ZM493.438 164.391C493.297 165.594 492.852 166.523 492.102 167.18C491.357 167.831 490.365 168.156 489.125 168.156C487.781 168.156 486.703 167.674 485.891 166.711C485.083 165.747 484.68 164.458 484.68 162.844V161.75C484.68 160.693 484.867 159.763 485.242 158.961C485.622 158.159 486.159 157.544 486.852 157.117C487.544 156.685 488.346 156.469 489.258 156.469C490.466 156.469 491.435 156.807 492.164 157.484C492.893 158.156 493.318 159.089 493.438 160.281H491.93C491.799 159.375 491.516 158.719 491.078 158.312C490.646 157.906 490.039 157.703 489.258 157.703C488.299 157.703 487.547 158.057 487 158.766C486.458 159.474 486.188 160.482 486.188 161.789V162.891C486.188 164.125 486.445 165.107 486.961 165.836C487.477 166.565 488.198 166.93 489.125 166.93C489.958 166.93 490.596 166.742 491.039 166.367C491.487 165.987 491.784 165.328 491.93 164.391H493.438ZM498.844 162.93C497.557 162.56 496.62 162.107 496.031 161.57C495.448 161.029 495.156 160.362 495.156 159.57C495.156 158.674 495.513 157.935 496.227 157.352C496.945 156.763 497.878 156.469 499.023 156.469C499.805 156.469 500.5 156.62 501.109 156.922C501.724 157.224 502.198 157.641 502.531 158.172C502.87 158.703 503.039 159.284 503.039 159.914H501.531C501.531 159.227 501.312 158.688 500.875 158.297C500.438 157.901 499.82 157.703 499.023 157.703C498.284 157.703 497.706 157.867 497.289 158.195C496.878 158.518 496.672 158.969 496.672 159.547C496.672 160.01 496.867 160.404 497.258 160.727C497.654 161.044 498.323 161.336 499.266 161.602C500.214 161.867 500.953 162.161 501.484 162.484C502.021 162.802 502.417 163.174 502.672 163.602C502.932 164.029 503.062 164.531 503.062 165.109C503.062 166.031 502.703 166.771 501.984 167.328C501.266 167.88 500.305 168.156 499.102 168.156C498.32 168.156 497.591 168.008 496.914 167.711C496.237 167.409 495.714 166.997 495.344 166.477C494.979 165.956 494.797 165.365 494.797 164.703H496.305C496.305 165.391 496.557 165.935 497.062 166.336C497.573 166.732 498.253 166.93 499.102 166.93C499.893 166.93 500.5 166.768 500.922 166.445C501.344 166.122 501.555 165.682 501.555 165.125C501.555 164.568 501.359 164.138 500.969 163.836C500.578 163.529 499.87 163.227 498.844 162.93ZM504.992 168V156.625H508.203C509.193 156.625 510.068 156.844 510.828 157.281C511.589 157.719 512.174 158.341 512.586 159.148C513.003 159.956 513.214 160.883 513.219 161.93V162.656C513.219 163.729 513.01 164.669 512.594 165.477C512.182 166.284 511.591 166.904 510.82 167.336C510.055 167.768 509.161 167.99 508.141 168H504.992ZM506.492 157.859V166.773H508.07C509.227 166.773 510.125 166.414 510.766 165.695C511.411 164.977 511.734 163.953 511.734 162.625V161.961C511.734 160.669 511.43 159.667 510.82 158.953C510.216 158.234 509.357 157.87 508.242 157.859H506.492ZM514.5 167.242C514.5 166.992 514.573 166.784 514.719 166.617C514.87 166.451 515.094 166.367 515.391 166.367C515.688 166.367 515.911 166.451 516.062 166.617C516.219 166.784 516.297 166.992 516.297 167.242C516.297 167.482 516.219 167.682 516.062 167.844C515.911 168.005 515.688 168.086 515.391 168.086C515.094 168.086 514.87 168.005 514.719 167.844C514.573 167.682 514.5 167.482 514.5 167.242Z" fill="white"/>
<path d="M727.008 52.3945C725.078 51.8398 723.672 51.1602 722.789 50.3555C721.914 49.543 721.477 48.543 721.477 47.3555C721.477 46.0117 722.012 44.9023 723.082 44.0273C724.16 43.1445 725.559 42.7031 727.277 42.7031C728.449 42.7031 729.492 42.9297 730.406 43.3828C731.328 43.8359 732.039 44.4609 732.539 45.2578C733.047 46.0547 733.301 46.9258 733.301 47.8711H731.039C731.039 46.8398 730.711 46.0312 730.055 45.4453C729.398 44.8516 728.473 44.5547 727.277 44.5547C726.168 44.5547 725.301 44.8008 724.676 45.293C724.059 45.7773 723.75 46.4531 723.75 47.3203C723.75 48.0156 724.043 48.6055 724.629 49.0898C725.223 49.5664 726.227 50.0039 727.641 50.4023C729.062 50.8008 730.172 51.2422 730.969 51.7266C731.773 52.2031 732.367 52.7617 732.75 53.4023C733.141 54.043 733.336 54.7969 733.336 55.6641C733.336 57.0469 732.797 58.1562 731.719 58.9922C730.641 59.8203 729.199 60.2344 727.395 60.2344C726.223 60.2344 725.129 60.0117 724.113 59.5664C723.098 59.1133 722.312 58.4961 721.758 57.7148C721.211 56.9336 720.938 56.0469 720.938 55.0547H723.199C723.199 56.0859 723.578 56.9023 724.336 57.5039C725.102 58.0977 726.121 58.3945 727.395 58.3945C728.582 58.3945 729.492 58.1523 730.125 57.668C730.758 57.1836 731.074 56.5234 731.074 55.6875C731.074 54.8516 730.781 54.207 730.195 53.7539C729.609 53.293 728.547 52.8398 727.008 52.3945ZM738.832 44.25V47.3203H741.199V48.9961H738.832V56.8594C738.832 57.3672 738.938 57.75 739.148 58.0078C739.359 58.2578 739.719 58.3828 740.227 58.3828C740.477 58.3828 740.82 58.3359 741.258 58.2422V60C740.688 60.1562 740.133 60.2344 739.594 60.2344C738.625 60.2344 737.895 59.9414 737.402 59.3555C736.91 58.7695 736.664 57.9375 736.664 56.8594V48.9961H734.355V47.3203H736.664V44.25H738.832ZM751.57 58.7461C750.727 59.7383 749.488 60.2344 747.855 60.2344C746.504 60.2344 745.473 59.8438 744.762 59.0625C744.059 58.2734 743.703 57.1094 743.695 55.5703V47.3203H745.863V55.5117C745.863 57.4336 746.645 58.3945 748.207 58.3945C749.863 58.3945 750.965 57.7773 751.512 56.543V47.3203H753.68V60H751.617L751.57 58.7461ZM756.457 53.5547C756.457 51.6094 756.918 50.0469 757.84 48.8672C758.762 47.6797 759.969 47.0859 761.461 47.0859C762.945 47.0859 764.121 47.5938 764.988 48.6094V42H767.156V60H765.164L765.059 58.6406C764.191 59.7031 762.984 60.2344 761.438 60.2344C759.969 60.2344 758.77 59.6328 757.84 58.4297C756.918 57.2266 756.457 55.6562 756.457 53.7188V53.5547ZM758.625 53.8008C758.625 55.2383 758.922 56.3633 759.516 57.1758C760.109 57.9883 760.93 58.3945 761.977 58.3945C763.352 58.3945 764.355 57.7773 764.988 56.543V50.7188C764.34 49.5234 763.344 48.9258 762 48.9258C760.938 48.9258 760.109 49.3359 759.516 50.1562C758.922 50.9766 758.625 52.1914 758.625 53.8008ZM775.793 60.2344C774.074 60.2344 772.676 59.6719 771.598 58.5469C770.52 57.4141 769.98 55.9023 769.98 54.0117V53.6133C769.98 52.3555 770.219 51.2344 770.695 50.25C771.18 49.2578 771.852 48.4844 772.711 47.9297C773.578 47.3672 774.516 47.0859 775.523 47.0859C777.172 47.0859 778.453 47.6289 779.367 48.7148C780.281 49.8008 780.738 51.3555 780.738 53.3789V54.2812H772.148C772.18 55.5312 772.543 56.543 773.238 57.3164C773.941 58.082 774.832 58.4648 775.91 58.4648C776.676 58.4648 777.324 58.3086 777.855 57.9961C778.387 57.6836 778.852 57.2695 779.25 56.7539L780.574 57.7852C779.512 59.418 777.918 60.2344 775.793 60.2344ZM775.523 48.8672C774.648 48.8672 773.914 49.1875 773.32 49.8281C772.727 50.4609 772.359 51.3516 772.219 52.5H778.57V52.3359C778.508 51.2344 778.211 50.3828 777.68 49.7812C777.148 49.1719 776.43 48.8672 775.523 48.8672ZM785.309 47.3203L785.379 48.9141C786.348 47.6953 787.613 47.0859 789.176 47.0859C791.855 47.0859 793.207 48.5977 793.23 51.6211V60H791.062V51.6094C791.055 50.6953 790.844 50.0195 790.43 49.582C790.023 49.1445 789.387 48.9258 788.52 48.9258C787.816 48.9258 787.199 49.1133 786.668 49.4883C786.137 49.8633 785.723 50.3555 785.426 50.9648V60H783.258V47.3203H785.309ZM799.441 44.25V47.3203H801.809V48.9961H799.441V56.8594C799.441 57.3672 799.547 57.75 799.758 58.0078C799.969 58.2578 800.328 58.3828 800.836 58.3828C801.086 58.3828 801.43 58.3359 801.867 58.2422V60C801.297 60.1562 800.742 60.2344 800.203 60.2344C799.234 60.2344 798.504 59.9414 798.012 59.3555C797.52 58.7695 797.273 57.9375 797.273 56.8594V48.9961H794.965V47.3203H797.273V44.25H799.441ZM823.758 60H821.496V52.1133H812.895V60H810.645V42.9375H812.895V50.2734H821.496V42.9375H823.758V60ZM832.676 60.2344C830.957 60.2344 829.559 59.6719 828.48 58.5469C827.402 57.4141 826.863 55.9023 826.863 54.0117V53.6133C826.863 52.3555 827.102 51.2344 827.578 50.25C828.062 49.2578 828.734 48.4844 829.594 47.9297C830.461 47.3672 831.398 47.0859 832.406 47.0859C834.055 47.0859 835.336 47.6289 836.25 48.7148C837.164 49.8008 837.621 51.3555 837.621 53.3789V54.2812H829.031C829.062 55.5312 829.426 56.543 830.121 57.3164C830.824 58.082 831.715 58.4648 832.793 58.4648C833.559 58.4648 834.207 58.3086 834.738 57.9961C835.27 57.6836 835.734 57.2695 836.133 56.7539L837.457 57.7852C836.395 59.418 834.801 60.2344 832.676 60.2344ZM832.406 48.8672C831.531 48.8672 830.797 49.1875 830.203 49.8281C829.609 50.4609 829.242 51.3516 829.102 52.5H835.453V52.3359C835.391 51.2344 835.094 50.3828 834.562 49.7812C834.031 49.1719 833.312 48.8672 832.406 48.8672ZM847.969 60C847.844 59.75 847.742 59.3047 847.664 58.6641C846.656 59.7109 845.453 60.2344 844.055 60.2344C842.805 60.2344 841.777 59.8828 840.973 59.1797C840.176 58.4688 839.777 57.5703 839.777 56.4844C839.777 55.1641 840.277 54.1406 841.277 53.4141C842.285 52.6797 843.699 52.3125 845.52 52.3125H847.629V51.3164C847.629 50.5586 847.402 49.957 846.949 49.5117C846.496 49.0586 845.828 48.832 844.945 48.832C844.172 48.832 843.523 49.0273 843 49.418C842.477 49.8086 842.215 50.2812 842.215 50.8359H840.035C840.035 50.2031 840.258 49.5938 840.703 49.0078C841.156 48.4141 841.766 47.9453 842.531 47.6016C843.305 47.2578 844.152 47.0859 845.074 47.0859C846.535 47.0859 847.68 47.4531 848.508 48.1875C849.336 48.9141 849.766 49.918 849.797 51.1992V57.0352C849.797 58.1992 849.945 59.125 850.242 59.8125V60H847.969ZM844.371 58.3477C845.051 58.3477 845.695 58.1719 846.305 57.8203C846.914 57.4688 847.355 57.0117 847.629 56.4492V53.8477H845.93C843.273 53.8477 841.945 54.625 841.945 56.1797C841.945 56.8594 842.172 57.3906 842.625 57.7734C843.078 58.1562 843.66 58.3477 844.371 58.3477ZM855.551 60H853.383V42H855.551V60ZM861.973 44.25V47.3203H864.34V48.9961H861.973V56.8594C861.973 57.3672 862.078 57.75 862.289 58.0078C862.5 58.2578 862.859 58.3828 863.367 58.3828C863.617 58.3828 863.961 58.3359 864.398 58.2422V60C863.828 60.1562 863.273 60.2344 862.734 60.2344C861.766 60.2344 861.035 59.9414 860.543 59.3555C860.051 58.7695 859.805 57.9375 859.805 56.8594V48.9961H857.496V47.3203H859.805V44.25H861.973ZM869.051 48.8555C870.012 47.6758 871.262 47.0859 872.801 47.0859C875.48 47.0859 876.832 48.5977 876.855 51.6211V60H874.688V51.6094C874.68 50.6953 874.469 50.0195 874.055 49.582C873.648 49.1445 873.012 48.9258 872.145 48.9258C871.441 48.9258 870.824 49.1133 870.293 49.4883C869.762 49.8633 869.348 50.3555 869.051 50.9648V60H866.883V42H869.051V48.8555ZM891.422 52.3945C889.492 51.8398 888.086 51.1602 887.203 50.3555C886.328 49.543 885.891 48.543 885.891 47.3555C885.891 46.0117 886.426 44.9023 887.496 44.0273C888.574 43.1445 889.973 42.7031 891.691 42.7031C892.863 42.7031 893.906 42.9297 894.82 43.3828C895.742 43.8359 896.453 44.4609 896.953 45.2578C897.461 46.0547 897.715 46.9258 897.715 47.8711H895.453C895.453 46.8398 895.125 46.0312 894.469 45.4453C893.812 44.8516 892.887 44.5547 891.691 44.5547C890.582 44.5547 889.715 44.8008 889.09 45.293C888.473 45.7773 888.164 46.4531 888.164 47.3203C888.164 48.0156 888.457 48.6055 889.043 49.0898C889.637 49.5664 890.641 50.0039 892.055 50.4023C893.477 50.8008 894.586 51.2422 895.383 51.7266C896.188 52.2031 896.781 52.7617 897.164 53.4023C897.555 54.043 897.75 54.7969 897.75 55.6641C897.75 57.0469 897.211 58.1562 896.133 58.9922C895.055 59.8203 893.613 60.2344 891.809 60.2344C890.637 60.2344 889.543 60.0117 888.527 59.5664C887.512 59.1133 886.727 58.4961 886.172 57.7148C885.625 56.9336 885.352 56.0469 885.352 55.0547H887.613C887.613 56.0859 887.992 56.9023 888.75 57.5039C889.516 58.0977 890.535 58.3945 891.809 58.3945C892.996 58.3945 893.906 58.1523 894.539 57.668C895.172 57.1836 895.488 56.5234 895.488 55.6875C895.488 54.8516 895.195 54.207 894.609 53.7539C894.023 53.293 892.961 52.8398 891.422 52.3945ZM905.566 60.2344C903.848 60.2344 902.449 59.6719 901.371 58.5469C900.293 57.4141 899.754 55.9023 899.754 54.0117V53.6133C899.754 52.3555 899.992 51.2344 900.469 50.25C900.953 49.2578 901.625 48.4844 902.484 47.9297C903.352 47.3672 904.289 47.0859 905.297 47.0859C906.945 47.0859 908.227 47.6289 909.141 48.7148C910.055 49.8008 910.512 51.3555 910.512 53.3789V54.2812H901.922C901.953 55.5312 902.316 56.543 903.012 57.3164C903.715 58.082 904.605 58.4648 905.684 58.4648C906.449 58.4648 907.098 58.3086 907.629 57.9961C908.16 57.6836 908.625 57.2695 909.023 56.7539L910.348 57.7852C909.285 59.418 907.691 60.2344 905.566 60.2344ZM905.297 48.8672C904.422 48.8672 903.688 49.1875 903.094 49.8281C902.5 50.4609 902.133 51.3516 901.992 52.5H908.344V52.3359C908.281 51.2344 907.984 50.3828 907.453 49.7812C906.922 49.1719 906.203 48.8672 905.297 48.8672ZM919.16 49.2656C918.832 49.2109 918.477 49.1836 918.094 49.1836C916.672 49.1836 915.707 49.7891 915.199 51V60H913.031V47.3203H915.141L915.176 48.7852C915.887 47.6523 916.895 47.0859 918.199 47.0859C918.621 47.0859 918.941 47.1406 919.16 47.25V49.2656ZM925.559 57.0586L928.699 47.3203H930.914L926.367 60H924.715L920.121 47.3203H922.336L925.559 57.0586ZM935.355 60H933.188V47.3203H935.355V60ZM933.012 43.957C933.012 43.6055 933.117 43.3086 933.328 43.0664C933.547 42.8242 933.867 42.7031 934.289 42.7031C934.711 42.7031 935.031 42.8242 935.25 43.0664C935.469 43.3086 935.578 43.6055 935.578 43.957C935.578 44.3086 935.469 44.6016 935.25 44.8359C935.031 45.0703 934.711 45.1875 934.289 45.1875C933.867 45.1875 933.547 45.0703 933.328 44.8359C933.117 44.6016 933.012 44.3086 933.012 43.957ZM943.922 58.4648C944.695 58.4648 945.371 58.2305 945.949 57.7617C946.527 57.293 946.848 56.707 946.91 56.0039H948.961C948.922 56.7305 948.672 57.4219 948.211 58.0781C947.75 58.7344 947.133 59.2578 946.359 59.6484C945.594 60.0391 944.781 60.2344 943.922 60.2344C942.195 60.2344 940.82 59.6602 939.797 58.5117C938.781 57.3555 938.273 55.7773 938.273 53.7773V53.4141C938.273 52.1797 938.5 51.082 938.953 50.1211C939.406 49.1602 940.055 48.4141 940.898 47.8828C941.75 47.3516 942.754 47.0859 943.91 47.0859C945.332 47.0859 946.512 47.5117 947.449 48.3633C948.395 49.2148 948.898 50.3203 948.961 51.6797H946.91C946.848 50.8594 946.535 50.1875 945.973 49.6641C945.418 49.1328 944.73 48.8672 943.91 48.8672C942.809 48.8672 941.953 49.2656 941.344 50.0625C940.742 50.8516 940.441 51.9961 940.441 53.4961V53.9062C940.441 55.3672 940.742 56.4922 941.344 57.2812C941.945 58.0703 942.805 58.4648 943.922 58.4648ZM956.66 60.2344C954.941 60.2344 953.543 59.6719 952.465 58.5469C951.387 57.4141 950.848 55.9023 950.848 54.0117V53.6133C950.848 52.3555 951.086 51.2344 951.562 50.25C952.047 49.2578 952.719 48.4844 953.578 47.9297C954.445 47.3672 955.383 47.0859 956.391 47.0859C958.039 47.0859 959.32 47.6289 960.234 48.7148C961.148 49.8008 961.605 51.3555 961.605 53.3789V54.2812H953.016C953.047 55.5312 953.41 56.543 954.105 57.3164C954.809 58.082 955.699 58.4648 956.777 58.4648C957.543 58.4648 958.191 58.3086 958.723 57.9961C959.254 57.6836 959.719 57.2695 960.117 56.7539L961.441 57.7852C960.379 59.418 958.785 60.2344 956.66 60.2344ZM956.391 48.8672C955.516 48.8672 954.781 49.1875 954.188 49.8281C953.594 50.4609 953.227 51.3516 953.086 52.5H959.438V52.3359C959.375 51.2344 959.078 50.3828 958.547 49.7812C958.016 49.1719 957.297 48.8672 956.391 48.8672ZM971.508 56.6367C971.508 56.0508 971.285 55.5977 970.84 55.2773C970.402 54.9492 969.633 54.668 968.531 54.4336C967.438 54.1992 966.566 53.918 965.918 53.5898C965.277 53.2617 964.801 52.8711 964.488 52.418C964.184 51.9648 964.031 51.4258 964.031 50.8008C964.031 49.7617 964.469 48.8828 965.344 48.1641C966.227 47.4453 967.352 47.0859 968.719 47.0859C970.156 47.0859 971.32 47.457 972.211 48.1992C973.109 48.9414 973.559 49.8906 973.559 51.0469H971.379C971.379 50.4531 971.125 49.9414 970.617 49.5117C970.117 49.082 969.484 48.8672 968.719 48.8672C967.93 48.8672 967.312 49.0391 966.867 49.3828C966.422 49.7266 966.199 50.1758 966.199 50.7305C966.199 51.2539 966.406 51.6484 966.82 51.9141C967.234 52.1797 967.98 52.4336 969.059 52.6758C970.145 52.918 971.023 53.207 971.695 53.543C972.367 53.8789 972.863 54.2852 973.184 54.7617C973.512 55.2305 973.676 55.8047 973.676 56.4844C973.676 57.6172 973.223 58.5273 972.316 59.2148C971.41 59.8945 970.234 60.2344 968.789 60.2344C967.773 60.2344 966.875 60.0547 966.094 59.6953C965.312 59.3359 964.699 58.8359 964.254 58.1953C963.816 57.5469 963.598 56.8477 963.598 56.0977H965.766C965.805 56.8242 966.094 57.4023 966.633 57.832C967.18 58.2539 967.898 58.4648 968.789 58.4648C969.609 58.4648 970.266 58.3008 970.758 57.9727C971.258 57.6367 971.508 57.1914 971.508 56.6367Z" fill="white"/>
<path d="M727.008 111.395C725.078 110.84 723.672 110.16 722.789 109.355C721.914 108.543 721.477 107.543 721.477 106.355C721.477 105.012 722.012 103.902 723.082 103.027C724.16 102.145 725.559 101.703 727.277 101.703C728.449 101.703 729.492 101.93 730.406 102.383C731.328 102.836 732.039 103.461 732.539 104.258C733.047 105.055 733.301 105.926 733.301 106.871H731.039C731.039 105.84 730.711 105.031 730.055 104.445C729.398 103.852 728.473 103.555 727.277 103.555C726.168 103.555 725.301 103.801 724.676 104.293C724.059 104.777 723.75 105.453 723.75 106.32C723.75 107.016 724.043 107.605 724.629 108.09C725.223 108.566 726.227 109.004 727.641 109.402C729.062 109.801 730.172 110.242 730.969 110.727C731.773 111.203 732.367 111.762 732.75 112.402C733.141 113.043 733.336 113.797 733.336 114.664C733.336 116.047 732.797 117.156 731.719 117.992C730.641 118.82 729.199 119.234 727.395 119.234C726.223 119.234 725.129 119.012 724.113 118.566C723.098 118.113 722.312 117.496 721.758 116.715C721.211 115.934 720.938 115.047 720.938 114.055H723.199C723.199 115.086 723.578 115.902 724.336 116.504C725.102 117.098 726.121 117.395 727.395 117.395C728.582 117.395 729.492 117.152 730.125 116.668C730.758 116.184 731.074 115.523 731.074 114.688C731.074 113.852 730.781 113.207 730.195 112.754C729.609 112.293 728.547 111.84 727.008 111.395ZM738.832 103.25V106.32H741.199V107.996H738.832V115.859C738.832 116.367 738.938 116.75 739.148 117.008C739.359 117.258 739.719 117.383 740.227 117.383C740.477 117.383 740.82 117.336 741.258 117.242V119C740.688 119.156 740.133 119.234 739.594 119.234C738.625 119.234 737.895 118.941 737.402 118.355C736.91 117.77 736.664 116.938 736.664 115.859V107.996H734.355V106.32H736.664V103.25H738.832ZM751.57 117.746C750.727 118.738 749.488 119.234 747.855 119.234C746.504 119.234 745.473 118.844 744.762 118.062C744.059 117.273 743.703 116.109 743.695 114.57V106.32H745.863V114.512C745.863 116.434 746.645 117.395 748.207 117.395C749.863 117.395 750.965 116.777 751.512 115.543V106.32H753.68V119H751.617L751.57 117.746ZM756.457 112.555C756.457 110.609 756.918 109.047 757.84 107.867C758.762 106.68 759.969 106.086 761.461 106.086C762.945 106.086 764.121 106.594 764.988 107.609V101H767.156V119H765.164L765.059 117.641C764.191 118.703 762.984 119.234 761.438 119.234C759.969 119.234 758.77 118.633 757.84 117.43C756.918 116.227 756.457 114.656 756.457 112.719V112.555ZM758.625 112.801C758.625 114.238 758.922 115.363 759.516 116.176C760.109 116.988 760.93 117.395 761.977 117.395C763.352 117.395 764.355 116.777 764.988 115.543V109.719C764.34 108.523 763.344 107.926 762 107.926C760.938 107.926 760.109 108.336 759.516 109.156C758.922 109.977 758.625 111.191 758.625 112.801ZM775.793 119.234C774.074 119.234 772.676 118.672 771.598 117.547C770.52 116.414 769.98 114.902 769.98 113.012V112.613C769.98 111.355 770.219 110.234 770.695 109.25C771.18 108.258 771.852 107.484 772.711 106.93C773.578 106.367 774.516 106.086 775.523 106.086C777.172 106.086 778.453 106.629 779.367 107.715C780.281 108.801 780.738 110.355 780.738 112.379V113.281H772.148C772.18 114.531 772.543 115.543 773.238 116.316C773.941 117.082 774.832 117.465 775.91 117.465C776.676 117.465 777.324 117.309 777.855 116.996C778.387 116.684 778.852 116.27 779.25 115.754L780.574 116.785C779.512 118.418 777.918 119.234 775.793 119.234ZM775.523 107.867C774.648 107.867 773.914 108.188 773.32 108.828C772.727 109.461 772.359 110.352 772.219 111.5H778.57V111.336C778.508 110.234 778.211 109.383 777.68 108.781C777.148 108.172 776.43 107.867 775.523 107.867ZM785.309 106.32L785.379 107.914C786.348 106.695 787.613 106.086 789.176 106.086C791.855 106.086 793.207 107.598 793.23 110.621V119H791.062V110.609C791.055 109.695 790.844 109.02 790.43 108.582C790.023 108.145 789.387 107.926 788.52 107.926C787.816 107.926 787.199 108.113 786.668 108.488C786.137 108.863 785.723 109.355 785.426 109.965V119H783.258V106.32H785.309ZM799.441 103.25V106.32H801.809V107.996H799.441V115.859C799.441 116.367 799.547 116.75 799.758 117.008C799.969 117.258 800.328 117.383 800.836 117.383C801.086 117.383 801.43 117.336 801.867 117.242V119C801.297 119.156 800.742 119.234 800.203 119.234C799.234 119.234 798.504 118.941 798.012 118.355C797.52 117.77 797.273 116.938 797.273 115.859V107.996H794.965V106.32H797.273V103.25H799.441ZM823.758 119H821.496V111.113H812.895V119H810.645V101.938H812.895V109.273H821.496V101.938H823.758V119ZM832.676 119.234C830.957 119.234 829.559 118.672 828.48 117.547C827.402 116.414 826.863 114.902 826.863 113.012V112.613C826.863 111.355 827.102 110.234 827.578 109.25C828.062 108.258 828.734 107.484 829.594 106.93C830.461 106.367 831.398 106.086 832.406 106.086C834.055 106.086 835.336 106.629 836.25 107.715C837.164 108.801 837.621 110.355 837.621 112.379V113.281H829.031C829.062 114.531 829.426 115.543 830.121 116.316C830.824 117.082 831.715 117.465 832.793 117.465C833.559 117.465 834.207 117.309 834.738 116.996C835.27 116.684 835.734 116.27 836.133 115.754L837.457 116.785C836.395 118.418 834.801 119.234 832.676 119.234ZM832.406 107.867C831.531 107.867 830.797 108.188 830.203 108.828C829.609 109.461 829.242 110.352 829.102 111.5H835.453V111.336C835.391 110.234 835.094 109.383 834.562 108.781C834.031 108.172 833.312 107.867 832.406 107.867ZM847.969 119C847.844 118.75 847.742 118.305 847.664 117.664C846.656 118.711 845.453 119.234 844.055 119.234C842.805 119.234 841.777 118.883 840.973 118.18C840.176 117.469 839.777 116.57 839.777 115.484C839.777 114.164 840.277 113.141 841.277 112.414C842.285 111.68 843.699 111.312 845.52 111.312H847.629V110.316C847.629 109.559 847.402 108.957 846.949 108.512C846.496 108.059 845.828 107.832 844.945 107.832C844.172 107.832 843.523 108.027 843 108.418C842.477 108.809 842.215 109.281 842.215 109.836H840.035C840.035 109.203 840.258 108.594 840.703 108.008C841.156 107.414 841.766 106.945 842.531 106.602C843.305 106.258 844.152 106.086 845.074 106.086C846.535 106.086 847.68 106.453 848.508 107.188C849.336 107.914 849.766 108.918 849.797 110.199V116.035C849.797 117.199 849.945 118.125 850.242 118.812V119H847.969ZM844.371 117.348C845.051 117.348 845.695 117.172 846.305 116.82C846.914 116.469 847.355 116.012 847.629 115.449V112.848H845.93C843.273 112.848 841.945 113.625 841.945 115.18C841.945 115.859 842.172 116.391 842.625 116.773C843.078 117.156 843.66 117.348 844.371 117.348ZM855.551 119H853.383V101H855.551V119ZM861.973 103.25V106.32H864.34V107.996H861.973V115.859C861.973 116.367 862.078 116.75 862.289 117.008C862.5 117.258 862.859 117.383 863.367 117.383C863.617 117.383 863.961 117.336 864.398 117.242V119C863.828 119.156 863.273 119.234 862.734 119.234C861.766 119.234 861.035 118.941 860.543 118.355C860.051 117.77 859.805 116.938 859.805 115.859V107.996H857.496V106.32H859.805V103.25H861.973ZM869.051 107.855C870.012 106.676 871.262 106.086 872.801 106.086C875.48 106.086 876.832 107.598 876.855 110.621V119H874.688V110.609C874.68 109.695 874.469 109.02 874.055 108.582C873.648 108.145 873.012 107.926 872.145 107.926C871.441 107.926 870.824 108.113 870.293 108.488C869.762 108.863 869.348 109.355 869.051 109.965V119H866.883V101H869.051V107.855ZM885.598 114.418C885.598 113.598 885.824 112.844 886.277 112.156C886.738 111.469 887.613 110.668 888.902 109.754C888.145 108.832 887.637 108.09 887.379 107.527C887.121 106.965 886.992 106.406 886.992 105.852C886.992 104.555 887.375 103.539 888.141 102.805C888.906 102.07 889.945 101.703 891.258 101.703C892.43 101.703 893.398 102.047 894.164 102.734C894.93 103.414 895.312 104.273 895.312 105.312C895.312 106 895.137 106.637 894.785 107.223C894.441 107.801 893.836 108.41 892.969 109.051L891.715 109.977L895.512 114.512C896.043 113.496 896.309 112.367 896.309 111.125H898.266C898.266 113.117 897.785 114.77 896.824 116.082L899.262 119H896.66L895.523 117.652C894.945 118.168 894.266 118.562 893.484 118.836C892.711 119.102 891.922 119.234 891.117 119.234C889.453 119.234 888.117 118.793 887.109 117.91C886.102 117.027 885.598 115.863 885.598 114.418ZM891.117 117.465C892.266 117.465 893.316 117.027 894.27 116.152L890.109 111.172L889.723 111.453C888.418 112.414 887.766 113.402 887.766 114.418C887.766 115.34 888.062 116.078 888.656 116.633C889.258 117.188 890.078 117.465 891.117 117.465ZM889.16 105.781C889.16 106.531 889.621 107.469 890.543 108.594L891.926 107.621C892.457 107.246 892.82 106.891 893.016 106.555C893.211 106.211 893.309 105.797 893.309 105.312C893.309 104.789 893.113 104.355 892.723 104.012C892.332 103.66 891.84 103.484 891.246 103.484C890.605 103.484 890.098 103.703 889.723 104.141C889.348 104.57 889.16 105.117 889.16 105.781ZM910.957 113.621L911.285 115.871L911.766 113.844L915.141 101.938H917.039L920.332 113.844L920.801 115.906L921.164 113.609L923.812 101.938H926.074L921.938 119H919.887L916.371 106.566L916.102 105.266L915.832 106.566L912.188 119H910.137L906.012 101.938H908.262L910.957 113.621ZM933.129 119.234C931.41 119.234 930.012 118.672 928.934 117.547C927.855 116.414 927.316 114.902 927.316 113.012V112.613C927.316 111.355 927.555 110.234 928.031 109.25C928.516 108.258 929.188 107.484 930.047 106.93C930.914 106.367 931.852 106.086 932.859 106.086C934.508 106.086 935.789 106.629 936.703 107.715C937.617 108.801 938.074 110.355 938.074 112.379V113.281H929.484C929.516 114.531 929.879 115.543 930.574 116.316C931.277 117.082 932.168 117.465 933.246 117.465C934.012 117.465 934.66 117.309 935.191 116.996C935.723 116.684 936.188 116.27 936.586 115.754L937.91 116.785C936.848 118.418 935.254 119.234 933.129 119.234ZM932.859 107.867C931.984 107.867 931.25 108.188 930.656 108.828C930.062 109.461 929.695 110.352 929.555 111.5H935.906V111.336C935.844 110.234 935.547 109.383 935.016 108.781C934.484 108.172 933.766 107.867 932.859 107.867ZM942.949 119H940.781V101H942.949V119ZM948.785 119H946.617V101H948.785V119ZM963 112.801C963 114.738 962.555 116.297 961.664 117.477C960.773 118.648 959.578 119.234 958.078 119.234C956.477 119.234 955.238 118.668 954.363 117.535L954.258 119H952.266V101H954.434V107.715C955.309 106.629 956.516 106.086 958.055 106.086C959.594 106.086 960.801 106.668 961.676 107.832C962.559 108.996 963 110.59 963 112.613V112.801ZM960.832 112.555C960.832 111.078 960.547 109.938 959.977 109.133C959.406 108.328 958.586 107.926 957.516 107.926C956.086 107.926 955.059 108.59 954.434 109.918V115.402C955.098 116.73 956.133 117.395 957.539 117.395C958.578 117.395 959.387 116.992 959.965 116.188C960.543 115.383 960.832 114.172 960.832 112.555ZM971.004 119.234C969.285 119.234 967.887 118.672 966.809 117.547C965.73 116.414 965.191 114.902 965.191 113.012V112.613C965.191 111.355 965.43 110.234 965.906 109.25C966.391 108.258 967.062 107.484 967.922 106.93C968.789 106.367 969.727 106.086 970.734 106.086C972.383 106.086 973.664 106.629 974.578 107.715C975.492 108.801 975.949 110.355 975.949 112.379V113.281H967.359C967.391 114.531 967.754 115.543 968.449 116.316C969.152 117.082 970.043 117.465 971.121 117.465C971.887 117.465 972.535 117.309 973.066 116.996C973.598 116.684 974.062 116.27 974.461 115.754L975.785 116.785C974.723 118.418 973.129 119.234 971.004 119.234ZM970.734 107.867C969.859 107.867 969.125 108.188 968.531 108.828C967.938 109.461 967.57 110.352 967.43 111.5H973.781V111.336C973.719 110.234 973.422 109.383 972.891 108.781C972.359 108.172 971.641 107.867 970.734 107.867ZM980.824 119H978.656V106.32H980.824V119ZM978.48 102.957C978.48 102.605 978.586 102.309 978.797 102.066C979.016 101.824 979.336 101.703 979.758 101.703C980.18 101.703 980.5 101.824 980.719 102.066C980.938 102.309 981.047 102.605 981.047 102.957C981.047 103.309 980.938 103.602 980.719 103.836C980.5 104.07 980.18 104.188 979.758 104.188C979.336 104.188 979.016 104.07 978.797 103.836C978.586 103.602 978.48 103.309 978.48 102.957ZM986.355 106.32L986.426 107.914C987.395 106.695 988.66 106.086 990.223 106.086C992.902 106.086 994.254 107.598 994.277 110.621V119H992.109V110.609C992.102 109.695 991.891 109.02 991.477 108.582C991.07 108.145 990.434 107.926 989.566 107.926C988.863 107.926 988.246 108.113 987.715 108.488C987.184 108.863 986.77 109.355 986.473 109.965V119H984.305V106.32H986.355ZM997.031 112.555C997.031 110.578 997.488 109.008 998.402 107.844C999.316 106.672 1000.53 106.086 1002.04 106.086C1003.58 106.086 1004.79 106.633 1005.66 107.727L1005.76 106.32H1007.74V118.695C1007.74 120.336 1007.25 121.629 1006.28 122.574C1005.31 123.52 1004 123.992 1002.36 123.992C1001.45 123.992 1000.55 123.797 999.68 123.406C998.805 123.016 998.137 122.48 997.676 121.801L998.801 120.5C999.73 121.648 1000.87 122.223 1002.21 122.223C1003.27 122.223 1004.09 121.926 1004.67 121.332C1005.27 120.738 1005.56 119.902 1005.56 118.824V117.734C1004.7 118.734 1003.51 119.234 1002.01 119.234C1000.53 119.234 999.324 118.637 998.402 117.441C997.488 116.246 997.031 114.617 997.031 112.555ZM999.211 112.801C999.211 114.23 999.504 115.355 1000.09 116.176C1000.68 116.988 1001.5 117.395 1002.55 117.395C1003.92 117.395 1004.92 116.773 1005.56 115.531V109.742C1004.9 108.531 1003.9 107.926 1002.57 107.926C1001.52 107.926 1000.7 108.336 1000.1 109.156C999.508 109.977 999.211 111.191 999.211 112.801ZM731.402 144.547H724.254L722.648 149H720.328L726.844 131.938H728.812L735.34 149H733.031L731.402 144.547ZM724.934 142.695H730.734L727.828 134.715L724.934 142.695ZM736.77 142.555C736.77 140.609 737.23 139.047 738.152 137.867C739.074 136.68 740.281 136.086 741.773 136.086C743.258 136.086 744.434 136.594 745.301 137.609V131H747.469V149H745.477L745.371 147.641C744.504 148.703 743.297 149.234 741.75 149.234C740.281 149.234 739.082 148.633 738.152 147.43C737.23 146.227 736.77 144.656 736.77 142.719V142.555ZM738.938 142.801C738.938 144.238 739.234 145.363 739.828 146.176C740.422 146.988 741.242 147.395 742.289 147.395C743.664 147.395 744.668 146.777 745.301 145.543V139.719C744.652 138.523 743.656 137.926 742.312 137.926C741.25 137.926 740.422 138.336 739.828 139.156C739.234 139.977 738.938 141.191 738.938 142.801ZM752.883 136.32L752.941 137.727C753.871 136.633 755.125 136.086 756.703 136.086C758.477 136.086 759.684 136.766 760.324 138.125C760.746 137.516 761.293 137.023 761.965 136.648C762.645 136.273 763.445 136.086 764.367 136.086C767.148 136.086 768.562 137.559 768.609 140.504V149H766.441V140.633C766.441 139.727 766.234 139.051 765.82 138.605C765.406 138.152 764.711 137.926 763.734 137.926C762.93 137.926 762.262 138.168 761.73 138.652C761.199 139.129 760.891 139.773 760.805 140.586V149H758.625V140.691C758.625 138.848 757.723 137.926 755.918 137.926C754.496 137.926 753.523 138.531 753 139.742V149H750.832V136.32H752.883ZM774.246 149H772.078V136.32H774.246V149ZM771.902 132.957C771.902 132.605 772.008 132.309 772.219 132.066C772.438 131.824 772.758 131.703 773.18 131.703C773.602 131.703 773.922 131.824 774.141 132.066C774.359 132.309 774.469 132.605 774.469 132.957C774.469 133.309 774.359 133.602 774.141 133.836C773.922 134.07 773.602 134.188 773.18 134.188C772.758 134.188 772.438 134.07 772.219 133.836C772.008 133.602 771.902 133.309 771.902 132.957ZM779.777 136.32L779.848 137.914C780.816 136.695 782.082 136.086 783.645 136.086C786.324 136.086 787.676 137.598 787.699 140.621V149H785.531V140.609C785.523 139.695 785.312 139.02 784.898 138.582C784.492 138.145 783.855 137.926 782.988 137.926C782.285 137.926 781.668 138.113 781.137 138.488C780.605 138.863 780.191 139.355 779.895 139.965V149H777.727V136.32H779.777ZM793.324 149H791.156V136.32H793.324V149ZM790.98 132.957C790.98 132.605 791.086 132.309 791.297 132.066C791.516 131.824 791.836 131.703 792.258 131.703C792.68 131.703 793 131.824 793.219 132.066C793.438 132.309 793.547 132.605 793.547 132.957C793.547 133.309 793.438 133.602 793.219 133.836C793 134.07 792.68 134.188 792.258 134.188C791.836 134.188 791.516 134.07 791.297 133.836C791.086 133.602 790.98 133.309 790.98 132.957ZM804.188 145.637C804.188 145.051 803.965 144.598 803.52 144.277C803.082 143.949 802.312 143.668 801.211 143.434C800.117 143.199 799.246 142.918 798.598 142.59C797.957 142.262 797.48 141.871 797.168 141.418C796.863 140.965 796.711 140.426 796.711 139.801C796.711 138.762 797.148 137.883 798.023 137.164C798.906 136.445 800.031 136.086 801.398 136.086C802.836 136.086 804 136.457 804.891 137.199C805.789 137.941 806.238 138.891 806.238 140.047H804.059C804.059 139.453 803.805 138.941 803.297 138.512C802.797 138.082 802.164 137.867 801.398 137.867C800.609 137.867 799.992 138.039 799.547 138.383C799.102 138.727 798.879 139.176 798.879 139.73C798.879 140.254 799.086 140.648 799.5 140.914C799.914 141.18 800.66 141.434 801.738 141.676C802.824 141.918 803.703 142.207 804.375 142.543C805.047 142.879 805.543 143.285 805.863 143.762C806.191 144.23 806.355 144.805 806.355 145.484C806.355 146.617 805.902 147.527 804.996 148.215C804.09 148.895 802.914 149.234 801.469 149.234C800.453 149.234 799.555 149.055 798.773 148.695C797.992 148.336 797.379 147.836 796.934 147.195C796.496 146.547 796.277 145.848 796.277 145.098H798.445C798.484 145.824 798.773 146.402 799.312 146.832C799.859 147.254 800.578 147.465 801.469 147.465C802.289 147.465 802.945 147.301 803.438 146.973C803.938 146.637 804.188 146.191 804.188 145.637ZM812.121 133.25V136.32H814.488V137.996H812.121V145.859C812.121 146.367 812.227 146.75 812.438 147.008C812.648 147.258 813.008 147.383 813.516 147.383C813.766 147.383 814.109 147.336 814.547 147.242V149C813.977 149.156 813.422 149.234 812.883 149.234C811.914 149.234 811.184 148.941 810.691 148.355C810.199 147.77 809.953 146.938 809.953 145.859V137.996H807.645V136.32H809.953V133.25H812.121ZM823.16 138.266C822.832 138.211 822.477 138.184 822.094 138.184C820.672 138.184 819.707 138.789 819.199 140V149H817.031V136.32H819.141L819.176 137.785C819.887 136.652 820.895 136.086 822.199 136.086C822.621 136.086 822.941 136.141 823.16 136.25V138.266ZM832.523 149C832.398 148.75 832.297 148.305 832.219 147.664C831.211 148.711 830.008 149.234 828.609 149.234C827.359 149.234 826.332 148.883 825.527 148.18C824.73 147.469 824.332 146.57 824.332 145.484C824.332 144.164 824.832 143.141 825.832 142.414C826.84 141.68 828.254 141.312 830.074 141.312H832.184V140.316C832.184 139.559 831.957 138.957 831.504 138.512C831.051 138.059 830.383 137.832 829.5 137.832C828.727 137.832 828.078 138.027 827.555 138.418C827.031 138.809 826.77 139.281 826.77 139.836H824.59C824.59 139.203 824.812 138.594 825.258 138.008C825.711 137.414 826.32 136.945 827.086 136.602C827.859 136.258 828.707 136.086 829.629 136.086C831.09 136.086 832.234 136.453 833.062 137.188C833.891 137.914 834.32 138.918 834.352 140.199V146.035C834.352 147.199 834.5 148.125 834.797 148.812V149H832.523ZM828.926 147.348C829.605 147.348 830.25 147.172 830.859 146.82C831.469 146.469 831.91 146.012 832.184 145.449V142.848H830.484C827.828 142.848 826.5 143.625 826.5 145.18C826.5 145.859 826.727 146.391 827.18 146.773C827.633 147.156 828.215 147.348 828.926 147.348ZM840.691 133.25V136.32H843.059V137.996H840.691V145.859C840.691 146.367 840.797 146.75 841.008 147.008C841.219 147.258 841.578 147.383 842.086 147.383C842.336 147.383 842.68 147.336 843.117 147.242V149C842.547 149.156 841.992 149.234 841.453 149.234C840.484 149.234 839.754 148.941 839.262 148.355C838.77 147.77 838.523 146.938 838.523 145.859V137.996H836.215V136.32H838.523V133.25H840.691ZM847.957 149H845.789V136.32H847.957V149ZM845.613 132.957C845.613 132.605 845.719 132.309 845.93 132.066C846.148 131.824 846.469 131.703 846.891 131.703C847.312 131.703 847.633 131.824 847.852 132.066C848.07 132.309 848.18 132.605 848.18 132.957C848.18 133.309 848.07 133.602 847.852 133.836C847.633 134.07 847.312 134.188 846.891 134.188C846.469 134.188 846.148 134.07 845.93 133.836C845.719 133.602 845.613 133.309 845.613 132.957ZM850.863 142.543C850.863 141.301 851.105 140.184 851.59 139.191C852.082 138.199 852.762 137.434 853.629 136.895C854.504 136.355 855.5 136.086 856.617 136.086C858.344 136.086 859.738 136.684 860.801 137.879C861.871 139.074 862.406 140.664 862.406 142.648V142.801C862.406 144.035 862.168 145.145 861.691 146.129C861.223 147.105 860.547 147.867 859.664 148.414C858.789 148.961 857.781 149.234 856.641 149.234C854.922 149.234 853.527 148.637 852.457 147.441C851.395 146.246 850.863 144.664 850.863 142.695V142.543ZM853.043 142.801C853.043 144.207 853.367 145.336 854.016 146.188C854.672 147.039 855.547 147.465 856.641 147.465C857.742 147.465 858.617 147.035 859.266 146.176C859.914 145.309 860.238 144.098 860.238 142.543C860.238 141.152 859.906 140.027 859.242 139.168C858.586 138.301 857.711 137.867 856.617 137.867C855.547 137.867 854.684 138.293 854.027 139.145C853.371 139.996 853.043 141.215 853.043 142.801ZM867.176 136.32L867.246 137.914C868.215 136.695 869.48 136.086 871.043 136.086C873.723 136.086 875.074 137.598 875.098 140.621V149H872.93V140.609C872.922 139.695 872.711 139.02 872.297 138.582C871.891 138.145 871.254 137.926 870.387 137.926C869.684 137.926 869.066 138.113 868.535 138.488C868.004 138.863 867.59 139.355 867.293 139.965V149H865.125V136.32H867.176Z" fill="white"/>
<path d="M735.094 203H732.832V195.113H724.23V203H721.98V185.938H724.23V193.273H732.832V185.938H735.094V203ZM744.012 203.234C742.293 203.234 740.895 202.672 739.816 201.547C738.738 200.414 738.199 198.902 738.199 197.012V196.613C738.199 195.355 738.438 194.234 738.914 193.25C739.398 192.258 740.07 191.484 740.93 190.93C741.797 190.367 742.734 190.086 743.742 190.086C745.391 190.086 746.672 190.629 747.586 191.715C748.5 192.801 748.957 194.355 748.957 196.379V197.281H740.367C740.398 198.531 740.762 199.543 741.457 200.316C742.16 201.082 743.051 201.465 744.129 201.465C744.895 201.465 745.543 201.309 746.074 200.996C746.605 200.684 747.07 200.27 747.469 199.754L748.793 200.785C747.73 202.418 746.137 203.234 744.012 203.234ZM743.742 191.867C742.867 191.867 742.133 192.188 741.539 192.828C740.945 193.461 740.578 194.352 740.438 195.5H746.789V195.336C746.727 194.234 746.43 193.383 745.898 192.781C745.367 192.172 744.648 191.867 743.742 191.867ZM759.305 203C759.18 202.75 759.078 202.305 759 201.664C757.992 202.711 756.789 203.234 755.391 203.234C754.141 203.234 753.113 202.883 752.309 202.18C751.512 201.469 751.113 200.57 751.113 199.484C751.113 198.164 751.613 197.141 752.613 196.414C753.621 195.68 755.035 195.312 756.855 195.312H758.965V194.316C758.965 193.559 758.738 192.957 758.285 192.512C757.832 192.059 757.164 191.832 756.281 191.832C755.508 191.832 754.859 192.027 754.336 192.418C753.812 192.809 753.551 193.281 753.551 193.836H751.371C751.371 193.203 751.594 192.594 752.039 192.008C752.492 191.414 753.102 190.945 753.867 190.602C754.641 190.258 755.488 190.086 756.41 190.086C757.871 190.086 759.016 190.453 759.844 191.188C760.672 191.914 761.102 192.918 761.133 194.199V200.035C761.133 201.199 761.281 202.125 761.578 202.812V203H759.305ZM755.707 201.348C756.387 201.348 757.031 201.172 757.641 200.82C758.25 200.469 758.691 200.012 758.965 199.449V196.848H757.266C754.609 196.848 753.281 197.625 753.281 199.18C753.281 199.859 753.508 200.391 753.961 200.773C754.414 201.156 754.996 201.348 755.707 201.348ZM766.887 203H764.719V185H766.887V203ZM773.309 187.25V190.32H775.676V191.996H773.309V199.859C773.309 200.367 773.414 200.75 773.625 201.008C773.836 201.258 774.195 201.383 774.703 201.383C774.953 201.383 775.297 201.336 775.734 201.242V203C775.164 203.156 774.609 203.234 774.07 203.234C773.102 203.234 772.371 202.941 771.879 202.355C771.387 201.77 771.141 200.938 771.141 199.859V191.996H768.832V190.32H771.141V187.25H773.309ZM780.387 191.855C781.348 190.676 782.598 190.086 784.137 190.086C786.816 190.086 788.168 191.598 788.191 194.621V203H786.023V194.609C786.016 193.695 785.805 193.02 785.391 192.582C784.984 192.145 784.348 191.926 783.48 191.926C782.777 191.926 782.16 192.113 781.629 192.488C781.098 192.863 780.684 193.355 780.387 193.965V203H778.219V185H780.387V191.855ZM799.98 196.32V203H797.73V185.938H804.023C805.891 185.938 807.352 186.414 808.406 187.367C809.469 188.32 810 189.582 810 191.152C810 192.809 809.48 194.086 808.441 194.984C807.41 195.875 805.93 196.32 804 196.32H799.98ZM799.98 194.48H804.023C805.227 194.48 806.148 194.199 806.789 193.637C807.43 193.066 807.75 192.246 807.75 191.176C807.75 190.16 807.43 189.348 806.789 188.738C806.148 188.129 805.27 187.812 804.152 187.789H799.98V194.48ZM818.66 192.266C818.332 192.211 817.977 192.184 817.594 192.184C816.172 192.184 815.207 192.789 814.699 194V203H812.531V190.32H814.641L814.676 191.785C815.387 190.652 816.395 190.086 817.699 190.086C818.121 190.086 818.441 190.141 818.66 190.25V192.266ZM819.855 196.543C819.855 195.301 820.098 194.184 820.582 193.191C821.074 192.199 821.754 191.434 822.621 190.895C823.496 190.355 824.492 190.086 825.609 190.086C827.336 190.086 828.73 190.684 829.793 191.879C830.863 193.074 831.398 194.664 831.398 196.648V196.801C831.398 198.035 831.16 199.145 830.684 200.129C830.215 201.105 829.539 201.867 828.656 202.414C827.781 202.961 826.773 203.234 825.633 203.234C823.914 203.234 822.52 202.637 821.449 201.441C820.387 200.246 819.855 198.664 819.855 196.695V196.543ZM822.035 196.801C822.035 198.207 822.359 199.336 823.008 200.188C823.664 201.039 824.539 201.465 825.633 201.465C826.734 201.465 827.609 201.035 828.258 200.176C828.906 199.309 829.23 198.098 829.23 196.543C829.23 195.152 828.898 194.027 828.234 193.168C827.578 192.301 826.703 191.867 825.609 191.867C824.539 191.867 823.676 192.293 823.02 193.145C822.363 193.996 822.035 195.215 822.035 196.801ZM836.156 190.32L836.215 191.727C837.145 190.633 838.398 190.086 839.977 190.086C841.75 190.086 842.957 190.766 843.598 192.125C844.02 191.516 844.566 191.023 845.238 190.648C845.918 190.273 846.719 190.086 847.641 190.086C850.422 190.086 851.836 191.559 851.883 194.504V203H849.715V194.633C849.715 193.727 849.508 193.051 849.094 192.605C848.68 192.152 847.984 191.926 847.008 191.926C846.203 191.926 845.535 192.168 845.004 192.652C844.473 193.129 844.164 193.773 844.078 194.586V203H841.898V194.691C841.898 192.848 840.996 191.926 839.191 191.926C837.77 191.926 836.797 192.531 836.273 193.742V203H834.105V190.32H836.156ZM854.59 196.543C854.59 195.301 854.832 194.184 855.316 193.191C855.809 192.199 856.488 191.434 857.355 190.895C858.23 190.355 859.227 190.086 860.344 190.086C862.07 190.086 863.465 190.684 864.527 191.879C865.598 193.074 866.133 194.664 866.133 196.648V196.801C866.133 198.035 865.895 199.145 865.418 200.129C864.949 201.105 864.273 201.867 863.391 202.414C862.516 202.961 861.508 203.234 860.367 203.234C858.648 203.234 857.254 202.637 856.184 201.441C855.121 200.246 854.59 198.664 854.59 196.695V196.543ZM856.77 196.801C856.77 198.207 857.094 199.336 857.742 200.188C858.398 201.039 859.273 201.465 860.367 201.465C861.469 201.465 862.344 201.035 862.992 200.176C863.641 199.309 863.965 198.098 863.965 196.543C863.965 195.152 863.633 194.027 862.969 193.168C862.312 192.301 861.438 191.867 860.344 191.867C859.273 191.867 858.41 192.293 857.754 193.145C857.098 193.996 856.77 195.215 856.77 196.801ZM871.793 187.25V190.32H874.16V191.996H871.793V199.859C871.793 200.367 871.898 200.75 872.109 201.008C872.32 201.258 872.68 201.383 873.188 201.383C873.438 201.383 873.781 201.336 874.219 201.242V203C873.648 203.156 873.094 203.234 872.555 203.234C871.586 203.234 870.855 202.941 870.363 202.355C869.871 201.77 869.625 200.938 869.625 199.859V191.996H867.316V190.32H869.625V187.25H871.793ZM879.059 203H876.891V190.32H879.059V203ZM876.715 186.957C876.715 186.605 876.82 186.309 877.031 186.066C877.25 185.824 877.57 185.703 877.992 185.703C878.414 185.703 878.734 185.824 878.953 186.066C879.172 186.309 879.281 186.605 879.281 186.957C879.281 187.309 879.172 187.602 878.953 187.836C878.734 188.07 878.414 188.188 877.992 188.188C877.57 188.188 877.25 188.07 877.031 187.836C876.82 187.602 876.715 187.309 876.715 186.957ZM881.965 196.543C881.965 195.301 882.207 194.184 882.691 193.191C883.184 192.199 883.863 191.434 884.73 190.895C885.605 190.355 886.602 190.086 887.719 190.086C889.445 190.086 890.84 190.684 891.902 191.879C892.973 193.074 893.508 194.664 893.508 196.648V196.801C893.508 198.035 893.27 199.145 892.793 200.129C892.324 201.105 891.648 201.867 890.766 202.414C889.891 202.961 888.883 203.234 887.742 203.234C886.023 203.234 884.629 202.637 883.559 201.441C882.496 200.246 881.965 198.664 881.965 196.695V196.543ZM884.145 196.801C884.145 198.207 884.469 199.336 885.117 200.188C885.773 201.039 886.648 201.465 887.742 201.465C888.844 201.465 889.719 201.035 890.367 200.176C891.016 199.309 891.34 198.098 891.34 196.543C891.34 195.152 891.008 194.027 890.344 193.168C889.688 192.301 888.812 191.867 887.719 191.867C886.648 191.867 885.785 192.293 885.129 193.145C884.473 193.996 884.145 195.215 884.145 196.801ZM898.277 190.32L898.348 191.914C899.316 190.695 900.582 190.086 902.145 190.086C904.824 190.086 906.176 191.598 906.199 194.621V203H904.031V194.609C904.023 193.695 903.812 193.02 903.398 192.582C902.992 192.145 902.355 191.926 901.488 191.926C900.785 191.926 900.168 192.113 899.637 192.488C899.105 192.863 898.691 193.355 898.395 193.965V203H896.227V190.32H898.277ZM727.008 225.395C725.078 224.84 723.672 224.16 722.789 223.355C721.914 222.543 721.477 221.543 721.477 220.355C721.477 219.012 722.012 217.902 723.082 217.027C724.16 216.145 725.559 215.703 727.277 215.703C728.449 215.703 729.492 215.93 730.406 216.383C731.328 216.836 732.039 217.461 732.539 218.258C733.047 219.055 733.301 219.926 733.301 220.871H731.039C731.039 219.84 730.711 219.031 730.055 218.445C729.398 217.852 728.473 217.555 727.277 217.555C726.168 217.555 725.301 217.801 724.676 218.293C724.059 218.777 723.75 219.453 723.75 220.32C723.75 221.016 724.043 221.605 724.629 222.09C725.223 222.566 726.227 223.004 727.641 223.402C729.062 223.801 730.172 224.242 730.969 224.727C731.773 225.203 732.367 225.762 732.75 226.402C733.141 227.043 733.336 227.797 733.336 228.664C733.336 230.047 732.797 231.156 731.719 231.992C730.641 232.82 729.199 233.234 727.395 233.234C726.223 233.234 725.129 233.012 724.113 232.566C723.098 232.113 722.312 231.496 721.758 230.715C721.211 229.934 720.938 229.047 720.938 228.055H723.199C723.199 229.086 723.578 229.902 724.336 230.504C725.102 231.098 726.121 231.395 727.395 231.395C728.582 231.395 729.492 231.152 730.125 230.668C730.758 230.184 731.074 229.523 731.074 228.688C731.074 227.852 730.781 227.207 730.195 226.754C729.609 226.293 728.547 225.84 727.008 225.395ZM741.152 233.234C739.434 233.234 738.035 232.672 736.957 231.547C735.879 230.414 735.34 228.902 735.34 227.012V226.613C735.34 225.355 735.578 224.234 736.055 223.25C736.539 222.258 737.211 221.484 738.07 220.93C738.938 220.367 739.875 220.086 740.883 220.086C742.531 220.086 743.812 220.629 744.727 221.715C745.641 222.801 746.098 224.355 746.098 226.379V227.281H737.508C737.539 228.531 737.902 229.543 738.598 230.316C739.301 231.082 740.191 231.465 741.27 231.465C742.035 231.465 742.684 231.309 743.215 230.996C743.746 230.684 744.211 230.27 744.609 229.754L745.934 230.785C744.871 232.418 743.277 233.234 741.152 233.234ZM740.883 221.867C740.008 221.867 739.273 222.188 738.68 222.828C738.086 223.461 737.719 224.352 737.578 225.5H743.93V225.336C743.867 224.234 743.57 223.383 743.039 222.781C742.508 222.172 741.789 221.867 740.883 221.867ZM754.746 222.266C754.418 222.211 754.062 222.184 753.68 222.184C752.258 222.184 751.293 222.789 750.785 224V233H748.617V220.32H750.727L750.762 221.785C751.473 220.652 752.48 220.086 753.785 220.086C754.207 220.086 754.527 220.141 754.746 220.25V222.266ZM761.145 230.059L764.285 220.32H766.5L761.953 233H760.301L755.707 220.32H757.922L761.145 230.059ZM770.941 233H768.773V220.32H770.941V233ZM768.598 216.957C768.598 216.605 768.703 216.309 768.914 216.066C769.133 215.824 769.453 215.703 769.875 215.703C770.297 215.703 770.617 215.824 770.836 216.066C771.055 216.309 771.164 216.605 771.164 216.957C771.164 217.309 771.055 217.602 770.836 217.836C770.617 218.07 770.297 218.188 769.875 218.188C769.453 218.188 769.133 218.07 768.914 217.836C768.703 217.602 768.598 217.309 768.598 216.957ZM779.508 231.465C780.281 231.465 780.957 231.23 781.535 230.762C782.113 230.293 782.434 229.707 782.496 229.004H784.547C784.508 229.73 784.258 230.422 783.797 231.078C783.336 231.734 782.719 232.258 781.945 232.648C781.18 233.039 780.367 233.234 779.508 233.234C777.781 233.234 776.406 232.66 775.383 231.512C774.367 230.355 773.859 228.777 773.859 226.777V226.414C773.859 225.18 774.086 224.082 774.539 223.121C774.992 222.16 775.641 221.414 776.484 220.883C777.336 220.352 778.34 220.086 779.496 220.086C780.918 220.086 782.098 220.512 783.035 221.363C783.98 222.215 784.484 223.32 784.547 224.68H782.496C782.434 223.859 782.121 223.188 781.559 222.664C781.004 222.133 780.316 221.867 779.496 221.867C778.395 221.867 777.539 222.266 776.93 223.062C776.328 223.852 776.027 224.996 776.027 226.496V226.906C776.027 228.367 776.328 229.492 776.93 230.281C777.531 231.07 778.391 231.465 779.508 231.465ZM792.246 233.234C790.527 233.234 789.129 232.672 788.051 231.547C786.973 230.414 786.434 228.902 786.434 227.012V226.613C786.434 225.355 786.672 224.234 787.148 223.25C787.633 222.258 788.305 221.484 789.164 220.93C790.031 220.367 790.969 220.086 791.977 220.086C793.625 220.086 794.906 220.629 795.82 221.715C796.734 222.801 797.191 224.355 797.191 226.379V227.281H788.602C788.633 228.531 788.996 229.543 789.691 230.316C790.395 231.082 791.285 231.465 792.363 231.465C793.129 231.465 793.777 231.309 794.309 230.996C794.84 230.684 795.305 230.27 795.703 229.754L797.027 230.785C795.965 232.418 794.371 233.234 792.246 233.234ZM791.977 221.867C791.102 221.867 790.367 222.188 789.773 222.828C789.18 223.461 788.812 224.352 788.672 225.5H795.023V225.336C794.961 224.234 794.664 223.383 794.133 222.781C793.602 222.172 792.883 221.867 791.977 221.867ZM807.094 229.637C807.094 229.051 806.871 228.598 806.426 228.277C805.988 227.949 805.219 227.668 804.117 227.434C803.023 227.199 802.152 226.918 801.504 226.59C800.863 226.262 800.387 225.871 800.074 225.418C799.77 224.965 799.617 224.426 799.617 223.801C799.617 222.762 800.055 221.883 800.93 221.164C801.812 220.445 802.938 220.086 804.305 220.086C805.742 220.086 806.906 220.457 807.797 221.199C808.695 221.941 809.145 222.891 809.145 224.047H806.965C806.965 223.453 806.711 222.941 806.203 222.512C805.703 222.082 805.07 221.867 804.305 221.867C803.516 221.867 802.898 222.039 802.453 222.383C802.008 222.727 801.785 223.176 801.785 223.73C801.785 224.254 801.992 224.648 802.406 224.914C802.82 225.18 803.566 225.434 804.645 225.676C805.73 225.918 806.609 226.207 807.281 226.543C807.953 226.879 808.449 227.285 808.77 227.762C809.098 228.23 809.262 228.805 809.262 229.484C809.262 230.617 808.809 231.527 807.902 232.215C806.996 232.895 805.82 233.234 804.375 233.234C803.359 233.234 802.461 233.055 801.68 232.695C800.898 232.336 800.285 231.836 799.84 231.195C799.402 230.547 799.184 229.848 799.184 229.098H801.352C801.391 229.824 801.68 230.402 802.219 230.832C802.766 231.254 803.484 231.465 804.375 231.465C805.195 231.465 805.852 231.301 806.344 230.973C806.844 230.637 807.094 230.191 807.094 229.637Z" fill="white"/>
<path d="M1432 21H1422V11H1425V15.77L1431.98 9L1434 11.03L1427.15 18H1432V21Z" fill="black"/>
</svg>
